<?xml version="1.0" encoding="UTF-8"?><svg id="Ebene_1" xmlns="http://www.w3.org/2000/svg" viewBox="0 0 1000 1000"><defs><style>.cls-1{fill:#ebebeb;}.cls-2{fill:#fff;}.cls-3{fill:#ffbf9d;}.cls-4{fill:#ff9a6c;}.cls-5{fill:#7e6c65;}.cls-6{fill:#e0e0e0;}.cls-7{fill:#455a64;}.cls-8{fill:#263238;}.cls-9{opacity:.3;}</style></defs><rect class="cls-2" x="690.52" y="640.21" width="11.49" height="4.62"/><rect class="cls-7" x="353.86" y="492.65" width="284.91" height="18.93"/><rect class="cls-2" x="482.98" y="496.09" width="28.61" height="11.5"/><path class="cls-8" d="m506.93,501.54c-6.54.86-13.16.86-19.7,0,6.54-.86,13.16-.86,19.7,0Z"/><rect class="cls-7" x="353.86" y="699.56" width="284.91" height="18.93"/><rect class="cls-2" x="482.98" y="703" width="28.61" height="11.5"/><path class="cls-8" d="m506.93,708.45c-6.54.86-13.16.86-19.7,0,6.54-.86,13.16-.86,19.7,0Z"/><rect class="cls-7" x="353.86" y="911.57" width="284.91" height="18.93"/><rect class="cls-2" x="482.98" y="914.98" width="28.61" height="11.5"/><path class="cls-8" d="m506.93,920.46c-6.54.86-13.16.86-19.7,0,6.54-.86,13.16-.86,19.7,0Z"/><rect class="cls-7" x="657.63" y="492.65" width="284.91" height="18.93"/><rect class="cls-2" x="786.75" y="496.09" width="28.61" height="11.5"/><path class="cls-8" d="m810.7,501.54c-6.54.86-13.16.86-19.7,0,6.54-.86,13.16-.86,19.7,0Z"/><rect class="cls-7" x="657.63" y="699.56" width="284.91" height="18.93"/><rect class="cls-2" x="786.75" y="703" width="28.61" height="11.5"/><path class="cls-8" d="m810.7,708.45c-6.54.86-13.16.86-19.7,0,6.54-.86,13.16-.86,19.7,0Z"/><rect class="cls-7" x="657.63" y="911.57" width="284.91" height="18.93"/><rect class="cls-2" x="786.75" y="882.57" width="28.61" height="11.5"/><path class="cls-8" d="m810.7,888.05c-6.54.86-13.16.86-19.7,0,6.54-.86,13.16-.86,19.7,0Z"/><rect class="cls-7" x="49.49" y="491.84" width="284.91" height="18.93"/><rect class="cls-2" x="178.61" y="495.28" width="28.61" height="11.5"/><path class="cls-8" d="m202.57,500.73c-6.54.86-13.16.86-19.7,0,6.54-.86,13.16-.86,19.7,0Z"/><rect class="cls-7" x="49.49" y="698.75" width="284.91" height="18.93"/><rect class="cls-2" x="178.61" y="702.19" width="28.61" height="11.5"/><path class="cls-8" d="m202.57,707.65c-6.54.86-13.16.86-19.7,0,6.54-.86,13.16-.86,19.7,0Z"/><rect class="cls-7" x="49.49" y="910.76" width="284.91" height="18.93"/><rect class="cls-2" x="178.61" y="881.76" width="28.61" height="11.5"/><path class="cls-8" d="m202.57,887.24c-6.54.86-13.16.86-19.7,0,6.54-.86,13.16-.86,19.7,0Z"/><ellipse class="cls-2" cx="309.2" cy="185.49" rx="78.13" ry="78.28" transform="translate(-46.45 126.11) rotate(-21.48)"/><path class="cls-8" d="m278.03,257.18l1.18.48,3.46,1.36,2.51,1c.95.3,2.03.55,3.19.88l3.74,1c1.43.36,2.88.63,4.34.83,7.46,1.31,15.08,1.47,22.6.48,9.99-1.2,19.66-4.32,28.47-9.19l3.69-2.08c1.18-.78,2.36-1.66,3.54-2.51s2.51-1.63,3.57-2.51l3.44-2.96,3.16-2.99.18-.2c1.08-1.1,2.16-2.26,3.24-3.39s1.98-2.51,2.99-3.74c1.04-1.32,1.99-2.7,2.86-4.14,1.86-2.76,3.54-5.65,5.02-8.64.73-1.53,1.58-3.04,2.23-4.62l2.51-6.68.28-.73.68-2.51c.43-1.73.95-3.44,1.33-5.2.69-3.58,1.15-7.2,1.38-10.85.25-3.73.25-7.47,0-11.2-.15-1.88-.48-3.77-.73-5.65-.15-.95-.2-1.91-.43-2.86l-.68-2.81c-.62-3.05-1.46-6.06-2.51-8.99-.58-1.46-1.18-2.91-1.76-4.39l-2.31-4.62-.75-1.31-1.48-2.51-1.51-2.51-1.73-2.51-1.76-2.51-.88-1.26-1-1.18-7.93-8.39-.58-.55c-12.62-11.38-28.61-18.33-45.54-19.78h-13.88l-1.53.23-3.01.4-3.01.43-2.94.7-2.91.7-1.46.35-4.8,1.63-4.42,1.73c-2.88,1.21-5.67,2.61-8.36,4.19l-2.51,1.46c-.83.48-1.58,1.08-2.36,1.61-1.56,1.13-3.14,2.18-4.64,3.34-5.73,4.67-10.84,10.06-15.19,16.04-1.03,1.46-1.93,3.01-2.89,4.52l-1.41,2.23c-.13.2-.25.41-.35.63-1.05,2.16-2.11,4.27-3.16,6.38-.7,1.58-1.23,3.21-1.83,4.8-1.18,3.13-2.15,6.33-2.89,9.59-.4,1.58-.7,3.18-.9,4.8-.23,1.58-.55,3.16-.68,4.75s-.2,3.16-.28,4.72v4.57h0c0,1.53.13,3.04.18,4.54s.38,2.94.53,4.39.38,2.86.63,4.27l.98,4.12c2.4,9.77,6.67,18.98,12.55,27.14,4.41,6.16,9.74,11.61,15.79,16.17,1.13.9,2.31,1.74,3.54,2.51l3.29,2.06c1.03.6,1.96,1.23,2.84,1.71l2.51,1.21,3.36,1.61,1.15.53-1.1-.6-3.31-1.71-2.51-1.23c-.88-.5-1.81-1.13-2.81-1.76l-3.26-2.06c-1.2-.78-2.37-1.62-3.49-2.51-5.91-4.68-11.09-10.22-15.34-16.44-5.89-8.09-10.15-17.25-12.55-26.96-.33-1.36-.65-2.71-.95-4.09s-.4-2.81-.6-4.24c-.24-1.45-.41-2.9-.5-4.37,0-1.46-.13-2.96-.18-4.47s0-3.16,0-4.34v-.23l.3-4.64c.13-1.58.45-3.11.68-4.69.21-1.6.52-3.18.9-4.75.78-3.25,1.78-6.45,2.99-9.57.6-1.56,1.13-3.19,1.83-4.72,1.03-2.11,2.08-4.22,3.14-6.35,0-.2.23-.4.35-.6.45-.73.93-1.46,1.38-2.21.95-1.48,1.86-3.01,2.89-4.47,2.12-2.91,4.42-5.68,6.9-8.29,2.53-2.7,5.25-5.21,8.13-7.53,1.48-1.15,3.06-2.18,4.59-3.29.78-.53,1.51-1.15,2.33-1.61l2.51-1.43c3.35-1.9,6.82-3.58,10.39-5.02l5.57-1.88,1.41-.48,1.43-.35,2.89-.68,2.91-.7,2.99-.4,2.96-.43,1.51-.2h13.73c16.73,1.44,32.53,8.3,44.99,19.56l.55.53,7.86,8.31,1,1.15.85,1.23,1.76,2.51,1.71,2.51,1.48,2.51,1.48,2.51.73,1.28.6,1.36c.83,1.78,1.63,3.57,2.51,5.35,1.36,3.61,2.48,7.31,3.36,11.07l.65,2.79c.23.93.28,1.88.43,2.81.25,1.88.58,3.74.73,5.6.26,3.69.26,7.39,0,11.07-.21,3.6-.66,7.18-1.33,10.72-.38,1.76-.88,3.44-1.31,5.02l-.68,2.51c-.05.22-.12.44-.2.65l-2.51,6.63c-.65,1.58-1.48,3.06-2.18,4.57-1.48,2.97-3.16,5.84-5.02,8.59-.87,1.35-1.83,2.65-2.86,3.89-.98,1.26-1.91,2.51-2.94,3.72l-3.21,3.39-1.58,1.66-.15.15-5.02,4.29c-1.1.98-2.39,1.73-3.54,2.51s-2.33,1.71-3.51,2.51l-3.64,2.08c-8.67,5.02-18.22,8.3-28.14,9.67-7.46,1.04-15.04.93-22.47-.33-1.45-.17-2.89-.42-4.32-.75l-3.74-.98c-1.15-.3-2.23-.53-3.19-.83l-2.51-.95-3.51-1.26-1.18-.4Z"/><path class="cls-2" d="m93.1,372.19c-6.86-1.24-11.41-7.81-10.17-14.68,1.24-6.86,7.81-11.41,14.68-10.17s11.41,7.81,10.17,14.68c-.34,1.88-1.1,3.65-2.22,5.19-2.86,3.9-7.69,5.84-12.45,4.98Z"/><path class="cls-8" d="m382.28,285.17s.25.18.73.38c.72.32,1.48.55,2.26.68,2.89.56,5.88.09,8.46-1.33,3.9-2.14,6.44-6.13,6.73-10.57.21-2.63-.39-5.26-1.73-7.53-2.9-4.97-8.72-7.45-14.31-6.1-4.97,1.14-8.82,5.06-9.87,10.04-.43,1.99-.38,4.05.13,6.03.72,2.85,2.42,5.35,4.8,7.08.63.47,1.31.87,2.03,1.18.48.23.75.33.75.28s-1-.5-2.51-1.73c-2.2-1.77-3.74-4.23-4.37-6.98-.45-1.86-.45-3.81,0-5.67.5-2.14,1.56-4.11,3.09-5.7,1.67-1.77,3.83-3,6.2-3.51,2.52-.56,5.16-.31,7.53.7,2.38,1.03,4.38,2.78,5.7,5.02,1.25,2.09,1.84,4.5,1.68,6.93-.27,4.17-2.59,7.94-6.2,10.04-2.45,1.39-5.29,1.94-8.08,1.56-1.93-.38-2.96-.85-3.01-.78Z"/><path class="cls-8" d="m287.04,172.32h11.83c0-5.55,4.49-10.04,10.04-10.05.09,0,.19,0,.28,0,4.08-.16,7.81,2.29,9.29,6.1,1.26,3.15.95,6.71-.85,9.59-2.01,3.31-6.4,6.33-14.39,5.02v26.49h11.7v-15.72c9.88-2.89,16.6-12.03,16.42-22.32,0-17.3-15.52-21.32-22.17-21.32-5.07.1-22.37,1.31-22.14,22.19Z"/><rect class="cls-8" x="303.21" y="214.98" width="11.88" height="11.1"/><g id="freepik--Bottle--inject-105"><rect class="cls-7" x="384.84" y="334.21" width="9.46" height="22.46"/><path class="cls-8" d="m367.9,493.81v-82.62c0-12.01,9.74-21.74,21.74-21.74h0c12.01,0,21.74,9.74,21.74,21.74h0v82.62h-43.49Z"/><rect class="cls-8" x="383.19" y="346.58" width="12.89" height="69.27"/><rect class="cls-1" x="374.24" y="417.06" width="28.19" height="54.88"/><path class="cls-7" d="m411.38,493.81s-.57-.32-1.63-.81c-1.51-.68-3.06-1.27-4.64-1.77-2.33-.77-4.7-1.41-7.11-1.92-2.92-.67-5.9-1.05-8.9-1.13-3.02-.03-6.04.19-9.02.66-2.41.4-4.78,1.05-7.06,1.93-2.08.89-4.09,1.93-6.03,3.11.43-.44.91-.83,1.44-1.15,1.39-.95,2.86-1.75,4.4-2.4,2.31-.99,4.72-1.71,7.19-2.15,3-.51,6.04-.75,9.08-.72,3.04.08,6.06.48,9.02,1.2,2.41.54,4.79,1.23,7.12,2.07,1.58.55,3.12,1.21,4.6,1.99.57.27,1.09.64,1.53,1.09h0Z"/><path class="cls-7" d="m410,411.56c.19,0,.33,16.31.33,36.41s-.14,36.41-.33,36.41-.33-16.31-.33-36.41.15-36.41.33-36.41Z"/><path class="cls-7" d="m386.94,390.83c0,.11-1.7.32-4.24,1.39-6.75,2.79-11.37,9.12-11.98,16.4-.25,2.75.09,4.44,0,4.46-.15-.37-.25-.77-.29-1.17-.17-1.1-.21-2.21-.15-3.33.38-7.54,5.22-14.12,12.29-16.75,1.03-.39,2.11-.69,3.19-.87.38-.11.77-.16,1.17-.14h0Z"/><path class="cls-7" d="m384.8,388.3c-.18,0-.33-8.38-.33-18.73s.15-18.73.33-18.73.33,8.38.33,18.73-.09,18.73-.33,18.73Z"/><rect class="cls-5" x="383.19" y="360.71" width="12.89" height="19.66"/><path class="cls-7" d="m391.61,434.47c-3.95.34-7.92.45-11.87.33-3.96.11-7.93,0-11.87-.33,3.95-.33,7.92-.45,11.87-.33,3.96-.11,7.93,0,11.87.33Z"/><rect class="cls-6" x="367.9" y="440.16" width="21.32" height="21.32"/></g><g id="freepik--Bottle--inject-105-2"><rect class="cls-7" x="438.41" y="334.21" width="9.46" height="22.46"/><path class="cls-8" d="m421.46,493.81v-82.62c0-12.01,9.74-21.74,21.74-21.74h0c12.01,0,21.74,9.74,21.74,21.74h0v82.62h-43.49Z"/><rect class="cls-8" x="436.75" y="346.58" width="12.89" height="69.27"/><rect class="cls-1" x="427.8" y="417.06" width="28.19" height="54.88"/><path class="cls-7" d="m464.94,493.81s-.57-.32-1.63-.81c-1.51-.68-3.06-1.27-4.64-1.77-2.33-.77-4.7-1.41-7.11-1.92-2.92-.67-5.9-1.05-8.9-1.13-3.02-.03-6.04.19-9.02.66-2.41.4-4.78,1.05-7.06,1.93-2.08.89-4.09,1.93-6.03,3.11.43-.44.91-.83,1.44-1.15,1.39-.95,2.86-1.75,4.4-2.4,2.31-.99,4.72-1.71,7.19-2.15,3-.51,6.04-.75,9.08-.72,3.04.08,6.06.48,9.02,1.2,2.41.54,4.79,1.23,7.12,2.07,1.58.55,3.12,1.21,4.6,1.99.57.27,1.09.64,1.53,1.09h0Z"/><path class="cls-7" d="m463.56,411.56c.19,0,.33,16.31.33,36.41s-.14,36.41-.33,36.41-.33-16.31-.33-36.41.15-36.41.33-36.41Z"/><path class="cls-7" d="m440.5,390.83c0,.11-1.7.32-4.24,1.39-6.75,2.79-11.37,9.12-11.98,16.4-.25,2.75.09,4.44,0,4.46-.15-.37-.25-.77-.29-1.17-.17-1.1-.21-2.21-.15-3.33.38-7.54,5.22-14.12,12.29-16.75,1.03-.39,2.11-.69,3.19-.87.38-.11.77-.16,1.17-.14h0Z"/><path class="cls-7" d="m438.36,388.3c-.18,0-.33-8.38-.33-18.73s.15-18.73.33-18.73.33,8.38.33,18.73-.09,18.73-.33,18.73Z"/><rect class="cls-5" x="436.75" y="360.71" width="12.89" height="19.66"/><path class="cls-7" d="m445.17,434.47c-3.95.34-7.92.45-11.87.33-3.96.11-7.93,0-11.87-.33,3.95-.33,7.92-.45,11.87-.33,3.96-.11,7.93,0,11.87.33Z"/><rect class="cls-6" x="421.46" y="440.16" width="21.32" height="21.32"/></g><g id="freepik--Bottle--inject-105-3"><rect class="cls-7" x="491.97" y="334.21" width="9.46" height="22.46"/><path class="cls-8" d="m475.02,493.81v-82.62c0-12.01,9.74-21.74,21.74-21.74h0c12.01,0,21.74,9.74,21.74,21.74h0v82.62h-43.49Z"/><rect class="cls-8" x="490.31" y="346.58" width="12.89" height="69.27"/><rect class="cls-1" x="481.36" y="417.06" width="28.19" height="54.88"/><path class="cls-7" d="m518.5,493.81s-.57-.32-1.63-.81c-1.51-.68-3.06-1.27-4.64-1.77-2.33-.77-4.7-1.41-7.11-1.92-2.92-.67-5.9-1.05-8.9-1.13-3.02-.03-6.04.19-9.02.66-2.41.4-4.78,1.05-7.06,1.93-2.08.89-4.09,1.93-6.03,3.11.43-.44.91-.83,1.44-1.15,1.39-.95,2.86-1.75,4.4-2.4,2.31-.99,4.72-1.71,7.19-2.15,3-.51,6.04-.75,9.08-.72,3.04.08,6.06.48,9.02,1.2,2.41.54,4.79,1.23,7.12,2.07,1.58.55,3.12,1.21,4.6,1.99.57.27,1.09.64,1.53,1.09h0Z"/><path class="cls-7" d="m517.12,411.56c.19,0,.33,16.31.33,36.41s-.14,36.41-.33,36.41-.33-16.31-.33-36.41.15-36.41.33-36.41Z"/><path class="cls-7" d="m494.06,390.83c0,.11-1.7.32-4.24,1.39-6.75,2.79-11.37,9.12-11.98,16.4-.25,2.75.09,4.44,0,4.46-.15-.37-.25-.77-.29-1.17-.17-1.1-.21-2.21-.15-3.33.38-7.54,5.22-14.12,12.29-16.75,1.03-.39,2.11-.69,3.19-.87.38-.11.77-.16,1.17-.14h0Z"/><path class="cls-7" d="m491.92,388.3c-.18,0-.33-8.38-.33-18.73s.15-18.73.33-18.73.33,8.38.33,18.73-.09,18.73-.33,18.73Z"/><rect class="cls-5" x="490.31" y="360.71" width="12.89" height="19.66"/><path class="cls-7" d="m498.73,434.47c-3.95.34-7.92.45-11.87.33-3.96.11-7.93,0-11.87-.33,3.95-.33,7.92-.45,11.87-.33,3.96-.11,7.93,0,11.87.33Z"/><rect class="cls-6" x="475.02" y="440.16" width="21.32" height="21.32"/></g><g id="freepik--Bottle--inject-105-4"><rect class="cls-7" x="545.53" y="334.21" width="9.46" height="22.46"/><path class="cls-8" d="m528.58,493.81v-82.62c0-12.01,9.74-21.74,21.74-21.74h0c12.01,0,21.74,9.74,21.74,21.74h0v82.62h-43.49Z"/><rect class="cls-8" x="543.87" y="346.58" width="12.89" height="69.27"/><rect class="cls-1" x="534.92" y="417.06" width="28.19" height="54.88"/><path class="cls-7" d="m572.06,493.81s-.57-.32-1.63-.81c-1.51-.68-3.06-1.27-4.64-1.77-2.33-.77-4.7-1.41-7.11-1.92-2.92-.67-5.9-1.05-8.9-1.13-3.02-.03-6.04.19-9.02.66-2.41.4-4.78,1.05-7.06,1.93-2.08.89-4.09,1.93-6.03,3.11.43-.44.91-.83,1.44-1.15,1.39-.95,2.86-1.75,4.4-2.4,2.31-.99,4.72-1.71,7.19-2.15,3-.51,6.04-.75,9.08-.72,3.04.08,6.06.48,9.02,1.2,2.41.54,4.79,1.23,7.12,2.07,1.58.55,3.12,1.21,4.6,1.99.57.27,1.09.64,1.53,1.09h0Z"/><path class="cls-7" d="m570.68,411.56c.19,0,.33,16.31.33,36.41s-.14,36.41-.33,36.41-.33-16.31-.33-36.41.15-36.41.33-36.41Z"/><path class="cls-7" d="m547.62,390.83c0,.11-1.7.32-4.24,1.39-6.75,2.79-11.37,9.12-11.98,16.4-.25,2.75.09,4.44,0,4.46-.15-.37-.25-.77-.29-1.17-.17-1.1-.21-2.21-.15-3.33.38-7.54,5.22-14.12,12.29-16.75,1.03-.39,2.11-.69,3.19-.87.38-.11.77-.16,1.17-.14h0Z"/><path class="cls-7" d="m545.48,388.3c-.18,0-.33-8.38-.33-18.73s.15-18.73.33-18.73.33,8.38.33,18.73-.09,18.73-.33,18.73Z"/><rect class="cls-5" x="543.87" y="360.71" width="12.89" height="19.66"/><path class="cls-7" d="m552.29,434.47c-3.95.34-7.92.45-11.87.33-3.96.11-7.93,0-11.87-.33,3.95-.33,7.92-.45,11.87-.33,3.96-.11,7.93,0,11.87.33Z"/><rect class="cls-6" x="528.58" y="440.16" width="21.32" height="21.32"/></g><g id="freepik--Bottle--inject-105-5"><rect class="cls-7" x="599.09" y="334.21" width="9.46" height="22.46"/><path class="cls-8" d="m582.14,493.81v-82.62c0-12.01,9.74-21.74,21.74-21.74h0c12.01,0,21.74,9.74,21.74,21.74h0v82.62h-43.49Z"/><rect class="cls-8" x="597.43" y="346.58" width="12.89" height="69.27"/><rect class="cls-1" x="588.48" y="417.06" width="28.19" height="54.88"/><path class="cls-7" d="m625.62,493.81s-.57-.32-1.63-.81c-1.51-.68-3.06-1.27-4.64-1.77-2.33-.77-4.7-1.41-7.11-1.92-2.92-.67-5.9-1.05-8.9-1.13-3.02-.03-6.04.19-9.02.66-2.41.4-4.78,1.05-7.06,1.93-2.08.89-4.09,1.93-6.03,3.11.43-.44.91-.83,1.44-1.15,1.39-.95,2.86-1.75,4.4-2.4,2.31-.99,4.72-1.71,7.19-2.15,3-.51,6.04-.75,9.08-.72,3.04.08,6.06.48,9.02,1.2,2.41.54,4.79,1.23,7.12,2.07,1.58.55,3.12,1.21,4.6,1.99.57.27,1.09.64,1.53,1.09h0Z"/><path class="cls-7" d="m624.25,411.56c.19,0,.33,16.31.33,36.41s-.14,36.41-.33,36.41-.33-16.31-.33-36.41.15-36.41.33-36.41Z"/><path class="cls-7" d="m601.18,390.83c0,.11-1.7.32-4.24,1.39-6.75,2.79-11.37,9.12-11.98,16.4-.25,2.75.09,4.44,0,4.46-.15-.37-.25-.77-.29-1.17-.17-1.1-.21-2.21-.15-3.33.38-7.54,5.22-14.12,12.29-16.75,1.03-.39,2.11-.69,3.19-.87.38-.11.77-.16,1.17-.14h0Z"/><path class="cls-7" d="m599.04,388.3c-.18,0-.33-8.38-.33-18.73s.15-18.73.33-18.73.33,8.38.33,18.73-.09,18.73-.33,18.73Z"/><rect class="cls-5" x="597.43" y="360.71" width="12.89" height="19.66"/><path class="cls-7" d="m605.85,434.47c-3.95.34-7.92.45-11.87.33-3.96.11-7.93,0-11.87-.33,3.95-.33,7.92-.45,11.87-.33,3.96-.11,7.93,0,11.87.33Z"/><rect class="cls-6" x="582.14" y="440.16" width="21.32" height="21.32"/></g><g id="freepik--Bottle--inject-105-6"><rect class="cls-7" x="688.61" y="333.24" width="9.46" height="22.46"/><path class="cls-8" d="m671.67,492.84v-82.62c0-12.01,9.74-21.74,21.74-21.74h0c12.01,0,21.74,9.74,21.74,21.74h0v82.62h-43.49Z"/><rect class="cls-8" x="686.95" y="345.61" width="12.89" height="69.27"/><rect class="cls-1" x="678" y="416.09" width="28.19" height="54.88"/><path class="cls-7" d="m715.15,492.84s-.57-.32-1.63-.81c-1.51-.68-3.06-1.27-4.64-1.77-2.33-.77-4.7-1.41-7.11-1.92-2.92-.67-5.9-1.05-8.9-1.13-3.02-.03-6.04.19-9.02.66-2.41.4-4.78,1.05-7.06,1.93-2.08.89-4.09,1.93-6.03,3.11.43-.44.91-.83,1.44-1.15,1.39-.95,2.86-1.75,4.4-2.4,2.31-.99,4.72-1.71,7.19-2.15,3-.51,6.04-.75,9.08-.72,3.04.08,6.06.48,9.02,1.2,2.41.54,4.79,1.23,7.12,2.07,1.58.55,3.12,1.21,4.6,1.99.57.27,1.09.64,1.53,1.09h0Z"/><path class="cls-7" d="m713.77,410.59c.19,0,.33,16.31.33,36.41s-.14,36.41-.33,36.41-.33-16.31-.33-36.41.15-36.41.33-36.41Z"/><path class="cls-7" d="m690.71,389.86c0,.11-1.7.32-4.24,1.39-6.75,2.79-11.37,9.12-11.98,16.4-.25,2.75.09,4.44,0,4.46-.15-.37-.25-.77-.29-1.17-.17-1.1-.21-2.21-.15-3.33.38-7.54,5.22-14.12,12.29-16.75,1.03-.39,2.11-.69,3.19-.87.38-.11.77-.16,1.17-.14h0Z"/><path class="cls-7" d="m688.57,387.33c-.18,0-.33-8.38-.33-18.73s.15-18.73.33-18.73.33,8.38.33,18.73-.09,18.73-.33,18.73Z"/><rect class="cls-5" x="686.95" y="359.74" width="12.89" height="19.66"/><path class="cls-7" d="m695.38,433.5c-3.95.34-7.92.45-11.87.33-3.96.11-7.93,0-11.87-.33,3.95-.33,7.92-.45,11.87-.33,3.96-.11,7.93,0,11.87.33Z"/><rect class="cls-6" x="671.67" y="439.19" width="21.32" height="21.32"/></g><g id="freepik--Bottle--inject-105-7"><rect class="cls-7" x="742.17" y="333.24" width="9.46" height="22.46"/><path class="cls-8" d="m725.23,492.84v-82.62c0-12.01,9.74-21.74,21.74-21.74h0c12.01,0,21.74,9.74,21.74,21.74h0v82.62h-43.49Z"/><rect class="cls-8" x="740.52" y="345.61" width="12.89" height="69.27"/><rect class="cls-1" x="731.57" y="416.09" width="28.19" height="54.88"/><path class="cls-7" d="m768.71,492.84s-.57-.32-1.63-.81c-1.51-.68-3.06-1.27-4.64-1.77-2.33-.77-4.7-1.41-7.11-1.92-2.92-.67-5.9-1.05-8.9-1.13-3.02-.03-6.04.19-9.02.66-2.41.4-4.78,1.05-7.06,1.93-2.08.89-4.09,1.93-6.03,3.11.43-.44.91-.83,1.44-1.15,1.39-.95,2.86-1.75,4.4-2.4,2.31-.99,4.72-1.71,7.19-2.15,3-.51,6.04-.75,9.08-.72,3.04.08,6.06.48,9.02,1.2,2.41.54,4.79,1.23,7.12,2.07,1.58.55,3.12,1.21,4.6,1.99.57.27,1.09.64,1.53,1.09h0Z"/><path class="cls-7" d="m767.33,410.59c.19,0,.33,16.31.33,36.41s-.14,36.41-.33,36.41-.33-16.31-.33-36.41.15-36.41.33-36.41Z"/><path class="cls-7" d="m744.27,389.86c0,.11-1.7.32-4.24,1.39-6.75,2.79-11.37,9.12-11.98,16.4-.25,2.75.09,4.44,0,4.46-.15-.37-.25-.77-.29-1.17-.17-1.1-.21-2.21-.15-3.33.38-7.54,5.22-14.12,12.29-16.75,1.03-.39,2.11-.69,3.19-.87.38-.11.77-.16,1.17-.14h0Z"/><path class="cls-7" d="m742.13,387.33c-.18,0-.33-8.38-.33-18.73s.15-18.73.33-18.73.33,8.38.33,18.73-.09,18.73-.33,18.73Z"/><rect class="cls-5" x="740.52" y="359.74" width="12.89" height="19.66"/><path class="cls-7" d="m748.94,433.5c-3.95.34-7.92.45-11.87.33-3.96.11-7.93,0-11.87-.33,3.95-.33,7.92-.45,11.87-.33,3.96-.11,7.93,0,11.87.33Z"/><rect class="cls-6" x="725.23" y="439.19" width="21.32" height="21.32"/></g><g id="freepik--Bottle--inject-105-8"><rect class="cls-7" x="795.74" y="333.24" width="9.46" height="22.46"/><path class="cls-8" d="m778.79,492.84v-82.62c0-12.01,9.74-21.74,21.74-21.74h0c12.01,0,21.74,9.74,21.74,21.74h0v82.62h-43.49Z"/><rect class="cls-8" x="794.08" y="345.61" width="12.89" height="69.27"/><rect class="cls-1" x="785.13" y="416.09" width="28.19" height="54.88"/><path class="cls-7" d="m822.27,492.84s-.57-.32-1.63-.81c-1.51-.68-3.06-1.27-4.64-1.77-2.33-.77-4.7-1.41-7.11-1.92-2.92-.67-5.9-1.05-8.9-1.13-3.02-.03-6.04.19-9.02.66-2.41.4-4.78,1.05-7.06,1.93-2.08.89-4.09,1.93-6.03,3.11.43-.44.91-.83,1.44-1.15,1.39-.95,2.86-1.75,4.4-2.4,2.31-.99,4.72-1.71,7.19-2.15,3-.51,6.04-.75,9.08-.72,3.04.08,6.06.48,9.02,1.2,2.41.54,4.79,1.23,7.12,2.07,1.58.55,3.12,1.21,4.6,1.99.57.27,1.09.64,1.53,1.09h0Z"/><path class="cls-7" d="m820.89,410.59c.19,0,.33,16.31.33,36.41s-.14,36.41-.33,36.41-.33-16.31-.33-36.41.15-36.41.33-36.41Z"/><path class="cls-7" d="m797.83,389.86c0,.11-1.7.32-4.24,1.39-6.75,2.79-11.37,9.12-11.98,16.4-.25,2.75.09,4.44,0,4.46-.15-.37-.25-.77-.29-1.17-.17-1.1-.21-2.21-.15-3.33.38-7.54,5.22-14.12,12.29-16.75,1.03-.39,2.11-.69,3.19-.87.38-.11.77-.16,1.17-.14h0Z"/><path class="cls-7" d="m795.69,387.33c-.18,0-.33-8.38-.33-18.73s.15-18.73.33-18.73.33,8.38.33,18.73-.09,18.73-.33,18.73Z"/><rect class="cls-5" x="794.08" y="359.74" width="12.89" height="19.66"/><path class="cls-7" d="m802.5,433.5c-3.95.34-7.92.45-11.87.33-3.96.11-7.93,0-11.87-.33,3.95-.33,7.92-.45,11.87-.33,3.96-.11,7.93,0,11.87.33Z"/><rect class="cls-6" x="778.79" y="439.19" width="21.32" height="21.32"/></g><g id="freepik--Bottle--inject-105-9"><rect class="cls-7" x="849.3" y="333.24" width="9.46" height="22.46"/><path class="cls-8" d="m832.35,492.84v-82.62c0-12.01,9.74-21.74,21.74-21.74h0c12.01,0,21.74,9.74,21.74,21.74h0v82.62h-43.49Z"/><rect class="cls-8" x="847.64" y="345.61" width="12.89" height="69.27"/><rect class="cls-1" x="838.69" y="416.09" width="28.19" height="54.88"/><path class="cls-7" d="m875.83,492.84s-.57-.32-1.63-.81c-1.51-.68-3.06-1.27-4.64-1.77-2.33-.77-4.7-1.41-7.11-1.92-2.92-.67-5.9-1.05-8.9-1.13-3.02-.03-6.04.19-9.02.66-2.41.4-4.78,1.05-7.06,1.93-2.08.89-4.09,1.93-6.03,3.11.43-.44.91-.83,1.44-1.15,1.39-.95,2.86-1.75,4.4-2.4,2.31-.99,4.72-1.71,7.19-2.15,3-.51,6.04-.75,9.08-.72,3.04.08,6.06.48,9.02,1.2,2.41.54,4.79,1.23,7.12,2.07,1.58.55,3.12,1.21,4.6,1.99.57.27,1.09.64,1.53,1.09h0Z"/><path class="cls-7" d="m874.45,410.59c.19,0,.33,16.31.33,36.41s-.14,36.41-.33,36.41-.33-16.31-.33-36.41.15-36.41.33-36.41Z"/><path class="cls-7" d="m851.39,389.86c0,.11-1.7.32-4.24,1.39-6.75,2.79-11.37,9.12-11.98,16.4-.25,2.75.09,4.44,0,4.46-.15-.37-.25-.77-.29-1.17-.17-1.1-.21-2.21-.15-3.33.38-7.54,5.22-14.12,12.29-16.75,1.03-.39,2.11-.69,3.19-.87.38-.11.77-.16,1.17-.14h0Z"/><path class="cls-7" d="m849.25,387.33c-.18,0-.33-8.38-.33-18.73s.15-18.73.33-18.73.33,8.38.33,18.73-.09,18.73-.33,18.73Z"/><rect class="cls-5" x="847.64" y="359.74" width="12.89" height="19.66"/><path class="cls-7" d="m856.06,433.5c-3.95.34-7.92.45-11.87.33-3.96.11-7.93,0-11.87-.33,3.95-.33,7.92-.45,11.87-.33,3.96-.11,7.93,0,11.87.33Z"/><rect class="cls-6" x="832.35" y="439.19" width="21.32" height="21.32"/></g><g id="freepik--Bottle--inject-105-10"><rect class="cls-7" x="902.86" y="333.24" width="9.46" height="22.46"/><path class="cls-8" d="m885.91,492.84v-82.62c0-12.01,9.74-21.74,21.74-21.74h0c12.01,0,21.74,9.74,21.74,21.74h0v82.62h-43.49Z"/><rect class="cls-8" x="901.2" y="345.61" width="12.89" height="69.27"/><rect class="cls-1" x="892.25" y="416.09" width="28.19" height="54.88"/><path class="cls-7" d="m929.39,492.84s-.57-.32-1.63-.81c-1.51-.68-3.06-1.27-4.64-1.77-2.33-.77-4.7-1.41-7.11-1.92-2.92-.67-5.9-1.05-8.9-1.13-3.02-.03-6.04.19-9.02.66-2.41.4-4.78,1.05-7.06,1.93-2.08.89-4.09,1.93-6.03,3.11.43-.44.91-.83,1.44-1.15,1.39-.95,2.86-1.75,4.4-2.4,2.31-.99,4.72-1.71,7.19-2.15,3-.51,6.04-.75,9.08-.72,3.04.08,6.06.48,9.02,1.2,2.41.54,4.79,1.23,7.12,2.07,1.58.55,3.12,1.21,4.6,1.99.57.27,1.09.64,1.53,1.09h0Z"/><path class="cls-7" d="m928.01,410.59c.19,0,.33,16.31.33,36.41s-.14,36.41-.33,36.41-.33-16.31-.33-36.41.15-36.41.33-36.41Z"/><path class="cls-7" d="m904.95,389.86c0,.11-1.7.32-4.24,1.39-6.75,2.79-11.37,9.12-11.98,16.4-.25,2.75.09,4.44,0,4.46-.15-.37-.25-.77-.29-1.17-.17-1.1-.21-2.21-.15-3.33.38-7.54,5.22-14.12,12.29-16.75,1.03-.39,2.11-.69,3.19-.87.38-.11.77-.16,1.17-.14h0Z"/><path class="cls-7" d="m902.81,387.33c-.18,0-.33-8.38-.33-18.73s.15-18.73.33-18.73.33,8.38.33,18.73-.09,18.73-.33,18.73Z"/><rect class="cls-5" x="901.2" y="359.74" width="12.89" height="19.66"/><path class="cls-7" d="m909.62,433.5c-3.95.34-7.92.45-11.87.33-3.96.11-7.93,0-11.87-.33,3.95-.33,7.92-.45,11.87-.33,3.96-.11,7.93,0,11.87.33Z"/><rect class="cls-6" x="885.91" y="439.19" width="21.32" height="21.32"/></g><g id="freepik--Bottle--inject-105-11"><rect class="cls-7" x="81.45" y="332.27" width="9.46" height="22.46"/><path class="cls-8" d="m64.5,491.87v-82.62c0-12.01,9.74-21.74,21.74-21.74h0c12.01,0,21.74,9.74,21.74,21.74h0v82.62h-43.49Z"/><rect class="cls-8" x="79.79" y="344.64" width="12.89" height="69.27"/><rect class="cls-1" x="70.84" y="415.12" width="28.19" height="54.88"/><path class="cls-7" d="m107.99,491.87s-.57-.32-1.63-.81c-1.51-.68-3.06-1.27-4.64-1.77-2.33-.77-4.7-1.41-7.11-1.92-2.92-.67-5.9-1.05-8.9-1.13-3.02-.03-6.04.19-9.02.66-2.41.4-4.78,1.05-7.06,1.93-2.08.89-4.09,1.93-6.03,3.11.43-.44.91-.83,1.44-1.15,1.39-.95,2.86-1.75,4.4-2.4,2.31-.99,4.72-1.71,7.19-2.15,3-.51,6.04-.75,9.08-.72,3.04.08,6.06.48,9.02,1.2,2.41.54,4.79,1.23,7.12,2.07,1.58.55,3.12,1.21,4.6,1.99.57.27,1.09.64,1.53,1.09h0Z"/><path class="cls-7" d="m106.61,409.62c.19,0,.33,16.31.33,36.41s-.14,36.41-.33,36.41-.33-16.31-.33-36.41.15-36.41.33-36.41Z"/><path class="cls-7" d="m83.54,388.89c0,.11-1.7.32-4.24,1.39-6.75,2.79-11.37,9.12-11.98,16.4-.25,2.75.09,4.44,0,4.46-.15-.37-.25-.77-.29-1.17-.17-1.1-.21-2.21-.15-3.33.38-7.54,5.22-14.12,12.29-16.75,1.03-.39,2.11-.69,3.19-.87.38-.11.77-.16,1.17-.14h0Z"/><path class="cls-7" d="m81.4,386.36c-.18,0-.33-8.38-.33-18.73s.15-18.73.33-18.73.33,8.38.33,18.73-.09,18.73-.33,18.73Z"/><rect class="cls-5" x="79.79" y="358.77" width="12.89" height="19.66"/><path class="cls-7" d="m88.21,432.53c-3.95.34-7.92.45-11.87.33-3.96.11-7.93,0-11.87-.33,3.95-.33,7.92-.45,11.87-.33,3.96-.11,7.93,0,11.87.33Z"/><rect class="cls-6" x="64.5" y="438.22" width="21.32" height="21.32"/></g><g id="freepik--Bottle--inject-105-12"><rect class="cls-7" x="135.01" y="332.27" width="9.46" height="22.46"/><path class="cls-8" d="m118.07,491.87v-82.62c0-12.01,9.74-21.74,21.74-21.74h0c12.01,0,21.74,9.74,21.74,21.74h0v82.62h-43.49Z"/><rect class="cls-8" x="133.35" y="344.64" width="12.89" height="69.27"/><rect class="cls-1" x="124.4" y="415.12" width="28.19" height="54.88"/><path class="cls-7" d="m161.55,491.87s-.57-.32-1.63-.81c-1.51-.68-3.06-1.27-4.64-1.77-2.33-.77-4.7-1.41-7.11-1.92-2.92-.67-5.9-1.05-8.9-1.13-3.02-.03-6.04.19-9.02.66-2.41.4-4.78,1.05-7.06,1.93-2.08.89-4.09,1.93-6.03,3.11.43-.44.91-.83,1.44-1.15,1.39-.95,2.86-1.75,4.4-2.4,2.31-.99,4.72-1.71,7.19-2.15,3-.51,6.04-.75,9.08-.72,3.04.08,6.06.48,9.02,1.2,2.41.54,4.79,1.23,7.12,2.07,1.58.55,3.12,1.21,4.6,1.99.57.27,1.09.64,1.53,1.09h0Z"/><path class="cls-7" d="m160.17,409.62c.19,0,.33,16.31.33,36.41s-.14,36.41-.33,36.41-.33-16.31-.33-36.41.15-36.41.33-36.41Z"/><path class="cls-7" d="m137.1,388.89c0,.11-1.7.32-4.24,1.39-6.75,2.79-11.37,9.12-11.98,16.4-.25,2.75.09,4.44,0,4.46-.15-.37-.25-.77-.29-1.17-.17-1.1-.21-2.21-.15-3.33.38-7.54,5.22-14.12,12.29-16.75,1.03-.39,2.11-.69,3.19-.87.38-.11.77-.16,1.17-.14h0Z"/><path class="cls-7" d="m134.96,386.36c-.18,0-.33-8.38-.33-18.73s.15-18.73.33-18.73.33,8.38.33,18.73-.09,18.73-.33,18.73Z"/><rect class="cls-5" x="133.35" y="358.77" width="12.89" height="19.66"/><path class="cls-7" d="m141.78,432.53c-3.95.34-7.92.45-11.87.33-3.96.11-7.93,0-11.87-.33,3.95-.33,7.92-.45,11.87-.33,3.96-.11,7.93,0,11.87.33Z"/><rect class="cls-6" x="118.07" y="438.22" width="21.32" height="21.32"/></g><g id="freepik--Bottle--inject-105-13"><rect class="cls-7" x="188.57" y="332.27" width="9.46" height="22.46"/><path class="cls-8" d="m171.63,491.87v-82.62c0-12.01,9.74-21.74,21.74-21.74h0c12.01,0,21.74,9.74,21.74,21.74h0v82.62h-43.49Z"/><rect class="cls-8" x="186.91" y="344.64" width="12.89" height="69.27"/><rect class="cls-1" x="177.96" y="415.12" width="28.19" height="54.88"/><path class="cls-7" d="m215.11,491.87s-.57-.32-1.63-.81c-1.51-.68-3.06-1.27-4.64-1.77-2.33-.77-4.7-1.41-7.11-1.92-2.92-.67-5.9-1.05-8.9-1.13-3.02-.03-6.04.19-9.02.66-2.41.4-4.78,1.05-7.06,1.93-2.08.89-4.09,1.93-6.03,3.11.43-.44.91-.83,1.44-1.15,1.39-.95,2.86-1.75,4.4-2.4,2.31-.99,4.72-1.71,7.19-2.15,3-.51,6.04-.75,9.08-.72,3.04.08,6.06.48,9.02,1.2,2.41.54,4.79,1.23,7.12,2.07,1.58.55,3.12,1.21,4.6,1.99.57.27,1.09.64,1.53,1.09h0Z"/><path class="cls-7" d="m213.73,409.62c.19,0,.33,16.31.33,36.41s-.14,36.41-.33,36.41-.33-16.31-.33-36.41.15-36.41.33-36.41Z"/><path class="cls-7" d="m190.67,388.89c0,.11-1.7.32-4.24,1.39-6.75,2.79-11.37,9.12-11.98,16.4-.25,2.75.09,4.44,0,4.46-.15-.37-.25-.77-.29-1.17-.17-1.1-.21-2.21-.15-3.33.38-7.54,5.22-14.12,12.29-16.75,1.03-.39,2.11-.69,3.19-.87.38-.11.77-.16,1.17-.14h0Z"/><path class="cls-7" d="m188.53,386.36c-.18,0-.33-8.38-.33-18.73s.15-18.73.33-18.73.33,8.38.33,18.73-.09,18.73-.33,18.73Z"/><rect class="cls-5" x="186.91" y="358.77" width="12.89" height="19.66"/><path class="cls-7" d="m195.34,432.53c-3.95.34-7.92.45-11.87.33-3.96.11-7.93,0-11.87-.33,3.95-.33,7.92-.45,11.87-.33,3.96-.11,7.93,0,11.87.33Z"/><rect class="cls-6" x="171.63" y="438.22" width="21.32" height="21.32"/></g><g id="freepik--Bottle--inject-105-14"><rect class="cls-7" x="242.13" y="332.27" width="9.46" height="22.46"/><path class="cls-8" d="m225.19,491.87v-82.62c0-12.01,9.74-21.74,21.74-21.74h0c12.01,0,21.74,9.74,21.74,21.74h0v82.62h-43.49Z"/><rect class="cls-8" x="240.47" y="344.64" width="12.89" height="69.27"/><rect class="cls-1" x="231.53" y="415.12" width="28.19" height="54.88"/><path class="cls-7" d="m268.67,491.87s-.57-.32-1.63-.81c-1.51-.68-3.06-1.27-4.64-1.77-2.33-.77-4.7-1.41-7.11-1.92-2.92-.67-5.9-1.05-8.9-1.13-3.02-.03-6.04.19-9.02.66-2.41.4-4.78,1.05-7.06,1.93-2.08.89-4.09,1.93-6.03,3.11.43-.44.91-.83,1.44-1.15,1.39-.95,2.86-1.75,4.4-2.4,2.31-.99,4.72-1.71,7.19-2.15,3-.51,6.04-.75,9.08-.72,3.04.08,6.06.48,9.02,1.2,2.41.54,4.79,1.23,7.12,2.07,1.58.55,3.12,1.21,4.6,1.99.57.27,1.09.64,1.53,1.09h0Z"/><path class="cls-7" d="m267.29,409.62c.19,0,.33,16.31.33,36.41s-.14,36.41-.33,36.41-.33-16.31-.33-36.41.15-36.41.33-36.41Z"/><path class="cls-7" d="m244.23,388.89c0,.11-1.7.32-4.24,1.39-6.75,2.79-11.37,9.12-11.98,16.4-.25,2.75.09,4.44,0,4.46-.15-.37-.25-.77-.29-1.17-.17-1.1-.21-2.21-.15-3.33.38-7.54,5.22-14.12,12.29-16.75,1.03-.39,2.11-.69,3.19-.87.38-.11.77-.16,1.17-.14h0Z"/><path class="cls-7" d="m242.09,386.36c-.18,0-.33-8.38-.33-18.73s.15-18.73.33-18.73.33,8.38.33,18.73-.09,18.73-.33,18.73Z"/><rect class="cls-5" x="240.47" y="358.77" width="12.89" height="19.66"/><path class="cls-7" d="m248.9,432.53c-3.95.34-7.92.45-11.87.33-3.96.11-7.93,0-11.87-.33,3.95-.33,7.92-.45,11.87-.33,3.96-.11,7.93,0,11.87.33Z"/><rect class="cls-6" x="225.19" y="438.22" width="21.32" height="21.32"/></g><g id="freepik--Bottle--inject-105-15"><rect class="cls-7" x="295.7" y="332.27" width="9.46" height="22.46"/><path class="cls-8" d="m278.75,491.87v-82.62c0-12.01,9.74-21.74,21.74-21.74h0c12.01,0,21.74,9.74,21.74,21.74h0v82.62h-43.49Z"/><rect class="cls-8" x="294.04" y="344.64" width="12.89" height="69.27"/><rect class="cls-1" x="285.09" y="415.12" width="28.19" height="54.88"/><path class="cls-7" d="m322.23,491.87s-.57-.32-1.63-.81c-1.51-.68-3.06-1.27-4.64-1.77-2.33-.77-4.7-1.41-7.11-1.92-2.92-.67-5.9-1.05-8.9-1.13-3.02-.03-6.04.19-9.02.66-2.41.4-4.78,1.05-7.06,1.93-2.08.89-4.09,1.93-6.03,3.11.43-.44.91-.83,1.44-1.15,1.39-.95,2.86-1.75,4.4-2.4,2.31-.99,4.72-1.71,7.19-2.15,3-.51,6.04-.75,9.08-.72,3.04.08,6.06.48,9.02,1.2,2.41.54,4.79,1.23,7.12,2.07,1.58.55,3.12,1.21,4.6,1.99.57.27,1.09.64,1.53,1.09h0Z"/><path class="cls-7" d="m320.85,409.62c.19,0,.33,16.31.33,36.41s-.14,36.41-.33,36.41-.33-16.31-.33-36.41.15-36.41.33-36.41Z"/><path class="cls-7" d="m297.79,388.89c0,.11-1.7.32-4.24,1.39-6.75,2.79-11.37,9.12-11.98,16.4-.25,2.75.09,4.44,0,4.46-.15-.37-.25-.77-.29-1.17-.17-1.1-.21-2.21-.15-3.33.38-7.54,5.22-14.12,12.29-16.75,1.03-.39,2.11-.69,3.19-.87.38-.11.77-.16,1.17-.14h0Z"/><path class="cls-7" d="m295.65,386.36c-.18,0-.33-8.38-.33-18.73s.15-18.73.33-18.73.33,8.38.33,18.73-.09,18.73-.33,18.73Z"/><rect class="cls-5" x="294.04" y="358.77" width="12.89" height="19.66"/><path class="cls-7" d="m302.46,432.53c-3.95.34-7.92.45-11.87.33-3.96.11-7.93,0-11.87-.33,3.95-.33,7.92-.45,11.87-.33,3.96-.11,7.93,0,11.87.33Z"/><rect class="cls-6" x="278.75" y="438.22" width="21.32" height="21.32"/></g><g id="freepik--Bottle--inject-105-16"><rect class="cls-7" x="385.63" y="542.73" width="9.46" height="22.46"/><path class="cls-8" d="m368.68,702.33v-82.62c0-12.01,9.74-21.74,21.74-21.74h0c12.01,0,21.74,9.74,21.74,21.74h0v82.62h-43.49Z"/><rect class="cls-8" x="383.97" y="555.1" width="12.89" height="69.27"/><rect class="cls-1" x="375.02" y="625.58" width="28.19" height="54.88"/><path class="cls-7" d="m412.16,702.33s-.57-.32-1.63-.81c-1.51-.68-3.06-1.27-4.64-1.77-2.33-.77-4.7-1.41-7.11-1.92-2.92-.67-5.9-1.05-8.9-1.13-3.02-.03-6.04.19-9.02.66-2.41.4-4.78,1.05-7.06,1.93-2.08.89-4.09,1.93-6.03,3.11.43-.44.91-.83,1.44-1.15,1.39-.95,2.86-1.75,4.4-2.4,2.31-.99,4.72-1.71,7.19-2.15,3-.51,6.04-.75,9.08-.72,3.04.08,6.06.48,9.02,1.2,2.41.54,4.79,1.23,7.12,2.07,1.58.55,3.12,1.21,4.6,1.99.57.27,1.09.64,1.53,1.09h0Z"/><path class="cls-7" d="m410.78,620.08c.19,0,.33,16.31.33,36.41s-.14,36.41-.33,36.41-.33-16.31-.33-36.41.15-36.41.33-36.41Z"/><path class="cls-7" d="m387.72,599.34c0,.11-1.7.32-4.24,1.39-6.75,2.79-11.37,9.12-11.98,16.4-.25,2.75.09,4.44,0,4.46-.15-.37-.25-.77-.29-1.17-.17-1.1-.21-2.21-.15-3.33.38-7.54,5.22-14.12,12.29-16.75,1.03-.39,2.11-.69,3.19-.87.38-.11.77-.16,1.17-.14h0Z"/><path class="cls-7" d="m385.58,596.82c-.18,0-.33-8.38-.33-18.73s.15-18.73.33-18.73.33,8.38.33,18.73-.09,18.73-.33,18.73Z"/><rect class="cls-5" x="383.97" y="569.22" width="12.89" height="19.66"/><path class="cls-7" d="m392.39,642.99c-3.95.34-7.92.45-11.87.33-3.96.11-7.93,0-11.87-.33,3.95-.33,7.92-.45,11.87-.33,3.96-.11,7.93,0,11.87.33Z"/><rect class="cls-6" x="368.68" y="648.67" width="21.32" height="21.32"/></g><g id="freepik--Bottle--inject-105-17"><rect class="cls-7" x="439.19" y="542.73" width="9.46" height="22.46"/><path class="cls-8" d="m422.24,702.33v-82.62c0-12.01,9.74-21.74,21.74-21.74h0c12.01,0,21.74,9.74,21.74,21.74h0v82.62h-43.49Z"/><rect class="cls-8" x="437.53" y="555.1" width="12.89" height="69.27"/><rect class="cls-1" x="428.58" y="625.58" width="28.19" height="54.88"/><path class="cls-7" d="m465.73,702.33s-.57-.32-1.63-.81c-1.51-.68-3.06-1.27-4.64-1.77-2.33-.77-4.7-1.41-7.11-1.92-2.92-.67-5.9-1.05-8.9-1.13-3.02-.03-6.04.19-9.02.66-2.41.4-4.78,1.05-7.06,1.93-2.08.89-4.09,1.93-6.03,3.11.43-.44.91-.83,1.44-1.15,1.39-.95,2.86-1.75,4.4-2.4,2.31-.99,4.72-1.71,7.19-2.15,3-.51,6.04-.75,9.08-.72,3.04.08,6.06.48,9.02,1.2,2.41.54,4.79,1.23,7.12,2.07,1.58.55,3.12,1.21,4.6,1.99.57.27,1.09.64,1.53,1.09h0Z"/><path class="cls-7" d="m464.35,620.08c.19,0,.33,16.31.33,36.41s-.14,36.41-.33,36.41-.33-16.31-.33-36.41.15-36.41.33-36.41Z"/><path class="cls-7" d="m441.28,599.34c0,.11-1.7.32-4.24,1.39-6.75,2.79-11.37,9.12-11.98,16.4-.25,2.75.09,4.44,0,4.46-.15-.37-.25-.77-.29-1.17-.17-1.1-.21-2.21-.15-3.33.38-7.54,5.22-14.12,12.29-16.75,1.03-.39,2.11-.69,3.19-.87.38-.11.77-.16,1.17-.14h0Z"/><path class="cls-7" d="m439.14,596.82c-.18,0-.33-8.38-.33-18.73s.15-18.73.33-18.73.33,8.38.33,18.73-.09,18.73-.33,18.73Z"/><rect class="cls-5" x="437.53" y="569.22" width="12.89" height="19.66"/><path class="cls-7" d="m445.95,642.99c-3.95.34-7.92.45-11.87.33-3.96.11-7.93,0-11.87-.33,3.95-.33,7.92-.45,11.87-.33,3.96-.11,7.93,0,11.87.33Z"/><rect class="cls-6" x="422.24" y="648.67" width="21.32" height="21.32"/></g><g id="freepik--Bottle--inject-105-18"><rect class="cls-7" x="492.75" y="542.73" width="9.46" height="22.46"/><path class="cls-8" d="m475.81,702.33v-82.62c0-12.01,9.74-21.74,21.74-21.74h0c12.01,0,21.74,9.74,21.74,21.74h0v82.62h-43.49Z"/><rect class="cls-8" x="491.09" y="555.1" width="12.89" height="69.27"/><rect class="cls-1" x="482.14" y="625.58" width="28.19" height="54.88"/><path class="cls-7" d="m519.29,702.33s-.57-.32-1.63-.81c-1.51-.68-3.06-1.27-4.64-1.77-2.33-.77-4.7-1.41-7.11-1.92-2.92-.67-5.9-1.05-8.9-1.13-3.02-.03-6.04.19-9.02.66-2.41.4-4.78,1.05-7.06,1.93-2.08.89-4.09,1.93-6.03,3.11.43-.44.91-.83,1.44-1.15,1.39-.95,2.86-1.75,4.4-2.4,2.31-.99,4.72-1.71,7.19-2.15,3-.51,6.04-.75,9.08-.72,3.04.08,6.06.48,9.02,1.2,2.41.54,4.79,1.23,7.12,2.07,1.58.55,3.12,1.21,4.6,1.99.57.27,1.09.64,1.53,1.09h0Z"/><path class="cls-7" d="m517.91,620.08c.19,0,.33,16.31.33,36.41s-.14,36.41-.33,36.41-.33-16.31-.33-36.41.15-36.41.33-36.41Z"/><path class="cls-7" d="m494.84,599.34c0,.11-1.7.32-4.24,1.39-6.75,2.79-11.37,9.12-11.98,16.4-.25,2.75.09,4.44,0,4.46-.15-.37-.25-.77-.29-1.17-.17-1.1-.21-2.21-.15-3.33.38-7.54,5.22-14.12,12.29-16.75,1.03-.39,2.11-.69,3.19-.87.38-.11.77-.16,1.17-.14h0Z"/><path class="cls-7" d="m492.71,596.82c-.18,0-.33-8.38-.33-18.73s.15-18.73.33-18.73.33,8.38.33,18.73-.09,18.73-.33,18.73Z"/><rect class="cls-5" x="491.09" y="569.22" width="12.89" height="19.66"/><path class="cls-7" d="m499.52,642.99c-3.95.34-7.92.45-11.87.33-3.96.11-7.93,0-11.87-.33,3.95-.33,7.92-.45,11.87-.33,3.96-.11,7.93,0,11.87.33Z"/><rect class="cls-6" x="475.81" y="648.67" width="21.32" height="21.32"/></g><g id="freepik--Bottle--inject-105-19"><rect class="cls-7" x="546.31" y="542.73" width="9.46" height="22.46"/><path class="cls-8" d="m529.37,702.33v-82.62c0-12.01,9.74-21.74,21.74-21.74h0c12.01,0,21.74,9.74,21.74,21.74h0v82.62h-43.49Z"/><rect class="cls-8" x="544.65" y="555.1" width="12.89" height="69.27"/><rect class="cls-1" x="535.7" y="625.58" width="28.19" height="54.88"/><path class="cls-7" d="m572.85,702.33s-.57-.32-1.63-.81c-1.51-.68-3.06-1.27-4.64-1.77-2.33-.77-4.7-1.41-7.11-1.92-2.92-.67-5.9-1.05-8.9-1.13-3.02-.03-6.04.19-9.02.66-2.41.4-4.78,1.05-7.06,1.93-2.08.89-4.09,1.93-6.03,3.11.43-.44.91-.83,1.44-1.15,1.39-.95,2.86-1.75,4.4-2.4,2.31-.99,4.72-1.71,7.19-2.15,3-.51,6.04-.75,9.08-.72,3.04.08,6.06.48,9.02,1.2,2.41.54,4.79,1.23,7.12,2.07,1.58.55,3.12,1.21,4.6,1.99.57.27,1.09.64,1.53,1.09h0Z"/><path class="cls-7" d="m571.47,620.08c.19,0,.33,16.31.33,36.41s-.14,36.41-.33,36.41-.33-16.31-.33-36.41.15-36.41.33-36.41Z"/><path class="cls-7" d="m548.41,599.34c0,.11-1.7.32-4.24,1.39-6.75,2.79-11.37,9.12-11.98,16.4-.25,2.75.09,4.44,0,4.46-.15-.37-.25-.77-.29-1.17-.17-1.1-.21-2.21-.15-3.33.38-7.54,5.22-14.12,12.29-16.75,1.03-.39,2.11-.69,3.19-.87.38-.11.77-.16,1.17-.14h0Z"/><path class="cls-7" d="m546.27,596.82c-.18,0-.33-8.38-.33-18.73s.15-18.73.33-18.73.33,8.38.33,18.73-.09,18.73-.33,18.73Z"/><rect class="cls-5" x="544.65" y="569.22" width="12.89" height="19.66"/><path class="cls-7" d="m553.08,642.99c-3.95.34-7.92.45-11.87.33-3.96.11-7.93,0-11.87-.33,3.95-.33,7.92-.45,11.87-.33,3.96-.11,7.93,0,11.87.33Z"/><rect class="cls-6" x="529.37" y="648.67" width="21.32" height="21.32"/></g><g id="freepik--Bottle--inject-105-20"><rect class="cls-7" x="599.87" y="542.73" width="9.46" height="22.46"/><path class="cls-8" d="m582.93,702.33v-82.62c0-12.01,9.74-21.74,21.74-21.74h0c12.01,0,21.74,9.74,21.74,21.74h0v82.62h-43.49Z"/><rect class="cls-8" x="598.22" y="555.1" width="12.89" height="69.27"/><rect class="cls-1" x="589.27" y="625.58" width="28.19" height="54.88"/><path class="cls-7" d="m626.41,702.33s-.57-.32-1.63-.81c-1.51-.68-3.06-1.27-4.64-1.77-2.33-.77-4.7-1.41-7.11-1.92-2.92-.67-5.9-1.05-8.9-1.13-3.02-.03-6.04.19-9.02.66-2.41.4-4.78,1.05-7.06,1.93-2.08.89-4.09,1.93-6.03,3.11.43-.44.91-.83,1.44-1.15,1.39-.95,2.86-1.75,4.4-2.4,2.31-.99,4.72-1.71,7.19-2.15,3-.51,6.04-.75,9.08-.72,3.04.08,6.06.48,9.02,1.2,2.41.54,4.79,1.23,7.12,2.07,1.58.55,3.12,1.21,4.6,1.99.57.27,1.09.64,1.53,1.09h0Z"/><path class="cls-7" d="m625.03,620.08c.19,0,.33,16.31.33,36.41s-.14,36.41-.33,36.41-.33-16.31-.33-36.41.15-36.41.33-36.41Z"/><path class="cls-7" d="m601.97,599.34c0,.11-1.7.32-4.24,1.39-6.75,2.79-11.37,9.12-11.98,16.4-.25,2.75.09,4.44,0,4.46-.15-.37-.25-.77-.29-1.17-.17-1.1-.21-2.21-.15-3.33.38-7.54,5.22-14.12,12.29-16.75,1.03-.39,2.11-.69,3.19-.87.38-.11.77-.16,1.17-.14h0Z"/><path class="cls-7" d="m599.83,596.82c-.18,0-.33-8.38-.33-18.73s.15-18.73.33-18.73.33,8.38.33,18.73-.09,18.73-.33,18.73Z"/><rect class="cls-5" x="598.22" y="569.22" width="12.89" height="19.66"/><path class="cls-7" d="m606.64,642.99c-3.95.34-7.92.45-11.87.33-3.96.11-7.93,0-11.87-.33,3.95-.33,7.92-.45,11.87-.33,3.96-.11,7.93,0,11.87.33Z"/><rect class="cls-6" x="582.93" y="648.67" width="21.32" height="21.32"/></g><g id="freepik--Bottle--inject-105-21"><rect class="cls-7" x="689.4" y="541.76" width="9.46" height="22.46"/><path class="cls-8" d="m672.45,701.36v-82.62c0-12.01,9.74-21.74,21.74-21.74h0c12.01,0,21.74,9.74,21.74,21.74h0v82.62h-43.49Z"/><rect class="cls-8" x="687.74" y="554.13" width="12.89" height="69.27"/><rect class="cls-1" x="678.79" y="624.61" width="28.19" height="54.88"/><path class="cls-7" d="m715.93,701.36s-.57-.32-1.63-.81c-1.51-.68-3.06-1.27-4.64-1.77-2.33-.77-4.7-1.41-7.11-1.92-2.92-.67-5.9-1.05-8.9-1.13-3.02-.03-6.04.19-9.02.66-2.41.4-4.78,1.05-7.06,1.93-2.08.89-4.09,1.93-6.03,3.11.43-.44.91-.83,1.44-1.15,1.39-.95,2.86-1.75,4.4-2.4,2.31-.99,4.72-1.71,7.19-2.15,3-.51,6.04-.75,9.08-.72,3.04.08,6.06.48,9.02,1.2,2.41.54,4.79,1.23,7.12,2.07,1.58.55,3.12,1.21,4.6,1.99.57.27,1.09.64,1.53,1.09h0Z"/><path class="cls-7" d="m714.55,619.11c.19,0,.33,16.31.33,36.41s-.14,36.41-.33,36.41-.33-16.31-.33-36.41.15-36.41.33-36.41Z"/><path class="cls-7" d="m691.49,598.37c0,.11-1.7.32-4.24,1.39-6.75,2.79-11.37,9.12-11.98,16.4-.25,2.75.09,4.44,0,4.46-.15-.37-.25-.77-.29-1.17-.17-1.1-.21-2.21-.15-3.33.38-7.54,5.22-14.12,12.29-16.75,1.03-.39,2.11-.69,3.19-.87.38-.11.77-.16,1.17-.14h0Z"/><path class="cls-7" d="m689.35,595.85c-.18,0-.33-8.38-.33-18.73s.15-18.73.33-18.73.33,8.38.33,18.73-.09,18.73-.33,18.73Z"/><rect class="cls-5" x="687.74" y="568.25" width="12.89" height="19.66"/><path class="cls-7" d="m696.16,642.02c-3.95.34-7.92.45-11.87.33-3.96.11-7.93,0-11.87-.33,3.95-.33,7.92-.45,11.87-.33,3.96-.11,7.93,0,11.87.33Z"/><rect class="cls-6" x="672.45" y="647.7" width="21.32" height="21.32"/></g><g id="freepik--Bottle--inject-105-22"><rect class="cls-7" x="742.96" y="541.76" width="9.46" height="22.46"/><path class="cls-8" d="m726.01,701.36v-82.62c0-12.01,9.74-21.74,21.74-21.74h0c12.01,0,21.74,9.74,21.74,21.74h0v82.62h-43.49Z"/><rect class="cls-8" x="741.3" y="554.13" width="12.89" height="69.27"/><rect class="cls-1" x="732.35" y="624.61" width="28.19" height="54.88"/><path class="cls-7" d="m769.49,701.36s-.57-.32-1.63-.81c-1.51-.68-3.06-1.27-4.64-1.77-2.33-.77-4.7-1.41-7.11-1.92-2.92-.67-5.9-1.05-8.9-1.13-3.02-.03-6.04.19-9.02.66-2.41.4-4.78,1.05-7.06,1.93-2.08.89-4.09,1.93-6.03,3.11.43-.44.91-.83,1.44-1.15,1.39-.95,2.86-1.75,4.4-2.4,2.31-.99,4.72-1.71,7.19-2.15,3-.51,6.04-.75,9.08-.72,3.04.08,6.06.48,9.02,1.2,2.41.54,4.79,1.23,7.12,2.07,1.58.55,3.12,1.21,4.6,1.99.57.27,1.09.64,1.53,1.09h0Z"/><path class="cls-7" d="m768.11,619.11c.19,0,.33,16.31.33,36.41s-.14,36.41-.33,36.41-.33-16.31-.33-36.41.15-36.41.33-36.41Z"/><path class="cls-7" d="m745.05,598.37c0,.11-1.7.32-4.24,1.39-6.75,2.79-11.37,9.12-11.98,16.4-.25,2.75.09,4.44,0,4.46-.15-.37-.25-.77-.29-1.17-.17-1.1-.21-2.21-.15-3.33.38-7.54,5.22-14.12,12.29-16.75,1.03-.39,2.11-.69,3.19-.87.38-.11.77-.16,1.17-.14h0Z"/><path class="cls-7" d="m742.91,595.85c-.18,0-.33-8.38-.33-18.73s.15-18.73.33-18.73.33,8.38.33,18.73-.09,18.73-.33,18.73Z"/><rect class="cls-5" x="741.3" y="568.25" width="12.89" height="19.66"/><path class="cls-7" d="m749.72,642.02c-3.95.34-7.92.45-11.87.33-3.96.11-7.93,0-11.87-.33,3.95-.33,7.92-.45,11.87-.33,3.96-.11,7.93,0,11.87.33Z"/><rect class="cls-6" x="726.01" y="647.7" width="21.32" height="21.32"/></g><g id="freepik--Bottle--inject-105-23"><rect class="cls-7" x="796.52" y="541.76" width="9.46" height="22.46"/><path class="cls-8" d="m779.57,701.36v-82.62c0-12.01,9.74-21.74,21.74-21.74h0c12.01,0,21.74,9.74,21.74,21.74h0v82.62h-43.49Z"/><rect class="cls-8" x="794.86" y="554.13" width="12.89" height="69.27"/><rect class="cls-1" x="785.91" y="624.61" width="28.19" height="54.88"/><path class="cls-7" d="m823.05,701.36s-.57-.32-1.63-.81c-1.51-.68-3.06-1.27-4.64-1.77-2.33-.77-4.7-1.41-7.11-1.92-2.92-.67-5.9-1.05-8.9-1.13-3.02-.03-6.04.19-9.02.66-2.41.4-4.78,1.05-7.06,1.93-2.08.89-4.09,1.93-6.03,3.11.43-.44.91-.83,1.44-1.15,1.39-.95,2.86-1.75,4.4-2.4,2.31-.99,4.72-1.71,7.19-2.15,3-.51,6.04-.75,9.08-.72,3.04.08,6.06.48,9.02,1.2,2.41.54,4.79,1.23,7.12,2.07,1.58.55,3.12,1.21,4.6,1.99.57.27,1.09.64,1.53,1.09h0Z"/><path class="cls-7" d="m821.68,619.11c.19,0,.33,16.31.33,36.41s-.14,36.41-.33,36.41-.33-16.31-.33-36.41.15-36.41.33-36.41Z"/><path class="cls-7" d="m798.61,598.37c0,.11-1.7.32-4.24,1.39-6.75,2.79-11.37,9.12-11.98,16.4-.25,2.75.09,4.44,0,4.46-.15-.37-.25-.77-.29-1.17-.17-1.1-.21-2.21-.15-3.33.38-7.54,5.22-14.12,12.29-16.75,1.03-.39,2.11-.69,3.19-.87.38-.11.77-.16,1.17-.14h0Z"/><path class="cls-7" d="m796.47,595.85c-.18,0-.33-8.38-.33-18.73s.15-18.73.33-18.73.33,8.38.33,18.73-.09,18.73-.33,18.73Z"/><rect class="cls-5" x="794.86" y="568.25" width="12.89" height="19.66"/><path class="cls-7" d="m803.28,642.02c-3.95.34-7.92.45-11.87.33-3.96.11-7.93,0-11.87-.33,3.95-.33,7.92-.45,11.87-.33,3.96-.11,7.93,0,11.87.33Z"/><rect class="cls-6" x="779.57" y="647.7" width="21.32" height="21.32"/></g><g id="freepik--Bottle--inject-105-24"><rect class="cls-7" x="850.08" y="541.76" width="9.46" height="22.46"/><path class="cls-8" d="m833.14,701.36v-82.62c0-12.01,9.74-21.74,21.74-21.74h0c12.01,0,21.74,9.74,21.74,21.74h0v82.62h-43.49Z"/><rect class="cls-8" x="848.42" y="554.13" width="12.89" height="69.27"/><rect class="cls-1" x="839.47" y="624.61" width="28.19" height="54.88"/><path class="cls-7" d="m876.62,701.36s-.57-.32-1.63-.81c-1.51-.68-3.06-1.27-4.64-1.77-2.33-.77-4.7-1.41-7.11-1.92-2.92-.67-5.9-1.05-8.9-1.13-3.02-.03-6.04.19-9.02.66-2.41.4-4.78,1.05-7.06,1.93-2.08.89-4.09,1.93-6.03,3.11.43-.44.91-.83,1.44-1.15,1.39-.95,2.86-1.75,4.4-2.4,2.31-.99,4.72-1.71,7.19-2.15,3-.51,6.04-.75,9.08-.72,3.04.08,6.06.48,9.02,1.2,2.41.54,4.79,1.23,7.12,2.07,1.58.55,3.12,1.21,4.6,1.99.57.27,1.09.64,1.53,1.09h0Z"/><path class="cls-7" d="m875.24,619.11c.19,0,.33,16.31.33,36.41s-.14,36.41-.33,36.41-.33-16.31-.33-36.41.15-36.41.33-36.41Z"/><path class="cls-7" d="m852.17,598.37c0,.11-1.7.32-4.24,1.39-6.75,2.79-11.37,9.12-11.98,16.4-.25,2.75.09,4.44,0,4.46-.15-.37-.25-.77-.29-1.17-.17-1.1-.21-2.21-.15-3.33.38-7.54,5.22-14.12,12.29-16.75,1.03-.39,2.11-.69,3.19-.87.38-.11.77-.16,1.17-.14h0Z"/><path class="cls-7" d="m850.03,595.85c-.18,0-.33-8.38-.33-18.73s.15-18.73.33-18.73.33,8.38.33,18.73-.09,18.73-.33,18.73Z"/><rect class="cls-5" x="848.42" y="568.25" width="12.89" height="19.66"/><path class="cls-7" d="m856.84,642.02c-3.95.34-7.92.45-11.87.33-3.96.11-7.93,0-11.87-.33,3.95-.33,7.92-.45,11.87-.33,3.96-.11,7.93,0,11.87.33Z"/><rect class="cls-6" x="833.14" y="647.7" width="21.32" height="21.32"/></g><g id="freepik--Bottle--inject-105-25"><rect class="cls-7" x="903.64" y="541.76" width="9.46" height="22.46"/><path class="cls-8" d="m886.7,701.36v-82.62c0-12.01,9.74-21.74,21.74-21.74h0c12.01,0,21.74,9.74,21.74,21.74h0v82.62h-43.49Z"/><rect class="cls-8" x="901.98" y="554.13" width="12.89" height="69.27"/><rect class="cls-1" x="893.03" y="624.61" width="28.19" height="54.88"/><path class="cls-7" d="m930.18,701.36s-.57-.32-1.63-.81c-1.51-.68-3.06-1.27-4.64-1.77-2.33-.77-4.7-1.41-7.11-1.92-2.92-.67-5.9-1.05-8.9-1.13-3.02-.03-6.04.19-9.02.66-2.41.4-4.78,1.05-7.06,1.93-2.08.89-4.09,1.93-6.03,3.11.43-.44.91-.83,1.44-1.15,1.39-.95,2.86-1.75,4.4-2.4,2.31-.99,4.72-1.71,7.19-2.15,3-.51,6.04-.75,9.08-.72,3.04.08,6.06.48,9.02,1.2,2.41.54,4.79,1.23,7.12,2.07,1.58.55,3.12,1.21,4.6,1.99.57.27,1.09.64,1.53,1.09h0Z"/><path class="cls-7" d="m928.8,619.11c.19,0,.33,16.31.33,36.41s-.14,36.41-.33,36.41-.33-16.31-.33-36.41.15-36.41.33-36.41Z"/><path class="cls-7" d="m905.73,598.37c0,.11-1.7.32-4.24,1.39-6.75,2.79-11.37,9.12-11.98,16.4-.25,2.75.09,4.44,0,4.46-.15-.37-.25-.77-.29-1.17-.17-1.1-.21-2.21-.15-3.33.38-7.54,5.22-14.12,12.29-16.75,1.03-.39,2.11-.69,3.19-.87.38-.11.77-.16,1.17-.14h0Z"/><path class="cls-7" d="m903.6,595.85c-.18,0-.33-8.38-.33-18.73s.15-18.73.33-18.73.33,8.38.33,18.73-.09,18.73-.33,18.73Z"/><rect class="cls-5" x="901.98" y="568.25" width="12.89" height="19.66"/><path class="cls-7" d="m910.41,642.02c-3.95.34-7.92.45-11.87.33-3.96.11-7.93,0-11.87-.33,3.95-.33,7.92-.45,11.87-.33,3.96-.11,7.93,0,11.87.33Z"/><rect class="cls-6" x="886.7" y="647.7" width="21.32" height="21.32"/></g><g id="freepik--Bottle--inject-105-26"><rect class="cls-7" x="82.23" y="540.79" width="9.46" height="22.46"/><path class="cls-8" d="m65.29,700.39v-82.62c0-12.01,9.74-21.74,21.74-21.74h0c12.01,0,21.74,9.74,21.74,21.74h0v82.62h-43.49Z"/><rect class="cls-8" x="80.58" y="553.16" width="12.89" height="69.27"/><rect class="cls-1" x="71.63" y="623.64" width="28.19" height="54.88"/><path class="cls-7" d="m108.77,700.39s-.57-.32-1.63-.81c-1.51-.68-3.06-1.27-4.64-1.77-2.33-.77-4.7-1.41-7.11-1.92-2.92-.67-5.9-1.05-8.9-1.13-3.02-.03-6.04.19-9.02.66-2.41.4-4.78,1.05-7.06,1.93-2.08.89-4.09,1.93-6.03,3.11.43-.44.91-.83,1.44-1.15,1.39-.95,2.86-1.75,4.4-2.4,2.31-.99,4.72-1.71,7.19-2.15,3-.51,6.04-.75,9.08-.72,3.04.08,6.06.48,9.02,1.2,2.41.54,4.79,1.23,7.12,2.07,1.58.55,3.12,1.21,4.6,1.99.57.27,1.09.64,1.53,1.09h0Z"/><path class="cls-7" d="m107.39,618.14c.19,0,.33,16.31.33,36.41s-.14,36.41-.33,36.41-.33-16.31-.33-36.41.15-36.41.33-36.41Z"/><path class="cls-7" d="m84.33,597.4c0,.11-1.7.32-4.24,1.39-6.75,2.79-11.37,9.12-11.98,16.4-.25,2.75.09,4.44,0,4.46-.15-.37-.25-.77-.29-1.17-.17-1.1-.21-2.21-.15-3.33.38-7.54,5.22-14.12,12.29-16.75,1.03-.39,2.11-.69,3.19-.87.38-.11.77-.16,1.17-.14h0Z"/><path class="cls-7" d="m82.19,594.88c-.18,0-.33-8.38-.33-18.73s.15-18.73.33-18.73.33,8.38.33,18.73-.09,18.73-.33,18.73Z"/><rect class="cls-5" x="80.58" y="567.28" width="12.89" height="19.66"/><path class="cls-7" d="m89,641.05c-3.95.34-7.92.45-11.87.33-3.96.11-7.93,0-11.87-.33,3.95-.33,7.92-.45,11.87-.33,3.96-.11,7.93,0,11.87.33Z"/><rect class="cls-6" x="65.29" y="646.74" width="21.32" height="21.32"/></g><g id="freepik--Bottle--inject-105-27"><rect class="cls-7" x="135.8" y="540.79" width="9.46" height="22.46"/><path class="cls-8" d="m118.85,700.39v-82.62c0-12.01,9.74-21.74,21.74-21.74h0c12.01,0,21.74,9.74,21.74,21.74h0v82.62h-43.49Z"/><rect class="cls-8" x="134.14" y="553.16" width="12.89" height="69.27"/><rect class="cls-1" x="125.19" y="623.64" width="28.19" height="54.88"/><path class="cls-7" d="m162.33,700.39s-.57-.32-1.63-.81c-1.51-.68-3.06-1.27-4.64-1.77-2.33-.77-4.7-1.41-7.11-1.92-2.92-.67-5.9-1.05-8.9-1.13-3.02-.03-6.04.19-9.02.66-2.41.4-4.78,1.05-7.06,1.93-2.08.89-4.09,1.93-6.03,3.11.43-.44.91-.83,1.44-1.15,1.39-.95,2.86-1.75,4.4-2.4,2.31-.99,4.72-1.71,7.19-2.15,3-.51,6.04-.75,9.08-.72,3.04.08,6.06.48,9.02,1.2,2.41.54,4.79,1.23,7.12,2.07,1.58.55,3.12,1.21,4.6,1.99.57.27,1.09.64,1.53,1.09h0Z"/><path class="cls-7" d="m160.95,618.14c.19,0,.33,16.31.33,36.41s-.14,36.41-.33,36.41-.33-16.31-.33-36.41.15-36.41.33-36.41Z"/><path class="cls-7" d="m137.89,597.4c0,.11-1.7.32-4.24,1.39-6.75,2.79-11.37,9.12-11.98,16.4-.25,2.75.09,4.44,0,4.46-.15-.37-.25-.77-.29-1.17-.17-1.1-.21-2.21-.15-3.33.38-7.54,5.22-14.12,12.29-16.75,1.03-.39,2.11-.69,3.19-.87.38-.11.77-.16,1.17-.14h0Z"/><path class="cls-7" d="m135.75,594.88c-.18,0-.33-8.38-.33-18.73s.15-18.73.33-18.73.33,8.38.33,18.73-.09,18.73-.33,18.73Z"/><rect class="cls-5" x="134.14" y="567.28" width="12.89" height="19.66"/><path class="cls-7" d="m142.56,641.05c-3.95.34-7.92.45-11.87.33-3.96.11-7.93,0-11.87-.33,3.95-.33,7.92-.45,11.87-.33,3.96-.11,7.93,0,11.87.33Z"/><rect class="cls-6" x="118.85" y="646.74" width="21.32" height="21.32"/></g><g id="freepik--Bottle--inject-105-28"><rect class="cls-7" x="189.36" y="540.79" width="9.46" height="22.46"/><path class="cls-8" d="m172.41,700.39v-82.62c0-12.01,9.74-21.74,21.74-21.74h0c12.01,0,21.74,9.74,21.74,21.74h0v82.62h-43.49Z"/><rect class="cls-8" x="187.7" y="553.16" width="12.89" height="69.27"/><rect class="cls-1" x="178.75" y="623.64" width="28.19" height="54.88"/><path class="cls-7" d="m215.89,700.39s-.57-.32-1.63-.81c-1.51-.68-3.06-1.27-4.64-1.77-2.33-.77-4.7-1.41-7.11-1.92-2.92-.67-5.9-1.05-8.9-1.13-3.02-.03-6.04.19-9.02.66-2.41.4-4.78,1.05-7.06,1.93-2.08.89-4.09,1.93-6.03,3.11.43-.44.91-.83,1.44-1.15,1.39-.95,2.86-1.75,4.4-2.4,2.31-.99,4.72-1.71,7.19-2.15,3-.51,6.04-.75,9.08-.72,3.04.08,6.06.48,9.02,1.2,2.41.54,4.79,1.23,7.12,2.07,1.58.55,3.12,1.21,4.6,1.99.57.27,1.09.64,1.53,1.09h0Z"/><path class="cls-7" d="m214.51,618.14c.19,0,.33,16.31.33,36.41s-.14,36.41-.33,36.41-.33-16.31-.33-36.41.15-36.41.33-36.41Z"/><path class="cls-7" d="m191.45,597.4c0,.11-1.7.32-4.24,1.39-6.75,2.79-11.37,9.12-11.98,16.4-.25,2.75.09,4.44,0,4.46-.15-.37-.25-.77-.29-1.17-.17-1.1-.21-2.21-.15-3.33.38-7.54,5.22-14.12,12.29-16.75,1.03-.39,2.11-.69,3.19-.87.38-.11.77-.16,1.17-.14h0Z"/><path class="cls-7" d="m189.31,594.88c-.18,0-.33-8.38-.33-18.73s.15-18.73.33-18.73.33,8.38.33,18.73-.09,18.73-.33,18.73Z"/><rect class="cls-5" x="187.7" y="567.28" width="12.89" height="19.66"/><path class="cls-7" d="m196.12,641.05c-3.95.34-7.92.45-11.87.33-3.96.11-7.93,0-11.87-.33,3.95-.33,7.92-.45,11.87-.33,3.96-.11,7.93,0,11.87.33Z"/><rect class="cls-6" x="172.41" y="646.74" width="21.32" height="21.32"/></g><g id="freepik--Bottle--inject-105-29"><rect class="cls-7" x="242.92" y="540.79" width="9.46" height="22.46"/><path class="cls-8" d="m225.97,700.39v-82.62c0-12.01,9.74-21.74,21.74-21.74h0c12.01,0,21.74,9.74,21.74,21.74h0v82.62h-43.49Z"/><rect class="cls-8" x="241.26" y="553.16" width="12.89" height="69.27"/><rect class="cls-1" x="232.31" y="623.64" width="28.19" height="54.88"/><path class="cls-7" d="m269.45,700.39s-.57-.32-1.63-.81c-1.51-.68-3.06-1.27-4.64-1.77-2.33-.77-4.7-1.41-7.11-1.92-2.92-.67-5.9-1.05-8.9-1.13-3.02-.03-6.04.19-9.02.66-2.41.4-4.78,1.05-7.06,1.93-2.08.89-4.09,1.93-6.03,3.11.43-.44.91-.83,1.44-1.15,1.39-.95,2.86-1.75,4.4-2.4,2.31-.99,4.72-1.71,7.19-2.15,3-.51,6.04-.75,9.08-.72,3.04.08,6.06.48,9.02,1.2,2.41.54,4.79,1.23,7.12,2.07,1.58.55,3.12,1.21,4.6,1.99.57.27,1.09.64,1.53,1.09h0Z"/><path class="cls-7" d="m268.07,618.14c.19,0,.33,16.31.33,36.41s-.14,36.41-.33,36.41-.33-16.31-.33-36.41.15-36.41.33-36.41Z"/><path class="cls-7" d="m245.01,597.4c0,.11-1.7.32-4.24,1.39-6.75,2.79-11.37,9.12-11.98,16.4-.25,2.75.09,4.44,0,4.46-.15-.37-.25-.77-.29-1.17-.17-1.1-.21-2.21-.15-3.33.38-7.54,5.22-14.12,12.29-16.75,1.03-.39,2.11-.69,3.19-.87.38-.11.77-.16,1.17-.14h0Z"/><path class="cls-7" d="m242.87,594.88c-.18,0-.33-8.38-.33-18.73s.15-18.73.33-18.73.33,8.38.33,18.73-.09,18.73-.33,18.73Z"/><rect class="cls-5" x="241.26" y="567.28" width="12.89" height="19.66"/><path class="cls-7" d="m249.68,641.05c-3.95.34-7.92.45-11.87.33-3.96.11-7.93,0-11.87-.33,3.95-.33,7.92-.45,11.87-.33,3.96-.11,7.93,0,11.87.33Z"/><rect class="cls-6" x="225.97" y="646.74" width="21.32" height="21.32"/></g><g id="freepik--Bottle--inject-105-30"><rect class="cls-7" x="296.48" y="540.79" width="9.46" height="22.46"/><path class="cls-8" d="m279.53,700.39v-82.62c0-12.01,9.74-21.74,21.74-21.74h0c12.01,0,21.74,9.74,21.74,21.74h0v82.62h-43.49Z"/><rect class="cls-8" x="294.82" y="553.16" width="12.89" height="69.27"/><rect class="cls-1" x="285.87" y="623.64" width="28.19" height="54.88"/><path class="cls-7" d="m323.01,700.39s-.57-.32-1.63-.81c-1.51-.68-3.06-1.27-4.64-1.77-2.33-.77-4.7-1.41-7.11-1.92-2.92-.67-5.9-1.05-8.9-1.13-3.02-.03-6.04.19-9.02.66-2.41.4-4.78,1.05-7.06,1.93-2.08.89-4.09,1.93-6.03,3.11.43-.44.91-.83,1.44-1.15,1.39-.95,2.86-1.75,4.4-2.4,2.31-.99,4.72-1.71,7.19-2.15,3-.51,6.04-.75,9.08-.72,3.04.08,6.06.48,9.02,1.2,2.41.54,4.79,1.23,7.12,2.07,1.58.55,3.12,1.21,4.6,1.99.57.27,1.09.64,1.53,1.09h0Z"/><path class="cls-7" d="m321.64,618.14c.19,0,.33,16.31.33,36.41s-.14,36.41-.33,36.41-.33-16.31-.33-36.41.15-36.41.33-36.41Z"/><path class="cls-7" d="m298.57,597.4c0,.11-1.7.32-4.24,1.39-6.75,2.79-11.37,9.12-11.98,16.4-.25,2.75.09,4.44,0,4.46-.15-.37-.25-.77-.29-1.17-.17-1.1-.21-2.21-.15-3.33.38-7.54,5.22-14.12,12.29-16.75,1.03-.39,2.11-.69,3.19-.87.38-.11.77-.16,1.17-.14h0Z"/><path class="cls-7" d="m296.43,594.88c-.18,0-.33-8.38-.33-18.73s.15-18.73.33-18.73.33,8.38.33,18.73-.09,18.73-.33,18.73Z"/><rect class="cls-5" x="294.82" y="567.28" width="12.89" height="19.66"/><path class="cls-7" d="m303.24,641.05c-3.95.34-7.92.45-11.87.33-3.96.11-7.93,0-11.87-.33,3.95-.33,7.92-.45,11.87-.33,3.96-.11,7.93,0,11.87.33Z"/><rect class="cls-6" x="279.53" y="646.74" width="21.32" height="21.32"/></g><g id="freepik--Bottle--inject-105-31"><rect class="cls-7" x="387.86" y="755.74" width="9.46" height="22.46"/><path class="cls-8" d="m370.92,915.34v-82.62c0-12.01,9.74-21.74,21.74-21.74h0c12.01,0,21.74,9.74,21.74,21.74h0v82.62h-43.49Z"/><rect class="cls-8" x="386.2" y="768.11" width="12.89" height="69.27"/><rect class="cls-1" x="377.25" y="838.59" width="28.19" height="54.88"/><path class="cls-7" d="m414.4,915.34s-.57-.32-1.63-.81c-1.51-.68-3.06-1.27-4.64-1.77-2.33-.77-4.7-1.41-7.11-1.92-2.92-.67-5.9-1.05-8.9-1.13-3.02-.03-6.04.19-9.02.66-2.41.4-4.78,1.05-7.06,1.93-2.08.89-4.09,1.93-6.03,3.11.43-.44.91-.83,1.44-1.15,1.39-.95,2.86-1.75,4.4-2.4,2.31-.99,4.72-1.71,7.19-2.15,3-.51,6.04-.75,9.08-.72,3.04.08,6.06.48,9.02,1.2,2.41.54,4.79,1.23,7.12,2.07,1.58.55,3.12,1.21,4.6,1.99.57.27,1.09.64,1.53,1.09h0Z"/><path class="cls-7" d="m413.02,833.09c.19,0,.33,16.31.33,36.41s-.14,36.41-.33,36.41-.33-16.31-.33-36.41.15-36.41.33-36.41Z"/><path class="cls-7" d="m389.95,812.35c0,.11-1.7.32-4.24,1.39-6.75,2.79-11.37,9.12-11.98,16.4-.25,2.75.09,4.44,0,4.46-.15-.37-.25-.77-.29-1.17-.17-1.1-.21-2.21-.15-3.33.38-7.54,5.22-14.12,12.29-16.75,1.03-.39,2.11-.69,3.19-.87.38-.11.77-.16,1.17-.14h0Z"/><path class="cls-7" d="m387.81,809.83c-.18,0-.33-8.38-.33-18.73s.15-18.73.33-18.73.33,8.38.33,18.73-.09,18.73-.33,18.73Z"/><rect class="cls-5" x="386.2" y="782.23" width="12.89" height="19.66"/><path class="cls-7" d="m394.63,856c-3.95.34-7.92.45-11.87.33-3.96.11-7.93,0-11.87-.33,3.95-.33,7.92-.45,11.87-.33,3.96-.11,7.93,0,11.87.33Z"/><rect class="cls-6" x="370.92" y="861.69" width="21.32" height="21.32"/></g><g id="freepik--Bottle--inject-105-32"><rect class="cls-7" x="441.42" y="755.74" width="9.46" height="22.46"/><path class="cls-8" d="m424.48,915.34v-82.62c0-12.01,9.74-21.74,21.74-21.74h0c12.01,0,21.74,9.74,21.74,21.74h0v82.62h-43.49Z"/><rect class="cls-8" x="439.76" y="768.11" width="12.89" height="69.27"/><rect class="cls-1" x="430.81" y="838.59" width="28.19" height="54.88"/><path class="cls-7" d="m467.96,915.34s-.57-.32-1.63-.81c-1.51-.68-3.06-1.27-4.64-1.77-2.33-.77-4.7-1.41-7.11-1.92-2.92-.67-5.9-1.05-8.9-1.13-3.02-.03-6.04.19-9.02.66-2.41.4-4.78,1.05-7.06,1.93-2.08.89-4.09,1.93-6.03,3.11.43-.44.91-.83,1.44-1.15,1.39-.95,2.86-1.75,4.4-2.4,2.31-.99,4.72-1.71,7.19-2.15,3-.51,6.04-.75,9.08-.72,3.04.08,6.06.48,9.02,1.2,2.41.54,4.79,1.23,7.12,2.07,1.58.55,3.12,1.21,4.6,1.99.57.27,1.09.64,1.53,1.09h0Z"/><path class="cls-7" d="m466.58,833.09c.19,0,.33,16.31.33,36.41s-.14,36.41-.33,36.41-.33-16.31-.33-36.41.15-36.41.33-36.41Z"/><path class="cls-7" d="m443.52,812.35c0,.11-1.7.32-4.24,1.39-6.75,2.79-11.37,9.12-11.98,16.4-.25,2.75.09,4.44,0,4.46-.15-.37-.25-.77-.29-1.17-.17-1.1-.21-2.21-.15-3.33.38-7.54,5.22-14.12,12.29-16.75,1.03-.39,2.11-.69,3.19-.87.38-.11.77-.16,1.17-.14h0Z"/><path class="cls-7" d="m441.38,809.83c-.18,0-.33-8.38-.33-18.73s.15-18.73.33-18.73.33,8.38.33,18.73-.09,18.73-.33,18.73Z"/><rect class="cls-5" x="439.76" y="782.23" width="12.89" height="19.66"/><path class="cls-7" d="m448.19,856c-3.95.34-7.92.45-11.87.33-3.96.11-7.93,0-11.87-.33,3.95-.33,7.92-.45,11.87-.33,3.96-.11,7.93,0,11.87.33Z"/><rect class="cls-6" x="424.48" y="861.69" width="21.32" height="21.32"/></g><g id="freepik--Bottle--inject-105-33"><rect class="cls-7" x="494.98" y="755.74" width="9.46" height="22.46"/><path class="cls-8" d="m478.04,915.34v-82.62c0-12.01,9.74-21.74,21.74-21.74h0c12.01,0,21.74,9.74,21.74,21.74h0v82.62h-43.49Z"/><rect class="cls-8" x="493.32" y="768.11" width="12.89" height="69.27"/><rect class="cls-1" x="484.38" y="838.59" width="28.19" height="54.88"/><path class="cls-7" d="m521.52,915.34s-.57-.32-1.63-.81c-1.51-.68-3.06-1.27-4.64-1.77-2.33-.77-4.7-1.41-7.11-1.92-2.92-.67-5.9-1.05-8.9-1.13-3.02-.03-6.04.19-9.02.66-2.41.4-4.78,1.05-7.06,1.93-2.08.89-4.09,1.93-6.03,3.11.43-.44.91-.83,1.44-1.15,1.39-.95,2.86-1.75,4.4-2.4,2.31-.99,4.72-1.71,7.19-2.15,3-.51,6.04-.75,9.08-.72,3.04.08,6.06.48,9.02,1.2,2.41.54,4.79,1.23,7.12,2.07,1.58.55,3.12,1.21,4.6,1.99.57.27,1.09.64,1.53,1.09h0Z"/><path class="cls-7" d="m520.14,833.09c.19,0,.33,16.31.33,36.41s-.14,36.41-.33,36.41-.33-16.31-.33-36.41.15-36.41.33-36.41Z"/><path class="cls-7" d="m497.08,812.35c0,.11-1.7.32-4.24,1.39-6.75,2.79-11.37,9.12-11.98,16.4-.25,2.75.09,4.44,0,4.46-.15-.37-.25-.77-.29-1.17-.17-1.1-.21-2.21-.15-3.33.38-7.54,5.22-14.12,12.29-16.75,1.03-.39,2.11-.69,3.19-.87.38-.11.77-.16,1.17-.14h0Z"/><path class="cls-7" d="m494.94,809.83c-.18,0-.33-8.38-.33-18.73s.15-18.73.33-18.73.33,8.38.33,18.73-.09,18.73-.33,18.73Z"/><rect class="cls-5" x="493.32" y="782.23" width="12.89" height="19.66"/><path class="cls-7" d="m501.75,856c-3.95.34-7.92.45-11.87.33-3.96.11-7.93,0-11.87-.33,3.95-.33,7.92-.45,11.87-.33,3.96-.11,7.93,0,11.87.33Z"/><rect class="cls-6" x="478.04" y="861.69" width="21.32" height="21.32"/></g><g id="freepik--Bottle--inject-105-34"><rect class="cls-7" x="548.55" y="755.74" width="9.46" height="22.46"/><path class="cls-8" d="m531.6,915.34v-82.62c0-12.01,9.74-21.74,21.74-21.74h0c12.01,0,21.74,9.74,21.74,21.74h0v82.62h-43.49Z"/><rect class="cls-8" x="546.89" y="768.11" width="12.89" height="69.27"/><rect class="cls-1" x="537.94" y="838.59" width="28.19" height="54.88"/><path class="cls-7" d="m575.08,915.34s-.57-.32-1.63-.81c-1.51-.68-3.06-1.27-4.64-1.77-2.33-.77-4.7-1.41-7.11-1.92-2.92-.67-5.9-1.05-8.9-1.13-3.02-.03-6.04.19-9.02.66-2.41.4-4.78,1.05-7.06,1.93-2.08.89-4.09,1.93-6.03,3.11.43-.44.91-.83,1.44-1.15,1.39-.95,2.86-1.75,4.4-2.4,2.31-.99,4.72-1.71,7.19-2.15,3-.51,6.04-.75,9.08-.72,3.04.08,6.06.48,9.02,1.2,2.41.54,4.79,1.23,7.12,2.07,1.58.55,3.12,1.21,4.6,1.99.57.27,1.09.64,1.53,1.09h0Z"/><path class="cls-7" d="m573.7,833.09c.19,0,.33,16.31.33,36.41s-.14,36.41-.33,36.41-.33-16.31-.33-36.41.15-36.41.33-36.41Z"/><path class="cls-7" d="m550.64,812.35c0,.11-1.7.32-4.24,1.39-6.75,2.79-11.37,9.12-11.98,16.4-.25,2.75.09,4.44,0,4.46-.15-.37-.25-.77-.29-1.17-.17-1.1-.21-2.21-.15-3.33.38-7.54,5.22-14.12,12.29-16.75,1.03-.39,2.11-.69,3.19-.87.38-.11.77-.16,1.17-.14h0Z"/><path class="cls-7" d="m548.5,809.83c-.18,0-.33-8.38-.33-18.73s.15-18.73.33-18.73.33,8.38.33,18.73-.09,18.73-.33,18.73Z"/><rect class="cls-5" x="546.89" y="782.23" width="12.89" height="19.66"/><path class="cls-7" d="m555.31,856c-3.95.34-7.92.45-11.87.33-3.96.11-7.93,0-11.87-.33,3.95-.33,7.92-.45,11.87-.33,3.96-.11,7.93,0,11.87.33Z"/><rect class="cls-6" x="531.6" y="861.69" width="21.32" height="21.32"/></g><g id="freepik--Bottle--inject-105-35"><rect class="cls-7" x="602.11" y="755.74" width="9.46" height="22.46"/><path class="cls-8" d="m585.16,915.34v-82.62c0-12.01,9.74-21.74,21.74-21.74h0c12.01,0,21.74,9.74,21.74,21.74h0v82.62h-43.49Z"/><rect class="cls-8" x="600.45" y="768.11" width="12.89" height="69.27"/><rect class="cls-1" x="591.5" y="838.59" width="28.19" height="54.88"/><path class="cls-7" d="m628.64,915.34s-.57-.32-1.63-.81c-1.51-.68-3.06-1.27-4.64-1.77-2.33-.77-4.7-1.41-7.11-1.92-2.92-.67-5.9-1.05-8.9-1.13-3.02-.03-6.04.19-9.02.66-2.41.4-4.78,1.05-7.06,1.93-2.08.89-4.09,1.93-6.03,3.11.43-.44.91-.83,1.44-1.15,1.39-.95,2.86-1.75,4.4-2.4,2.31-.99,4.72-1.71,7.19-2.15,3-.51,6.04-.75,9.08-.72,3.04.08,6.06.48,9.02,1.2,2.41.54,4.79,1.23,7.12,2.07,1.58.55,3.12,1.21,4.6,1.99.57.27,1.09.64,1.53,1.09h0Z"/><path class="cls-7" d="m627.26,833.09c.19,0,.33,16.31.33,36.41s-.14,36.41-.33,36.41-.33-16.31-.33-36.41.15-36.41.33-36.41Z"/><path class="cls-7" d="m604.2,812.35c0,.11-1.7.32-4.24,1.39-6.75,2.79-11.37,9.12-11.98,16.4-.25,2.75.09,4.44,0,4.46-.15-.37-.25-.77-.29-1.17-.17-1.1-.21-2.21-.15-3.33.38-7.54,5.22-14.12,12.29-16.75,1.03-.39,2.11-.69,3.19-.87.38-.11.77-.16,1.17-.14h0Z"/><path class="cls-7" d="m602.06,809.83c-.18,0-.33-8.38-.33-18.73s.15-18.73.33-18.73.33,8.38.33,18.73-.09,18.73-.33,18.73Z"/><rect class="cls-5" x="600.45" y="782.23" width="12.89" height="19.66"/><path class="cls-7" d="m608.87,856c-3.95.34-7.92.45-11.87.33-3.96.11-7.93,0-11.87-.33,3.95-.33,7.92-.45,11.87-.33,3.96-.11,7.93,0,11.87.33Z"/><rect class="cls-6" x="585.16" y="861.69" width="21.32" height="21.32"/></g><g id="freepik--Bottle--inject-105-36"><rect class="cls-7" x="691.63" y="754.77" width="9.46" height="22.46"/><path class="cls-8" d="m674.68,914.37v-82.62c0-12.01,9.74-21.74,21.74-21.74h0c12.01,0,21.74,9.74,21.74,21.74h0v82.62h-43.49Z"/><rect class="cls-8" x="689.97" y="767.14" width="12.89" height="69.27"/><rect class="cls-1" x="681.02" y="837.62" width="28.19" height="54.88"/><path class="cls-7" d="m718.16,914.37s-.57-.32-1.63-.81c-1.51-.68-3.06-1.27-4.64-1.77-2.33-.77-4.7-1.41-7.11-1.92-2.92-.67-5.9-1.05-8.9-1.13-3.02-.03-6.04.19-9.02.66-2.41.4-4.78,1.05-7.06,1.93-2.08.89-4.09,1.93-6.03,3.11.43-.44.91-.83,1.44-1.15,1.39-.95,2.86-1.75,4.4-2.4,2.31-.99,4.72-1.71,7.19-2.15,3-.51,6.04-.75,9.08-.72,3.04.08,6.06.48,9.02,1.2,2.41.54,4.79,1.23,7.12,2.07,1.58.55,3.12,1.21,4.6,1.99.57.27,1.09.64,1.53,1.09h0Z"/><path class="cls-7" d="m716.79,832.12c.19,0,.33,16.31.33,36.41s-.14,36.41-.33,36.41-.33-16.31-.33-36.41.15-36.41.33-36.41Z"/><path class="cls-7" d="m693.72,811.39c0,.11-1.7.32-4.24,1.39-6.75,2.79-11.37,9.12-11.98,16.4-.25,2.75.09,4.44,0,4.46-.15-.37-.25-.77-.29-1.17-.17-1.1-.21-2.21-.15-3.33.38-7.54,5.22-14.12,12.29-16.75,1.03-.39,2.11-.69,3.19-.87.38-.11.77-.16,1.17-.14h0Z"/><path class="cls-7" d="m691.58,808.86c-.18,0-.33-8.38-.33-18.73s.15-18.73.33-18.73.33,8.38.33,18.73-.09,18.73-.33,18.73Z"/><rect class="cls-5" x="689.97" y="781.27" width="12.89" height="19.66"/><path class="cls-7" d="m698.39,855.03c-3.95.34-7.92.45-11.87.33-3.96.11-7.93,0-11.87-.33,3.95-.33,7.92-.45,11.87-.33,3.96-.11,7.93,0,11.87.33Z"/><rect class="cls-6" x="674.68" y="860.72" width="21.32" height="21.32"/></g><g id="freepik--Bottle--inject-105-37"><rect class="cls-7" x="745.19" y="754.77" width="9.46" height="22.46"/><path class="cls-8" d="m728.25,914.37v-82.62c0-12.01,9.74-21.74,21.74-21.74h0c12.01,0,21.74,9.74,21.74,21.74h0v82.62h-43.49Z"/><rect class="cls-8" x="743.53" y="767.14" width="12.89" height="69.27"/><rect class="cls-1" x="734.58" y="837.62" width="28.19" height="54.88"/><path class="cls-7" d="m771.73,914.37s-.57-.32-1.63-.81c-1.51-.68-3.06-1.27-4.64-1.77-2.33-.77-4.7-1.41-7.11-1.92-2.92-.67-5.9-1.05-8.9-1.13-3.02-.03-6.04.19-9.02.66-2.41.4-4.78,1.05-7.06,1.93-2.08.89-4.09,1.93-6.03,3.11.43-.44.91-.83,1.44-1.15,1.39-.95,2.86-1.75,4.4-2.4,2.31-.99,4.72-1.71,7.19-2.15,3-.51,6.04-.75,9.08-.72,3.04.08,6.06.48,9.02,1.2,2.41.54,4.79,1.23,7.12,2.07,1.58.55,3.12,1.21,4.6,1.99.57.27,1.09.64,1.53,1.09h0Z"/><path class="cls-7" d="m770.35,832.12c.19,0,.33,16.31.33,36.41s-.14,36.41-.33,36.41-.33-16.31-.33-36.41.15-36.41.33-36.41Z"/><path class="cls-7" d="m747.28,811.39c0,.11-1.7.32-4.24,1.39-6.75,2.79-11.37,9.12-11.98,16.4-.25,2.75.09,4.44,0,4.46-.15-.37-.25-.77-.29-1.17-.17-1.1-.21-2.21-.15-3.33.38-7.54,5.22-14.12,12.29-16.75,1.03-.39,2.11-.69,3.19-.87.38-.11.77-.16,1.17-.14h0Z"/><path class="cls-7" d="m745.14,808.86c-.18,0-.33-8.38-.33-18.73s.15-18.73.33-18.73.33,8.38.33,18.73-.09,18.73-.33,18.73Z"/><rect class="cls-5" x="743.53" y="781.27" width="12.89" height="19.66"/><path class="cls-7" d="m751.95,855.03c-3.95.34-7.92.45-11.87.33-3.96.11-7.93,0-11.87-.33,3.95-.33,7.92-.45,11.87-.33,3.96-.11,7.93,0,11.87.33Z"/><rect class="cls-6" x="728.25" y="860.72" width="21.32" height="21.32"/></g><g id="freepik--Bottle--inject-105-38"><rect class="cls-7" x="798.75" y="754.77" width="9.46" height="22.46"/><path class="cls-8" d="m781.81,914.37v-82.62c0-12.01,9.74-21.74,21.74-21.74h0c12.01,0,21.74,9.74,21.74,21.74h0v82.62h-43.49Z"/><rect class="cls-8" x="797.09" y="767.14" width="12.89" height="69.27"/><rect class="cls-1" x="788.14" y="837.62" width="28.19" height="54.88"/><path class="cls-7" d="m825.29,914.37s-.57-.32-1.63-.81c-1.51-.68-3.06-1.27-4.64-1.77-2.33-.77-4.7-1.41-7.11-1.92-2.92-.67-5.9-1.05-8.9-1.13-3.02-.03-6.04.19-9.02.66-2.41.4-4.78,1.05-7.06,1.93-2.08.89-4.09,1.93-6.03,3.11.43-.44.91-.83,1.44-1.15,1.39-.95,2.86-1.75,4.4-2.4,2.31-.99,4.72-1.71,7.19-2.15,3-.51,6.04-.75,9.08-.72,3.04.08,6.06.48,9.02,1.2,2.41.54,4.79,1.23,7.12,2.07,1.58.55,3.12,1.21,4.6,1.99.57.27,1.09.64,1.53,1.09h0Z"/><path class="cls-7" d="m823.91,832.12c.19,0,.33,16.31.33,36.41s-.14,36.41-.33,36.41-.33-16.31-.33-36.41.15-36.41.33-36.41Z"/><path class="cls-7" d="m800.84,811.39c0,.11-1.7.32-4.24,1.39-6.75,2.79-11.37,9.12-11.98,16.4-.25,2.75.09,4.44,0,4.46-.15-.37-.25-.77-.29-1.17-.17-1.1-.21-2.21-.15-3.33.38-7.54,5.22-14.12,12.29-16.75,1.03-.39,2.11-.69,3.19-.87.38-.11.77-.16,1.17-.14h0Z"/><path class="cls-7" d="m798.71,808.86c-.18,0-.33-8.38-.33-18.73s.15-18.73.33-18.73.33,8.38.33,18.73-.09,18.73-.33,18.73Z"/><rect class="cls-5" x="797.09" y="781.27" width="12.89" height="19.66"/><path class="cls-7" d="m805.52,855.03c-3.95.34-7.92.45-11.87.33-3.96.11-7.93,0-11.87-.33,3.95-.33,7.92-.45,11.87-.33,3.96-.11,7.93,0,11.87.33Z"/><rect class="cls-6" x="781.81" y="860.72" width="21.32" height="21.32"/></g><g id="freepik--Bottle--inject-105-39"><rect class="cls-7" x="852.31" y="754.77" width="9.46" height="22.46"/><path class="cls-8" d="m835.37,914.37v-82.62c0-12.01,9.74-21.74,21.74-21.74h0c12.01,0,21.74,9.74,21.74,21.74h0v82.62h-43.49Z"/><rect class="cls-8" x="850.65" y="767.14" width="12.89" height="69.27"/><rect class="cls-1" x="841.7" y="837.62" width="28.19" height="54.88"/><path class="cls-7" d="m878.85,914.37s-.57-.32-1.63-.81c-1.51-.68-3.06-1.27-4.64-1.77-2.33-.77-4.7-1.41-7.11-1.92-2.92-.67-5.9-1.05-8.9-1.13-3.02-.03-6.04.19-9.02.66-2.41.4-4.78,1.05-7.06,1.93-2.08.89-4.09,1.93-6.03,3.11.43-.44.91-.83,1.44-1.15,1.39-.95,2.86-1.75,4.4-2.4,2.31-.99,4.72-1.71,7.19-2.15,3-.51,6.04-.75,9.08-.72,3.04.08,6.06.48,9.02,1.2,2.41.54,4.79,1.23,7.12,2.07,1.58.55,3.12,1.21,4.6,1.99.57.27,1.09.64,1.53,1.09h0Z"/><path class="cls-7" d="m877.47,832.12c.19,0,.33,16.31.33,36.41s-.14,36.41-.33,36.41-.33-16.31-.33-36.41.15-36.41.33-36.41Z"/><path class="cls-7" d="m854.41,811.39c0,.11-1.7.32-4.24,1.39-6.75,2.79-11.37,9.12-11.98,16.4-.25,2.75.09,4.44,0,4.46-.15-.37-.25-.77-.29-1.17-.17-1.1-.21-2.21-.15-3.33.38-7.54,5.22-14.12,12.29-16.75,1.03-.39,2.11-.69,3.19-.87.38-.11.77-.16,1.17-.14h0Z"/><path class="cls-7" d="m852.27,808.86c-.18,0-.33-8.38-.33-18.73s.15-18.73.33-18.73.33,8.38.33,18.73-.09,18.73-.33,18.73Z"/><rect class="cls-5" x="850.65" y="781.27" width="12.89" height="19.66"/><path class="cls-7" d="m859.08,855.03c-3.95.34-7.92.45-11.87.33-3.96.11-7.93,0-11.87-.33,3.95-.33,7.92-.45,11.87-.33,3.96-.11,7.93,0,11.87.33Z"/><rect class="cls-6" x="835.37" y="860.72" width="21.32" height="21.32"/></g><g id="freepik--Bottle--inject-105-40"><rect class="cls-7" x="905.87" y="754.77" width="9.46" height="22.46"/><path class="cls-8" d="m888.93,914.37v-82.62c0-12.01,9.74-21.74,21.74-21.74h0c12.01,0,21.74,9.74,21.74,21.74h0v82.62h-43.49Z"/><rect class="cls-8" x="904.22" y="767.14" width="12.89" height="69.27"/><rect class="cls-1" x="895.27" y="837.62" width="28.19" height="54.88"/><path class="cls-7" d="m932.41,914.37s-.57-.32-1.63-.81c-1.51-.68-3.06-1.27-4.64-1.77-2.33-.77-4.7-1.41-7.11-1.92-2.92-.67-5.9-1.05-8.9-1.13-3.02-.03-6.04.19-9.02.66-2.41.4-4.78,1.05-7.06,1.93-2.08.89-4.09,1.93-6.03,3.11.43-.44.91-.83,1.44-1.15,1.39-.95,2.86-1.75,4.4-2.4,2.31-.99,4.72-1.71,7.19-2.15,3-.51,6.04-.75,9.08-.72,3.04.08,6.06.48,9.02,1.2,2.41.54,4.79,1.23,7.12,2.07,1.58.55,3.12,1.21,4.6,1.99.57.27,1.09.64,1.53,1.09h0Z"/><path class="cls-7" d="m931.03,832.12c.19,0,.33,16.31.33,36.41s-.14,36.41-.33,36.41-.33-16.31-.33-36.41.15-36.41.33-36.41Z"/><path class="cls-7" d="m907.97,811.39c0,.11-1.7.32-4.24,1.39-6.75,2.79-11.37,9.12-11.98,16.4-.25,2.75.09,4.44,0,4.46-.15-.37-.25-.77-.29-1.17-.17-1.1-.21-2.21-.15-3.33.38-7.54,5.22-14.12,12.29-16.75,1.03-.39,2.11-.69,3.19-.87.38-.11.77-.16,1.17-.14h0Z"/><path class="cls-7" d="m905.83,808.86c-.18,0-.33-8.38-.33-18.73s.15-18.73.33-18.73.33,8.38.33,18.73-.09,18.73-.33,18.73Z"/><rect class="cls-5" x="904.22" y="781.27" width="12.89" height="19.66"/><path class="cls-7" d="m912.64,855.03c-3.95.34-7.92.45-11.87.33-3.96.11-7.93,0-11.87-.33,3.95-.33,7.92-.45,11.87-.33,3.96-.11,7.93,0,11.87.33Z"/><rect class="cls-6" x="888.93" y="860.72" width="21.32" height="21.32"/></g><g id="freepik--Bottle--inject-105-41"><rect class="cls-7" x="84.47" y="753.8" width="9.46" height="22.46"/><path class="cls-8" d="m67.52,913.4v-82.62c0-12.01,9.74-21.74,21.74-21.74h0c12.01,0,21.74,9.74,21.74,21.74h0v82.62h-43.49Z"/><rect class="cls-8" x="82.81" y="766.17" width="12.89" height="69.27"/><rect class="cls-1" x="73.86" y="836.65" width="28.19" height="54.88"/><path class="cls-7" d="m111,913.4s-.57-.32-1.63-.81c-1.51-.68-3.06-1.27-4.64-1.77-2.33-.77-4.7-1.41-7.11-1.92-2.92-.67-5.9-1.05-8.9-1.13-3.02-.03-6.04.19-9.02.66-2.41.4-4.78,1.05-7.06,1.93-2.08.89-4.09,1.93-6.03,3.11.43-.44.91-.83,1.44-1.15,1.39-.95,2.86-1.75,4.4-2.4,2.31-.99,4.72-1.71,7.19-2.15,3-.51,6.04-.75,9.08-.72,3.04.08,6.06.48,9.02,1.2,2.41.54,4.79,1.23,7.12,2.07,1.58.55,3.12,1.21,4.6,1.99.57.27,1.09.64,1.53,1.09h0Z"/><path class="cls-7" d="m109.62,831.15c.19,0,.33,16.31.33,36.41s-.14,36.41-.33,36.41-.33-16.31-.33-36.41.15-36.41.33-36.41Z"/><path class="cls-7" d="m86.56,810.42c0,.11-1.7.32-4.24,1.39-6.75,2.79-11.37,9.12-11.98,16.4-.25,2.75.09,4.44,0,4.46-.15-.37-.25-.77-.29-1.17-.17-1.1-.21-2.21-.15-3.33.38-7.54,5.22-14.12,12.29-16.75,1.03-.39,2.11-.69,3.19-.87.38-.11.77-.16,1.17-.14h0Z"/><path class="cls-7" d="m84.42,807.89c-.18,0-.33-8.38-.33-18.73s.15-18.73.33-18.73.33,8.38.33,18.73-.09,18.73-.33,18.73Z"/><rect class="cls-5" x="82.81" y="780.3" width="12.89" height="19.66"/><path class="cls-7" d="m91.23,854.06c-3.95.34-7.92.45-11.87.33-3.96.11-7.93,0-11.87-.33,3.95-.33,7.92-.45,11.87-.33,3.96-.11,7.93,0,11.87.33Z"/><rect class="cls-6" x="67.52" y="859.75" width="21.32" height="21.32"/></g><g id="freepik--Bottle--inject-105-42"><rect class="cls-7" x="138.03" y="753.8" width="9.46" height="22.46"/><path class="cls-8" d="m121.08,913.4v-82.62c0-12.01,9.74-21.74,21.74-21.74h0c12.01,0,21.74,9.74,21.74,21.74h0v82.62h-43.49Z"/><rect class="cls-8" x="136.37" y="766.17" width="12.89" height="69.27"/><rect class="cls-1" x="127.42" y="836.65" width="28.19" height="54.88"/><path class="cls-7" d="m164.56,913.4s-.57-.32-1.63-.81c-1.51-.68-3.06-1.27-4.64-1.77-2.33-.77-4.7-1.41-7.11-1.92-2.92-.67-5.9-1.05-8.9-1.13-3.02-.03-6.04.19-9.02.66-2.41.4-4.78,1.05-7.06,1.93-2.08.89-4.09,1.93-6.03,3.11.43-.44.91-.83,1.44-1.15,1.39-.95,2.86-1.75,4.4-2.4,2.31-.99,4.72-1.71,7.19-2.15,3-.51,6.04-.75,9.08-.72,3.04.08,6.06.48,9.02,1.2,2.41.54,4.79,1.23,7.12,2.07,1.58.55,3.12,1.21,4.6,1.99.57.27,1.09.64,1.53,1.09h0Z"/><path class="cls-7" d="m163.18,831.15c.19,0,.33,16.31.33,36.41s-.14,36.41-.33,36.41-.33-16.31-.33-36.41.15-36.41.33-36.41Z"/><path class="cls-7" d="m140.12,810.42c0,.11-1.7.32-4.24,1.39-6.75,2.79-11.37,9.12-11.98,16.4-.25,2.75.09,4.44,0,4.46-.15-.37-.25-.77-.29-1.17-.17-1.1-.21-2.21-.15-3.33.38-7.54,5.22-14.12,12.29-16.75,1.03-.39,2.11-.69,3.19-.87.38-.11.77-.16,1.17-.14h0Z"/><path class="cls-7" d="m137.98,807.89c-.18,0-.33-8.38-.33-18.73s.15-18.73.33-18.73.33,8.38.33,18.73-.09,18.73-.33,18.73Z"/><rect class="cls-5" x="136.37" y="780.3" width="12.89" height="19.66"/><path class="cls-7" d="m144.79,854.06c-3.95.34-7.92.45-11.87.33-3.96.11-7.93,0-11.87-.33,3.95-.33,7.92-.45,11.87-.33,3.96-.11,7.93,0,11.87.33Z"/><rect class="cls-6" x="121.08" y="859.75" width="21.32" height="21.32"/></g><g id="freepik--Bottle--inject-105-43"><rect class="cls-7" x="191.59" y="753.8" width="9.46" height="22.46"/><path class="cls-8" d="m174.64,913.4v-82.62c0-12.01,9.74-21.74,21.74-21.74h0c12.01,0,21.74,9.74,21.74,21.74h0v82.62h-43.49Z"/><rect class="cls-8" x="189.93" y="766.17" width="12.89" height="69.27"/><rect class="cls-1" x="180.98" y="836.65" width="28.19" height="54.88"/><path class="cls-7" d="m218.12,913.4s-.57-.32-1.63-.81c-1.51-.68-3.06-1.27-4.64-1.77-2.33-.77-4.7-1.41-7.11-1.92-2.92-.67-5.9-1.05-8.9-1.13-3.02-.03-6.04.19-9.02.66-2.41.4-4.78,1.05-7.06,1.93-2.08.89-4.09,1.93-6.03,3.11.43-.44.91-.83,1.44-1.15,1.39-.95,2.86-1.75,4.4-2.4,2.31-.99,4.72-1.71,7.19-2.15,3-.51,6.04-.75,9.08-.72,3.04.08,6.06.48,9.02,1.2,2.41.54,4.79,1.23,7.12,2.07,1.58.55,3.12,1.21,4.6,1.99.57.27,1.09.64,1.53,1.09h0Z"/><path class="cls-7" d="m216.74,831.15c.19,0,.33,16.31.33,36.41s-.14,36.41-.33,36.41-.33-16.31-.33-36.41.15-36.41.33-36.41Z"/><path class="cls-7" d="m193.68,810.42c0,.11-1.7.32-4.24,1.39-6.75,2.79-11.37,9.12-11.98,16.4-.25,2.75.09,4.44,0,4.46-.15-.37-.25-.77-.29-1.17-.17-1.1-.21-2.21-.15-3.33.38-7.54,5.22-14.12,12.29-16.75,1.03-.39,2.11-.69,3.19-.87.38-.11.77-.16,1.17-.14h0Z"/><path class="cls-7" d="m191.54,807.89c-.18,0-.33-8.38-.33-18.73s.15-18.73.33-18.73.33,8.38.33,18.73-.09,18.73-.33,18.73Z"/><rect class="cls-5" x="189.93" y="780.3" width="12.89" height="19.66"/><path class="cls-7" d="m198.35,854.06c-3.95.34-7.92.45-11.87.33-3.96.11-7.93,0-11.87-.33,3.95-.33,7.92-.45,11.87-.33,3.96-.11,7.93,0,11.87.33Z"/><rect class="cls-6" x="174.64" y="859.75" width="21.32" height="21.32"/></g><g id="freepik--Bottle--inject-105-44"><rect class="cls-7" x="245.15" y="753.8" width="9.46" height="22.46"/><path class="cls-8" d="m228.2,913.4v-82.62c0-12.01,9.74-21.74,21.74-21.74h0c12.01,0,21.74,9.74,21.74,21.74h0v82.62h-43.49Z"/><rect class="cls-8" x="243.49" y="766.17" width="12.89" height="69.27"/><rect class="cls-1" x="234.54" y="836.65" width="28.19" height="54.88"/><path class="cls-7" d="m271.69,913.4s-.57-.32-1.63-.81c-1.51-.68-3.06-1.27-4.64-1.77-2.33-.77-4.7-1.41-7.11-1.92-2.92-.67-5.9-1.05-8.9-1.13-3.02-.03-6.04.19-9.02.66-2.41.4-4.78,1.05-7.06,1.93-2.08.89-4.09,1.93-6.03,3.11.43-.44.91-.83,1.44-1.15,1.39-.95,2.86-1.75,4.4-2.4,2.31-.99,4.72-1.71,7.19-2.15,3-.51,6.04-.75,9.08-.72,3.04.08,6.06.48,9.02,1.2,2.41.54,4.79,1.23,7.12,2.07,1.58.55,3.12,1.21,4.6,1.99.57.27,1.09.64,1.53,1.09h0Z"/><path class="cls-7" d="m270.31,831.15c.19,0,.33,16.31.33,36.41s-.14,36.41-.33,36.41-.33-16.31-.33-36.41.15-36.41.33-36.41Z"/><path class="cls-7" d="m247.24,810.42c0,.11-1.7.32-4.24,1.39-6.75,2.79-11.37,9.12-11.98,16.4-.25,2.75.09,4.44,0,4.46-.15-.37-.25-.77-.29-1.17-.17-1.1-.21-2.21-.15-3.33.38-7.54,5.22-14.12,12.29-16.75,1.03-.39,2.11-.69,3.19-.87.38-.11.77-.16,1.17-.14h0Z"/><path class="cls-7" d="m245.1,807.89c-.18,0-.33-8.38-.33-18.73s.15-18.73.33-18.73.33,8.38.33,18.73-.09,18.73-.33,18.73Z"/><rect class="cls-5" x="243.49" y="780.3" width="12.89" height="19.66"/><path class="cls-7" d="m251.91,854.06c-3.95.34-7.92.45-11.87.33-3.96.11-7.93,0-11.87-.33,3.95-.33,7.92-.45,11.87-.33,3.96-.11,7.93,0,11.87.33Z"/><rect class="cls-6" x="228.2" y="859.75" width="21.32" height="21.32"/></g><g id="freepik--Bottle--inject-105-45"><rect class="cls-7" x="298.71" y="753.8" width="9.46" height="22.46"/><path class="cls-8" d="m281.77,913.4v-82.62c0-12.01,9.74-21.74,21.74-21.74h0c12.01,0,21.74,9.74,21.74,21.74h0v82.62h-43.49Z"/><rect class="cls-8" x="297.05" y="766.17" width="12.89" height="69.27"/><rect class="cls-1" x="288.1" y="836.65" width="28.19" height="54.88"/><path class="cls-7" d="m325.25,913.4s-.57-.32-1.63-.81c-1.51-.68-3.06-1.27-4.64-1.77-2.33-.77-4.7-1.41-7.11-1.92-2.92-.67-5.9-1.05-8.9-1.13-3.02-.03-6.04.19-9.02.66-2.41.4-4.78,1.05-7.06,1.93-2.08.89-4.09,1.93-6.03,3.11.43-.44.91-.83,1.44-1.15,1.39-.95,2.86-1.75,4.4-2.4,2.31-.99,4.72-1.71,7.19-2.15,3-.51,6.04-.75,9.08-.72,3.04.08,6.06.48,9.02,1.2,2.41.54,4.79,1.23,7.12,2.07,1.58.55,3.12,1.21,4.6,1.99.57.27,1.09.64,1.53,1.09h0Z"/><path class="cls-7" d="m323.87,831.15c.19,0,.33,16.31.33,36.41s-.14,36.41-.33,36.41-.33-16.31-.33-36.41.15-36.41.33-36.41Z"/><path class="cls-7" d="m300.8,810.42c0,.11-1.7.32-4.24,1.39-6.75,2.79-11.37,9.12-11.98,16.4-.25,2.75.09,4.44,0,4.46-.15-.37-.25-.77-.29-1.17-.17-1.1-.21-2.21-.15-3.33.38-7.54,5.22-14.12,12.29-16.75,1.03-.39,2.11-.69,3.19-.87.38-.11.77-.16,1.17-.14h0Z"/><path class="cls-7" d="m298.67,807.89c-.18,0-.33-8.38-.33-18.73s.15-18.73.33-18.73.33,8.38.33,18.73-.09,18.73-.33,18.73Z"/><rect class="cls-5" x="297.05" y="780.3" width="12.89" height="19.66"/><path class="cls-7" d="m305.48,854.06c-3.95.34-7.92.45-11.87.33-3.96.11-7.93,0-11.87-.33,3.95-.33,7.92-.45,11.87-.33,3.96-.11,7.93,0,11.87.33Z"/><rect class="cls-6" x="281.77" y="859.75" width="21.32" height="21.32"/></g><g id="freepik--Character--inject-19"><path class="cls-3" d="m232.8,750.45s-18.14-16.99-25.12-21.56-22.62-10.75-28.46-11.32c-5.84-.57-33.17,7.35-33.17,7.35,0,0-40.35-3.57-47.13,1.15-6.77,4.71-6.22,9.6-3.38,13.19s13.74,2.44,25.8,2.63c12.06.19,15.27,1.32,15.27,1.32l-17.52,18.67,45.53,12.64,27.61-1.04,9.98,12.57,30.58-35.59Z"/><path class="cls-3" d="m94.54,708.3l1.1,40.18,1.93,4.99,19.84,24.19,48.38-3.21-38.55-15.01-13.7-10.41-5.31-17.18s1.61-26.5-13.7-23.55Z"/><path class="cls-3" d="m97.9,754.4h-11.85s-15.38-25.29-29.44-16.69l3.23,4.99s-6.37-2.87-10.36,2.46l38.78,33.98h1.78l41.31-2.65-33.45-22.09Z"/><path class="cls-4" d="m104.93,762.09c-1.11.11-2.22.15-3.33.13-2.8.03-5.58.58-8.18,1.64l-.38.19-.25-.36c-1.21-1.7-2.68-3.5-4.25-5.39-3.12-3.89-5.97-7.39-8.35-10.32-1.22-1.37-2.32-2.84-3.29-4.4,1.45,1.15,2.77,2.46,3.93,3.91,2.27,2.53,5.35,6.07,8.62,10.13,1.53,1.91,2.97,3.72,4.25,5.52l-.66-.17c2.74-1.09,5.68-1.55,8.62-1.34,1.11-.06,2.22.1,3.27.47Z"/><path class="cls-4" d="m188.73,738.71c-4.68,1.59-9.24,3.52-13.63,5.78-4.19,2.62-8.18,5.55-11.94,8.77.78-1.25,1.75-2.36,2.87-3.31,2.55-2.47,5.41-4.61,8.5-6.37,3.1-1.76,6.4-3.13,9.83-4.08,1.41-.5,2.88-.76,4.37-.79Z"/><path class="cls-4" d="m150.08,728.3c-1.67,2.4-3.53,4.66-5.54,6.77-1.73,2.36-3.65,4.59-5.73,6.65,1.19-2.71,2.85-5.2,4.88-7.35,1.77-2.38,3.93-4.43,6.39-6.07Z"/><path class="cls-4" d="m109.69,767.7c-.33-.28-.64-.58-.91-.91l-2.51-2.78-3.89-4.46-2.42-2.78c-.96-1.03-1.84-2.12-2.63-3.27-1.79-2.73-2.76-5.93-2.78-9.2,0-3.42-.15-7.07-.21-10.92-.13-7.71-.28-16.18-.42-25.08v-.49h.45l1.3-.17c2.89-.34,5.78.68,7.82,2.76,1.8,2.01,3.11,4.41,3.82,7.01,1.25,4.72,1.73,9.61,1.44,14.48v-.17c1.98,6.5,3.72,12.32,5.2,17.2l-.15-.19,9.96,7.79,2.65,2.12c.32.23.61.49.87.79,0,0-.36-.17-1-.62l-2.76-1.98-10.17-7.52h0v-.13c-1.53-4.86-3.36-10.62-5.42-17.14v-.17c.24-4.76-.27-9.52-1.51-14.12-.63-2.44-1.82-4.71-3.48-6.6-1.81-1.84-4.38-2.74-6.94-2.42l-1.17.15.45-.55c.13,8.9.23,17.37.32,25.08s-.87,14.87,2.61,19.73c.69,1.1,1.46,2.16,2.29,3.16l2.36,2.85c1.44,1.74,2.7,3.27,3.74,4.57l2.34,2.91c.3.32.55.68.76,1.06Z"/><path class="cls-4" d="m90.13,779.17c-.75.07-1.51-.13-2.12-.57-1.67-1.01-3.19-2.23-4.54-3.63-4.42-4.58-8.48-9.49-12.15-14.7-4.37-6.07-8.05-11.64-10.75-15.74-1.3-2.12-2.31-3.74-2.99-4.93-.41-.58-.74-1.22-.96-1.89.5.5.95,1.05,1.32,1.66l3.29,4.71c2.78,4.01,6.58,9.54,10.96,15.52,3.65,5.18,7.59,10.14,11.81,14.87,1.27,1.42,2.7,2.69,4.25,3.8.6.35,1.23.65,1.89.89Z"/><path class="cls-3" d="m160.7,753.24l-21.34-1.44-6.37-17.48-1.17-11.77c-.52-5.77-5.35-10.2-11.15-10.19h-.21l1.19,28.82,4.4,17.9,17.35,10.24h21.24l-3.93-16.08Z"/><path class="cls-3" d="m160.7,753.24l-21.34-1.44-6.37-17.48-1.17-11.77c-.52-5.77-5.35-10.2-11.15-10.19h-.21l1.19,28.82,4.4,17.9,17.35,10.24"/><path class="cls-4" d="m143.39,769.31c-.44-.17-.85-.37-1.25-.62l-3.48-1.93-12.74-7.35h-.15v-.15c-1.3-5.14-2.8-11.21-4.48-17.88v-.11c-.38-8.66-.81-18.46-1.25-28.82v-.55h1.19c5.28.19,9.78,3.88,10.98,9.03.25,1.15.41,2.33.49,3.5l.32,3.4c.23,2.12.42,4.42.64,6.52v-.13c2.34,6.52,4.44,12.42,6.37,17.54l-.36-.28,15.61,1.23,4.25.4c.49.02.99.09,1.47.21-.49.05-.99.05-1.49,0l-4.25-.19-15.61-.87h-.49v-.23c-1.89-5.1-4.06-10.98-6.37-17.46v-.13c-.21-2.12-.45-4.25-.68-6.52-.11-1.13-.23-2.25-.34-3.4-.08-1.13-.23-2.25-.47-3.36-1.1-4.66-5.18-8.01-9.96-8.18h-.87l.53-.57c.4,10.34.81,20.15,1.15,28.82h0c1.61,6.69,3.06,12.74,4.25,17.92l-.19-.25,12.62,7.65,3.4,2.12c.42.15.82.36,1.19.62Z"/><path class="cls-8" d="m617.88,413.16c-18.29-69.72-35.17-150.79-137.13-143.57,0,0-62.82,12.08-92.64,58.45-17.56,27.27-32.77,144.84-35.79,237.69h0c-.13,3.78,1.44,30.14,1.34,33.83l269.84,22.47h48.7s-3.04-49.25-17.69-97.03c-14.34-46.45-30.16-87.24-36.63-111.84Z"/><path class="cls-3" d="m467.2,296.16l6.37-6.1,68.92,27.78c9.97.56,17.86,8.64,18.18,18.63l-.62,224.57c0,15.23-2.95,28.42-12.15,40.54l-9.68,12.74c-22.07,29.14-67.47,26.74-84.95-5.35-1.05-1.83-1.87-3.78-2.42-5.82-.44-1.65-.79-3.32-1.04-5.01-2.12-18.07-2.12-33.75-2.12-33.75-1.23-19.84-1.64-27.97-1.64-27.78s-42.22-4.86-53.62-59.04c-5.67-26.95-4.61-64.03-3.02-100.52,2.17-50.44,37.21-80.96,77.79-80.89Z"/><path class="cls-8" d="m484.93,413.14c.16,3.8,3.32,6.77,7.11,6.71,3.69.12,6.78-2.78,6.9-6.47,0-.06,0-.13,0-.19-.16-3.79-3.3-6.77-7.09-6.73-3.7-.12-6.8,2.79-6.92,6.5,0,.06,0,.13,0,.19Z"/><path class="cls-8" d="m412.98,415.01c.14,3.8,3.29,6.79,7.09,6.73,3.72.11,6.82-2.82,6.92-6.54,0-.04,0-.09,0-.13-.15-3.8-3.31-6.79-7.11-6.73-3.69-.12-6.78,2.78-6.9,6.47,0,.06,0,.13,0,.19Z"/><path class="cls-8" d="m396.58,391.54c.91.87,6.01-3.33,13.55-3.67,7.54-.34,13.25,3.12,14.04,2.12.38-.42-.59-2.12-3.08-3.67-3.38-2.09-7.33-3.09-11.3-2.87-3.92.17-7.68,1.6-10.72,4.08-2.23,1.93-2.95,3.63-2.48,4.01Z"/><path class="cls-8" d="m471.34,388.91c1,.76,5.67-3.93,13.12-5.05s13.51,1.76,14.17.72c.34-.47-.79-1.98-3.44-3.33-3.57-1.73-7.59-2.32-11.51-1.7-3.89.59-7.49,2.39-10.28,5.16-2,2.08-2.53,3.93-2.06,4.21Z"/><path class="cls-8" d="m446.75,447.18c0-.42-4.71-1-12.36-1.59-1.93-.11-3.78-.38-4.25-1.68-.27-1.98.08-4,1-5.78,1.57-4.76,3.23-9.73,4.95-14.87,6.86-21.24,11.72-38.69,10.87-38.97s-7.11,16.76-13.97,38.02c-1.66,5.25-3.23,10.24-4.71,15.01-.62,2.23-1.74,4.78-.62,7.6.63,1.35,1.84,2.33,3.29,2.65,1.08.23,2.19.33,3.29.3,7.75-.06,12.49-.25,12.51-.7Z"/><path class="cls-4" d="m446,536.66c25.75-.89,50.75-8.92,72.21-23.19,0,0-16.48,38.74-71.4,36.38l-.81-13.19Z"/><path class="cls-4" d="m470.3,462.52c-2.23-2.56-5.4-4.09-8.79-4.25-4.74-.28-8.07.32-10.62,4.06-1,1.87-1.2,4.06-.53,6.07.55.87.15.89,1,1.51,3.08,2.16,6.56,3.68,10.24,4.48,3.65.83,7.86,0,9.75-2.99,1.53-2.89,1.11-6.42-1.04-8.88Z"/><path class="cls-8" d="m469.53,354.35c.98,1.91,7.45,0,15.44-.21,7.99-.21,14.63,1.27,15.4-.7.34-.93-1.06-2.68-3.91-4.25-3.67-1.91-7.78-2.84-11.91-2.7-4.09.08-8.08,1.25-11.57,3.38-2.68,1.74-3.87,3.55-3.44,4.48Z"/><path class="cls-8" d="m397.67,377.91c1.4,1.64,6.52-.4,12.74-.79,6.22-.38,11.57.55,12.74-1.3.49-.89-.42-2.57-2.82-4.08-3.19-1.82-6.86-2.62-10.51-2.27-3.67.24-7.16,1.62-10,3.95-2.14,1.87-2.78,3.67-2.14,4.48Z"/><path class="cls-8" d="m559.28,432.32s-29.01,7.01-70.08-81.66c-14.02-30.18-41.22-60.59-41.22-60.59l25.49-3.67s76.14,21.45,77.41,22.41,19.22,39.37,19.22,39.37l-10.81,84.14Z"/><path class="cls-3" d="m549.77,428.77c-.19-4.08,4.04-13.91,8.01-14.74,10.62-2.12,30.03-2.31,31.58,24.93,2.12,37.23-35.7,31.67-35.83,30.6s-3.08-26.76-3.76-40.8Z"/><path class="cls-4" d="m564.11,454.74c.15-.13.66.42,1.78.87,1.58.57,3.33.5,4.86-.19,3.84-1.66,6.8-8.09,6.6-14.87-.1-3.2-.89-6.34-2.34-9.2-.84-2.32-2.77-4.07-5.16-4.69-1.56-.32-3.14.52-3.74,2-.45,1.06-.15,1.81-.36,1.87s-.83-.57-.62-2.12c.15-.94.63-1.79,1.34-2.42.97-.84,2.24-1.25,3.53-1.15,3.15.43,5.84,2.46,7.11,5.37,1.76,3.14,2.73,6.66,2.82,10.26.19,7.52-3.25,14.76-8.5,16.61-1.99.7-4.19.47-5.99-.64-1.25-.72-1.57-1.55-1.36-1.7Z"/><path class="cls-8" d="m475.1,464.02c-.11.96-6.48.81-14.02,2.27s-13.44,3.82-13.91,2.99,5.12-4.74,13.29-6.24,14.8.19,14.63.98Z"/><path class="cls-3" d="m766.05,752.54s31.18-26.7,40.22-27.42,32.79,3.72,32.79,3.72c0,0,15.01.13,22.47-.81,7.78-1.24,15.74-.85,23.36,1.15,2.25.68,5.08,6.27-1.55,10.09-2.8,1.61-30.07,3.46-30.07,3.46l68.22,19.47-8.86,7.31c-1.2.99-2.69,1.55-4.25,1.59l-98.14,3.48-4.5,10.98-39.69-33.02Z"/><path class="cls-3" d="m840.51,752.56h31.86s11.17-14.87,15.21-21c3.55-5.42,7.79-7.01,11.51-5.73.97.35,1.78,1.05,2.27,1.95h0c.72,1.32.72,2.92,0,4.25l-14.02,26.14,7.35-2.46s14.7-14.4,17.56-17.73c2.87-3.33,13.32-17.35,22.58-7.14l-12.74,14.27,12.74-9.05s10.24-8.79,15.69,1.68l-38.23,32.2"/><path class="cls-4" d="m807.34,739.33c.41-.2.83-.35,1.27-.45,1.24-.42,2.51-.71,3.8-.87,4.81-.64,9.71-.13,14.29,1.49,3.2,1.11,6.28,2.53,9.2,4.25,1.57.93,3.16,1.95,4.78,3.08l2.42,1.72c.76.55,1.72,1.27,2.34,1.61,8.07.62,17.31,1.17,26.97,1.85l-.47.19c2.99-3.55,5.93-7.41,8.77-11.43,1.13-1.57,2.12-3.16,3.21-4.74s2-3.21,3.14-4.69c1.09-1.54,2.35-2.97,3.74-4.25.71-.62,1.49-1.15,2.31-1.59.89-.51,1.91-.74,2.93-.66h-.19c1.77-.3,3.59.14,5.03,1.21,1.29,1.23,1.91,2.99,1.68,4.76h0v.11c-6.07,10.87-11.36,20.35-15.44,27.61h0c-.9,2.72-2.96,4.9-5.63,5.95-1.9.79-3.93,1.22-5.99,1.27-1.27.07-2.54.07-3.8,0-.44.01-.88-.03-1.32-.13h1.32c.85,0,2.12,0,3.78-.15,2-.12,3.96-.59,5.8-1.38,2.45-1.04,4.34-3.09,5.16-5.63h0l15.12-27.88v.19c.18-1.42-.31-2.84-1.34-3.84-1.24-.86-2.76-1.19-4.25-.93h-.17c-.75-.01-1.48.19-2.12.57-.77.39-1.49.88-2.12,1.47-1.34,1.19-2.55,2.53-3.59,3.99-2.12,2.97-4.04,6.37-6.37,9.43-2.87,4.06-5.82,7.9-8.86,11.49l-.17.21h-.28c-9.73-.72-18.77-1.27-27.1-2.02-.95-.5-1.85-1.1-2.68-1.78l-2.4-1.72c-1.57-1.13-3.14-2.12-4.67-3.08-2.85-1.71-5.87-3.14-9-4.25-4.47-1.66-9.27-2.27-14.02-1.78-1.28.13-2.54.36-3.78.68-.44.07-.88.12-1.32.13Z"/><path class="cls-4" d="m934.89,730.83c-.33.64-.74,1.22-1.23,1.74-.87,1.08-2.12,2.63-3.72,4.5-3.14,3.78-7.56,8.94-12.51,14.59-4.95,5.65-9.2,11-12.87,14.36-1.41,1.36-2.95,2.58-4.59,3.65-.58.43-1.25.73-1.95.89.54-.46,1.12-.87,1.72-1.25,1.51-1.19,2.92-2.48,4.25-3.87,3.46-3.44,7.5-8.9,12.55-14.48,5.05-5.59,9.47-10.75,12.74-14.4l3.95-4.25c.48-.57,1.04-1.07,1.66-1.49Z"/><path class="cls-4" d="m917.41,732.32c-1.13,1.65-2.42,3.17-3.87,4.54-2.48,2.72-5.99,6.37-9.9,10.45-3.21,3.31-6.2,6.37-8.5,8.69h0c-2.53,1.02-5.18,1.74-7.88,2.12.68-.34,1.39-.62,2.12-.83l5.56-2.12-.17.11c2.29-2.46,5.22-5.54,8.5-8.83,3.91-4.04,7.5-7.65,10.13-10.22,1.22-1.41,2.55-2.72,3.99-3.91Z"/><path class="cls-5" d="m660.35,594.06s45.79,11.81,50.27,74.03c2.57,35.47-16.31,149.36-16.31,149.36l67.62-69.45,60.27,41.92s-82.04,100.18-100.9,115.32c-18.86,15.14-49.1,39.31-58.87,37.34-9.77-1.98-9.81-47.17-9.81-47.17v-249.54l7.73-51.82Z"/><path class="cls-5" d="m331.17,601.69s-40.73,13.4-39.12,93.04c1.61,79.64.36,106.38.36,106.38l-61.06-64.63-50.67,55.94s56.75,84.31,96.44,125.3c37.42,38.59,70.68,5.08,81.49-22.07,8.75-21.98,15.8-105.57,15.8-105.57l-43.24-188.4Z"/><g class="cls-9"><path d="m663.9,737.41c3.7-23.36,4.67-48.66-5.97-70.08-26.1,64.52-24.93,138.62-15.59,206.98l20.69,59.15c13.04-39.63.66-81.85.93-123.18.17-23.55-3.74-49.57-.06-72.87Z"/></g><path class="cls-5" d="m322.7,652.36s27.23,183.15,32.49,199.19c5.27,16.03,5.27,63.31,5.27,63.31,0,0-28.56,53.22-30.33,90.2l344.2.72-22.36-152c-.71-9.6-.88-19.23-.51-28.84,1.44-26.78,3.5-84.19,11.19-119.48,8.92-41.03-3.1-111.24-3.1-111.24l-102.81-25.34c-24.34,34.98-84.95,35.45-108.99,0l-116.04,32.81-9,50.67Z"/><path class="cls-8" d="m658.72,846.51c.25-.6.59-1.15,1.02-1.64.72-1,1.81-2.44,3.16-4.25,3.53-4.6,7.49-8.87,11.81-12.74,4.4-3.78,9.3-6.93,14.57-9.37,2.12-.89,3.7-1.57,4.86-1.95.6-.26,1.23-.44,1.87-.53.23.45-10.43,3.87-20.58,12.74-4.25,3.83-8.24,7.95-11.94,12.32-1.46,1.92-3.06,3.73-4.78,5.42Z"/><path class="cls-8" d="m339.99,842.63c-.21,0-1-3.72-3.61-9.3-6.81-14.76-19.79-25.77-35.47-30.09-5.95-1.66-9.81-1.83-9.77-2.12.9-.11,1.8-.11,2.7,0,2.45.21,4.88.62,7.26,1.23,7.95,1.96,15.35,5.73,21.6,11.02,6.22,5.32,11.15,11.99,14.4,19.5.98,2.26,1.78,4.59,2.4,6.97.29.91.45,1.85.49,2.8Z"/><path class="cls-8" d="m342.19,743.38c-.57-.19-1.1-.48-1.57-.85-.96-.59-2.31-1.53-3.95-2.76-4.23-3.21-8.19-6.76-11.83-10.62-3.62-3.86-7.02-7.92-10.17-12.17-1.41-1.69-2.65-3.52-3.7-5.46,1.53,1.55,2.95,3.21,4.25,4.97,2.59,3.12,6.16,7.41,10.39,11.89,3.62,3.82,7.46,7.41,11.51,10.77,1.77,1.31,3.46,2.72,5.08,4.23Z"/><path class="cls-8" d="m582.45,842.52s0,.15-.28.42l-.89,1.17c-.85,1-1.98,2.57-3.63,4.4-4.6,5.25-9.57,10.17-14.87,14.72-7.9,6.78-16.31,12.92-25.17,18.39-10.81,6.65-21.98,12.69-33.45,18.12-12.19,5.8-23.96,10.96-34.62,15.76-10.66,4.8-20.2,9.2-28.08,13.17-7.88,3.97-14.17,7.37-18.46,9.83-2.12,1.19-3.78,2.12-4.91,2.85l-1.3.72c-.3.15-.45.23-.47.21.12-.12.25-.22.4-.3l1.23-.83c1.1-.7,2.7-1.76,4.82-3.04,4.25-2.57,10.45-6.12,18.31-10.15,7.86-4.04,17.39-8.5,28.03-13.4,10.64-4.91,22.38-10.02,34.53-15.82,11.44-5.41,22.59-11.41,33.41-17.99,8.82-5.37,17.23-11.4,25.15-18.03,5.35-4.47,10.39-9.29,15.1-14.42,1.7-1.76,2.89-3.29,3.76-4.25l1-1.08.36-.45Z"/><path class="cls-8" d="m330.92,1002.18v-1.78c0-1.23.19-2.95.32-5.18.82-6.46,2.12-12.85,3.89-19.11,6.53-21.96,15.41-43.14,26.5-63.18v.28c-1.38-19.92-3.44-42.18-5.82-65.58-4.54-44.22-9.3-84.14-12.74-113.07-1.74-14.4-3.16-26.08-4.25-34.21-.47-3.99-.83-7.14-1.1-9.32l-.25-2.42c-.03-.28-.03-.55,0-.83.09.26.14.53.17.81.08.59.21,1.4.38,2.42.3,2.12.74,5.29,1.3,9.28,1.08,8.13,2.61,19.79,4.52,34.19,3.67,28.88,8.5,68.81,13.1,113.03,2.38,23.36,4.42,45.7,5.71,65.65v.28c-11.1,19.96-20.08,41.03-26.78,62.86-1.85,6.23-3.27,12.58-4.25,19.01-.19,2.12-.36,3.93-.47,5.14,0,.55,0,1-.15,1.34,0,.14-.04.29-.08.42Z"/><path class="cls-8" d="m666.87,656.63c.03.3.03.61,0,.91v2.68c0,2.34,0,5.8-.19,10.24-.23,8.9-1.15,21.75-2.74,37.59-1.59,15.84-3.84,34.64-6.18,55.54s-4.63,43.9-5.35,68.15c-.5,22.78,1.07,45.57,4.69,68.07,3.06,20.81,6.67,39.4,9.45,55.07,2.78,15.67,4.95,28.35,6.14,37.17.64,4.42,1,7.86,1.25,10.17,0,1.13.19,2.12.25,2.65.03.3.03.61,0,.91-.09-.29-.15-.59-.17-.89,0-.66-.21-1.53-.38-2.63-.32-2.34-.74-5.76-1.47-10.15-1.3-8.79-3.5-21.47-6.37-37.1s-6.58-34.21-9.71-55.05c-3.69-22.56-5.3-45.41-4.8-68.26.74-24.3,3.1-47.32,5.46-68.22s4.78-39.69,6.37-55.52c1.59-15.82,2.7-28.63,3.08-37.53.28-4.44.3-7.88.38-10.22v-2.68c.06-.31.16-.62.28-.91Z"/><g class="cls-9"><path d="m338.46,695.87c-5.87,58.65.93,117.88,19.94,173.68l-19.94-173.68Z"/></g><g class="cls-9"><path d="m551.36,898.8c-26.08,23.96-52.24,44.43-84.33,55.83,24.19,2.12,48.59-7.2,67.28-22.68,18.69-15.48,32.01-31.86,40.56-54.5l-23.51,21.34Z"/></g><path class="cls-8" d="m521.65,925.18c-.21-.21,16.01-15.1,36.23-33.24,20.22-18.14,36.78-32.64,36.97-32.41s-16.01,15.1-36.23,33.24c-20.22,18.14-36.76,32.64-36.97,32.41Z"/><path class="cls-7" d="m579.33,475.73c0,7.35-5.96,13.32-13.32,13.32-7.35,0-13.32-5.96-13.32-13.32s5.96-13.32,13.32-13.32c0,0,.01,0,.02,0,7.34,0,13.29,5.95,13.29,13.29v.02Z"/><path class="cls-8" d="m658.57,650.6c-3.92-32.56-7.84-65.13-11.77-97.69l-84.21-25.49c-1.64,58.11-11.81,123.35-26.42,179.61,31.15,10.08,64.07,13.51,96.63,10.07,1.42-15.72,2.83-31.43,4.25-47.15,2.1,11.85,4.22,23.69,6.37,35.53,8.83-4.95,14.04-14.87,15.8-24.78,1.76-9.92.55-19.94-.66-30.09Z"/><path class="cls-7" d="m592.67,717.54s0-.4.25-1.21.47-2.12.83-3.59c.74-3.19,1.83-7.82,3.23-13.74,2.76-11.96,6.84-29.22,10.81-50.78,4.85-25.24,7.91-50.79,9.17-76.46,1.62-31.39-1.24-62.86-8.5-93.45-7.18-30.65-20.46-59.55-39.06-84.95-2.12-2.87-4.25-5.78-6.63-8.5-2.38-2.72-4.48-5.37-6.88-7.82l-3.5-3.72-3.57-3.55c-2.34-2.38-4.76-4.57-7.09-6.77-9.45-8.75-18.69-16.44-26.95-23.66-8.26-7.22-15.63-13.87-21.75-20.09-1.55-1.55-2.95-3.12-4.25-4.57s-2.72-2.91-3.91-4.25-2.4-2.76-3.5-4.06l-2.99-3.82c-1.95-2.38-3.42-4.67-4.8-6.6s-2.4-3.63-3.23-5.03l-1.87-3.14c-.42-.72-.62-1.1-.62-1.1,0,0,.25.34.72,1.04l1.95,3.1c.85,1.36,1.91,3.06,3.31,4.95s2.89,4.25,4.86,6.54l3.02,3.78,3.53,4.01c1.21,1.42,2.53,2.85,3.95,4.25s2.8,3.02,4.37,4.52c6.12,6.18,13.53,12.74,21.81,19.94,8.28,7.2,17.54,14.87,27.06,23.57,2.34,2.12,4.8,4.42,7.14,6.77l3.59,3.55,3.53,3.74c2.42,2.44,4.61,5.18,6.92,7.84s4.48,5.54,6.71,8.5c18.67,25.51,32,54.53,39.18,85.31,7.3,30.7,10.16,62.28,8.5,93.79-1.32,25.68-4.47,51.23-9.43,76.46-4.08,21.58-8.26,38.82-11.15,50.76-1.47,5.95-2.63,10.62-3.44,13.7-.4,1.53-.72,2.7-.93,3.55s-.4,1.19-.4,1.19Z"/></g></svg>