<?xml version="1.0" encoding="UTF-8"?><svg id="Ebene_1" xmlns="http://www.w3.org/2000/svg" viewBox="0 0 1000 1000"><defs><style>.cls-1{fill:#ebebeb;}.cls-2{fill:#fafafa;}.cls-3{fill:#7e6c65;}.cls-4{fill:#e0e0e0;}.cls-5{fill:#455a64;}.cls-6{fill:#263238;}</style></defs><g id="freepik--Bottle--inject-105"><rect class="cls-5" x="480.54" y="128.22" width="42.36" height="100.62"/><path class="cls-6" d="m404.63,843.13v-370.07c0-53.79,43.61-97.4,97.4-97.4h0c53.79,0,97.4,43.61,97.4,97.4h0v370.07h-194.79Z"/><rect class="cls-6" x="473.11" y="183.62" width="57.76" height="310.28"/><rect class="cls-1" x="433.02" y="499.33" width="126.29" height="245.84"/><path class="cls-5" d="m599.4,843.13s-2.54-1.43-7.31-3.64c-6.78-3.04-13.7-5.67-20.77-7.91-10.45-3.43-21.07-6.3-31.85-8.6-13.07-3.01-26.45-4.72-39.88-5.07-13.52-.15-27.04.84-40.39,2.96-10.81,1.79-21.4,4.69-31.61,8.66-9.31,4-18.33,8.63-27.01,13.91,1.94-1.97,4.09-3.7,6.45-5.13,6.21-4.24,12.81-7.82,19.73-10.75,10.33-4.42,21.13-7.64,32.21-9.64,13.43-2.3,27.04-3.37,40.68-3.22,13.61.36,27.16,2.15,40.39,5.37,10.81,2.42,21.46,5.52,31.91,9.28,7.07,2.45,13.97,5.4,20.6,8.9,2.57,1.19,4.9,2.87,6.87,4.9h0Z"/><path class="cls-5" d="m593.22,474.71c.87,0,1.49,73.04,1.49,163.09s-.63,163.09-1.49,163.09-1.49-73.04-1.49-163.09.69-163.09,1.49-163.09Z"/><path class="cls-5" d="m489.91,381.82c0,.51-7.61,1.43-18.98,6.24-30.24,12.51-50.95,40.83-53.67,73.46-1.1,12.3.42,19.91,0,19.97-.69-1.67-1.13-3.43-1.28-5.25-.75-4.93-.96-9.91-.69-14.89,1.7-33.76,23.37-63.25,55.04-75.01,4.63-1.76,9.43-3.07,14.3-3.88,1.7-.51,3.46-.72,5.25-.63h.03Z"/><path class="cls-5" d="m480.33,370.51c-.81,0-1.49-37.55-1.49-83.88s.69-83.88,1.49-83.88,1.49,37.55,1.49,83.88-.42,83.88-1.49,83.88Z"/><rect class="cls-3" x="473.11" y="246.9" width="57.76" height="88.05"/><path class="cls-5" d="m510.84,577.33c-17.7,1.52-35.46,2.03-53.19,1.49-17.76.51-35.52,0-53.19-1.49,17.7-1.49,35.46-2,53.19-1.49,17.76-.48,35.52,0,53.19,1.49Z"/><rect class="cls-4" x="404.63" y="602.79" width="95.49" height="95.49"/></g><path class="cls-2" d="m700.06,310.93h-148c-4.06.06-7.35,5.28-7.37,11.73v78.82c0,6.52,3.33,11.81,7.44,11.81h20.94v26.18l17.15-26.18h109.84c4.11.01,7.45-5.26,7.46-11.78v-78.85c-.04-6.49-3.36-11.73-7.46-11.73Z"/><path class="cls-6" d="m700.06,310.93c.3-.03.6-.03.91,0,.89.14,1.76.53,2.55,1.17,1.31,1.05,2.41,2.69,3.14,4.72.46,1.31.76,2.73.91,4.21.06,1.68.06,3.36,0,5.04,0,14.26.08,34.92.13,60.75v15.11c-.11,5.83-2.79,10.73-6.42,11.73-1.19.21-2.38.27-3.58.19h-107.54l.29-.19-17.08,26.28-.74,1.12v-27.78l.44.69h-21.43c-2.12-.17-4.1-1.7-5.49-4.24-1.37-2.5-2.07-5.75-1.97-9.06v-36.6c0-12,0-23.79,0-35.37v-4.32c-.04-1.48.03-2.97.2-4.43.43-2.96,1.53-5.56,3.09-7.33,1.53-1.7,3.39-2.53,5.26-2.35h5.24l73.9.16,49.85.21,13.55.13h4.72-18.27l-49.85.24-73.9.13h-5.22c-1.7-.21-3.4.54-4.79,2.11-1.39,1.58-2.37,3.91-2.74,6.56-.17,1.36-.24,2.75-.18,4.13v76.37c-.14,2.96.47,5.89,1.68,8.16,1.25,2.24,3.01,3.6,4.89,3.76h21.83v27.22l-.72-.51,17.15-26.15.13-.19h107.76c1.16.07,2.32.02,3.48-.16,2.19-.6,4.09-2.79,5.12-5.92,1.07-3.04.76-6.58.81-10,.05-3.41,0-6.72,0-9.94,0-25.83.1-46.49.13-60.75v-4.98c-.12-1.43-.4-2.81-.84-4.08-.7-1.99-1.74-3.62-3.01-4.69-1.07-.75-2.22-1.15-3.39-1.17Z"/><path class="cls-6" d="m689.13,348.6c0,.37-28.25.69-63.12.69s-63.12-.32-63.12-.69,28.27-.69,63.12-.69,63.12.29,63.12.69Z"/><path class="cls-6" d="m689.13,363.95c0,.37-28.25.69-63.12.69s-63.12-.32-63.12-.69,28.27-.69,63.12-.69,63.12.29,63.12.69Z"/><path class="cls-6" d="m619.11,379.31c-.73.22-1.46.31-2.2.27l-6.03.21c-5.04,0-12.09.21-19.85.21s-14.76,0-19.85-.21l-6.01-.21c-.74.04-1.49-.05-2.22-.27.73-.22,1.47-.31,2.22-.27l6.01-.21c5.04,0,12.11-.21,19.85-.21s14.78,0,19.85.21l6.03.21c.74-.04,1.48.05,2.2.27Z"/><path class="cls-2" d="m370.19,459.91h102.43c5.1-.01,9.24,4.11,9.25,9.21,0,0,0,.01,0,.02v61.59c0,5.11-4.14,9.25-9.25,9.25h-26.03v20.43l-21.27-20.43h-55.13c-5.11,0-9.25-4.14-9.25-9.25h0v-61.59c0-5.1,4.13-9.23,9.23-9.23,0,0,.01,0,.02,0Z"/><path class="cls-6" d="m370.19,459.91c-.92.08-1.84.25-2.73.5-2.55.85-4.61,2.76-5.64,5.25-.34.87-.55,1.78-.62,2.71v60.73c-.03,1.02,0,2.05.12,3.06.5,3.11,2.62,5.71,5.56,6.83,2.1.6,4.3.8,6.48.58h52.01l.15.15,21.45,20.29-.92.37v-20.95h22.91c1.73.06,3.46,0,5.19-.15,3.31-.58,5.98-3.01,6.87-6.25.32-1.65.42-3.33.31-5v-58.34c.15-2.88-1.11-5.65-3.37-7.44-1.1-.85-2.38-1.43-3.75-1.69-1.38-.16-2.77-.21-4.17-.17h-39.01l-44.55-.37h-16.29,16.29l44.45-.19h39.01c1.47-.06,2.94-.02,4.39.15,4.79.9,8.18,5.19,7.94,10.06v60.92c.01,2.78-1.13,5.45-3.17,7.35-1.37,1.26-3.08,2.1-4.92,2.42-1.79.17-3.58.22-5.37.17h-22.22l.54-.54v21.31l-.92-.87c-7.31-7.06-14.45-13.93-21.24-20.45l.35.15h-55.17c-1.17,0-2.33-.22-3.42-.65-2.14-.83-3.91-2.39-5.02-4.39-.54-.98-.9-2.04-1.06-3.15-.08-1.06-.08-2.13,0-3.19v-60.75c.1-.95.34-1.87.71-2.75,1.11-2.62,3.34-4.6,6.08-5.37.89-.28,1.82-.39,2.75-.33Z"/><circle class="cls-6" cx="399.27" cy="500.28" r="5.62"/><path class="cls-6" d="m427.03,500.28c0,3.11-2.52,5.62-5.62,5.62s-5.62-2.52-5.62-5.62,2.52-5.62,5.62-5.62h0c3.11,0,5.62,2.52,5.62,5.62Z"/><circle class="cls-6" cx="443.57" cy="500.28" r="5.62"/><path class="cls-2" d="m755.42,807.39v-78.85c-.01-6.52-5.31-11.8-11.84-11.78h-174.33l-27.22-26.18v26.18h-33.24c-6.52,0-11.81,5.29-11.81,11.81v78.82c.04,6.45,5.25,11.67,11.7,11.73h234.9c6.5,0,11.78-5.23,11.84-11.73Z"/><path class="cls-6" d="m748.97,817.95c2.01-1.07,3.66-2.7,4.77-4.69.7-1.26,1.15-2.65,1.33-4.08v-4.98c-.05-14.26-.21-34.92-.21-60.75,0-3.23.08-6.53,0-9.94s.43-6.96-1.28-10c-1.64-3.13-4.65-5.32-8.13-5.92-1.83-.18-3.68-.23-5.52-.16h-171.03l-.21-.19-27.22-26.15,1.15-.51v27.22h-34.65c-2.99.16-5.78,1.52-7.76,3.76-1.93,2.26-2.88,5.19-2.67,8.16v76.37c-.08,1.38.02,2.77.29,4.13.59,2.65,2.14,4.98,4.35,6.56,2.21,1.57,4.9,2.32,7.6,2.11h8.29l117.29.13,79.12.24h29-7.49l-21.51.13-79.12.21-117.29.16h-8.32c-2.97.19-5.91-.64-8.34-2.35-2.47-1.77-4.21-4.37-4.9-7.33-.28-1.46-.38-2.94-.32-4.43v-4.32c0-11.59,0-23.38,0-35.37v-36.6c-.17-3.31.95-6.56,3.12-9.06,2.21-2.53,5.36-4.06,8.72-4.24h34.01l-.69.69v-27.78l1.17,1.12,27.11,26.28-.45-.19h170.68c1.89-.08,3.79-.02,5.68.19,5.75,1,10,5.9,10.18,11.73v15.11c-.08,25.83-.21,46.49-.21,60.75.1,1.68.1,3.36,0,5.04-.23,1.48-.72,2.9-1.44,4.21-1.17,2.02-2.9,3.66-4.98,4.72-1.27.64-2.64,1.04-4.05,1.17-.48.03-.96.03-1.44,0,1.86-.03,3.69-.43,5.38-1.17Z"/><path class="cls-6" d="m626.05,782.15c-55.31,0-100.18-.32-100.18-.69s44.84-.69,100.18-.69,100.18.32,100.18.69c0,.4-44.86.69-100.18.69Z"/><path class="cls-6" d="m626.05,766.79c-55.31,0-100.18-.32-100.18-.69s44.84-.69,100.18-.69,100.18.32,100.18.69c0,.4-44.86.69-100.18.69Z"/><path class="cls-6" d="m611.61,751.01l-9.57.21c-8.05.21-19.22.21-31.51.21s-23.51-.21-31.51-.21l-9.54-.21c-1.18.04-2.36-.05-3.52-.27,1.16-.22,2.34-.31,3.52-.27l9.54-.21c8.08-.21,19.19-.21,31.51-.21s23.51.21,31.51.21l9.57.21c1.17-.04,2.34.05,3.49.27-1.15.22-2.32.31-3.49.27Z"/><path class="cls-2" d="m299.77,744.76h145.04c3.98-.04,7.2-3.26,7.23-7.24v-48.67c0-4.03-3.26-7.29-7.29-7.29h-20.52s0-16.16,0-16.16l-16.81,16.16h-107.64c-4.03,0-7.3,3.25-7.31,7.28v.02s0,48.67,0,48.67c.04,4.01,3.3,7.24,7.31,7.24Z"/><path class="cls-6" d="m299.77,744.76c-.3.02-.59.02-.89,0-.87-.08-1.72-.33-2.5-.72-1.29-.65-2.36-1.66-3.08-2.91-.45-.81-.75-1.69-.89-2.6-.06-1.04-.06-2.07,0-3.11,0-8.81-.08-21.56-.13-37.51v-6.14s0-3.19,0-3.19c.11-3.6,2.74-6.63,6.29-7.24,1.16-.13,2.34-.17,3.51-.12h3.47s30.52,0,30.52,0h71.4s-.28.12-.28.12l16.74-16.23.72-.69v17.15s-.43-.43-.43-.43h21c2.07.11,4.02,1.05,5.38,2.62,1.34,1.55,2.03,3.55,1.93,5.6v22.6c0,7.41,0,14.69,0,21.84v2.67c.04.92-.03,1.83-.2,2.73-.43,1.83-1.5,3.44-3.03,4.53-1.5,1.05-3.32,1.56-5.15,1.45h-5.14s-72.42-.1-72.42-.1l-48.85-.13-13.28-.08h-3.46s-1.17,0-1.17,0h1.17s3.46,0,3.46,0h13.28s48.85-.15,48.85-.15l72.42-.08h5.12c1.67.13,3.33-.33,4.69-1.3,1.36-.97,2.32-2.42,2.68-4.05.17-.84.23-1.7.18-2.55v-24.51c0-7.43,0-14.98,0-22.65.13-1.83-.46-3.64-1.65-5.04-1.22-1.38-2.95-2.22-4.79-2.32h-21.4s0-.64,0-.64c0-5.55,0-11.04,0-16.16l.71.31-16.81,16.15-.13.12h-.16s-71.4,0-71.4,0h-30.52s-3.52,0-3.52,0c-1.14-.04-2.27,0-3.41.1-2.15.37-4.01,1.72-5.02,3.65-1.05,1.88-.74,4.07-.79,6.17s0,4.15,0,6.14c0,15.95-.1,28.71-.13,37.51v3.08c.11.88.39,1.74.82,2.52.68,1.23,1.71,2.23,2.95,2.9,1.05.46,2.18.71,3.32.72Z"/><path class="cls-6" d="m310.49,721.5c0-.23,27.68-.43,61.85-.43,34.17,0,61.85.2,61.85.43s-27.7.43-61.85.43-61.85-.18-61.85-.43Z"/><path class="cls-6" d="m310.49,712.02c0-.23,27.68-.43,61.85-.43,34.17,0,61.85.2,61.85.43,0,.23-27.7.43-61.85.43-34.15,0-61.85-.18-61.85-.43Z"/><path class="cls-6" d="m379.11,702.54c.71-.13,1.43-.19,2.16-.16l5.91-.13c4.94,0,11.85-.13,19.46-.13,7.6,0,14.47,0,19.46.13l5.89.13c.73-.02,1.46.03,2.17.16-.72.13-1.44.19-2.17.16l-5.89.13c-4.94,0-11.87.13-19.46.13-7.59,0-14.48,0-19.46-.13l-5.91-.13c-.72.02-1.45-.03-2.16-.16Z"/></svg>