<?xml version="1.0" encoding="UTF-8"?><svg id="Ebene_1" xmlns="http://www.w3.org/2000/svg" viewBox="0 0 500 500"><defs><style>.cls-1{fill:#ebebeb;}.cls-2{fill:#eb996e;}.cls-3{fill:#ffbf9d;}.cls-4{fill:#ffbe9d;}.cls-5{fill:#7e6c65;}.cls-6{fill:#e0e0e0;}.cls-7{fill:#455a64;}.cls-8{fill:#263238;}.cls-9{opacity:.3;}</style></defs><g id="freepik--Character--inject-44"><path class="cls-8" d="m181.85,165.2c-6.97,26.38-8.41,53.56-8.41,53.56h23.16l128.31-12.4c-.05-2.04.7-16.59.64-18.67h0c-1.43-51.25-8.66-116.15-17.02-131.2-14.18-25.59-44.05-32.26-44.05-32.26-48.49-3.99-56.51,40.76-65.21,79.24-3.08,13.57-10.6,36.09-17.42,61.73h0Z"/><path class="cls-3" d="m304.51,75.7c-2.24-15.48-13.96-33.76-29.33-30.94l-47.45,15.95c-4.68.85-1.32,8.47-.87,13.2l10.33,107.05s-6.41,4.48-8.72,3.7c-.34-.12-.71.06-.83.4-.07.19-.04.4.07.57,5.71,8.27,32.6,44.45,60.34,33.4,6.21-2.46-.65-21.98,0-29.13l-.83-18.48c-.63-9.43-.92-13.29-.9-13.2s19.6-4.84,21.73-31.07c1.17-13.15-1.08-34.24-3.54-51.44h0Z"/><path class="cls-8" d="m219.32,63.11s7.42-15.89,7.95-16.28,32.01-9.26,32.01-9.26l10.54,1.52s-11.25,12.57-17.05,25.05c-16.98,36.66-28.98,33.76-28.98,33.76l-4.47-34.79h0Z"/><path class="cls-7" d="m213.88,206.87c-.09-.35-.22-.84-.38-1.46-.33-1.28-.82-3.21-1.42-5.67-1.19-4.94-2.93-12.07-4.61-20.99-2.05-10.43-3.35-21-3.9-31.61-.69-13.03.5-26.09,3.51-38.78,2.97-12.73,8.48-24.73,16.2-35.27.92-1.22,1.82-2.41,2.78-3.51s1.86-2.23,2.86-3.24l1.46-1.55,1.48-1.46c.97-.98,1.98-1.92,2.95-2.8,3.93-3.6,7.76-6.77,11.19-9.75,3.42-2.98,6.49-5.69,9.02-8.25.65-.62,1.22-1.29,1.81-1.87s1.13-1.17,1.63-1.75l1.46-1.66,1.25-1.56c.82-.95,1.43-1.92,2.01-2.7s1.02-1.48,1.37-2.05l.81-1.28c.19-.29.3-.43.3-.43,0,0-.08.16-.25.46l-.77,1.3c-.34.58-.76,1.28-1.33,2.08s-1.18,1.75-1.98,2.73l-1.24,1.58c-.46.53-.96,1.13-1.45,1.68s-1.08,1.16-1.61,1.75-1.12,1.25-1.75,1.89c-2.53,2.57-5.57,5.32-8.99,8.31-3.42,2.98-7.23,6.16-11.14,9.78-.97.91-1.97,1.82-2.93,2.8l-1.47,1.46-1.45,1.54c-.99,1.01-1.86,2.11-2.84,3.23-.99,1.13-1.86,2.33-2.74,3.51-7.69,10.5-13.18,22.45-16.15,35.13-3,12.65-4.18,25.66-3.51,38.64.52,10.61,1.79,21.18,3.79,31.61,1.64,8.91,3.33,16.05,4.47,21,.58,2.45,1.03,4.36,1.33,5.68.15.61.24,1.15.34,1.48s.1.5.1.5c0,0-.08-.14-.17-.49h0Z"/><path class="cls-5" d="m318.3,177.81s27.73,7.56,37.81,32.29c8.97,21.65,66.6,119.53,34.31,135.95-23.32,11.85-51.35-18.55-51.35-18.55l-20.77-149.68Z"/><path class="cls-8" d="m380.37,348.72c-.62.16-1.26.21-1.89.15-1.69.02-3.38-.1-5.04-.38-2.53-.38-5.01-.98-7.44-1.79-2.95-1.04-5.79-2.34-8.49-3.91-4.88-2.83-9.41-6.21-13.51-10.08-1.79-1.48-3.39-3.17-4.76-5.04,1.88,1.28,3.66,2.7,5.32,4.26,4.23,3.62,8.76,6.88,13.54,9.73,2.65,1.5,5.4,2.8,8.24,3.88,2.34.85,4.74,1.53,7.18,2.04,4.18.78,6.86.88,6.86,1.13Z"/><path class="cls-4" d="m93.74,276.22c.9,0,21.69,8.23,21.69,8.23l11.54,9.9c2.97,4.9,3.92,10.82,2.65,16.45-1.83,10.45-6.31,14.59-17.24,18.87l-21.69-.85-11.83-7.79c-2.32-1.55-3.5-4.4-3-7.21v-.47l-1.48-1.97c-.91-1.23-1.03-2.9-.29-4.25h0c1.02-1.84,3.28-2.49,5.06-1.45l13.26,7.68h8.46l.93-2.96-12.99-5.07-17-10.53c-2.18-1.34-2.89-4.25-1.6-6.5.04-.06.07-.13.11-.19h0c1.24-1.93,3.64-2.67,5.7-1.76l15.46,7.02,15.91,5.02-3.05-5.92-19.33-11.38s-2.25-6.34,8.72-4.85Z"/><path class="cls-8" d="m299.88,98.58c.15,1.92-1.26,3.61-3.18,3.81-1.88.3-3.65-.98-3.96-2.86,0,0,0,0,0,0-.16-1.92,1.24-3.62,3.15-3.83,1.9-.3,3.68.99,3.98,2.89,0,0,0,0,0,0Z"/><path class="cls-8" d="m302.15,86.56c-.47.44-3.09-1.72-6.95-1.97s-6.8,1.56-7.17.98.3-1.03,1.59-1.83c1.75-1.01,3.77-1.48,5.8-1.33,2,.12,3.92.87,5.47,2.14,1.14.95,1.49,1.82,1.26,2.02Z"/><path class="cls-8" d="m264.59,100.65c.16,1.92-1.24,3.61-3.15,3.81-1.88.3-3.65-.98-3.96-2.86,0,0,0,0,0,0-.18-1.92,1.23-3.63,3.15-3.83,1.88-.3,3.65.98,3.95,2.87,0,.01,0,.02,0,.03Z"/><path class="cls-8" d="m264.51,89.2c-.4.5-3.28-1.26-7.13-.96-3.86.3-6.53,2.52-6.98,1.99s.15-1.06,1.31-2.02c1.59-1.26,3.52-2.02,5.55-2.17,2.01-.17,4.02.3,5.75,1.34,1.26.81,1.71,1.59,1.51,1.81Z"/><path class="cls-8" d="m280.85,116.2c1.99-.78,4.06-1.31,6.18-1.59.98-.18,1.89-.45,1.99-1.11.01-1.01-.3-2-.88-2.82l-3.53-7.13c-4.92-10.08-8.55-18.58-8.14-18.75s4.74,7.89,9.65,18.07l3.4,7.18c.72,1.11,1.02,2.44.83,3.76-.24.71-.79,1.27-1.49,1.54-.53.2-1.09.32-1.66.35-2.09.45-4.22.62-6.35.5Z"/><path class="cls-2" d="m286.48,158.66s-14.77,2.37-34.31-7.18c1.16.58,6.81,22.36,35.29,14.12l-.98-6.93Z"/><path class="cls-2" d="m286.87,129.73c-2.36-.44-4.78.33-6.45,2.06-1.22,1.21-1.9,2.86-1.89,4.58-.01,1.67,1.04,3.16,2.62,3.7,1.84.25,3.65-.62,4.61-2.21,1-1.64,1.66-3.46,1.95-5.36.13-.51.17-1.04.12-1.57,0-.52-.33-.98-.82-1.15"/><path class="cls-8" d="m275.17,130.96c.49-.35,3.11,2.74,7.77,2.69s7.79-3.26,8.17-2.85-.25,1.26-1.66,2.5c-1.87,1.59-4.24,2.49-6.69,2.54-2.33.06-4.6-.8-6.3-2.4-1.13-1.3-1.54-2.31-1.29-2.48Z"/><path class="cls-8" d="m264.38,76.95c-.28,1.06-4.18.86-8.65,1.74s-8.04,2.52-8.72,1.51c-.3-.4.25-1.44,1.64-2.52,1.86-1.4,4.03-2.34,6.33-2.75,2.29-.46,4.66-.37,6.91.25,1.71.5,2.62,1.26,2.5,1.76Z"/><path class="cls-8" d="m300.1,76.64c-.74.8-3.32-.3-6.51-.61s-5.94.1-6.5-.86c-.23-.45.21-1.29,1.5-2.01,1.66-.87,3.55-1.21,5.41-.97,1.88.18,3.65.93,5.09,2.14,1.04.98,1.35,1.9,1.01,2.31Z"/><path class="cls-4" d="m230,95.6c-.4-.13-15.48-3.53-14.04,11.55,1.44,15.07,16.28,10.54,16.26,10.08s-2.22-21.63-2.22-21.63Z"/><path class="cls-2" d="m227.05,111.98s-.25.2-.68.45c-.61.31-1.31.39-1.97.23-2.09-1.08-3.45-3.19-3.55-5.55-.16-1.29-.04-2.6.38-3.83.2-.99.87-1.82,1.79-2.22.61-.21,1.28.03,1.61.58.25.4.18.71.25.73s.3-.28.13-.91c-.13-.36-.37-.67-.68-.88-.45-.27-.98-.36-1.49-.25-1.22.35-2.17,1.3-2.52,2.52-.53,1.37-.71,2.85-.53,4.31.12,2.76,1.88,5.18,4.46,6.15.84.16,1.72-.07,2.37-.63.43-.35.43-.68.43-.71Z"/><path class="cls-8" d="m367.99,373.55s26.85,48.98,26.39,102.09c-.45,53.11-53.47,380.64-53.47,380.64l-63.67-17.37c-1.59,10.54,24.25-107.44,33.95-164.33,9.55-56.01-19.99-260.55-19.99-260.55l71.84-40.79"/><path class="cls-8" d="m223.14,396.66s-21.43,53.26-14.29,94.73c7.13,41.47,60.5,382.88,60.5,382.88l62.49-12.2-26.59-443.33-82.1-22.08Z"/><path class="cls-7" d="m320.17,471.33c.04.33.04.66,0,.98,0,.71.15,1.66.28,2.9.2,2.52.5,6.38.88,11.17.78,9.68,1.74,23.72,2.82,41.09,2.19,34.71,4.64,82.68,6.15,135.74,1.51,53.06,1.76,101.11,1.54,135.89,0,17.39-.28,31.46-.48,41.16-.13,4.81-.2,8.57-.28,11.22v2.9c.03.33.03.66,0,.98-.04-.33-.04-.66,0-.98v-55.28c0-34.79-.43-82.81-1.92-135.87-1.49-53.06-3.81-101.01-5.75-135.72-1.03-17.29-1.84-31.33-2.52-41.11-.28-4.79-.5-8.55-.66-11.17v-2.92c-.06-.32-.08-.65-.08-.98Z"/><path class="cls-5" d="m228.09,177.25s-30.1,12.43-37.81,17.44,26.67,112.8,26.67,112.8c0,0,16.46,44.44,11.19,63.9-2.97,10.94-8.12,22.54-10.51,32.77-2.49,10.42,3.89,20.9,14.29,23.47,18.53,4.56,54.3,10.64,85.48.15,18.71-6.06,36.52-14.61,52.94-25.43,8.31-5.67,10.95-16.72,6.1-25.54-2.08-3.81-4.62-7.35-7.56-10.54-10.08-10.76-17.65-51.63-19.69-62.87-.33-1.84-.38-3.72-.15-5.57,1.21-10.56,5.04-49.28-.66-68.31-4.61-15.12-14.6-33.45-20.42-43.38-2.76-4.66-7.32-7.97-12.6-9.15l-30.83-6.76c-2.69-.23-5.4-.07-8.04.45l-46.28,6.76-2.12-.2Z"/><path class="cls-5" d="m174.49,252.9c1.13,14.41,4.4,57.13,4.4,57.13l-44.79-6.61-15.34,29.59s65.02,42.04,76.18,40.82c11.16-1.22,32.17-6.73,33.98-33.72.99-14.95-4.06-74.82-6.88-105.37-1.03-10.97-1.89-18.16-1.89-18.16-2.45-22.52-15.98-30.1-15.98-30.1,0,0-34.52,4.21-29.66,66.42Z"/><path class="cls-8" d="m347.6,284.69c.86-3.56,1.42-7.19,1.66-10.84.28-8.84-2.25-17.54-7.21-24.85-1.89-2.68-4.07-5.14-6.5-7.34-2.32-1.95-4.23-4.35-5.6-7.06v-.28c.91-5.42,1.69-10.08,2.27-13.54.23-1.7.58-3.39,1.06-5.04-.01,1.74-.17,3.48-.48,5.19-.48,3.53-1.11,8.14-1.84,13.59v-.28c2.14,4.87,8.32,8.17,12.12,14.14,5.09,7.51,7.56,16.5,7.01,25.56-.19,2.71-.67,5.4-1.41,8.02-.27.94-.63,1.85-1.08,2.72Z"/><path class="cls-8" d="m177.64,308.09c7.74-.67,15.28,2.67,19.98,8.84,1.04,1.18,1.76,2.61,2.09,4.15-.14.11-.96-1.45-2.78-3.54-4.83-5.49-11.83-8.59-19.15-8.47-1.51.2-3.03.31-4.55.32,1.34-.78,2.86-1.22,4.41-1.3Z"/><path class="cls-8" d="m176.52,280.12c1.15,9.42,1.82,18.9,2.01,28.39-.38.03-1.85-12.61-3.31-28.25-1.15-9.42-1.82-18.9-2.01-28.39.38-.03,1.85,12.61,3.31,28.25Z"/><path class="cls-8" d="m352.82,313.15c1.83,9.3,3.45,18.66,4.85,28.04-.17.03-2.59-12.45-5.42-27.89-1.83-9.3-3.45-18.66-4.85-28.04.17-.03,2.59,12.45,5.42,27.89Z"/><path class="cls-8" d="m220.92,223.5c.1.65.28,1.47.35,2.5.26,2.28.64,5.49,1.11,9.58.92,8.32,2.13,20.39,3.44,35.31,1.31,14.92,2.77,32.71,3.72,52.5.13,2.52.16,5.04.33,7.56l.27,3.82-.1,3.9c-.08,2.66-.38,5.31-.88,7.92-.59,2.67-1.44,5.27-2.56,7.76-2.31,5.12-5.89,9.56-10.41,12.89-4.65,3.43-10.01,5.76-15.69,6.8l-1.06.07h0c-4.29.78-8.72.43-12.83-1.01-3.96-1.31-7.81-2.9-11.53-4.77-7.26-3.61-14.32-7.33-21.01-11.15-12.4-7.08-24.32-14.98-35.66-23.65l-.4-.3.22-.42c5.83-11.15,10.99-21.02,15.45-29.52l.16-.29.3-.02c12.33,1.78,22.06,3.52,28.75,4.58l7.67,1.3,1.97.37.67.15-.68.05-1.99-.24-7.66-1.07c-6.71-.94-16.48-2.52-28.8-4.18l.46-.24-15.34,29.62-.05-.73c11.4,8.48,23.35,16.21,35.76,23.14,6.65,3.81,13.65,7.47,21,11,3.67,1.82,7.46,3.39,11.35,4.68,3.89,1.36,8.06,1.7,12.12.99h0l.98-.07c5.48-.97,10.68-3.17,15.19-6.43,4.33-3.2,7.76-7.46,9.99-12.36,1.07-2.39,1.9-4.88,2.48-7.43.49-2.52.78-5.08.87-7.64.04-1.27.17-2.54.08-3.8l-.12-3.83c-.1-2.52-.1-5.05-.28-7.56-.9-19.77-2.16-37.6-3.41-52.45-1.25-14.85-2.39-26.9-2.98-35.34-.47-4.09-.69-7.3-.86-9.59l-.18-2.51c-.05-.28-.07-.57-.06-.85-.02.33-.07.65-.16.97Z"/><path class="cls-8" d="m378.07,316.41c-3.93-2.4-8.11-4.38-12.45-5.9-7.31-2.19-13.64-1.34-13.66-1.79,9.43-2.13,19.29.72,26.12,7.56v.13Z"/><path class="cls-8" d="m367.13,304.06c0,.4-3.78.23-8.14,1.29s-7.56,2.87-7.86,2.52c4.4-3.8,10.37-5.22,16.01-3.81Z"/><g class="cls-9"><path d="m178.35,308.52c6.59.69,12.8,3.42,17.76,7.81,1.71,1.82,4.3,2.54,6.7,1.85,1.57-.85,2.45-2.58,2.22-4.35-.3-1.71-1.12-3.28-2.34-4.51-6.18-6.88-16.73-7.58-23.77-1.58"/></g><g class="cls-9"><path d="m351.91,308.77c7.16-.73,14.02,2.75,21.1,4.01,1.26.36,2.62.22,3.78-.4.82-.65,1.28-1.65,1.24-2.7-.08-1.04-.47-2.02-1.13-2.82-2.28-2.33-5.44-3.59-8.7-3.48-3.3-.18-6.61.1-9.83.83-2.76.36-5.27,1.82-6.93,4.06"/></g><path class="cls-5" d="m226.83,187.94l-1.56-19.38c10.76,3.58,22.06,5.29,33.4,5.04,9.74-.25,19.35-2.32,28.33-6.1l5.65,27.2-16.74,25.33-14.7,6.81-25.86-4.01-8.52-34.89Z"/><path class="cls-8" d="m287,167.45c.34.72.57,1.48.68,2.27.2.91.33,1.84.38,2.77.11,1.3-.23,2.6-.96,3.68-.78,1.28-1.72,2.46-2.8,3.5-1.33,1.13-2.82,2.05-4.41,2.75-3.61,1.54-7.38,2.69-11.24,3.43-7.01,1.38-14.21,1.48-21.25.3-2.12-.37-4.22-.86-6.28-1.49-.76-.19-1.5-.48-2.19-.86,0-.2,3.25.83,8.6,1.51,6.95.93,14.01.72,20.9-.63,3.71-.73,7.34-1.82,10.84-3.25,1.52-.64,2.95-1.49,4.23-2.52,1.09-.93,2.05-2.01,2.85-3.2.69-.92,1.05-2.05,1.01-3.2-.01-.91-.07-1.82-.18-2.72-.13-.77-.19-1.56-.18-2.34Z"/><path class="cls-8" d="m352.21,385.65c-.27.23-.56.43-.88.58l-2.52,1.51c-1.16.66-2.52,1.41-4.31,2.22s-3.6,1.81-5.8,2.72c-5.1,2.24-10.31,4.21-15.6,5.92-6.49,2.06-13.1,3.74-19.79,5.04-6.67,1.23-13.4,2.07-20.17,2.52-5.56.36-11.12.43-16.69.23-2.37,0-4.51-.25-6.4-.4s-3.48-.3-4.81-.48l-3.02-.4-1.03-.23c.35-.06.71-.06,1.06,0l3.05.2c1.31,0,2.92.23,4.81.28s4.01.23,6.38.23c4.71,0,10.36,0,16.59-.48,13.52-.99,26.89-3.52,39.83-7.56,5.95-1.89,11.22-3.83,15.58-5.67,2.19-.86,4.13-1.76,5.85-2.52,1.71-.76,3.18-1.46,4.36-2.04l2.77-1.31c.24-.14.49-.26.76-.35Z"/><g id="freepik--Bottle--inject-105"><rect class="cls-7" x="102.52" y="213.6" width="19.83" height="8.35" transform="translate(-117.14 303.57) rotate(-83.18)"/><path class="cls-8" d="m77.88,345.58l8.66-72.43c1.26-10.53,10.81-18.04,21.34-16.78h0c10.53,1.26,18.04,10.81,16.78,21.34h0l-8.66,72.43-38.12-4.56Z"/><rect class="cls-8" x="78.16" y="243.45" width="61.16" height="11.38" transform="translate(-151.54 327.54) rotate(-83.18)"/><rect class="cls-1" x="76.74" y="292.04" width="48.46" height="24.9" transform="translate(-213.35 368.61) rotate(-83.18)"/><path class="cls-7" d="m116.01,350.14s-.46-.34-1.35-.88c-1.25-.75-2.55-1.43-3.88-2.03-1.97-.92-3.98-1.73-6.03-2.43-2.49-.9-5.07-1.54-7.68-1.93-2.64-.34-5.31-.47-7.97-.37-2.16.1-4.3.42-6.39.95-1.92.56-3.79,1.26-5.61,2.09.42-.34.89-.63,1.38-.85,1.31-.68,2.69-1.23,4.11-1.64,2.13-.62,4.32-1,6.53-1.13,2.68-.14,5.37-.03,8.04.32,2.66.39,5.26,1.06,7.78,2,2.06.73,4.07,1.58,6.03,2.56,1.33.64,2.61,1.39,3.82,2.22.47.3.89.68,1.23,1.12Z"/><path class="cls-7" d="m123.42,277.88c.17.02-1.42,14.33-3.52,31.96-2.11,17.63-3.94,31.91-4.11,31.89s1.42-14.33,3.52-31.96c2.11-17.63,3.95-31.91,4.11-31.89Z"/><path class="cls-7" d="m105.37,257.28c-.01.1-1.52.1-3.86.78-6.21,1.74-10.93,6.8-12.22,13.12-.5,2.38-.39,3.91-.47,3.91-.1-.34-.14-.7-.13-1.06-.03-.98.04-1.96.21-2.93,1.13-6.57,6.05-11.83,12.53-13.39.95-.24,1.92-.38,2.89-.42.34-.06.7-.06,1.04,0Z"/><path class="cls-7" d="m103.76,254.84c-.16-.02.59-7.39,1.67-16.45,1.08-9.07,2.1-16.4,2.26-16.38s-.59,7.39-1.67,16.45c-1.08,9.07-2.04,16.41-2.26,16.38Z"/><rect class="cls-1" x="101.18" y="234.08" width="17.36" height="11.38" transform="translate(-141.26 320.4) rotate(-83.18)"/><path class="cls-7" d="m104.89,296.04c-3.5-.12-6.99-.43-10.45-.95-3.49-.31-6.95-.83-10.38-1.54,3.5.12,6.99.44,10.45.95,3.48.32,6.95.83,10.38,1.54Z"/><rect class="cls-6" x="82.32" y="299.59" width="18.82" height="18.82" transform="translate(-225.97 363.41) rotate(-83.18)"/></g><path class="cls-4" d="m133.37,303.78c-3.64-3-5.48-11.46-7.79-15.57-1.27-2.55-2.95-4.86-4.98-6.86-2.21-2.07-5.55-2.36-8.07-.68l9.24,18.68,8.04,11.97,3.55-7.54Z"/></g></svg>