<?xml version="1.0" encoding="UTF-8"?><svg id="Ebene_1" xmlns="http://www.w3.org/2000/svg" viewBox="0 0 507.46 507.46"><defs><style>.cls-1{fill:#eb996e;}.cls-2{fill:#f5f5f5;}.cls-3,.cls-4{fill:#fff;}.cls-5{fill:#fafafa;}.cls-6{fill:#ffbe9d;}.cls-7{fill:#7e6c65;}.cls-8{fill:#a85843;}.cls-9{fill:#c99e95;}.cls-10{fill:#e0e0e0;}.cls-11{fill:#e2d6b7;}.cls-12{fill:#455a64;}.cls-13{fill:#263238;}.cls-4,.cls-14,.cls-15{isolation:isolate;}.cls-4,.cls-16,.cls-15{opacity:.2;}.cls-14{opacity:.1;}.cls-17{opacity:.3;}</style></defs><path class="cls-5" d="m328.52,221.63l.6.33-.6.32c-.31.18-.57.43-.75.75l-.33.6-.33-.6c-.17-.32-.43-.58-.75-.75l-.59-.34.6-.32c.31-.18.57-.43.75-.75l.33-.6.33.61c.17.31.43.57.74.75Z"/><g id="freepik--Device--inject-56"><path class="cls-12" d="m361.37,378.06l-126.84-.54c-15.25-.08-27.55-11.6-27.49-25.75l1.35-295.03c.06-14.15,12.48-25.58,27.73-25.52,0,0,.02,0,.03,0l126.83.54c15.25.07,27.56,11.59,27.5,25.74l-1.35,295.01c-.06,14.17-12.49,25.6-27.76,25.54h0Z"/><path class="cls-3" d="m362.78,41.9h-24.58c-3.37.06-6.06,2.64-5.99,5.77,0,0,0,0,0,0v4.14c.06,3.12-2.61,5.7-5.98,5.76,0,0,0,0-.01,0l-47.92-.2c-3.38-.08-6.04-2.69-5.96-5.82v-4.14c.09-3.13-2.57-5.73-5.94-5.82h-8.65l-21.52-.09c-10.66-.06-19.36,7.89-19.47,17.78l-1.27,287.97c-.05,9.91,8.57,17.98,19.25,18.03h0l126.57.54c10.69.05,19.39-7.96,19.44-17.87h0s1.27-287.97,1.27-287.97c.06-9.92-8.55-18.01-19.24-18.07Z"/><rect class="cls-7" x="251.07" y="101.14" width="5.99" height="32.66" transform="translate(135.45 371) rotate(-89.74)"/><rect class="cls-14" x="251.07" y="101.14" width="5.99" height="32.66" transform="translate(135.45 371) rotate(-89.74)"/><path class="cls-10" d="m366.15,151.34c.26-.03.51-.09.75-.18.72-.28,1.21-.95,1.27-1.71v-16.86c.08-.58-.04-1.17-.36-1.66-.35-.48-.91-.77-1.51-.77h-20.33l-106.21-.39c-.55,0-1.07.25-1.4.7-.31.5-.42,1.09-.33,1.66v3.81c0,2.54,0,5.08,0,7.62v3.81c-.05.59-.05,1.19,0,1.78.14.51.5.94.99,1.14.25.1.52.15.79.14h6.46l28.2.15,47.74.29,32.19.25,8.75.1h3.05-43.99l-47.74-.15-28.2-.11h-6.46c-.36.01-.71-.05-1.04-.18-.68-.29-1.18-.87-1.37-1.59-.07-.33-.1-.68-.08-1.02v-16.18c-.02-.34-.02-.68,0-1.02.05-.37.19-.73.42-1.03.44-.62,1.17-.99,1.93-.98l106.21.58,18.35.13h1.98c.71,0,1.37.35,1.78.93.36.55.5,1.22.41,1.87v8.11c0,3.81-.09,6.73-.11,8.76-.06.8-.58,1.49-1.33,1.77-.24.15-.52.23-.8.23Z"/><rect class="cls-7" x="247.56" y="136.13" width="59.73" height="5.6"/><rect class="cls-4" x="247.56" y="136.13" width="59.73" height="5.6"/><rect class="cls-7" x="250.85" y="165.53" width="5.99" height="32.66" transform="translate(70.84 434.87) rotate(-89.74)"/><rect class="cls-14" x="250.85" y="165.53" width="5.99" height="32.66" transform="translate(70.84 434.87) rotate(-89.74)"/><path class="cls-10" d="m365.32,215.73c.26-.03.51-.08.76-.14.72-.23,1.3-.76,1.6-1.45.2-.51.28-1.06.23-1.61v-15.15c.06-.58-.07-1.17-.37-1.68-.31-.52-.81-.9-1.38-1.08-.63-.11-1.28-.15-1.92-.1h-18.27l-105.84-.39c-1.18,0-2.17.88-2.32,2.04v15.24c-.05.59-.02,1.19.08,1.78.16.51.48.96.93,1.27.47.3,1.02.44,1.57.41h5.43l28.1.14,47.58.29,32.08.25,8.72.1h3.03-43.83l-47.6-.05-28.1-.1h-5.52c-.69.04-1.37-.14-1.94-.52-.58-.4-1-.99-1.19-1.66-.11-.65-.15-1.3-.1-1.96v-15.24c.19-1.5,1.47-2.63,2.98-2.63l105.84.58,18.27.14c.68-.04,1.36,0,2.03.14.66.22,1.22.67,1.56,1.27.33.56.47,1.21.41,1.85v15.21c.05.57-.05,1.14-.27,1.66-.33.71-.96,1.24-1.71,1.45-.28.02-.56,0-.83-.08Z"/><rect class="cls-7" x="250.6" y="232.29" width="5.99" height="32.66" transform="translate(3.83 501.09) rotate(-89.74)"/><rect class="cls-14" x="250.6" y="232.29" width="5.99" height="32.66" transform="translate(3.83 501.09) rotate(-89.74)"/><path class="cls-10" d="m365.07,282.47c.26-.03.51-.08.76-.14.71-.23,1.3-.75,1.6-1.43.2-.51.28-1.06.23-1.61v-15.16c.06-.58-.07-1.17-.37-1.68-.32-.51-.81-.89-1.38-1.07-.63-.12-1.28-.16-1.92-.11h-18.27l-105.84-.39c-1.18,0-2.17.88-2.32,2.04v15.24c-.05.59-.02,1.18.08,1.77.15.52.48.97.93,1.27.47.3,1.02.45,1.57.41h5.52l28.1.15,47.58.29,32.08.25,8.72.1h3.03-43.83l-47.58-.14-28.1-.11h-5.52c-.69.05-1.37-.14-1.94-.52-.58-.4-1-.99-1.19-1.66-.11-.65-.15-1.3-.1-1.96v-15.3c.19-1.5,1.46-2.63,2.97-2.63l105.84.58,18.27.14c.68-.04,1.36,0,2.03.14.66.22,1.22.67,1.56,1.27.33.56.47,1.21.41,1.85v15.21c.05.57-.04,1.14-.27,1.66-.33.71-.96,1.24-1.71,1.45-.3.1-.62.13-.93.09Z"/><rect class="cls-7" x="273.34" y="174.9" width="5.6" height="59.73" transform="translate(70.12 479.98) rotate(-89.74)"/><rect class="cls-4" x="273.34" y="174.9" width="5.6" height="59.73" transform="translate(70.12 479.98) rotate(-89.74)"/><path class="cls-7" d="m251.69,272.11c-.11,1.44-1.36,2.52-2.8,2.42-1.44-.11-2.52-1.36-2.42-2.8.1-1.39,1.28-2.46,2.68-2.42,1.47.08,2.6,1.33,2.54,2.81Z"/><path class="cls-7" d="m259.78,272.15c.1,1.44-.99,2.69-2.43,2.79-1.44.1-2.69-.99-2.79-2.43,0-.12,0-.24,0-.36-.1-1.44.99-2.69,2.43-2.79,1.44-.1,2.69.99,2.79,2.43,0,.12,0,.24,0,.36Z"/><path class="cls-7" d="m267.88,272.19c-.11,1.44-1.36,2.52-2.8,2.42-1.44-.11-2.52-1.36-2.42-2.8.1-1.39,1.28-2.46,2.68-2.42,1.47.09,2.6,1.34,2.54,2.81Z"/><path class="cls-7" d="m275.97,272.23c-.11,1.44-1.36,2.52-2.8,2.42-1.44-.11-2.52-1.36-2.42-2.8.1-1.39,1.28-2.46,2.68-2.42,1.47.09,2.6,1.34,2.54,2.81Z"/><path class="cls-7" d="m284.06,272.25c-.1,1.44-1.35,2.53-2.79,2.43-1.44-.1-2.53-1.35-2.43-2.79.1-1.4,1.28-2.47,2.68-2.44,1.46.09,2.59,1.33,2.54,2.79Z"/><path class="cls-7" d="m292.16,272.29c-.1,1.44-1.35,2.53-2.79,2.43s-2.53-1.35-2.43-2.79c.09-1.38,1.24-2.44,2.62-2.44,1.49.06,2.65,1.3,2.6,2.79Z"/><path class="cls-7" d="m300.25,272.33c.1,1.44-.99,2.69-2.43,2.79-1.44.1-2.69-.99-2.79-2.43,0-.12,0-.24,0-.36-.1-1.44.99-2.69,2.43-2.79,1.44-.1,2.69.99,2.79,2.43,0,.12,0,.24,0,.36Z"/><path class="cls-7" d="m308.33,272.36c-.1,1.44-1.35,2.53-2.79,2.43s-2.53-1.35-2.43-2.79c.09-1.38,1.24-2.44,2.62-2.44,1.49.06,2.65,1.3,2.6,2.79Z"/><path class="cls-7" d="m316.42,272.4c-.1,1.44-1.35,2.53-2.79,2.43-1.44-.1-2.53-1.35-2.43-2.79.1-1.4,1.28-2.47,2.68-2.44,1.46.09,2.59,1.33,2.54,2.79Z"/><g class="cls-16"><path class="cls-3" d="m251.69,272.11c-.11,1.44-1.36,2.52-2.8,2.42-1.44-.11-2.52-1.36-2.42-2.8.1-1.39,1.28-2.46,2.68-2.42,1.47.08,2.6,1.33,2.54,2.81Z"/><path class="cls-3" d="m259.78,272.15c.1,1.44-.99,2.69-2.43,2.79-1.44.1-2.69-.99-2.79-2.43,0-.12,0-.24,0-.36-.1-1.44.99-2.69,2.43-2.79,1.44-.1,2.69.99,2.79,2.43,0,.12,0,.24,0,.36Z"/><path class="cls-3" d="m267.88,272.19c-.11,1.44-1.36,2.52-2.8,2.42-1.44-.11-2.52-1.36-2.42-2.8.1-1.39,1.28-2.46,2.68-2.42,1.47.09,2.6,1.34,2.54,2.81Z"/><path class="cls-3" d="m275.97,272.23c-.11,1.44-1.36,2.52-2.8,2.42-1.44-.11-2.52-1.36-2.42-2.8.1-1.39,1.28-2.46,2.68-2.42,1.47.09,2.6,1.34,2.54,2.81Z"/><path class="cls-3" d="m284.06,272.25c-.1,1.44-1.35,2.53-2.79,2.43-1.44-.1-2.53-1.35-2.43-2.79.1-1.4,1.28-2.47,2.68-2.44,1.46.09,2.59,1.33,2.54,2.79Z"/><path class="cls-3" d="m292.16,272.29c-.1,1.44-1.35,2.53-2.79,2.43s-2.53-1.35-2.43-2.79c.09-1.38,1.24-2.44,2.62-2.44,1.49.06,2.65,1.3,2.6,2.79Z"/><path class="cls-3" d="m300.25,272.33c.1,1.44-.99,2.69-2.43,2.79-1.44.1-2.69-.99-2.79-2.43,0-.12,0-.24,0-.36-.1-1.44.99-2.69,2.43-2.79,1.44-.1,2.69.99,2.79,2.43,0,.12,0,.24,0,.36Z"/><path class="cls-3" d="m308.33,272.36c-.1,1.44-1.35,2.53-2.79,2.43s-2.53-1.35-2.43-2.79c.09-1.38,1.24-2.44,2.62-2.44,1.49.06,2.65,1.3,2.6,2.79Z"/><path class="cls-3" d="m316.42,272.4c-.1,1.44-1.35,2.53-2.79,2.43-1.44-.1-2.53-1.35-2.43-2.79.1-1.4,1.28-2.47,2.68-2.44,1.46.09,2.59,1.33,2.54,2.79Z"/></g></g><g id="freepik--Character--inject-56"><path class="cls-7" d="m163.87,499.48v-12.02l-21.56-.15-.18,18.18,1.34.1c5.95.38,30.26.94,34.26-.3,4.44-1.38-13.85-5.81-13.85-5.81Z"/><path class="cls-13" d="m178.23,504.16c0,.2-8.07.37-18.01.37s-18.01-.17-18.01-.37,8.07-.37,18.01-.37,18.01.17,18.01.37Z"/><path class="cls-13" d="m164.25,501.94c-.18-.1,0-.73.44-1.41s1.03-.96,1.17-.82-.15.67-.58,1.25-.84,1.07-1.03.97Z"/><path class="cls-13" d="m165.63,502.73c-.2,0-.1-.79.32-1.53s.98-1.2,1.14-1.08-.1.75-.49,1.41-.79,1.28-.97,1.21Z"/><path class="cls-13" d="m148.7,504.11c-.08,0-.41-.25-.87-.79-.57-.69-1.2-1.32-1.88-1.88-.68-.54-1.48-.89-2.33-1.03-.66-.08-1.08,0-1.12-.08s.37-.38,1.14-.44c1.02-.02,2.02.32,2.81.96.75.61,1.37,1.35,1.86,2.18.32.62.49,1.03.41,1.08Z"/><path class="cls-13" d="m164.32,499.68c.1.17-.27.59-.89.82s-1.17.14-1.2,0,.41-.44.94-.63,1.03-.35,1.14-.18Z"/><path class="cls-13" d="m163.98,498.51c0,.21-.56.38-1.29.39s-1.31-.15-1.29-.35.59-.38,1.29-.39,1.27.15,1.29.35Z"/><path class="cls-7" d="m216.96,499.48v-12.02l-21.56-.15-.18,18,1.34.1c5.95.38,30.28,1.12,34.26-.11,4.44-1.38-13.85-5.81-13.85-5.81Z"/><path class="cls-13" d="m231.31,504.19c0,.2-8.06.37-18.01.37s-18-.17-18-.37,8.06-.37,18-.37,18.01.17,18.01.37Z"/><path class="cls-13" d="m217.34,501.94c-.17-.1,0-.73.44-1.41s1.03-.96,1.17-.82-.15.67-.58,1.25-.84,1.07-1.03.97Z"/><path class="cls-13" d="m218.71,502.73c-.18,0-.1-.79.34-1.53s.98-1.2,1.14-1.08-.11.75-.51,1.41-.77,1.28-.97,1.21Z"/><path class="cls-13" d="m201.78,504.11c-.08,0-.39-.25-.87-.79-.57-.69-1.2-1.32-1.88-1.88-.68-.54-1.48-.89-2.33-1.03-.65-.08-1.08,0-1.12-.08s.37-.38,1.14-.44c1.02-.02,2.02.32,2.81.96.75.6,1.38,1.34,1.86,2.18.32.62.49,1.03.41,1.08Z"/><path class="cls-13" d="m217.41,499.68c.1.17-.27.59-.89.82s-1.17.14-1.2,0,.41-.44.94-.63,1.03-.35,1.14-.18Z"/><path class="cls-13" d="m217.1,498.51c0,.21-.56.38-1.29.39s-1.29-.15-1.28-.35.58-.38,1.28-.39,1.29.15,1.29.35Z"/><path class="cls-6" d="m296.38,142.44c-.56-.58-1.95-.3-1.95-.3.14-.81.14-1.64,0-2.45-.25-.79-2.02-.63-2.02-.63-.08-.66-.08-1.33,0-2,.03-.3-.13-.59-.41-.72-.84-.34-1.74-.5-2.64-.48-1.08-.77,3.3-6.92,4.94-8.89s1.34-3.5-.11-3.5c-1,0-6.12,5.91-7.69,7.89s-5.75,7.5-5.89,3.09c-.14-4.4-1.91-7.72-3.02-8.28s-2.29.76-1.69,1.98c.53,1.39.86,2.85.98,4.33.15,1.18.1,2.38-.15,3.54-.47,2.16-1.1,4.29-1.9,6.36h-.11s-30.68,29.43-32.91,31.53c-1.98,1.88-41.86-2.24-49.86-3.08-2.72-.4-5.46-.59-8.21-.56-3.47.15-4.09.65-7.55.69-8.74.1-17.45.86-26.07,2.29-7.96,1.35-14.5,7.02-16.96,14.71-8.06,25.17-26.31,84.75-29.53,118.22-2.43,4.41-4.63,8.95-6.58,13.6-2.26,6.16-1.72,6.37-.96,6.51,2.05.38,4.39-10.67,5.26-8s-4.43,13.18-2.28,13.49c2.81.39,5.05-11.25,5.32-12.18s1.66-.63,1.41.24c-.41,1.24-4.36,14.36-1.6,14.78,1.52.22,1.69-2.55,1.69-2.55,0,0,2.81-12.56,4.09-12.3s-.08,7.66-.73,10.14.25,3.73,1.57,3.12c.9-.42,3.05-7.95,3.64-10.39s2.07-9.22,4.05-5.3,4.99,6.2,6.23,6.26c.77-.09,1.32-.79,1.24-1.56-.04-.38-.24-.73-.55-.96-1.06-1.04-1.98-2.22-2.71-3.52-.66-1.01-1.13-2.12-1.41-3.29-.57-2.33-.9-4.72-.98-7.12l-.22-1.41c3.15-15.59,12.22-61.37,25.31-90.6l5.37,11.05,2.33,8.18-14.32,35.34,61.06-.8-9.11-35.07,11.07-36.56h0c11.97.27,42.69.72,47.81-1.6,6.44-2.81,39.75-44.89,39.75-44.89h0c2.17-1.69,4.25-3.49,6.23-5.4,0,0,2.02-1.7.8-2.97Z"/><path class="cls-7" d="m136.08,243.62c1.77-6.05,10.87-35.94,10.87-35.94,0,0,4.47,24.37,3.29,27.31-1.09,2.52-2.37,4.94-3.84,7.26-10.32,15.71-8.97,23.57-8.97,23.57l62.37-1.9c.14-8.72-5.02-29-6.09-32.23s2.49-13.82,2.49-13.82c0,0,7.03-7.16,6.78-10.84-.13-3.31-.54-6.6-1.22-9.84l37.97,1.41-1.2-25.73-54.53-5.46c-1.9,5.36-19.07,2.73-19.07,2.73-18.53.62-19.69,4.02-27.39,10.01s-20.46,57.4-20.46,57.4l19.01,6.09Z"/><path class="cls-13" d="m172.96,237.53c-1.08.19-2.18.25-3.28.17-2.04,0-4.84-.14-7.92-.45s-5.86-.75-7.85-1.14c-1.09-.14-2.17-.41-3.19-.82,1.1,0,2.2.1,3.28.31,2,.25,4.77.6,7.83.91s5.85.52,7.86.66c1.1.01,2.19.13,3.26.35Z"/><path class="cls-13" d="m177.23,232.23c-1.08.53-2.22.92-3.4,1.17-5.61,1.47-11.4,2.16-17.2,2.04-1.2.04-2.4-.07-3.57-.34,1.18-.15,2.38-.21,3.57-.18,2.21-.07,5.25-.22,8.59-.62s6.33-.96,8.44-1.41c1.17-.31,2.37-.53,3.57-.66Z"/><path class="cls-13" d="m198.21,208.58c-.03,1.07-.17,2.14-.44,3.18-.37,1.95-.93,4.63-1.65,7.55s-1.41,5.62-2.02,7.45c-.25,1.05-.62,2.06-1.1,3.02.08-1.07.28-2.13.59-3.15.53-2.19,1.14-4.72,1.81-7.5s1.32-5.3,1.86-7.5c.19-1.06.51-2.09.94-3.07Z"/><path class="cls-13" d="m136.75,240.03c-3.25-.5-6.46-1.25-9.6-2.24-3.21-.75-6.36-1.74-9.42-2.95,3.25.51,6.46,1.26,9.6,2.24,3.21.75,6.36,1.73,9.42,2.95Z"/><path class="cls-13" d="m202.43,196.86c-.53.09-1.07.09-1.6,0-1.47-.15-2.91-.5-4.29-1.03-4.65-1.75-8.35-5.38-10.18-10-1-2.51-1.43-5.22-1.25-7.92.06-2.23.73-4.39,1.93-6.27.84-1.26,2.1-2.2,3.56-2.63.39-.11.79-.16,1.2-.15h.42s-.59,0-1.53.38c-1.34.49-2.47,1.42-3.22,2.63-1.91,3.01-2.45,8.51-.41,13.64.95,2.42,2.43,4.59,4.35,6.36,1.57,1.44,3.37,2.6,5.33,3.43,1.84.73,3.75,1.25,5.71,1.56Z"/><path class="cls-13" d="m235.21,198.07c-.35-4.31-.46-8.64-.34-12.97-.11-4.32.02-8.64.39-12.95.35,4.31.46,8.63.34,12.95.12,4.33-.01,8.65-.39,12.97Z"/><path class="cls-6" d="m183.63,168.96c.15-3.14.48-6.68.48-6.68,0,0,7.76-.86,8.23-8.87s0-26.51,0-26.51l-14.06-7.2-15.61,12.28,2.4,40.08,14.32.91c2.28.06,4.18-1.73,4.25-4.01Z"/><path class="cls-1" d="m185.02,147.07s0,.15-.13.34c-.21.27-.54.42-.89.39-.9,0-1.77-1.04-2.08-2.25-.15-.59-.15-1.2,0-1.79.06-.52.38-.97.84-1.21.19-.08.4-.08.59,0,.14.07.25.18.32.32.1.24,0,.39,0,.38s0-.14-.14-.28c-.15-.21-.44-.27-.66-.14-.35.21-.57.59-.58,1-.12.52-.12,1.07,0,1.59.28,1.1,1.04,1.98,1.72,2.07.27.04.54-.04.75-.21.17-.11.22-.22.25-.21Z"/><path class="cls-13" d="m197.16,122.57c-1.08-3.68-5.01-5.51-8.58-6.52-5.44-1.55-11.32-2.22-16.64-.27s-11.7,5.39-11.7,11.25c-3.14-.25-4.94,2.49-6.17,5.89-.79,2.07-1.27,4.25-1.41,6.47h0c-.39,7.68-2.55,18.28-7.52,23.91-2.81,3.14-6.71,5.3-8.31,9.21-1.41,3.39-.67,7.41-1.98,10.84-1.17,3.02-3.74,5.17-5.62,7.8-3.9,6.06-4.41,13.71-1.34,20.24,3.08,6.32,8.61,11.1,15.31,13.22,6.57,2,13.57,2.07,20.18.2,4.96-1.19,9.58-3.48,13.53-6.71,4.04-3.3,6.81-7.89,7.85-12.99,1-5.74-.6-11.57-1.8-17.28-3.74-18.04-2.67-18.98,2.05-35.73.11-.3.17-.6.25-.9s.13-.44.18-.66h0c.13-.66.2-1.34.21-2.01-1.41.52-2.99.18-4.06-.87-1.07-1.12-1.44-2.74-.96-4.22.67-1.6,1.99-2.84,3.63-3.42,1.56-.65,3.23-.98,4.77-1.7,3.25-1.55,5.5-4.75,7.03-8.11,1.26-2.33,1.65-5.03,1.1-7.62Z"/><path class="cls-7" d="m185.58,147.45c.3.44.54.91.73,1.41.42.89.98,2.14,1.6,3.59l.11.27h-.3l-1.41.13c-.97,0-1.79.18-2.74.17-.17-.04-.31-.16-.37-.32-.04-.13-.04-.27,0-.39.03-.19.07-.38.13-.56l.25-1c.13-.67.33-1.32.59-1.94-.03.68-.13,1.35-.3,2.01l-.2,1c-.07.34-.2.86,0,.82.7,0,1.7-.15,2.63-.21l1.41-.13-.18.31c-.6-1.41-1.11-2.73-1.41-3.64-.26-.47-.45-.97-.56-1.49Z"/><path class="cls-13" d="m137.43,265.81l62.37-1.9,27.14,105.94-4.99,121.52h-32.98l4.04-118.94-24.12-73.76,3.71,197.4-33.33.49-3.5-185.55c-.15-5.16-1.84-16.79-1.21-21.91l2.87-23.32Z"/><path class="cls-12" d="m177.19,300.19c-1.02.06-2.05,0-3.05-.18-1.88-.22-4.46-.62-7.28-1.18s-5.36-1.21-7.19-1.73c-.98-.21-1.92-.56-2.81-1.01,0-.21,4.58.89,10.21,2.02s10.15,1.87,10.12,2.08Z"/><path class="cls-12" d="m221.61,484.71c0,.2-7.47.37-16.68.37s-16.69-.17-16.69-.37,7.47-.37,16.69-.37,16.68.15,16.68.37Z"/><path class="cls-12" d="m172.31,490.96c0,.21-7.26.37-16.2.37s-16.19-.15-16.19-.37,7.26-.37,16.19-.37,16.2.17,16.2.37Z"/><path class="cls-12" d="m168.01,490.45c-.2,0-1.07-43.13-1.95-96.33-.89-53.2-1.41-96.35-1.22-96.35s1.08,43.11,1.95,96.34,1.43,96.34,1.22,96.34Z"/><path class="cls-12" d="m217.18,484.71c-.02-.19-.02-.38,0-.58v-1.69c0-1.52.11-3.7.2-6.47.2-5.62.48-13.79.83-23.81.76-20.14,1.83-47.9,3-78.54v-.83.1c-7.38-29.53-14.06-56.33-18.91-75.72l-5.62-22.94c-.65-2.69-1.14-4.78-1.49-6.24-.17-.69-.28-1.22-.38-1.63-.05-.18-.09-.37-.1-.56.07.18.13.36.17.55.11.39.25.93.45,1.6.38,1.41.93,3.54,1.63,6.22,1.41,5.43,3.39,13.25,5.86,22.88,4.89,19.38,11.64,46.11,19.12,75.68v.93c-1.25,30.64-2.39,58.39-3.22,78.52-.44,10.03-.8,18.14-1.05,23.79-.14,2.81-.25,4.95-.32,6.47,0,.72-.08,1.28-.1,1.69,0,.19-.02.39-.06.58Z"/><path class="cls-12" d="m206.42,370.33c-2.37.78-4.81,1.32-7.28,1.62-3.04.52-5.62.89-6.79.94v-.28c.38.11.58.18.58.24s-.24,0-.63,0h-.84l.84-.25c1.1-.32,3.68-.86,6.72-1.41,2.44-.53,4.92-.82,7.41-.86Z"/><path class="cls-12" d="m205.85,374.37c-2.19.1-4.39,0-6.57-.3-2.2-.04-4.38-.28-6.54-.72,4.39-.36,8.82-.02,13.11,1.01Z"/><path class="cls-15" d="m137.17,268.05c1.49,1.92,3.73,3.11,6.16,3.28,2.51.3,5.05.25,7.55-.14,16.1-1.79,33.16-3.43,48.92-7.27-20.4,1.14-41.96.76-62.37,1.9l-.21,1.74"/><g class="cls-16"><polygon points="158.19 296.8 169.69 341.44 168.89 298.69 158.19 296.8"/></g></g><g id="freepik--Glasses--inject-105"><path class="cls-2" d="m360.57,125.71l-4.4-.99s-.02-5.49.04-6.29c.06-.5.3-.95.68-1.27h0c1.31-.7,2.78-2.19,3.29-3.4,1.02-2.43,0-6.15,0-6.15h-9.75s-1.02,3.72,0,6.15c.53,1.28,2.1,2.73,3.47,3.39h0c.43.31.72.79.8,1.32.04.8.13,6.31.13,6.31l-4.37,1.02s-.08.05-.08.1c0,.05.05.08.1.08h10.07c.11,0,.13-.25.03-.27Z"/><path class="cls-13" d="m360.57,125.71s.03,0,.05.04c.03.07.02.14-.02.2-.02.02-.04.04-.07.04h-.73l-3.07.02h-6.22s-.08,0-.12-.02c-.05-.02-.08-.07-.09-.12,0-.06.02-.11.06-.14.03-.02.07-.03.11-.04l.37-.09.75-.18,3.2-.76-.06.08c-.02-1.2-.05-2.46-.08-3.78-.02-.66-.03-1.34-.04-2.02v-.52c-.01-.16-.05-.32-.12-.47-.15-.3-.37-.57-.64-.77l-.13-.09.14-.05h0v.15c-.75-.38-1.44-.88-2.05-1.47-.66-.59-1.18-1.33-1.51-2.15-.29-.86-.42-1.77-.39-2.68.02-.93.12-1.85.32-2.76.04-.19.08-.38.13-.57v-.06h5.15v.09h0l-.09-.09h4.83l.02.06c.24.98.39,1.98.44,2.98.06.96-.05,1.92-.32,2.84-.14.44-.35.86-.62,1.23-.25.36-.54.71-.85,1.02-.58.61-1.25,1.13-1.98,1.54h0c-.29.24-.5.56-.61.92-.07.36-.1.72-.09,1.09,0,.72,0,1.4-.02,2.05v3.45l-.03-.04,3.26.75.84.2c.19.04.28.08.28.08,0,0-.1,0-.29-.05l-.85-.18-3.27-.71h-.03v-6.08c0-.19.03-.38.08-.57.12-.38.35-.73.66-.98h0c.72-.41,1.38-.92,1.94-1.52.3-.31.58-.65.83-1.01.26-.36.46-.77.6-1.2.26-.91.36-1.85.3-2.79-.05-.99-.19-1.98-.44-2.95l.08.06h-4.85v-.09h0l.09.09h-4.99l.09-.07c-.05.18-.09.38-.13.56-.19.9-.3,1.81-.31,2.73-.04.89.09,1.78.38,2.62.32.8.83,1.51,1.47,2.09.6.58,1.28,1.07,2.02,1.44l.18.09-.18.07h0v-.15c.29.22.53.51.68.84.08.17.12.35.14.53v.52c0,.68.03,1.37.04,2.02.02,1.32.05,2.59.07,3.78v.06h-.06l-3.2.75-.75.17-.34.09c-.08.02-.07,0-.08.04s0,.02.08.02h1.43l4.78.02,3.07.02h.65c.06,0,.11,0,.13-.03.04-.05.05-.13.02-.19-.01-.01-.02-.02-.04-.02Z"/><path class="cls-8" d="m355.45,111.62h-4.85s.14,3.97,4.78,5.39l.11-.03c2.51-.68,4.37-2.82,4.69-5.4l-4.72.04Z"/><path class="cls-3" d="m351.39,113.38c-.16-.2-.27-.42-.34-.66-.21-.57-.33-1.16-.37-1.77-.05-.6-.03-1.2.05-1.8.02-.25.07-.5.16-.73.06,0-.14,1.13-.03,2.52.04.59.14,1.17.31,1.74.13.43.25.69.22.7Z"/><path class="cls-3" d="m359.73,112.31c-.01.26-.07.52-.18.77-.22.6-.55,1.15-.97,1.64-.42.48-.92.88-1.49,1.18-.23.14-.48.23-.74.28,0-.03.27-.14.68-.39,1.06-.65,1.9-1.61,2.39-2.75.08-.25.18-.49.29-.72Z"/><path class="cls-3" d="m359.76,109.81c.15.32.22.67.22,1.02.05.35.03.71-.08,1.05-.07-.34-.1-.68-.1-1.02-.05-.35-.07-.7-.04-1.05Z"/><path class="cls-3" d="m352.81,114.98s-.16-.04-.29-.16-.2-.25-.16-.29.16.04.29.16.2.26.16.29Z"/><g class="cls-17"><path d="m356.89,116.07c-.67.2-1.39.19-2.05-.03-.66-.22-1.31-.51-1.92-.85-.23-.12-.53-.23-.72-.05.64.65,1.4,1.18,2.24,1.54.29.14.6.25.91.34,0,0,.36-.1.66-.21.77-.29,1.49-.71,2.1-1.26-.4.2-.82.37-1.24.52Z"/></g></g><g id="freepik--Glasses--inject-105-2"><path class="cls-2" d="m360.57,190.95l-4.4-.99s-.02-5.49.04-6.29c.06-.5.3-.95.68-1.27h0c1.31-.7,2.78-2.19,3.29-3.4,1.02-2.43,0-6.15,0-6.15h-9.75s-1.02,3.72,0,6.15c.53,1.28,2.1,2.73,3.47,3.39h0c.43.31.72.79.8,1.32.04.8.13,6.31.13,6.31l-4.37,1.02s-.08.05-.08.1c0,.05.05.08.1.08h10.07c.11,0,.13-.25.03-.27Z"/><path class="cls-13" d="m360.57,190.95s.03,0,.05.04c.03.07.02.14-.02.2-.02.02-.04.04-.07.04h-.73l-3.07.02h-6.22s-.08,0-.12-.02c-.05-.02-.08-.07-.09-.12,0-.06.02-.11.06-.14.03-.02.07-.03.11-.04l.37-.09.75-.18,3.2-.76-.06.08c-.02-1.2-.05-2.46-.08-3.78-.02-.66-.03-1.34-.04-2.02v-.52c-.01-.16-.05-.32-.12-.47-.15-.3-.37-.57-.64-.77l-.13-.09.14-.05h0v.15c-.75-.38-1.44-.88-2.05-1.47-.66-.59-1.18-1.33-1.51-2.15-.29-.86-.42-1.77-.39-2.68.02-.93.12-1.85.32-2.76.04-.19.08-.38.13-.57v-.06h5.15v.09h0l-.09-.09h4.83l.02.06c.24.98.39,1.98.44,2.98.06.96-.05,1.92-.32,2.84-.14.44-.35.86-.62,1.23-.25.36-.54.71-.85,1.02-.58.61-1.25,1.13-1.98,1.54h0c-.29.24-.5.56-.61.92-.07.36-.1.72-.09,1.09,0,.72,0,1.4-.02,2.05v3.45l-.03-.04,3.26.75.84.2c.19.04.28.08.28.08,0,0-.1,0-.29-.05l-.85-.18-3.27-.71h-.03v-6.08c0-.19.03-.38.08-.57.12-.38.35-.73.66-.98h0c.72-.41,1.38-.92,1.94-1.52.3-.31.58-.65.83-1.01.26-.36.46-.77.6-1.2.26-.91.36-1.85.3-2.79-.05-.99-.19-1.98-.44-2.95l.08.06h-4.85v-.09h0l.09.09h-4.99l.09-.07c-.05.18-.09.38-.13.56-.19.9-.3,1.81-.31,2.73-.04.89.09,1.78.38,2.62.32.8.83,1.51,1.47,2.09.6.58,1.28,1.07,2.02,1.44l.18.09-.18.07h0v-.15c.29.22.53.51.68.84.08.17.12.35.14.53v.52c0,.68.03,1.37.04,2.02.02,1.32.05,2.59.07,3.78v.06h-.06l-3.2.75-.75.17-.34.09c-.08.02-.07,0-.08.04s0,.02.08.02h1.43l4.78.02,3.07.02h.65c.06,0,.11,0,.13-.03.04-.05.05-.13.02-.19-.01-.01-.02-.02-.04-.02Z"/><path class="cls-9" d="m355.45,176.86h-4.85s.14,3.97,4.78,5.39l.11-.03c2.51-.68,4.37-2.82,4.69-5.4l-4.72.04Z"/><path class="cls-3" d="m351.39,178.63c-.16-.2-.27-.42-.34-.66-.21-.57-.33-1.16-.37-1.77-.05-.6-.03-1.2.05-1.8.02-.25.07-.5.16-.73.06,0-.14,1.13-.03,2.52.04.59.14,1.17.31,1.74.13.43.25.69.22.7Z"/><path class="cls-3" d="m359.73,177.55c-.01.26-.07.52-.18.77-.22.6-.55,1.15-.97,1.64-.42.48-.92.88-1.49,1.18-.23.14-.48.23-.74.28,0-.03.27-.14.68-.39,1.06-.65,1.9-1.61,2.39-2.75.08-.25.18-.49.29-.72Z"/><path class="cls-3" d="m359.76,175.05c.15.32.22.67.22,1.02.05.35.03.71-.08,1.05-.07-.34-.1-.68-.1-1.02-.05-.35-.07-.7-.04-1.05Z"/><path class="cls-3" d="m352.81,180.23s-.16-.04-.29-.16-.2-.25-.16-.29.16.04.29.16.2.26.16.29Z"/><g class="cls-17"><path d="m356.89,181.31c-.67.2-1.39.19-2.05-.03-.66-.22-1.31-.51-1.92-.85-.23-.12-.53-.23-.72-.05.64.65,1.4,1.18,2.24,1.54.29.14.6.25.91.34,0,0,.36-.1.66-.21.77-.29,1.49-.71,2.1-1.26-.4.2-.82.37-1.24.52Z"/></g></g><g id="freepik--Glasses--inject-105-3"><path class="cls-2" d="m360.57,257.25l-4.4-.99s-.02-5.49.04-6.29c.06-.5.3-.95.68-1.27h0c1.31-.7,2.78-2.19,3.29-3.4,1.02-2.43,0-6.15,0-6.15h-9.75s-1.02,3.72,0,6.15c.53,1.28,2.1,2.73,3.47,3.39h0c.43.31.72.79.8,1.32.04.8.13,6.31.13,6.31l-4.37,1.02s-.08.05-.08.1c0,.05.05.08.1.08h10.07c.11,0,.13-.25.03-.27Z"/><path class="cls-13" d="m360.57,257.25s.03,0,.05.04c.03.07.02.14-.02.2-.02.02-.04.04-.07.04h-.73l-3.07.02h-6.22s-.08,0-.12-.02c-.05-.02-.08-.07-.09-.12,0-.06.02-.11.06-.14.03-.02.07-.03.11-.04l.37-.09.75-.18,3.2-.76-.06.08c-.02-1.2-.05-2.46-.08-3.78-.02-.66-.03-1.34-.04-2.02v-.52c-.01-.16-.05-.32-.12-.47-.15-.3-.37-.57-.64-.77l-.13-.09.14-.05h0v.15c-.75-.38-1.44-.88-2.05-1.47-.66-.59-1.18-1.33-1.51-2.15-.29-.86-.42-1.77-.39-2.68.02-.93.12-1.85.32-2.76.04-.19.08-.38.13-.57v-.06h5.15v.09h0l-.09-.09h4.83l.02.06c.24.98.39,1.98.44,2.98.06.96-.05,1.92-.32,2.84-.14.44-.35.86-.62,1.23-.25.36-.54.71-.85,1.02-.58.61-1.25,1.13-1.98,1.54h0c-.29.24-.5.56-.61.92-.07.36-.1.72-.09,1.09,0,.72,0,1.4-.02,2.05v3.45l-.03-.04,3.26.75.84.2c.19.04.28.08.28.08,0,0-.1,0-.29-.05l-.85-.18-3.27-.71h-.03v-6.08c0-.19.03-.38.08-.57.12-.38.35-.73.66-.98h0c.72-.41,1.38-.92,1.94-1.52.3-.31.58-.65.83-1.01.26-.36.46-.77.6-1.2.26-.91.36-1.85.3-2.79-.05-.99-.19-1.98-.44-2.95l.08.06h-4.85v-.09h0l.09.09h-4.99l.09-.07c-.05.18-.09.38-.13.56-.19.9-.3,1.81-.31,2.73-.04.89.09,1.78.38,2.62.32.8.83,1.51,1.47,2.09.6.58,1.28,1.07,2.02,1.44l.18.09-.18.07h0v-.15c.29.22.53.51.68.84.08.17.12.35.14.53v.52c0,.68.03,1.37.04,2.02.02,1.32.05,2.59.07,3.78v.06h-.06l-3.2.75-.75.17-.34.09c-.08.02-.07,0-.08.04s0,.02.08.02h1.43l4.78.02,3.07.02h.65c.06,0,.11,0,.13-.03.04-.05.05-.13.02-.19-.01-.01-.02-.02-.04-.02Z"/><path class="cls-11" d="m355.45,243.16h-4.85s.14,3.97,4.78,5.39l.11-.03c2.51-.68,4.37-2.82,4.69-5.4l-4.72.04Z"/><path class="cls-3" d="m351.39,244.92c-.16-.2-.27-.42-.34-.66-.21-.57-.33-1.16-.37-1.77-.05-.6-.03-1.2.05-1.8.02-.25.07-.5.16-.73.06,0-.14,1.13-.03,2.52.04.59.14,1.17.31,1.74.13.43.25.69.22.7Z"/><path class="cls-3" d="m359.73,243.85c-.01.26-.07.52-.18.77-.22.6-.55,1.15-.97,1.64-.42.48-.92.88-1.49,1.18-.23.14-.48.23-.74.28,0-.03.27-.14.68-.39,1.06-.65,1.9-1.61,2.39-2.75.08-.25.18-.49.29-.72Z"/><path class="cls-3" d="m359.76,241.35c.15.32.22.67.22,1.02.05.35.03.71-.08,1.05-.07-.34-.1-.68-.1-1.02-.05-.35-.07-.7-.04-1.05Z"/><path class="cls-3" d="m352.81,246.52s-.16-.04-.29-.16-.2-.25-.16-.29.16.04.29.16.2.26.16.29Z"/><g class="cls-17"><path d="m356.89,247.61c-.67.2-1.39.19-2.05-.03-.66-.22-1.31-.51-1.92-.85-.23-.12-.53-.23-.72-.05.64.65,1.4,1.18,2.24,1.54.29.14.6.25.91.34,0,0,.36-.1.66-.21.77-.29,1.49-.71,2.1-1.26-.4.2-.82.37-1.24.52Z"/></g></g></svg>