<?xml version="1.0" encoding="UTF-8"?><svg id="Ebene_1" xmlns="http://www.w3.org/2000/svg" viewBox="0 0 1000 1000"><defs><style>.cls-1{fill:#ebebeb;}.cls-2{fill:#eb996e;}.cls-3{fill:#fff;}.cls-4{fill:#ffbe9d;}.cls-5{fill:#7e6c65;}.cls-6{fill:#e0e0e0;}.cls-7{fill:#455a64;}.cls-8{fill:#263238;}.cls-9,.cls-10{opacity:.2;}.cls-10{isolation:isolate;}</style></defs><path class="cls-7" d="m726.81,891.27l-275.15-1.27c-33.09-.18-59.77-27.13-59.63-60.21l2.92-689.75c.14-33.09,27.07-59.8,60.16-59.66h.06l275.12,1.27c33.09.17,59.78,27.1,59.66,60.19l-2.92,689.72c-.14,33.12-27.09,59.85-60.21,59.72h-.01Z"/><path class="cls-3" d="m729.87,105.36h-53.33c-7.32.14-13.14,6.18-13,13.49h0v9.67c.14,7.3-5.67,13.33-12.97,13.47h-.03l-103.95-.47c-7.32-.2-13.1-6.28-12.92-13.61v-9.67c.19-7.31-5.58-13.4-12.89-13.61h-18.76l-46.69-.22c-23.12-.14-42,18.45-42.23,41.57l-2.75,673.25c-.11,23.17,18.59,42.04,41.76,42.14h0l274.57,1.27c23.18.11,42.06-18.6,42.17-41.78h0l2.75-673.25c.14-23.19-18.54-42.1-41.73-42.25h0Z"/><g id="freepik--Bottle--inject-105"><rect class="cls-7" x="578.69" y="171.68" width="26.81" height="63.69"/><path class="cls-8" d="m530.64,624.19v-234.24c0-34.05,27.6-61.65,61.65-61.65h0c34.05,0,61.65,27.6,61.65,61.65h0v234.24h-123.3Z"/><rect class="cls-8" x="573.98" y="206.75" width="36.56" height="196.39"/><rect class="cls-1" x="548.61" y="406.58" width="79.94" height="155.6"/><path class="cls-7" d="m653.92,624.19s-1.61-.91-4.63-2.3c-4.29-1.93-8.67-3.59-13.15-5.01-6.61-2.17-13.34-3.99-20.16-5.44-8.28-1.91-16.74-2.99-25.24-3.21-8.56-.09-17.12.53-25.56,1.87-6.84,1.13-13.55,2.97-20.01,5.48-5.89,2.53-11.6,5.46-17.1,8.8,1.23-1.25,2.59-2.34,4.08-3.25,3.93-2.68,8.11-4.95,12.49-6.8,6.54-2.8,13.38-4.84,20.39-6.1,8.5-1.45,17.12-2.13,25.75-2.04,8.62.23,17.19,1.36,25.56,3.4,6.84,1.53,13.58,3.5,20.2,5.88,4.48,1.55,8.84,3.42,13.04,5.63,1.62.76,3.1,1.81,4.35,3.1h-.01Z"/><path class="cls-7" d="m650.01,391c.55,0,.94,46.23.94,103.23s-.4,103.23-.94,103.23-.94-46.23-.94-103.23.43-103.23.94-103.23Z"/><path class="cls-7" d="m584.62,332.2c0,.32-4.82.91-12.02,3.95-19.14,7.92-32.25,25.85-33.97,46.5-.7,7.78.26,12.6,0,12.64-.43-1.06-.72-2.17-.81-3.33-.47-3.12-.6-6.27-.43-9.43,1.08-21.37,14.79-40.03,34.84-47.48,2.93-1.11,5.97-1.95,9.05-2.46,1.08-.32,2.19-.45,3.33-.4h.02-.01Z"/><path class="cls-7" d="m578.55,325.04c-.51,0-.94-23.77-.94-53.09s.43-53.09.94-53.09.94,23.77.94,53.09-.26,53.09-.94,53.09Z"/><rect class="cls-5" x="573.98" y="246.8" width="36.56" height="55.73"/><path class="cls-7" d="m597.86,455.95c-11.2.96-22.45,1.28-33.67.94-11.24.32-22.48,0-33.67-.94,11.2-.94,22.45-1.27,33.67-.94,11.24-.3,22.48,0,33.67.94Z"/><rect class="cls-6" x="530.64" y="472.07" width="60.44" height="60.44"/></g><g id="freepik--Character--inject-56"><path class="cls-4" d="m579.42,387.53c-1.1-1.13-3.83-.58-3.83-.58.27-1.59.27-3.21,0-4.79-.5-1.54-3.97-1.24-3.97-1.24-.16-1.3-.16-2.61,0-3.91.06-.59-.26-1.15-.8-1.4-1.64-.67-3.41-.99-5.18-.94-2.12-1.51,6.47-13.55,9.67-17.41s2.62-6.86-.22-6.86c-1.96,0-11.98,11.57-15.07,15.45s-11.27,14.68-11.54,6.06-3.75-15.12-5.92-16.22-4.49,1.49-3.31,3.88c1.04,2.72,1.69,5.58,1.93,8.48.3,2.31.2,4.66-.3,6.94-.91,4.24-2.16,8.4-3.72,12.45h-.22s-60.1,57.65-64.45,61.76c-3.88,3.69-82-4.38-97.67-6.03-5.33-.78-10.7-1.15-16.09-1.1-6.8.3-8.02,1.27-14.79,1.35-17.11.19-34.19,1.69-51.07,4.49-15.58,2.65-28.39,13.76-33.22,28.81-15.78,49.31-51.54,166.01-57.84,231.57-4.77,8.64-9.07,17.53-12.89,26.64-4.43,12.06-3.36,12.48-1.87,12.75,4.02.74,8.59-20.91,10.3-15.67,1.71,5.23-8.68,25.81-4.46,26.42,5.51.77,9.89-22.04,10.41-23.85s3.25-1.24,2.75.47c-.8,2.42-8.54,28.12-3.14,28.95,2.97.44,3.31-4.99,3.31-4.99,0,0,5.51-24.6,8.02-24.1s-.17,15.01-1.43,19.86.5,7.3,3.09,6.11c1.76-.83,5.98-15.56,7.13-20.36s4.05-18.07,7.93-10.38,9.78,12.15,12.2,12.26c1.51-.17,2.6-1.54,2.42-3.05-.09-.75-.47-1.42-1.07-1.88-2.08-2.04-3.87-4.35-5.32-6.89-1.28-1.97-2.22-4.15-2.75-6.45-1.11-4.57-1.76-9.24-1.93-13.94l-.44-2.75c6.17-30.55,23.94-120.21,49.58-177.47l10.52,21.65,4.57,16.03-28.04,69.22,119.6-1.57-17.85-68.7,21.68-71.62h0c23.44.52,83.63,1.4,93.65-3.14,12.62-5.51,77.87-87.92,77.87-87.92h0c4.25-3.31,8.33-6.84,12.2-10.58,0,0,3.97-3.33,1.57-5.81h0Z"/><path class="cls-5" d="m265.43,585.72c3.47-11.84,21.29-70.4,21.29-70.4,0,0,8.76,47.74,6.45,53.49-2.13,4.93-4.64,9.68-7.52,14.21-20.22,30.77-17.57,46.17-17.57,46.17l122.16-3.72c.28-17.08-9.83-56.8-11.93-63.13s4.88-27.08,4.88-27.08c0,0,13.77-14.02,13.28-21.24-.26-6.48-1.06-12.93-2.4-19.28l74.37,2.75-2.34-50.41-106.82-10.69c-3.72,10.49-37.35,5.34-37.35,5.34-36.3,1.21-38.56,7.88-53.66,19.61-15.09,11.73-40.08,112.44-40.08,112.44l37.24,11.93h0Z"/><path class="cls-8" d="m337.66,573.79c-2.12.38-4.27.49-6.42.33-3.99,0-9.48-.28-15.51-.88-6.03-.61-11.49-1.46-15.37-2.23-2.14-.28-4.24-.81-6.25-1.6,2.15,0,4.3.2,6.42.61,3.91.5,9.34,1.18,15.34,1.79s11.46,1.02,15.4,1.29c2.15.03,4.29.26,6.39.69Z"/><path class="cls-8" d="m346.03,563.41c-2.12,1.04-4.36,1.81-6.67,2.29-10.99,2.89-22.33,4.23-33.69,3.99-2.35.08-4.7-.15-7-.66,2.32-.29,4.66-.41,7-.36,4.32-.14,10.27-.44,16.83-1.21s12.4-1.87,16.53-2.75c2.29-.61,4.63-1.05,7-1.29h0Z"/><path class="cls-8" d="m387.13,517.08c-.06,2.1-.34,4.19-.85,6.23-.72,3.83-1.82,9.06-3.22,14.79s-2.75,11.02-3.97,14.6c-.49,2.05-1.21,4.04-2.15,5.92.15-2.09.54-4.16,1.16-6.17,1.05-4.3,2.23-9.26,3.55-14.68s2.59-10.38,3.64-14.68c.37-2.07.99-4.08,1.85-6h-.01Z"/><path class="cls-8" d="m266.73,578.7c-6.37-.98-12.66-2.45-18.81-4.38-6.29-1.47-12.45-3.4-18.46-5.78,6.37,1,12.66,2.46,18.81,4.38,6.29,1.46,12.46,3.4,18.46,5.78Z"/><path class="cls-8" d="m395.39,494.13c-1.04.18-2.1.18-3.14,0-2.88-.3-5.7-.97-8.4-2.01-9.11-3.42-16.35-10.54-19.94-19.58-1.96-4.92-2.8-10.22-2.45-15.51.12-4.36,1.43-8.61,3.77-12.29,1.65-2.48,4.12-4.3,6.97-5.15.76-.21,1.55-.31,2.34-.3h.83s-1.16,0-3,.74c-2.62.97-4.84,2.78-6.31,5.15-3.75,5.89-4.79,16.66-.8,26.72,1.86,4.74,4.77,9,8.51,12.45,3.07,2.83,6.6,5.1,10.44,6.72,3.6,1.42,7.35,2.45,11.18,3.06h0Z"/><path class="cls-8" d="m459.6,496.5c-.69-8.45-.91-16.93-.66-25.4-.22-8.46.04-16.93.77-25.37.69,8.44.91,16.91.66,25.37.23,8.47-.03,16.95-.77,25.4Z"/><path class="cls-4" d="m358.56,439.48c.3-6.14.94-13.08.94-13.08,0,0,15.2-1.68,16.11-17.38.91-15.7,0-51.92,0-51.92l-27.54-14.1-30.57,24.05,4.71,78.5,28.04,1.79c4.46.12,8.18-3.39,8.32-7.85h0Z"/><path class="cls-2" d="m361.29,396.6s0,.3-.25.66c-.42.53-1.07.82-1.74.77-1.76,0-3.47-2.04-4.08-4.41-.29-1.15-.29-2.35,0-3.5.11-1.02.74-1.91,1.65-2.37.37-.15.79-.15,1.16,0,.27.14.5.36.63.63.19.47,0,.77,0,.74s0-.28-.28-.55c-.3-.41-.86-.53-1.29-.28-.69.42-1.11,1.15-1.13,1.96-.23,1.02-.23,2.09,0,3.11.55,2.15,2.04,3.88,3.36,4.05.52.07,1.05-.08,1.46-.41.33-.22.44-.44.5-.41h.01Z"/><path class="cls-8" d="m385.06,348.61c-2.12-7.22-9.81-10.8-16.8-12.78-10.66-3.03-22.17-4.35-32.59-.52s-22.92,10.55-22.92,22.04c-6.14-.5-9.67,4.88-12.09,11.54-1.55,4.06-2.48,8.33-2.75,12.67h0c-.77,15.04-4.99,35.81-14.74,46.83-5.51,6.14-13.14,10.38-16.28,18.04-2.75,6.64-1.32,14.52-3.88,21.24-2.29,5.92-7.33,10.14-11.02,15.29-7.64,11.88-8.63,26.86-2.62,39.64,6.02,12.38,16.87,21.74,30,25.89,12.87,3.91,26.59,4.05,39.53.39,9.71-2.32,18.77-6.81,26.5-13.14,7.91-6.46,13.34-15.45,15.37-25.45,1.96-11.24-1.18-22.67-3.53-33.85-7.33-35.34-5.23-37.19,4.02-69.99.22-.58.33-1.18.5-1.76s.25-.85.36-1.29h0c.26-1.3.4-2.62.41-3.94-2.76,1.03-5.86.36-7.96-1.71-2.1-2.2-2.82-5.37-1.87-8.26,1.31-3.14,3.9-5.57,7.11-6.69,3.06-1.27,6.34-1.93,9.34-3.33,6.36-3.03,10.77-9.31,13.77-15.89,2.47-4.56,3.23-9.86,2.15-14.93v-.04Z"/><path class="cls-5" d="m362.39,397.34c.58.86,1.06,1.78,1.43,2.75.83,1.74,1.93,4.19,3.14,7.02l.22.52h-.58l-2.75.25c-1.9,0-3.5.36-5.37.33-.33-.07-.6-.31-.72-.63-.08-.25-.08-.52,0-.77.06-.37.15-.74.25-1.1l.5-1.96c.25-1.3.64-2.58,1.16-3.8-.05,1.33-.25,2.65-.58,3.94l-.39,1.96c-.14.66-.39,1.68,0,1.6,1.38,0,3.33-.3,5.15-.41l2.75-.25-.36.61c-1.18-2.75-2.18-5.34-2.75-7.13-.51-.91-.88-1.9-1.1-2.92h0Z"/><path class="cls-8" d="m268.08,629.18l122.16-3.72,53.16,207.52-9.78,238.04h-64.59l7.91-232.97-47.24-144.47,7.27,386.67-65.28.96-6.86-363.45c-.3-10.11-3.61-32.89-2.37-42.91l5.62-45.67h0Z"/><path class="cls-7" d="m345.95,696.53c-2,.13-4.01,0-5.98-.36-3.69-.44-8.73-1.21-14.27-2.31-5.54-1.1-10.49-2.37-14.08-3.39-1.91-.42-3.77-1.09-5.51-1.98,0-.41,8.98,1.74,20,3.97s19.89,3.66,19.83,4.08h.01Z"/><path class="cls-7" d="m327.96,1069.21c-.39,0-2.09-84.48-3.83-188.68s-2.75-188.74-2.4-188.74,2.12,84.45,3.83,188.71,2.81,188.71,2.4,188.71Z"/><path class="cls-7" d="m424.28,1057.98c-.03-.38-.03-.75,0-1.13v-3.31c0-2.97.22-7.24.39-12.67.39-11.02.94-27.02,1.63-46.63,1.49-39.44,3.58-93.82,5.87-153.84v-1.63.19c-14.46-57.84-27.54-110.34-37.05-148.33l-11.02-44.93c-1.27-5.26-2.23-9.37-2.92-12.23-.33-1.35-.55-2.4-.74-3.2-.11-.36-.17-.73-.19-1.1.14.35.25.71.33,1.07.22.77.5,1.82.88,3.14.74,2.75,1.82,6.94,3.2,12.17,2.75,10.63,6.64,25.95,11.49,44.82,9.59,37.96,22.81,90.32,37.46,148.25v1.82c-2.45,60.02-4.68,114.37-6.31,153.81-.85,19.64-1.57,35.53-2.07,46.61-.28,5.51-.5,9.7-.63,12.67,0,1.4-.17,2.51-.19,3.31,0,.38-.03.76-.11,1.13h-.02Z"/><path class="cls-7" d="m403.21,833.93c-4.64,1.53-9.42,2.59-14.27,3.17-5.95,1.02-11.02,1.74-13.3,1.85v-.55c.74.22,1.13.36,1.13.47s-.47,0-1.24,0h-1.65l1.65-.5c2.15-.63,7.22-1.68,13.17-2.75,4.77-1.04,9.63-1.6,14.52-1.68h-.01Z"/><path class="cls-7" d="m402.08,841.83c-4.3.2-8.6,0-12.86-.58-4.3-.09-8.59-.56-12.81-1.4,8.61-.7,17.27-.03,25.67,1.98h0Z"/><path class="cls-10" d="m267.55,633.56c2.93,3.76,7.31,6.09,12.06,6.42,4.92.58,9.9.49,14.79-.28,31.54-3.5,64.95-6.72,95.83-14.24-39.97,2.23-82.19,1.49-122.16,3.72l-.41,3.42"/><g class="cls-9"><polygon points="308.73 689.89 331.27 777.32 329.7 693.58 308.73 689.89"/></g></g><g id="freepik--speech-bubble-2--inject-36"><circle class="cls-3" cx="277.64" cy="233.7" r="64.21"/><path class="cls-8" d="m341.84,233.71c-.07-.35-.11-.7-.14-1.05,0-.74,0-1.76-.22-3.03,0-.69,0-1.43-.14-2.23s-.28-1.74-.41-2.75c-.31-2.23-.77-4.44-1.38-6.61-1.51-5.98-3.91-11.7-7.13-16.97-15.7-26.18-47.75-37.55-76.44-27.1-2.83,1.03-5.6,2.26-8.26,3.66-2.7,1.49-5.3,3.16-7.77,5.01-2.56,1.89-4.98,3.95-7.24,6.17-2.25,2.32-4.34,4.77-6.28,7.35-3.92,5.29-6.96,11.18-9.01,17.44-4.37,12.99-4.37,27.06,0,40.05,2.03,6.31,5.08,12.26,9.01,17.6,1.91,2.59,3.99,5.04,6.23,7.35,2.26,2.2,4.67,4.25,7.19,6.14,2.49,1.83,5.09,3.51,7.8,5.01,2.67,1.4,5.43,2.61,8.26,3.64,28.68,10.38,60.7-.97,76.44-27.1,3.24-5.23,5.68-10.93,7.22-16.89.6-2.17,1.07-4.38,1.38-6.61.14-.96.33-1.87.41-2.75l.14-2.26c0-1.27.17-2.29.22-3.03.02-.35.07-.7.14-1.05.03.35.03.7,0,1.05v5.32c0,.83-.22,1.74-.36,2.75-.25,2.26-.66,4.5-1.24,6.69-1.44,6.07-3.8,11.89-7,17.24-15.75,26.78-48.36,38.52-77.57,27.93-2.91-1.04-5.74-2.27-8.48-3.69-2.77-1.51-5.43-3.21-7.96-5.1-2.64-1.9-5.15-3.97-7.52-6.2-2.27-2.37-4.4-4.88-6.36-7.52-4.04-5.42-7.18-11.46-9.31-17.88-4.46-13.3-4.46-27.69,0-40.99,2.12-6.42,5.25-12.45,9.28-17.88,1.96-2.64,4.09-5.15,6.36-7.52,2.32-2.24,4.78-4.32,7.38-6.23,2.53-1.89,5.19-3.59,7.96-5.1,2.74-1.43,5.57-2.67,8.48-3.72,10.9-3.94,22.65-4.89,34.05-2.75,18.23,3.52,34.07,14.68,43.52,30.66,3.19,5.36,5.55,11.17,7,17.24.58,2.2.99,4.43,1.24,6.69.14.99.28,1.87.36,2.75s0,1.6,0,2.26v3.06c.08.3.13.6.17.91l-.02.04Z"/><path class="cls-8" d="m258.63,233.77c-.03,3.5-2.89,6.31-6.39,6.28s-6.31-2.89-6.28-6.39c.03-3.49,2.87-6.3,6.36-6.28,3.48,0,6.31,2.82,6.31,6.31v.08Z"/><path class="cls-8" d="m283.97,233.77c0,3.5-2.84,6.34-6.34,6.34s-6.34-2.84-6.34-6.34,2.84-6.34,6.34-6.34,6.34,2.84,6.34,6.34h0Z"/><path class="cls-8" d="m309.22,230.6c1.75,3.03.72,6.9-2.31,8.66-3.03,1.75-6.9.72-8.66-2.31-1.75-3.03-.72-6.9,2.31-8.66h0c3.03-1.75,6.9-.71,8.65,2.31h.01Z"/><path class="cls-3" d="m316.33,312.77c0,5.99-4.86,10.85-10.85,10.85s-10.85-4.86-10.85-10.85,4.86-10.85,10.85-10.85h.03c5.98.02,10.83,4.87,10.83,10.85h0Z"/><path class="cls-8" d="m316.33,312.77s0-.96-.61-2.59c-.7-2.22-2.11-4.15-3.99-5.51-4.56-3.32-10.96-2.31-14.28,2.25s-2.31,10.96,2.25,14.28c3.58,2.61,8.44,2.61,12.02,0,1.87-1.37,3.26-3.3,3.97-5.51.47-1.63.47-2.59.61-2.59.21.91.21,1.85,0,2.75-.54,2.49-1.92,4.72-3.91,6.31-3.06,2.4-7.13,3.06-10.8,1.76-5.96-2.12-9.08-8.67-6.96-14.63,1.15-3.25,3.71-5.81,6.96-6.96,3.67-1.3,7.75-.63,10.8,1.79,2,1.57,3.39,3.79,3.91,6.28.17.78.18,1.59.03,2.37Z"/></g><polygon class="cls-7" points="483.35 660.36 489.16 672.04 501.98 673.89 492.67 682.95 494.9 695.77 483.35 689.71 471.87 695.77 474.1 682.95 464.79 673.89 477.61 672.04 483.35 660.36"/><polygon class="cls-7" points="537.84 660.36 543.58 672.04 556.47 673.89 547.15 682.95 549.32 695.77 537.84 689.71 526.35 695.77 528.52 682.95 519.21 673.89 532.1 672.04 537.84 660.36"/><polygon class="cls-7" points="592.26 660.36 598 672.04 610.89 673.89 601.57 682.95 603.81 695.77 592.26 689.71 580.77 695.77 583.01 682.95 573.69 673.89 586.52 672.04 592.26 660.36"/><polygon class="cls-7" points="646.74 660.36 652.48 672.04 665.31 673.89 656.06 682.95 658.23 695.77 646.74 689.71 635.26 695.77 637.43 682.95 628.11 673.89 641 672.04 646.74 660.36"/><polygon class="cls-6" points="701.16 660.36 706.9 672.04 719.79 673.89 710.48 682.95 712.65 695.77 701.16 689.71 689.68 695.77 691.85 682.95 682.53 673.89 695.42 672.04 701.16 660.36"/><path class="cls-8" d="m715.76,744.36c0,.67-53.49,1.25-119.46,1.25s-119.51-.58-119.51-1.25,53.49-1.25,119.51-1.25,119.46.53,119.46,1.25Z"/><path class="cls-8" d="m575.85,772.5c-16.77,1.27-33.6,1.68-50.42,1.25-16.83.43-33.67.02-50.46-1.25,0-.67,22.57-1.25,50.46-1.25s50.42.58,50.42,1.25Z"/><path class="cls-6" d="m720.76,810.28c0,.67-55.02,1.25-122.87,1.25s-122.92-.58-122.92-1.25,55.02-1.25,122.92-1.25,122.87.58,122.87,1.25Z"/></svg>