<?xml version="1.0" encoding="UTF-8"?><svg id="Ebene_1" xmlns="http://www.w3.org/2000/svg" viewBox="0 0 500 500"><defs><style>.cls-1{fill:#ebebeb;}.cls-2{fill:#eb996e;}.cls-3{fill:#f5f5f5;}.cls-4{fill:#ffad8a;}.cls-5{fill:#fff;}.cls-6{fill:#fafafa;}.cls-7{fill:#ffbe9d;}.cls-8{fill:#7e6c65;}.cls-9{fill:#e0e0e0;}.cls-10{fill:#455a64;}.cls-11{fill:#263238;}.cls-12{opacity:.3;}</style></defs><path class="cls-6" d="m184.65,171.51l1.68.92-1.69.92c-.88.47-1.6,1.19-2.08,2.06l-.92,1.68-.92-1.68c-.46-.9-1.18-1.64-2.06-2.14l-1.68-.92,1.68-.91c.9-.47,1.64-1.19,2.14-2.07l.92-1.68.91,1.69c.46.89,1.16,1.62,2.03,2.12Z"/><path class="cls-6" d="m354.47,187.36l.66.36-.66.35c-.34.19-.63.48-.82.82l-.36.66-.36-.66c-.18-.35-.47-.64-.82-.82l-.65-.37.66-.35c.34-.19.63-.48.82-.82l.36-.66.36.67c.19.35.47.63.81.82Z"/><g id="freepik--Bottle--inject-105"><rect class="cls-10" x="300.19" y="202.8" width="7.84" height="18.62"/><path class="cls-11" d="m286.14,335.09v-68.48c0-9.95,8.07-18.02,18.02-18.02h0c9.95,0,18.02,8.07,18.02,18.02h0v68.48h-36.04Z"/><rect class="cls-11" x="298.82" y="213.05" width="10.69" height="57.42"/><rect class="cls-1" x="291.4" y="271.47" width="23.37" height="45.49"/><path class="cls-10" d="m322.19,335.09s-.47-.27-1.36-.67c-1.25-.56-2.53-1.05-3.84-1.46-1.93-.64-3.9-1.17-5.89-1.59-2.42-.56-4.89-.87-7.38-.94-2.5-.03-5,.16-7.47.54-2,.33-3.96.87-5.85,1.6-1.72.74-3.39,1.6-5,2.57.36-.37.76-.69,1.2-.95,1.15-.78,2.37-1.45,3.65-1.99,1.91-.82,3.91-1.41,5.96-1.78,2.49-.43,5.01-.63,7.53-.6,2.52.07,5.02.4,7.47.99,2,.45,3.97,1.02,5.9,1.72,1.31.45,2.58,1,3.81,1.64.47.22.91.53,1.27.91Z"/><path class="cls-10" d="m321.04,266.91c.16,0,.28,13.52.28,30.18s-.12,30.18-.28,30.18-.28-13.52-.28-30.18.13-30.18.28-30.18Z"/><path class="cls-10" d="m301.92,249.72c0,.1-1.41.27-3.51,1.15-5.6,2.31-9.43,7.56-9.93,13.59-.2,2.27.07,3.68,0,3.69-.13-.31-.21-.64-.23-.97-.14-.91-.18-1.83-.13-2.75.32-6.25,4.32-11.7,10.19-13.88.86-.33,1.74-.57,2.65-.72.31-.09.64-.13.97-.12Z"/><path class="cls-10" d="m300.15,247.63c-.15,0-.28-6.95-.28-15.52s.13-15.52.28-15.52.28,6.95.28,15.52-.07,15.52-.28,15.52Z"/><rect class="cls-8" x="298.82" y="224.76" width="10.69" height="16.29"/><path class="cls-10" d="m305.8,285.9c-3.27.28-6.56.37-9.84.28-3.28.1-6.57,0-9.84-.28,3.27-.27,6.56-.37,9.84-.28,3.28-.09,6.57,0,9.84.28Z"/><rect class="cls-9" x="286.14" y="290.61" width="17.67" height="17.67"/></g><g id="freepik--Characters--inject-105"><path class="cls-11" d="m375.26,117.88c-18.04-8.81-26.85,1.07-30.75,6.51s-5.69,12.1-7.41,18.59c-7.61,28.68-3.67,57.11-2.14,86.74.69,13.48-8.32,27.82-10.03,41.22-.89,6.93-2.8,14.5.78,20.51,2.84,4.78,8.41,7.12,13.6,9.15l78.53,30.66-42.59-213.38Z"/><path class="cls-7" d="m344.27,140.69c2.43-12.3,17.39-22.94,29.53-20.01l38.93,12.89-1.07,6.66-12.66,86.01-44.93,12.16.97-30.91s-15.44-4.71-16.01-25.83c-.21-10.5,2.55-27.3,5.24-40.98Z"/><path class="cls-11" d="m345.57,156.48c-.21,1.41.73,2.74,2.14,3.01,1.39.29,2.74-.6,3.03-1.98,0-.02,0-.04.01-.05.2-1.43-.77-2.76-2.19-3.01-1.38-.27-2.72.64-2.99,2.03,0,0,0,0,0,.01Z"/><path class="cls-11" d="m346.74,149.99c.29.4,2.49-.83,5.34-.45,2.85.38,4.73,2.14,5.09,1.77.17-.14-.09-.8-.91-1.59-1.11-1.02-2.52-1.66-4.01-1.85-1.47-.2-2.97.08-4.27.79-.99.52-1.38,1.11-1.24,1.32Z"/><path class="cls-11" d="m371.36,160.4c-.21,1.43.76,2.77,2.19,3.01,1.39.29,2.74-.6,3.03-1.98,0-.02,0-.03,0-.05.21-1.43-.76-2.77-2.19-3.02-1.38-.29-2.73.59-3.03,1.96,0,.03-.01.05-.01.08Z"/><path class="cls-11" d="m373.32,154.62c.28.38,2.48-.83,5.34-.45,2.86.38,4.74,2.14,5.09,1.77.17-.14-.07-.8-.9-1.59-1.12-1.02-2.52-1.66-4.03-1.85-1.47-.19-2.97.08-4.27.79-1,.56-1.39,1.14-1.24,1.32Z"/><path class="cls-11" d="m361.49,173.97c0-.16-1.69-.69-4.51-1.44-.72-.17-1.38-.41-1.44-.92.03-.77.31-1.52.78-2.14.9-1.67,1.86-3.43,2.88-5.27,4.03-7.47,7.05-13.72,6.75-13.88s-3.81,5.8-7.85,13.3c-.97,1.86-1.91,3.62-2.8,5.34-.57.82-.84,1.81-.76,2.81.15.55.54,1,1.07,1.23.39.16.79.28,1.21.33,2.85.56,4.63.81,4.67.64Z"/><path class="cls-2" d="m355.04,207.49c9.69,1.43,19.58.13,28.57-3.75,0,0-8.38,13.77-28.74,9.13l.17-5.38Z"/><path class="cls-2" d="m361.78,181.02c1.28-1.25,3.11-1.74,4.85-1.31,1.25.28,2.33,1.05,3,2.14.65,1.08.56,2.45-.22,3.44-1.07.92-2.6,1.1-3.85.45-1.28-.65-2.42-1.55-3.34-2.65-.29-.27-.53-.6-.7-.96-.18-.35-.12-.78.15-1.07"/><path class="cls-11" d="m369.55,177.05c-.46-.1-.88,3.01-3.81,4.86s-6.17,1.07-6.25,1.51c-.07.19.65.7,2.03.92,1.8.27,3.65-.11,5.2-1.07,1.49-.93,2.56-2.4,3-4.1.33-1.29.09-2.1-.17-2.11Z"/><path class="cls-11" d="m371.75,146.22c.22.8,3.11.63,6.41,1.26s5.98,1.75,6.48,1.07c.21-.32-.2-1.07-1.24-1.92-2.83-2.08-6.46-2.73-9.84-1.78-1.24.43-1.87.99-1.8,1.38Z"/><path class="cls-11" d="m346.83,142.09c.46.73,2.71.33,5.34.65s4.74,1.07,5.34.45c.27-.3,0-.99-.88-1.73-2.47-1.84-5.75-2.18-8.54-.89-1.08.54-1.46,1.17-1.26,1.52Z"/><path class="cls-4" d="m386.55,169.6c-.34-.97-1.51-1.35-2.52-1.53-2.52-.44-5.08-.63-7.63-.57-.96-.02-1.92.11-2.84.4-.94.29-1.71.95-2.14,1.84-.37.88.32,1.83,1.07,2.39,3.2,1.61,6.98,1.07,10.51.56.89-.07,1.76-.34,2.54-.79.8-.46,1.21-1.39,1.01-2.3Z"/><path class="cls-4" d="m347.22,163.76c.07.02.13.04.19.06h.05l-.25-.06Z"/><path class="cls-4" d="m351.24,166.32c-1-1.19-2.33-2.06-3.82-2.5-1.07-.36-2.22-.44-3.33-.23-1.49.25-2.86,1.26-2.74,2.51.19.91.81,1.66,1.67,2.02.92.42,1.92.67,2.94.72,1.54.12,3.09.03,4.6-.28.33-.04.65-.16.92-.35.58-.47.25-1.3-.22-1.88Z"/><path class="cls-11" d="m424.24,331.99c11.02-1.22,20.36-8.66,24.02-19.12,1.99-5.95,1.92-12.35,1.85-18.62-.13-9.95-.26-19.94-1.79-29.79-2.27-14.66-7.61-28.66-11.52-42.97-6.97-25.5-9.45-52.06-16.35-77.58-2.61-9.61-6.19-19.61-13.88-25.91-10.24-8.33-31.62-10.12-39.1-1.01,0,0,18.02,30.57,26.51,50.88,11.08,26.49-15.11,45.77,8.41,69.55,19.83,20.07,21.84,94.57,21.84,94.57Z"/><path class="cls-8" d="m398.18,211.84s17.73,7.61,25.28,22.54c7.05,13.88,10.07,33.75,9.19,61.7-1.01,32.19,6.08,39.58,6.08,39.58,0,0,9.69,11.25,27.64,36.13,19.19,26.57,20.62,71.81,20.62,71.81h-102.5l-26.69-117.57s-17.8-25.11-18.15-37.88c-.35-12.77,14.4-50.48,14.4-50.48l43.77-30.04.35,4.22Z"/><g class="cls-12"><path d="m389.42,295.62c-9.74,12.42-20.51,24-32.2,34.6h1.07c30.28-15.18,52.53-42.68,61.06-75.45-9.44,12.66-20.23,28.45-29.93,40.85Z"/></g><path class="cls-7" d="m420.8,236.62c-2.69-8.47-15.83-15.3-23.9-11.58-6.77,3.11-10.78,8.07-22.16,25.09-20.79,31.11-33.45,48.77-33.45,48.77l-74.96-33.97-7.12,10.68-7.09,11.78s62.99,40.46,73.86,44.76c8.67,3.43,17.14,6.82,24.46,4.12,7.32-2.7,14.42-12.3,23.15-21.35,7.13-7.41,22.62-23.89,30.1-35.13,5.84-8.78,10.32-13.14,14.95-23.28,3.5-7.79,4.61-12.25,2.18-19.88Z"/><path class="cls-11" d="m438.73,335.66c-.16.11-.32.2-.5.27l-1.46.65c-1.28.57-3.13,1.38-5.4,2.41-4.55,2.06-10.77,5.03-17.66,8.31-6.89,3.28-13.15,6.19-17.74,8.16-2.3.99-4.17,1.75-5.48,2.25l-1.51.57c-.17.08-.36.14-.54.16.16-.11.33-.2.5-.27l1.46-.65c1.28-.57,3.13-1.38,5.4-2.41,4.55-2.06,10.78-5.03,17.67-8.31s13.14-6.19,17.73-8.16c2.3-.99,4.17-1.76,5.48-2.26l1.51-.56c.17-.08.36-.14.54-.16Z"/><path class="cls-2" d="m345.86,322.01c-.09,0,0-1.35-.1-3.48-.09-2.79-.4-5.57-.93-8.31-.55-2.73-1.32-5.42-2.3-8.03-.76-2.01-1.31-3.2-1.24-3.26s.21.27.5.79.67,1.32,1.07,2.32c1.1,2.6,1.93,5.3,2.48,8.07.55,2.77.81,5.58.78,8.4,0,1.07-.06,1.96-.14,2.56,0,.31-.04.63-.13.93Z"/><path class="cls-11" d="m440.39,382.97c-.37-.46-.7-.95-.98-1.46l-2.53-4.05c-2.14-3.42-5.16-8.1-8.67-13.15s-6.84-9.52-9.3-12.72l-2.9-3.79c-.4-.44-.76-.92-1.07-1.43.43.4.83.83,1.19,1.29.75.85,1.79,2.14,3.05,3.68,2.54,3.14,5.93,7.58,9.45,12.64s6.49,9.79,8.54,13.26c1.07,1.74,1.85,3.2,2.38,4.15.32.5.6,1.02.84,1.57Z"/><path class="cls-11" d="m439.15,354.52c-.88-.53-1.73-1.12-2.53-1.76-1.54-1.12-3.69-2.64-6.16-4.17s-4.76-2.81-6.41-3.7c-.94-.43-1.84-.93-2.7-1.49,1,.28,1.97.66,2.88,1.14,2.26,1.07,4.45,2.27,6.57,3.59,2.12,1.32,4.15,2.76,6.1,4.32.83.61,1.58,1.3,2.25,2.08Z"/><path class="cls-8" d="m371.85,249.48l39.45,23.41s24.86-31.88,2.67-46.83c-21-14.16-42.12,23.41-42.12,23.41Z"/><path class="cls-11" d="m411.3,272.9c-.55-.24-1.08-.52-1.59-.83l-4.27-2.44-13.88-8.27-13.88-8.26-4.21-2.5c-.53-.28-1.03-.61-1.51-.98.55.23,1.09.49,1.61.79,1.07.54,2.49,1.35,4.27,2.35,3.61,2.02,8.54,4.89,13.97,8.14s10.28,6.22,13.79,8.4l4.14,2.61c.55.29,1.06.63,1.55,1.01Z"/><path class="cls-11" d="m389.76,228.44c.05.06-1.07,1.07-2.86,2.83-2.28,2.31-4.42,4.75-6.41,7.31-2.32,3.01-4.35,5.8-5.89,7.75-.77.98-1.41,1.76-1.87,2.3-.21.29-.46.55-.75.78.7-1.15,1.47-2.25,2.31-3.31,1.46-2.02,3.44-4.84,5.77-7.86,1.98-2.59,4.17-5.01,6.53-7.25.93-.84,1.69-1.51,2.24-1.93.28-.25.59-.46.93-.62Z"/><path class="cls-11" d="m429.74,219.39c-2.03-8.47-4.21-16.78-6.6-25.15-3.48-12.25-3.45-25.86-9.13-36.99l1.07-8.54c.67-5.22,1.31-10.68-.62-15.61-1.86-4.26-5.16-7.73-9.32-9.8-4.14-2.05-8.59-3.39-13.17-3.95-7.97-1.21-16.06-1.31-24.05-.31l-.42,1.16c4.05,8.69,8.24,17.62,15.2,24.21,2.94,2.78,6.35,5.14,8.61,8.49,1.94,3,3.72,6.11,5.34,9.3.37.73.68,1.49.91,2.27.53,2.89.89,5.82,1.07,8.75,0,2.05,0,4.17-.05,6.27-.27,4.98-1.6,9.85-3.9,14.27-2.99,5.57-7.66,10.01-11.74,14.81-4.09,4.79-7.87,10.36-8.35,16.66-.18,2.37.21,4.98,1.94,6.6s4.8,1.86,7.21.99c2.33-1.03,4.49-2.4,6.41-4.08,3.96-3.2,8.71-5.27,13.75-6,7.73-1.15,14.62,1.75,17.74,6.16,2.05,2.76,3.77,5.75,5.11,8.91.67,1.44,2.91-9.51,3.7-10.9,1.42-2.48-.04-4.89-.7-7.53Z"/><path class="cls-10" d="m424.37,172.05c-.02-.27-.02-.54,0-.81,0-.53,0-1.32-.06-2.33-.24-2.84-.92-5.62-2.02-8.24-1.66-3.88-3.95-7.46-6.79-10.58-3.54-3.78-7.47-7.16-11.74-10.09-4.49-3.2-8.93-6.04-12.81-8.89-3.45-2.48-6.66-5.26-9.61-8.32-1.98-2.07-3.73-4.35-5.23-6.8-.51-.88-.89-1.57-1.07-2.05-.14-.24-.25-.49-.33-.75.16.22.3.45.43.69.26.46.66,1.13,1.2,1.99,1.56,2.39,3.35,4.61,5.34,6.65,2.99,2.99,6.22,5.73,9.66,8.18,3.85,2.81,8.3,5.64,12.81,8.85,4.28,2.95,8.22,6.37,11.74,10.2,2.86,3.18,5.15,6.83,6.77,10.78,1.08,2.67,1.71,5.5,1.87,8.37.05.78.05,1.56,0,2.34-.02.28-.07.55-.15.81Z"/><path class="cls-11" d="m125.26,144.06c-1.45-8.32-2.86-16.69-2.87-25.12s1.48-17,5.51-24.47c.61-1.13,5.5-8.54,6.75-8.25.89.21-2.49,7.31-2.14,8.17,3.29,8.08,3.2,17.22,1.27,25.74-1.96,8.26-4.82,16.28-8.54,23.9"/><path class="cls-7" d="m151.48,246.22c-12.91-2.14-35.38-43.23-33.55-56.19l11.03-77.94c2.31-21.03,16.46-37.24,37.43-34.36l1.92.38c19.34,3.81,32.52,21.84,30.27,41.43-2.14,18.23-4.64,38.34-6.66,47.94-4.17,19.87-24.72,19.04-24.72,19.04,0,0-.77,4.64-1.68,10.54-2.04,13.21-1.62,51.16-14.85,49.03l.8.14Z"/><path class="cls-2" d="m167.2,186.49s-12.71-1.74-24.43-12.81c0,0,3.29,16.22,23.49,18.34l.94-5.53Z"/><path class="cls-11" d="m191.42,133.71c-.29,1.55-1.76,2.58-3.31,2.33-1.52-.17-2.62-1.55-2.44-3.07,0-.04.01-.09.02-.13.29-1.54,1.76-2.57,3.31-2.33,1.52.17,2.62,1.55,2.44,3.07,0,.04-.01.09-.02.13Z"/><path class="cls-11" d="m192.6,127.48c-.43.3-2.26-1.72-5.34-2.32s-5.61.49-5.86.05c-.14-.2.35-.8,1.47-1.31,1.51-.66,3.18-.83,4.79-.5,1.59.31,3.04,1.11,4.14,2.31.81.91,1,1.64.79,1.77Z"/><path class="cls-11" d="m162.58,128.57c-.29,1.54-1.76,2.57-3.31,2.33-1.52-.17-2.61-1.54-2.43-3.06,0-.03,0-.05.01-.08.29-1.55,1.76-2.58,3.31-2.33,1.52.17,2.61,1.54,2.43,3.06,0,.03,0,.05-.01.08Z"/><path class="cls-11" d="m162.42,122.23c-.43.3-2.26-1.72-5.34-2.32s-5.61.49-5.87,0c-.13-.2.36-.8,1.48-1.32,1.51-.65,3.18-.82,4.78-.49,1.6.3,3.05,1.11,4.15,2.31.84,1,1.04,1.73.79,1.83Z"/><path class="cls-11" d="m168.83,147.96c0-.17,1.99-.13,5.15.09.8.07,1.57.06,1.82-.45.22-.79.2-1.63-.06-2.41-.36-2.04-.74-4.18-1.14-6.41-1.57-9.08-2.55-16.55-2.16-16.55s1.92,7.28,3.46,16.39c.35,2.24.7,4.38,1.07,6.41.33,1.06.26,2.19-.19,3.2-.34.51-.9.84-1.52.89-.46.03-.92,0-1.37-.07-3.17-.53-5.05-.9-5.05-1.08Z"/><path class="cls-11" d="m164.44,110.77c-.57.69-3.37-.7-6.98-1.51s-6.73-.82-6.93-1.7c-.09-.42.66-1,2.06-1.39,3.72-.86,7.63.04,10.6,2.44,1.09.95,1.51,1.86,1.25,2.15Z"/><path class="cls-11" d="m193.3,120.18c-.77.58-3.14-.6-6.14-1.17s-5.64-.54-6.09-1.38c-.19-.41.33-1.07,1.57-1.48,1.68-.54,3.48-.63,5.2-.23,1.73.32,3.34,1.12,4.64,2.3.9.91,1.15,1.69.81,1.98Z"/><path class="cls-7" d="m127.68,127.14c-.31-.21-12.89-6.75-15.14,6.96-2.25,13.71,11.97,13.13,12.05,12.75s3.09-19.71,3.09-19.71Z"/><path class="cls-2" d="m121.26,140.97c0-.05-.27.13-.69.25-.61.15-1.25.06-1.79-.26-1.37-.77-2.2-3.27-1.87-5.74.16-1.18.58-2.31,1.24-3.31.41-.84,1.21-1.42,2.14-1.54.59-.06,1.14.31,1.3.89.12.41,0,.67.05.7s.33-.18.32-.77c-.02-.35-.16-.68-.4-.94-.33-.35-.79-.56-1.27-.57-1.18.04-2.26.68-2.84,1.71-.78,1.09-1.28,2.35-1.45,3.68-.37,2.78.62,5.59,2.51,6.49.71.34,1.53.34,2.24,0,.44-.27.56-.57.51-.6Z"/><path class="cls-11" d="m193.23,95.4c2.41-.88-3.14-9.11-8.21-12.43-7.68-5.03-19.91-9.29-27.86-8.32-9.61,1.17-17.88,4.55-23.78,12.17s-9.13,17.08-10.33,26.63c-.37,2.91-.54,5.99.63,8.68,1.44,3.34,4.83,5.82,4.01,9.98-.34,1.51-.06,3.1.78,4.41,2.14,3.06,5.55,1.07,7.36-1.27,3.85-4.9,5.19-11.27,6.41-17.39.88-4.35,1.74-8.79,1.16-13.19-.32-2.39-1.07-4.72-1.24-7.13s.29-5.03,2.03-6.69c.4-.36.83-.68,1.29-.96,4.43-2.8,10.02-2.98,14.63-.49,7.3,3.93,19.87,10.07,23.72,7.98,5.54-3,7.11-5.27,7.11-5.27l2.28,3.3Z"/><path class="cls-11" d="m160.07,148.3c-.19,0-.43.74-.34,1.96.14,1.63.79,3.17,1.86,4.41,1.02,1.2,2.25,2.19,3.64,2.94,1.07.57,1.74.8,1.85.64s-.4-.72-1.25-1.48c-1.11-.93-2.15-1.94-3.12-3.02-2.18-2.5-2.19-5.47-2.64-5.45Z"/><polygon class="cls-11" points="245.37 289.84 185.15 285.95 171.93 243.2 165.33 275.42 159.03 318.59 181.85 322.93 249.87 316.31 245.37 289.84"/><path class="cls-11" d="m165.01,201.44s9.41,32.25,9,33.9,2.38,26.42-5.23,67.63c-6.9,37.3-14.89,68.92-14.89,68.92h-24.09s26.03-75.8,28.1-93.95c2.07-18.15,5.79-62.55,5.79-62.55l1.32-13.93Z"/><path class="cls-9" d="m138.01,192.24s12.59,13.27,17.54,17.21c2.64,2.07,6.32,2.17,9.08.26l-3.79,69.61-19.53,60.86-23.18-1.15-2.84-99.52,22.72-47.27Z"/><path class="cls-11" d="m121.11,167.07l-10.84,9.2s-16.34,2.14-27.48,12.5c-12.42,11.55-22.82,37.04-29.84,64.29-7.03,27.26-15.28,71.06-18.99,83.86s-18.6,87.55-18.6,87.55l15.74,2.83.82,16.28,69.83-.28,39.62-156.32c4.94-20.09,6.68-40.84,5.17-61.48-2.57-33.9-25.42-58.45-25.42-58.45Z"/><path class="cls-10" d="m133.25,281.65v-.32l.21-.92c.2-.85.48-2.04.84-3.54s.7-3.44,1.07-5.65.79-4.73,1.07-7.54c.73-6.57.91-13.19.54-19.78-.44-8.08-1.7-16.1-3.74-23.94-1.54-5.95-3.57-11.76-6.05-17.37-.53-1.35-1.21-2.61-1.65-3.98-.52-1.36-.52-2.86,0-4.22.56-1.27,1.44-2.37,2.55-3.2,1.01-.77,2.08-1.46,3.2-2.06l.12.43-13.42-.29h-.09v-.06c-1.49-1.71-2.86-3.2-3.97-4.62-.93-1.16-1.78-2.37-2.55-3.63-.65-1.07-1.07-1.9-1.37-2.48l-.32-.66c-.04-.07-.07-.15-.09-.22,0,0,0,.06.13.2l.36.64c.31.56.78,1.39,1.44,2.41.82,1.26,1.71,2.48,2.67,3.64,1.13,1.37,2.51,2.86,4.01,4.56l-.13-.05,13.42.18h.85l-.74.42c-1.1.6-2.15,1.28-3.14,2.05-1.03.76-1.85,1.78-2.38,2.95-.48,1.25-.48,2.63,0,3.88.43,1.3,1.07,2.58,1.65,3.93,2.51,5.64,4.55,11.47,6.11,17.45,2.05,7.87,3.29,15.92,3.7,24.04.34,6.63.12,13.27-.66,19.86-.29,2.82-.77,5.34-1.13,7.56s-.85,4.09-1.21,5.64-.73,2.67-.95,3.51c-.11.37-.19.68-.27.92-.02.1-.06.2-.12.29Z"/><path class="cls-10" d="m162.07,296.91c.01-.31.05-.62.11-.92.1-.64.23-1.51.41-2.59.37-2.26.86-5.53,1.41-9.61s1.07-8.88,1.61-14.26c.54-5.38.89-11.32,1.07-17.55.18-6.24.23-12.17.15-17.58-.09-5.41-.33-10.26-.6-14.35s-.51-7.38-.73-9.61c-.09-1.1-.17-1.97-.22-2.63-.03-.31-.03-.61,0-.92.07.3.12.6.15.91.07.65.18,1.52.32,2.62.28,2.27.6,5.57.91,9.61.31,4.04.57,8.95.72,14.36.15,5.41.11,11.37-.1,17.62s-.65,12.24-1.15,17.57c-.5,5.34-1.12,10.23-1.73,14.27s-1.15,7.32-1.59,9.61c-.21,1.07-.38,1.94-.51,2.58-.04.3-.12.59-.21.88Z"/><path class="cls-10" d="m90.89,358.34v.3c0,.22-.07.51-.12.88-.13.82-.3,1.99-.51,3.47-.48,3.06-1.16,7.47-2.03,13.03v.25l-.22-.11-49.53-23.49-2.35-1.12-.28-.13.16-.27,9.61-16.55.12-.2.22.1c13.53,6.04,24.81,12.02,32.67,16.5,3.93,2.23,7.03,4.08,9.13,5.34,1.07.65,1.84,1.15,2.41,1.51l.61.4.19.14-.3-.18-.64-.36-2.43-1.4c-2.14-1.24-5.24-3.04-9.19-5.23-7.9-4.39-19.22-10.3-32.72-16.3l.33-.11c-2.99,5.19-6.22,10.77-9.61,16.56l-.13-.38,2.36,1.12,49.44,23.7-.26.14c.93-5.49,1.67-9.88,2.14-12.92.26-1.49.46-2.66.61-3.48l.17-.91c.04-.1.09-.19.15-.27Z"/><path class="cls-7" d="m217.41,280.05l12.68-5.57,6.88-16.99,5.69-6.79s7.8-3.62,9.72-3.84,3.91.81,4.16,2.44c.11.7.41,1.76.41,1.76,0,0,6.29-2.37,7.2,3.93,0,0,4.9.15,5.55,5.89l2.01,1.07c.95.48,1.7,1.27,2.14,2.24l2.66,5.88-2.85-1.69-4.27-.56-5.26,2.7s-7.73,14.74-12.62,17.18c-3.19,1.5-6.7,2.2-10.23,2.04l-18.93,11.16-4.92-20.86Z"/><path class="cls-2" d="m258.45,250.7c-.48.24-.99.43-1.52.54l-3.66,1.28c-1.23.44-2.52.74-3.82.88-.55.1-1.11.05-1.63-.15.52-.12,1.05-.2,1.58-.25,1.26-.25,2.5-.59,3.7-1.01,1.43-.48,2.74-.91,3.73-1.12.52-.18,1.08-.24,1.62-.17Z"/><path class="cls-2" d="m264.18,254.98c-1.4.79-2.89,1.42-4.43,1.88-1.06.45-2.19.72-3.34.81-.92,0-1.43-.28-1.41-.33s.54.05,1.38-.06c1.1-.19,2.17-.51,3.2-.94,1.47-.63,3.02-1.09,4.6-1.36Z"/><path class="cls-2" d="m269.67,260.9c-.49.07-.98.11-1.47.12-1.17.17-2.32.46-3.43.88-1.14.43-2.32.74-3.52.92-.51.11-1.04.07-1.53-.1.48-.14.97-.23,1.46-.29,1.15-.29,2.29-.65,3.41-1.07,1.15-.44,2.36-.69,3.59-.75.95,0,1.52.22,1.49.29Z"/><path class="cls-2" d="m236.97,280.7c-1.26-.9-2.44-1.92-3.5-3.04-1.21-.98-2.33-2.05-3.37-3.2,1.39.72,2.66,1.65,3.75,2.78,1.2,1,2.26,2.17,3.13,3.47Z"/><path class="cls-2" d="m276.45,270.08s-.59-.32-1.63-.86-2.64-1.07-4.56-1.99h.2l-6.26,3.56.12-.12c-.58,1.14-1.22,2.34-1.91,3.53-1.24,2.14-2.54,4.15-3.77,5.94-1.06,1.6-2.21,3.14-3.44,4.61-.86.97-1.87,1.81-2.98,2.49-.4.27-.83.48-1.28.63,1.47-.94,2.81-2.07,3.97-3.37,1.07-1.23,2.14-2.87,3.3-4.64s2.48-3.78,3.72-5.93c.69-1.2,1.32-2.37,1.91-3.5v-.07h.09l6.28-3.46.11-.05.11.05c1.85.89,3.48,1.51,4.48,2.14.51.31.9.58,1.14.76.15.08.29.18.41.3Z"/><path class="cls-10" d="m172.2,283.01c-.15,0,.05-7.7.46-17.17.41-9.47.85-17.16,1-17.16s-.05,7.7-.45,17.18c-.4,9.48-.85,17.16-1.01,17.15Z"/><path class="cls-10" d="m89.31,437.35c0,.15-16.54-2.56-36.88-6.06-20.34-3.5-36.81-6.46-36.79-6.62s16.53,2.57,36.88,6.12c20.35,3.54,36.81,6.41,36.79,6.57Z"/><path class="cls-11" d="m101.56,183.48s-33.04-2.47-31.39,47.52c1.65,49.99,29.39,102.5,39.31,104.63,9.92,2.14,117.74-24.67,117.74-24.67,0,0,2.83-27.88-10.86-33.35l-43.68,8.36-1.35,1.61-34.61.31-8.32-39.92s10.77-58.29-26.85-64.49Z"/><path class="cls-10" d="m101.56,183.48s.46.07,1.33.26l1.64.34c.66.12,1.39.42,2.23.66l1.33.43,1.42.64c.49.22,1.07.44,1.55.7l1.61.94.85.49.83.61c.54.42,1.15.82,1.72,1.3l1.71,1.55c.58.53,1.07,1.19,1.67,1.79,4.44,5.08,7.87,12.89,9.4,22.34.82,5.05,1.2,10.16,1.14,15.28-.02,5.75-.49,11.49-1.4,17.17v-.07c2.5,11.94,5.34,25.41,8.35,39.92l-.22-.18,34.6-.33-.18.09c.41-.49.88-1.07,1.33-1.61l.06-.06h.09l43.69-8.37h.15c2.84,1.22,5.2,3.34,6.72,6.03,1.55,2.7,2.65,5.62,3.28,8.67,1.26,6.23,1.62,12.6,1.07,18.93v.19h-.19c-9.61,2.39-19.9,4.86-30.29,7.32-18.01,4.27-35.63,8.32-52.71,11.9-8.54,1.77-16.95,3.48-25.27,4.73-2.07.32-4.15.58-6.24.75-1.07.1-2.14.1-3.2,0-1.05-.24-2.03-.72-2.85-1.41-1.59-1.3-3.02-2.78-4.27-4.41-1.28-1.59-2.44-3.2-3.56-4.92-4.23-6.59-7.92-13.5-11.05-20.68-2.99-6.75-5.64-13.64-7.94-20.65-4.19-12.57-7.14-25.52-8.82-38.66-1.43-12.04-1.67-23.16.19-32.66.81-4.43,2.25-8.72,4.27-12.74,1.71-3.37,3.99-6.42,6.74-9.01,2.22-2.02,4.74-3.68,7.47-4.92,2.02-.88,4.14-1.53,6.31-1.94,1.33-.26,2.69-.4,4.05-.44.46-.03.92-.03,1.38,0h-1.38c-1.35.05-2.7.21-4.03.48-2.16.42-4.26,1.09-6.27,1.99-2.74,1.24-5.26,2.91-7.47,4.93-2.73,2.58-4.99,5.62-6.68,8.97-1.94,4.03-3.31,8.32-4.06,12.74-1.82,9.46-1.55,20.54-.1,32.55,1.7,13.11,4.67,26.02,8.86,38.56,2.3,7,4.95,13.87,7.95,20.6,3.12,7.15,6.81,14.03,11.03,20.6,1.07,1.67,2.26,3.31,3.53,4.88,1.25,1.59,2.68,3.02,4.27,4.27.76.63,1.65,1.08,2.62,1.31,1.01.09,2.03.09,3.04,0,2.05-.16,4.12-.42,6.19-.74,8.29-1.26,16.7-2.97,25.23-4.74,17.08-3.59,34.69-7.64,52.7-11.9,10.39-2.47,20.62-4.93,30.29-7.32l-.21.25c.56-6.27.22-12.59-1.01-18.76-.61-3-1.69-5.88-3.2-8.54-1.46-2.59-3.73-4.63-6.46-5.81h.15l-43.69,8.35.15-.09c-.47.56-.94,1.07-1.35,1.61l-.07.09h-.12l-34.61.29h-.18v-.18l-8.42-39.83v-.07c.92-5.65,1.39-11.36,1.43-17.08.07-5.1-.29-10.19-1.07-15.22-1.49-9.42-4.88-17.19-9.26-22.25-.58-.61-1.07-1.25-1.65-1.78l-1.68-1.56c-.57-.48-1.16-.88-1.71-1.3l-.82-.6-.84-.5-1.59-.94c-.52-.28-1.07-.49-1.55-.73l-1.41-.64-1.31-.44c-.84-.26-1.56-.57-2.22-.69l-1.63-.36c-.9-.2-1.38-.32-1.38-.32Z"/><path class="cls-10" d="m128.64,247.35c-.5-.08-.98-.21-1.45-.4-.92-.28-2.23-.76-3.82-1.4-3.2-1.26-7.47-3.3-12.2-5.64-4.73-2.34-8.95-4.43-12.1-5.78-1.57-.68-2.85-1.22-3.75-1.56-.48-.15-.94-.36-1.38-.61.49.09.98.22,1.44.41.93.28,2.23.76,3.83,1.4,3.2,1.26,7.47,3.29,12.2,5.64s8.95,4.43,12.1,5.78c1.57.68,2.85,1.22,3.75,1.56.48.16.94.36,1.38.6Z"/><path class="cls-10" d="m104.11,220.18c.41.16.79.36,1.15.61.73.43,1.76,1.07,3.01,1.89,6.56,4.29,12.56,9.39,17.85,15.17,1.01,1.07,1.83,2.03,2.36,2.67.3.33.56.69.79,1.07-.35-.26-.67-.56-.95-.89l-2.48-2.54c-2.14-2.14-5.06-5.04-8.54-8s-6.82-5.4-9.27-7.12l-2.91-2.04c-.37-.24-.71-.51-1.01-.82Z"/><path class="cls-10" d="m129.79,318.37c-.15,0,1.42-6.97,3.51-15.47s3.91-15.37,4.05-15.34-1.42,6.96-3.51,15.47c-2.09,8.51-3.9,15.37-4.05,15.34Z"/><path class="cls-10" d="m118.95,304.07c.12-.31.29-.6.5-.85.35-.52.9-1.26,1.6-2.14,3.71-4.59,8.13-8.56,13.1-11.74.95-.6,1.74-1.07,2.31-1.36.28-.18.57-.32.89-.42-.95.77-1.94,1.48-2.98,2.14-4.8,3.34-9.17,7.26-13,11.67-1.48,1.65-2.34,2.74-2.41,2.7Z"/><path class="cls-10" d="m167.19,310.94c-.07-.05.74-1.07,1.9-2.82,1.52-2.27,2.83-4.66,3.93-7.16,1.08-2.51,1.94-5.11,2.57-7.76.48-2.04.67-3.33.77-3.32.04.3.04.61,0,.92-.07.83-.19,1.67-.35,2.49-1.05,5.44-3.29,10.59-6.56,15.06-.63.85-1.17,1.52-1.57,1.95s-.66.67-.69.64Z"/><path class="cls-6" d="m107.3,335.14h280.46c5.19,0,9.55,3.9,10.12,9.05l11.56,99.4H87.28l14.71-104.01c.46-2.57,2.7-4.44,5.31-4.44Z"/><path class="cls-11" d="m107.3,335.14h-.49c-.49.06-.96.17-1.42.34-.75.29-1.42.75-1.98,1.33-.77.81-1.26,1.84-1.41,2.95-.69,5.03-1.73,12.45-3.06,22.04-2.69,19.22-6.6,47.04-11.48,81.76l-.18-.21,302.48-.09h19.69l-.27.31c-3.2-27.36-6.29-54.02-9.27-79.72-.75-6.41-1.49-12.77-2.22-19.09-.19-3.13-1.84-5.99-4.45-7.73-1.28-.86-2.74-1.4-4.27-1.58-.77-.08-1.54-.11-2.31-.09h-164.35l-84.26-.09h-30.79,7.94l22.85-.05,84.26-.09,125.59-.06h38.76c.79-.02,1.58.01,2.37.1,1.6.19,3.13.76,4.47,1.65,2.74,1.82,4.47,4.82,4.68,8.1.71,6.3,1.46,12.66,2.23,19.09,2.99,25.7,6.1,52.32,9.28,79.72v.31h-19.93l-302.48-.1h-.22v-.21c4.94-34.71,8.91-62.55,11.65-81.74,1.38-9.61,2.44-17,3.2-22.03.16-1.12.66-2.17,1.45-2.98.56-.59,1.25-1.04,2.01-1.32.46-.17.94-.28,1.43-.32l.5-.21Z"/><path class="cls-9" d="m212.6,346.98c5.34,28.13-1.26,57.33-11.99,83.88l11.24-84.14"/><path class="cls-11" d="m180.57,433.24c-.15,0,4.07-18.88,9.43-42.07,5.36-23.19,9.83-41.97,9.98-41.94s-4.08,18.87-9.44,42.07c-5.36,23.2-9.78,41.97-9.97,41.94Z"/><path class="cls-11" d="m202.79,413.54c-.15,0,1.85-15.25,4.46-33.99,2.62-18.75,4.86-33.93,5.01-33.91s-1.84,15.24-4.46,33.99-4.8,33.93-5.01,33.91Z"/><path class="cls-11" d="m244.63,421.84c-.15,0,.38-16.14,1.2-36.04.81-19.9,1.61-36.02,1.76-36.01s-.38,16.13-1.21,36.03c-.82,19.9-1.63,36.02-1.75,36.02Z"/><path class="cls-9" d="m266.83,357.12c-.56-3.23-1.34-6.41-2.34-9.53l.65,46.91c-.26,6.11-.52,12.21-.78,18.3l-.86,20.4c6.88-24.78,8.02-50.8,3.33-76.08Z"/><path class="cls-11" d="m263.5,438.03c-.03-.32-.03-.63,0-.95,0-.68.06-1.59.11-2.74.07-2.42.18-5.85.32-10.07.23-8.54.44-20.29.51-33.22.07-12.93,0-24.73-.2-33.23-.1-4.27-.2-7.7-.29-10.07,0-1.15-.07-2.06-.11-2.73s0-.96,0-.96c.07.31.11.63.12.95,0,.67.12,1.58.2,2.73.15,2.37.32,5.81.46,10.07.3,8.54.43,20.29.37,33.24-.05,12.95-.33,24.73-.67,33.24-.17,4.27-.35,7.69-.5,10.06-.09,1.15-.16,2.06-.2,2.73-.02.32-.06.64-.12.95Z"/><path class="cls-11" d="m295.57,401.58c-.15,0-.9-12.51-1.68-27.96-.78-15.45-1.27-27.98-1.07-27.98s.9,12.5,1.67,27.96c.77,15.46,1.24,27.98,1.08,27.98Z"/><path class="cls-9" d="m304.04,356.82c8.24,24.39,11.33,50.22,9.05,75.87-3.1-25.97-6.19-51.93-9.28-77.89"/><path class="cls-11" d="m306.96,377.26c-.15,0-1.32-6.41-2.62-14.46s-2.21-14.52-2.06-14.54,1.32,6.41,2.62,14.46,2.21,14.51,2.06,14.54Z"/></g><g id="freepik--Glasses--inject-105"><path class="cls-3" d="m217.19,334.54l-13.71-3.08s-.07-17.12.13-19.59c.17-1.55.94-2.97,2.13-3.97h0c4.1-2.19,8.66-6.82,10.24-10.59,3.19-7.57,0-19.15,0-19.15h-30.38s-3.19,11.58,0,19.15c1.66,3.99,6.53,8.51,10.81,10.56h0c1.35.97,2.25,2.46,2.48,4.11.13,2.48.39,19.65.39,19.65l-13.63,3.19c-.15.02-.26.16-.24.31.02.15.16.26.31.24h31.38c.33.01.42-.77.1-.84Z"/><path class="cls-11" d="m217.19,334.54s.11,0,.17.14c.09.21.07.45-.05.64-.05.07-.13.12-.21.13h-2.29l-9.58.06h-19.37c-.12,0-.25-.01-.36-.05-.15-.07-.26-.22-.28-.38-.01-.17.06-.34.2-.45.11-.06.22-.1.34-.12l1.15-.27,2.33-.55,9.97-2.37-.18.23c-.07-3.74-.16-7.67-.24-11.78-.06-2.06-.1-4.16-.14-6.3v-1.61c-.04-.51-.17-1.01-.38-1.47-.46-.95-1.14-1.77-1.99-2.4l-.39-.29.45-.17h0v.48c-2.35-1.19-4.5-2.73-6.38-4.57-2.06-1.85-3.67-4.14-4.71-6.7-.91-2.69-1.32-5.53-1.21-8.36.06-2.89.39-5.77.99-8.6.13-.6.26-1.18.42-1.78v-.2h16.05v.28h0l-.28-.28h15.06l.05.19c.76,3.05,1.22,6.16,1.36,9.3.19,2.99-.14,5.99-.99,8.86-.43,1.37-1.08,2.67-1.93,3.84-.79,1.14-1.68,2.2-2.65,3.19-1.81,1.9-3.89,3.51-6.18,4.79h0c-.9.75-1.57,1.74-1.92,2.85-.21,1.11-.3,2.25-.27,3.38,0,2.25-.02,4.38-.07,6.38v10.75l-.11-.13,10.16,2.34,2.63.63c.6.14.88.23.88.23,0,0-.31,0-.89-.16l-2.65-.56-10.19-2.21h-.11v-18.95c0-.6.08-1.2.23-1.78.37-1.2,1.08-2.26,2.04-3.06h0c2.25-1.26,4.29-2.86,6.05-4.74.95-.97,1.81-2.02,2.59-3.14.81-1.13,1.44-2.39,1.86-3.72.82-2.82,1.13-5.76.94-8.69-.15-3.1-.6-6.18-1.36-9.18l.26.19h-15.11v-.27h0l.27.27h-15.56l.27-.21c-.15.57-.29,1.17-.4,1.76-.59,2.8-.92,5.65-.98,8.51-.12,2.77.28,5.54,1.17,8.16,1.01,2.49,2.58,4.71,4.58,6.5,1.86,1.81,3.98,3.32,6.3,4.49l.55.27-.57.21h0v-.46c.91.68,1.64,1.58,2.13,2.62.24.52.39,1.08.43,1.65v1.62c0,2.13.09,4.26.12,6.3.07,4.12.15,8.06.21,11.79v.18h-.18l-9.97,2.33-2.34.54-1.05.29c-.26.06-.22,0-.23.13s0,.07.23.07h4.47l14.9.05,9.58.06h2.03c.18,0,.34,0,.42-.09.12-.17.15-.39.07-.59-.03-.03-.07-.05-.12-.06Z"/><path class="cls-8" d="m201.23,290.63h-15.11s.44,12.38,14.9,16.8l.33-.1c7.83-2.13,13.6-8.78,14.6-16.83l-14.72.13Z"/><path class="cls-5" d="m188.6,296.14c-.49-.61-.85-1.31-1.06-2.06-.64-1.77-1.03-3.63-1.15-5.51-.14-1.87-.09-3.75.16-5.61.05-.78.22-1.55.5-2.28.18,0-.44,3.53-.11,7.84.13,1.84.45,3.66.97,5.43.39,1.35.77,2.15.69,2.19Z"/><path class="cls-5" d="m214.57,292.78c-.04.82-.23,1.64-.55,2.39-.68,1.87-1.7,3.6-3.01,5.1-1.3,1.5-2.87,2.74-4.63,3.67-.71.43-1.49.72-2.3.87,0-.09.83-.44,2.13-1.21,3.32-2.01,5.92-5.01,7.45-8.58.26-.76.57-1.51.92-2.25Z"/><path class="cls-5" d="m214.67,284.99c.46,1,.69,2.09.68,3.19.17,1.1.08,2.22-.26,3.28-.21-1.05-.31-2.12-.3-3.19-.17-1.08-.21-2.18-.13-3.28Z"/><path class="cls-5" d="m193.02,301.12c-.11.11-.51-.12-.89-.51s-.62-.79-.51-.89.51.12.9.5.62.8.5.9Z"/><g class="cls-12"><path d="m205.74,304.5c-2.09.63-4.32.6-6.38-.1-2.07-.69-4.07-1.58-5.97-2.65-.7-.37-1.65-.71-2.23-.16,2,2.04,4.37,3.67,6.99,4.8.92.43,1.87.78,2.84,1.06,0,0,1.13-.32,2.06-.65,2.41-.89,4.63-2.22,6.56-3.93-1.25.61-2.54,1.15-3.86,1.62Z"/></g></g><g id="freepik--Glasses--inject-105-2"><path class="cls-3" d="m314.25,334.56l-13.71-3.08s-.07-17.12.13-19.59c.17-1.55.94-2.97,2.13-3.97h0c4.1-2.19,8.66-6.82,10.24-10.59,3.19-7.57,0-19.15,0-19.15h-30.38s-3.19,11.58,0,19.15c1.66,3.99,6.53,8.51,10.81,10.56h0c1.35.97,2.25,2.46,2.48,4.11.13,2.48.39,19.65.39,19.65l-13.63,3.19c-.15.02-.26.16-.24.31.02.15.16.26.31.24h31.38c.33.01.42-.77.1-.84Z"/><path class="cls-11" d="m314.25,334.56s.11,0,.17.14c.09.21.07.45-.05.64-.05.07-.13.12-.21.13h-2.29l-9.58.06h-19.37c-.12,0-.25-.01-.36-.05-.15-.07-.26-.22-.28-.38-.01-.17.06-.34.2-.45.11-.06.22-.1.34-.12l1.15-.27,2.33-.55,9.97-2.37-.18.23c-.07-3.74-.16-7.67-.24-11.78-.06-2.06-.1-4.16-.14-6.3v-1.61c-.04-.51-.17-1.01-.38-1.47-.46-.95-1.14-1.77-1.99-2.4l-.39-.29.45-.17h0v.48c-2.35-1.19-4.5-2.73-6.38-4.57-2.06-1.85-3.67-4.14-4.71-6.7-.91-2.69-1.32-5.53-1.21-8.36.06-2.89.39-5.77.99-8.6.13-.6.26-1.18.42-1.78v-.2h16.05v.28h0l-.28-.28h15.06l.05.19c.76,3.05,1.22,6.16,1.36,9.3.19,2.99-.14,5.99-.99,8.86-.43,1.37-1.08,2.67-1.93,3.84-.79,1.14-1.68,2.2-2.65,3.19-1.81,1.9-3.89,3.51-6.18,4.79h0c-.9.75-1.57,1.74-1.92,2.85-.21,1.11-.3,2.25-.27,3.38,0,2.25-.02,4.38-.07,6.38v10.75l-.11-.13,10.16,2.34,2.63.63c.6.14.88.23.88.23,0,0-.31,0-.89-.16l-2.65-.56-10.19-2.21h-.11v-18.95c0-.6.08-1.2.23-1.78.37-1.2,1.08-2.26,2.04-3.06h0c2.25-1.26,4.29-2.86,6.05-4.74.95-.97,1.81-2.02,2.59-3.14.81-1.13,1.44-2.39,1.86-3.72.82-2.82,1.13-5.76.94-8.69-.15-3.1-.6-6.18-1.36-9.18l.26.19h-15.11v-.27h0l.27.27h-15.56l.27-.21c-.15.57-.29,1.17-.4,1.76-.59,2.8-.92,5.65-.98,8.51-.12,2.77.28,5.54,1.17,8.16,1.01,2.49,2.58,4.71,4.58,6.5,1.86,1.81,3.98,3.32,6.3,4.49l.55.27-.57.21h0v-.46c.91.68,1.64,1.58,2.13,2.62.24.52.39,1.08.43,1.65v1.62c0,2.13.09,4.26.12,6.3.07,4.12.15,8.06.21,11.79v.18h-.18l-9.97,2.33-2.34.54-1.05.29c-.26.06-.22,0-.23.13s0,.07.23.07h4.47l14.9.05,9.58.06h2.03c.18,0,.34,0,.42-.09.12-.17.15-.39.07-.59-.03-.03-.07-.05-.12-.06Z"/><path class="cls-8" d="m298.29,290.65h-15.11s.44,12.38,14.9,16.8l.33-.1c7.83-2.13,13.6-8.78,14.6-16.83l-14.72.13Z"/><path class="cls-5" d="m285.66,296.15c-.49-.61-.85-1.31-1.06-2.06-.64-1.77-1.03-3.63-1.15-5.51-.14-1.87-.09-3.75.16-5.61.05-.78.22-1.55.5-2.28.18,0-.44,3.53-.11,7.84.13,1.84.45,3.66.97,5.43.39,1.35.77,2.15.69,2.19Z"/><path class="cls-5" d="m311.63,292.8c-.04.82-.23,1.64-.55,2.39-.68,1.87-1.7,3.6-3.01,5.1-1.3,1.5-2.87,2.74-4.63,3.67-.71.43-1.49.72-2.3.87,0-.09.83-.44,2.13-1.21,3.32-2.01,5.92-5.01,7.45-8.58.26-.76.57-1.51.92-2.25Z"/><path class="cls-5" d="m311.73,285.01c.46,1,.69,2.09.68,3.19.17,1.1.08,2.22-.26,3.28-.21-1.05-.31-2.12-.3-3.19-.17-1.08-.21-2.18-.13-3.28Z"/><path class="cls-5" d="m290.08,301.13c-.11.11-.51-.12-.89-.51s-.62-.79-.51-.89.51.12.9.5.62.8.5.9Z"/><g class="cls-12"><path d="m302.8,304.51c-2.09.63-4.32.6-6.38-.1-2.07-.69-4.07-1.58-5.97-2.65-.7-.37-1.65-.71-2.23-.16,2,2.04,4.37,3.67,6.99,4.8.92.43,1.87.78,2.84,1.06,0,0,1.13-.32,2.06-.65,2.41-.89,4.63-2.22,6.56-3.93-1.25.61-2.54,1.15-3.86,1.62Z"/></g></g></svg>