<?xml version="1.0" encoding="UTF-8"?><svg id="Ebene_1" xmlns="http://www.w3.org/2000/svg" viewBox="0 0 500 500"><defs><style>.cls-1{fill:#eb996e;}.cls-2{fill:#f5f5f5;}.cls-3,.cls-4{fill:#fff;}.cls-5{fill:#fafafa;}.cls-6{fill:#ffbe9d;}.cls-7{fill:#7e6c65;}.cls-8{fill:#a85843;}.cls-9{fill:#c99e95;}.cls-10{fill:#e0e0e0;}.cls-11{fill:#e2d6b7;}.cls-12{fill:#455a64;}.cls-13{fill:#263238;}.cls-4,.cls-14,.cls-15{isolation:isolate;}.cls-4,.cls-16,.cls-15{opacity:.2;}.cls-14{opacity:.1;}.cls-17{opacity:.3;}</style></defs><path class="cls-5" d="m344.88,203.24l.62.34-.62.33c-.32.18-.59.45-.77.77l-.34.62-.34-.62c-.17-.33-.44-.6-.77-.77l-.61-.35.62-.33c.32-.18.59-.45.77-.77l.34-.62.34.63c.18.32.44.59.76.77Z"/><g id="freepik--Device--inject-56"><path class="cls-12" d="m378.71,364.28l-130.58-.56c-15.7-.08-28.37-11.95-28.3-26.51l1.39-303.73c.06-14.57,12.85-26.33,28.55-26.27,0,0,.02,0,.03,0l130.57.56c15.7.07,28.37,11.93,28.32,26.5l-1.39,303.72c-.06,14.58-12.86,26.36-28.58,26.3h0Z"/><path class="cls-3" d="m380.16,18.21h-25.31c-3.47.06-6.23,2.72-6.17,5.94,0,0,0,0,0,0v4.26c.07,3.21-2.69,5.87-6.16,5.93,0,0-.01,0-.02,0l-49.34-.21c-3.48-.09-6.22-2.77-6.13-5.99v-4.26c.09-3.22-2.65-5.9-6.12-5.99h-8.9l-22.16-.1c-10.97-.06-19.93,8.12-20.04,18.3l-1.31,296.46c-.05,10.2,8.82,18.51,19.82,18.56h0l130.31.56c11,.05,19.96-8.19,20.01-18.4h0s1.31-296.47,1.31-296.47c.07-10.21-8.8-18.54-19.81-18.61Z"/><rect class="cls-7" x="265.15" y="79.19" width="6.17" height="33.62" transform="translate(171.02 363.8) rotate(-89.74)"/><rect class="cls-14" x="265.15" y="79.19" width="6.17" height="33.62" transform="translate(171.02 363.8) rotate(-89.74)"/><path class="cls-10" d="m383.62,130.88c.26-.03.52-.09.77-.18.74-.29,1.25-.97,1.31-1.76v-17.36c.09-.6-.04-1.2-.37-1.71-.36-.5-.94-.79-1.56-.8h-20.93l-109.34-.41c-.57,0-1.1.26-1.44.72-.32.51-.44,1.12-.34,1.71v3.92c0,2.61,0,5.23,0,7.84v3.92c-.05.61-.05,1.22,0,1.83.14.53.52.96,1.02,1.18.26.1.53.15.81.14h6.65l29.03.16,49.15.3,33.14.26,9.01.1h3.14-45.28l-49.15-.16-29.03-.12h-6.65c-.37.01-.73-.05-1.07-.18-.7-.3-1.22-.9-1.41-1.63-.08-.34-.1-.7-.08-1.05v-16.65c-.02-.35-.02-.7,0-1.05.05-.38.2-.75.43-1.06.46-.64,1.2-1.02,1.99-1.01l109.34.6,18.89.13h2.04c.73,0,1.41.36,1.83.95.37.57.52,1.25.42,1.92v8.35c0,3.92-.09,6.93-.12,9.02-.07.82-.6,1.53-1.37,1.82-.25.15-.53.23-.82.24Z"/><rect class="cls-7" x="261.54" y="115.21" width="61.49" height="5.77"/><rect class="cls-4" x="261.54" y="115.21" width="61.49" height="5.77"/><rect class="cls-7" x="264.92" y="145.48" width="6.17" height="33.62" transform="translate(104.5 429.56) rotate(-89.74)"/><rect class="cls-14" x="264.92" y="145.48" width="6.17" height="33.62" transform="translate(104.5 429.56) rotate(-89.74)"/><path class="cls-10" d="m382.77,197.17c.26-.03.53-.08.78-.14.74-.24,1.34-.78,1.65-1.49.21-.53.29-1.1.24-1.66v-15.6c.06-.6-.07-1.21-.38-1.73-.32-.53-.83-.93-1.42-1.11-.65-.12-1.31-.15-1.97-.1h-18.81l-108.96-.41c-1.21,0-2.24.9-2.39,2.1v15.69c-.05.61-.02,1.23.08,1.83.16.53.5.99.95,1.31.48.31,1.05.45,1.62.42h5.6l28.93.14,48.98.3,33.02.26,8.98.1h3.12-45.13l-49.01-.05-28.93-.1h-5.69c-.71.04-1.41-.15-2-.54-.59-.41-1.03-1.02-1.23-1.71-.12-.66-.15-1.34-.1-2.01v-15.69c.2-1.55,1.51-2.71,3.07-2.71l108.96.6,18.81.14c.7-.04,1.4,0,2.09.14.68.22,1.25.69,1.61,1.31.34.58.48,1.24.42,1.91v15.66c.05.58-.05,1.17-.27,1.71-.34.73-.99,1.27-1.76,1.49-.29.02-.57,0-.85-.08Z"/><rect class="cls-7" x="264.67" y="214.21" width="6.17" height="33.62" transform="translate(35.52 497.72) rotate(-89.74)"/><rect class="cls-14" x="264.67" y="214.21" width="6.17" height="33.62" transform="translate(35.52 497.72) rotate(-89.74)"/><path class="cls-10" d="m382.51,265.88c.26-.03.53-.08.78-.14.74-.23,1.34-.77,1.65-1.48.2-.53.29-1.1.24-1.66v-15.61c.06-.6-.07-1.21-.38-1.73-.33-.52-.83-.91-1.42-1.1-.65-.12-1.31-.16-1.97-.12h-18.81l-108.96-.41c-1.21,0-2.24.9-2.39,2.1v15.69c-.05.61-.02,1.22.08,1.82.16.53.49,1,.95,1.31.48.31,1.05.46,1.62.42h5.69l28.93.16,48.98.3,33.02.26,8.98.1h3.12-45.13l-48.98-.14-28.93-.12h-5.69c-.71.05-1.41-.14-2-.54-.59-.41-1.03-1.02-1.23-1.71-.12-.66-.15-1.34-.1-2.01v-15.75c.19-1.54,1.5-2.7,3.06-2.71l108.96.6,18.81.14c.7-.04,1.4,0,2.09.14.68.22,1.25.69,1.61,1.31.34.58.48,1.24.42,1.91v15.66c.05.58-.04,1.17-.27,1.71-.34.73-.99,1.27-1.76,1.49-.31.1-.63.14-.95.09Z"/><rect class="cls-7" x="288.08" y="155.13" width="5.77" height="61.49" transform="translate(103.76 475.99) rotate(-89.74)"/><rect class="cls-4" x="288.08" y="155.13" width="5.77" height="61.49" transform="translate(103.76 475.99) rotate(-89.74)"/><path class="cls-7" d="m265.78,255.21c-.11,1.48-1.4,2.6-2.88,2.49-1.48-.11-2.6-1.4-2.49-2.88.11-1.43,1.32-2.53,2.76-2.5,1.52.08,2.68,1.37,2.61,2.89Z"/><path class="cls-7" d="m274.11,255.25c.1,1.48-1.02,2.77-2.5,2.87-1.48.1-2.77-1.02-2.87-2.5,0-.12,0-.25,0-.38-.1-1.48,1.02-2.77,2.5-2.87,1.48-.1,2.77,1.02,2.87,2.5,0,.12,0,.25,0,.38Z"/><path class="cls-7" d="m282.45,255.29c-.11,1.48-1.4,2.6-2.88,2.49-1.48-.11-2.6-1.4-2.49-2.88.11-1.43,1.32-2.53,2.76-2.5,1.51.09,2.67,1.38,2.61,2.89Z"/><path class="cls-7" d="m290.78,255.33c-.11,1.48-1.4,2.6-2.88,2.49-1.48-.11-2.6-1.4-2.49-2.88.11-1.43,1.32-2.53,2.76-2.5,1.51.09,2.67,1.38,2.61,2.89Z"/><path class="cls-7" d="m299.11,255.35c-.1,1.48-1.39,2.6-2.87,2.5-1.48-.1-2.6-1.39-2.5-2.87.1-1.44,1.32-2.55,2.76-2.51,1.51.09,2.67,1.37,2.61,2.88Z"/><path class="cls-7" d="m307.45,255.39c-.1,1.48-1.39,2.6-2.87,2.5s-2.6-1.39-2.5-2.87c.1-1.42,1.27-2.51,2.69-2.51,1.53.06,2.73,1.34,2.68,2.88Z"/><path class="cls-7" d="m315.77,255.43c.1,1.48-1.02,2.77-2.5,2.87-1.48.1-2.77-1.02-2.87-2.5,0-.12,0-.25,0-.38-.1-1.48,1.02-2.77,2.5-2.87,1.48-.1,2.77,1.02,2.87,2.5,0,.12,0,.25,0,.38Z"/><path class="cls-7" d="m324.1,255.47c-.1,1.48-1.39,2.6-2.87,2.5s-2.6-1.39-2.5-2.87c.1-1.42,1.27-2.51,2.69-2.51,1.53.06,2.73,1.34,2.68,2.88Z"/><path class="cls-7" d="m332.43,255.51c-.1,1.48-1.39,2.6-2.87,2.5-1.48-.1-2.6-1.39-2.5-2.87.1-1.44,1.32-2.55,2.76-2.51,1.51.09,2.67,1.37,2.61,2.88Z"/><g class="cls-16"><path class="cls-3" d="m265.78,255.21c-.11,1.48-1.4,2.6-2.88,2.49-1.48-.11-2.6-1.4-2.49-2.88.11-1.43,1.32-2.53,2.76-2.5,1.52.08,2.68,1.37,2.61,2.89Z"/><path class="cls-3" d="m274.11,255.25c.1,1.48-1.02,2.77-2.5,2.87-1.48.1-2.77-1.02-2.87-2.5,0-.12,0-.25,0-.38-.1-1.48,1.02-2.77,2.5-2.87,1.48-.1,2.77,1.02,2.87,2.5,0,.12,0,.25,0,.38Z"/><path class="cls-3" d="m282.45,255.29c-.11,1.48-1.4,2.6-2.88,2.49-1.48-.11-2.6-1.4-2.49-2.88.11-1.43,1.32-2.53,2.76-2.5,1.51.09,2.67,1.38,2.61,2.89Z"/><path class="cls-3" d="m290.78,255.33c-.11,1.48-1.4,2.6-2.88,2.49-1.48-.11-2.6-1.4-2.49-2.88.11-1.43,1.32-2.53,2.76-2.5,1.51.09,2.67,1.38,2.61,2.89Z"/><path class="cls-3" d="m299.11,255.35c-.1,1.48-1.39,2.6-2.87,2.5-1.48-.1-2.6-1.39-2.5-2.87.1-1.44,1.32-2.55,2.76-2.51,1.51.09,2.67,1.37,2.61,2.88Z"/><path class="cls-3" d="m307.45,255.39c-.1,1.48-1.39,2.6-2.87,2.5s-2.6-1.39-2.5-2.87c.1-1.42,1.27-2.51,2.69-2.51,1.53.06,2.73,1.34,2.68,2.88Z"/><path class="cls-3" d="m315.77,255.43c.1,1.48-1.02,2.77-2.5,2.87-1.48.1-2.77-1.02-2.87-2.5,0-.12,0-.25,0-.38-.1-1.48,1.02-2.77,2.5-2.87,1.48-.1,2.77,1.02,2.87,2.5,0,.12,0,.25,0,.38Z"/><path class="cls-3" d="m324.1,255.47c-.1,1.48-1.39,2.6-2.87,2.5s-2.6-1.39-2.5-2.87c.1-1.42,1.27-2.51,2.69-2.51,1.53.06,2.73,1.34,2.68,2.88Z"/><path class="cls-3" d="m332.43,255.51c-.1,1.48-1.39,2.6-2.87,2.5-1.48-.1-2.6-1.39-2.5-2.87.1-1.44,1.32-2.55,2.76-2.51,1.51.09,2.67,1.37,2.61,2.88Z"/></g></g><g id="freepik--Character--inject-56"><path class="cls-7" d="m175.38,489.29v-12.38l-22.19-.16-.19,18.72,1.38.1c6.12.39,31.15.97,35.27-.3,4.57-1.42-14.26-5.98-14.26-5.98Z"/><path class="cls-13" d="m190.16,494.11c0,.2-8.31.38-18.55.38s-18.55-.17-18.55-.38,8.31-.38,18.55-.38,18.55.17,18.55.38Z"/><path class="cls-13" d="m175.77,491.82c-.19-.1,0-.75.45-1.45s1.06-.98,1.2-.84-.16.69-.59,1.29-.87,1.1-1.06,1Z"/><path class="cls-13" d="m177.19,492.63c-.2,0-.1-.81.33-1.58s1.01-1.23,1.17-1.11-.1.77-.51,1.45-.81,1.32-1,1.25Z"/><path class="cls-13" d="m159.76,494.05c-.09,0-.42-.26-.9-.81-.58-.71-1.23-1.36-1.94-1.94-.7-.56-1.52-.92-2.4-1.06-.68-.09-1.11,0-1.16-.09s.38-.39,1.17-.45c1.05-.02,2.08.33,2.9.98.77.63,1.42,1.39,1.91,2.24.33.64.51,1.06.42,1.11Z"/><path class="cls-13" d="m175.84,489.49c.1.17-.28.61-.91.84s-1.2.14-1.23,0,.42-.45.97-.65,1.06-.36,1.17-.19Z"/><path class="cls-13" d="m175.49,488.29c0,.22-.58.39-1.33.41s-1.35-.16-1.33-.36.61-.39,1.33-.41,1.3.16,1.33.36Z"/><path class="cls-7" d="m230.03,489.29v-12.38l-22.19-.16-.19,18.53,1.38.1c6.12.39,31.17,1.16,35.27-.12,4.57-1.42-14.26-5.98-14.26-5.98Z"/><path class="cls-13" d="m244.81,494.14c0,.2-8.3.38-18.55.38s-18.53-.17-18.53-.38,8.3-.38,18.53-.38,18.55.17,18.55.38Z"/><path class="cls-13" d="m230.42,491.82c-.17-.1,0-.75.45-1.45s1.06-.98,1.2-.84-.16.69-.59,1.29-.87,1.1-1.06,1Z"/><path class="cls-13" d="m231.84,492.63c-.19,0-.1-.81.35-1.58s1.01-1.23,1.17-1.11-.12.77-.52,1.45-.8,1.32-1,1.25Z"/><path class="cls-13" d="m214.41,494.05c-.09,0-.41-.26-.9-.81-.58-.71-1.23-1.36-1.94-1.94-.7-.56-1.52-.92-2.4-1.06-.67-.09-1.11,0-1.16-.09s.38-.39,1.17-.45c1.05-.02,2.08.33,2.9.98.77.62,1.42,1.38,1.91,2.24.33.64.51,1.06.42,1.11Z"/><path class="cls-13" d="m230.49,489.49c.1.17-.28.61-.91.84s-1.2.14-1.23,0,.42-.45.97-.65,1.06-.36,1.17-.19Z"/><path class="cls-13" d="m230.17,488.29c0,.22-.58.39-1.33.41s-1.33-.16-1.32-.36.59-.39,1.32-.41,1.33.16,1.33.36Z"/><path class="cls-6" d="m311.79,121.71c-.58-.59-2.01-.3-2.01-.3.14-.83.14-1.69,0-2.52-.26-.81-2.08-.65-2.08-.65-.08-.68-.08-1.37,0-2.06.03-.31-.14-.61-.42-.74-.86-.35-1.79-.52-2.72-.49-1.11-.8,3.4-7.12,5.08-9.15s1.38-3.6-.12-3.6c-1.03,0-6.3,6.08-7.92,8.12s-5.92,7.72-6.07,3.18-1.97-7.95-3.11-8.53-2.36.78-1.74,2.04c.55,1.43.89,2.93,1.01,4.46.16,1.22.1,2.45-.16,3.65-.48,2.23-1.13,4.42-1.95,6.54h-.12s-31.59,30.3-33.88,32.46c-2.04,1.94-43.1-2.3-51.34-3.17-2.8-.41-5.63-.6-8.45-.58-3.58.16-4.21.67-7.77.71-8.99.1-17.97.89-26.84,2.36-8.19,1.39-14.92,7.23-17.46,15.14-8.3,25.91-27.09,87.25-30.4,121.71-2.51,4.54-4.77,9.22-6.78,14-2.33,6.34-1.77,6.56-.98,6.7,2.11.39,4.52-10.99,5.41-8.24s-4.56,13.56-2.35,13.88c2.9.41,5.2-11.58,5.47-12.54s1.71-.65,1.45.25c-.42,1.27-4.49,14.78-1.65,15.22,1.56.23,1.74-2.62,1.74-2.62,0,0,2.9-12.93,4.21-12.67s-.09,7.89-.75,10.44.26,3.84,1.62,3.21c.93-.43,3.14-8.18,3.75-10.7s2.13-9.5,4.17-5.46,5.14,6.38,6.41,6.44c.79-.09,1.36-.81,1.27-1.6-.05-.39-.25-.75-.56-.99-1.1-1.07-2.04-2.29-2.79-3.62-.68-1.04-1.17-2.18-1.45-3.39-.58-2.4-.92-4.86-1.01-7.33l-.23-1.45c3.24-16.06,12.58-63.18,26.06-93.28l5.53,11.38,2.4,8.43-14.74,36.38,62.86-.83-9.38-36.11,11.39-37.64h0c12.32.28,43.95.74,49.22-1.65,6.63-2.9,40.93-46.21,40.93-46.21h0c2.24-1.74,4.38-3.59,6.41-5.56,0,0,2.08-1.75.83-3.05Z"/><path class="cls-7" d="m146.77,225.88c1.82-6.23,11.19-37,11.19-37,0,0,4.6,25.09,3.39,28.11-1.12,2.59-2.44,5.09-3.95,7.47-10.63,16.17-9.24,24.26-9.24,24.26l64.21-1.95c.14-8.98-5.17-29.85-6.27-33.18s2.56-14.23,2.56-14.23c0,0,7.24-7.37,6.98-11.16-.14-3.41-.56-6.8-1.26-10.13l39.09,1.45-1.23-26.49-56.14-5.62c-1.95,5.52-19.63,2.81-19.63,2.81-19.08.64-20.27,4.14-28.2,10.31s-21.06,59.1-21.06,59.1l19.57,6.27Z"/><path class="cls-13" d="m184.73,219.61c-1.11.2-2.25.26-3.37.17-2.1,0-4.98-.14-8.15-.46s-6.04-.77-8.08-1.17c-1.13-.14-2.23-.43-3.29-.84,1.13,0,2.26.11,3.37.32,2.06.26,4.91.62,8.06.94s6.02.54,8.09.68c1.13.01,2.25.14,3.36.36Z"/><path class="cls-13" d="m189.13,214.15c-1.11.55-2.29.95-3.5,1.2-5.78,1.52-11.73,2.22-17.71,2.1-1.24.04-2.47-.08-3.68-.35,1.22-.15,2.45-.22,3.68-.19,2.27-.07,5.4-.23,8.85-.64s6.51-.98,8.69-1.45c1.21-.32,2.44-.55,3.68-.68Z"/><path class="cls-13" d="m210.73,189.8c-.03,1.1-.18,2.2-.45,3.27-.38,2.01-.96,4.76-1.69,7.77s-1.45,5.79-2.08,7.67c-.26,1.08-.64,2.12-1.13,3.11.08-1.1.28-2.19.61-3.24.55-2.26,1.17-4.86,1.87-7.72s1.36-5.46,1.91-7.72c.2-1.09.52-2.15.97-3.16Z"/><path class="cls-13" d="m147.45,222.18c-3.35-.52-6.65-1.29-9.89-2.3-3.3-.77-6.55-1.79-9.7-3.04,3.35.53,6.65,1.29,9.89,2.3,3.3.77,6.55,1.79,9.7,3.04Z"/><path class="cls-13" d="m215.07,177.74c-.55.09-1.1.09-1.65,0-1.51-.16-3-.51-4.42-1.06-4.79-1.8-8.6-5.54-10.48-10.29-1.03-2.59-1.47-5.37-1.29-8.15.06-2.29.75-4.52,1.98-6.46.87-1.3,2.16-2.26,3.66-2.71.4-.11.81-.16,1.23-.16h.43s-.61,0-1.58.39c-1.38.51-2.54,1.46-3.32,2.71-1.97,3.1-2.52,8.76-.42,14.04.98,2.49,2.51,4.73,4.47,6.54,1.61,1.48,3.47,2.68,5.49,3.53,1.89.75,3.87,1.29,5.88,1.61Z"/><path class="cls-13" d="m248.82,178.99c-.36-4.44-.48-8.9-.35-13.35-.11-4.45.02-8.9.41-13.33.36,4.43.48,8.89.35,13.33.12,4.45-.01,8.91-.41,13.35Z"/><path class="cls-6" d="m195.72,149.02c.16-3.23.49-6.88.49-6.88,0,0,7.99-.88,8.47-9.14s0-27.29,0-27.29l-14.48-7.41-16.07,12.64,2.48,41.26,14.74.94c2.35.06,4.3-1.78,4.37-4.13Z"/><path class="cls-1" d="m197.15,126.48s0,.16-.13.35c-.22.28-.56.43-.91.41-.93,0-1.82-1.07-2.14-2.32-.15-.6-.15-1.24,0-1.84.06-.54.39-1,.87-1.25.19-.08.41-.08.61,0,.14.07.26.19.33.33.1.25,0,.41,0,.39s0-.14-.14-.29c-.16-.21-.45-.28-.68-.14-.36.22-.58.61-.59,1.03-.12.54-.12,1.1,0,1.64.29,1.13,1.07,2.04,1.77,2.13.27.04.55-.04.77-.22.17-.12.23-.23.26-.22Z"/><path class="cls-13" d="m209.64,101.26c-1.11-3.79-5.15-5.67-8.83-6.72-5.6-1.59-11.65-2.29-17.13-.28s-12.04,5.54-12.04,11.58c-3.23-.26-5.08,2.56-6.36,6.07-.81,2.13-1.3,4.38-1.45,6.66h0c-.41,7.9-2.62,18.82-7.75,24.61-2.9,3.23-6.91,5.46-8.56,9.48-1.45,3.49-.69,7.63-2.04,11.16-1.2,3.11-3.85,5.33-5.79,8.03-4.02,6.24-4.54,14.12-1.38,20.83,3.17,6.51,8.87,11.43,15.77,13.61,6.76,2.06,13.97,2.13,20.77.2,5.1-1.22,9.87-3.58,13.93-6.91,4.16-3.39,7.01-8.12,8.08-13.38,1.03-5.91-.62-11.91-1.85-17.79-3.85-18.57-2.75-19.54,2.11-36.79.12-.3.17-.62.26-.93s.13-.45.19-.68h0c.14-.68.21-1.37.22-2.07-1.45.54-3.08.19-4.18-.9-1.1-1.16-1.48-2.82-.98-4.34.69-1.65,2.05-2.93,3.74-3.52,1.61-.67,3.33-1.01,4.91-1.75,3.34-1.59,5.66-4.89,7.24-8.35,1.3-2.4,1.7-5.18,1.13-7.85Z"/><path class="cls-7" d="m197.73,126.87c.31.45.56.94.75,1.45.43.91,1.01,2.2,1.65,3.69l.12.28h-.3l-1.45.13c-1,0-1.84.19-2.82.17-.17-.04-.32-.16-.38-.33-.04-.13-.04-.27,0-.41.03-.2.08-.39.13-.58l.26-1.03c.13-.69.33-1.36.61-2-.03.7-.13,1.39-.3,2.07l-.2,1.03c-.07.35-.2.88,0,.84.72,0,1.75-.16,2.71-.22l1.45-.13-.19.32c-.62-1.45-1.14-2.81-1.45-3.75-.27-.48-.46-1-.58-1.53Z"/><path class="cls-13" d="m148.16,248.72l64.21-1.95,27.94,109.07-5.14,125.11h-33.95l4.15-122.45-24.83-75.93,3.82,203.23-34.31.51-3.6-191.02c-.16-5.31-1.9-17.29-1.25-22.56l2.95-24Z"/><path class="cls-12" d="m189.09,284.12c-1.05.07-2.11,0-3.14-.19-1.94-.23-4.59-.64-7.5-1.22s-5.52-1.25-7.4-1.78c-1.01-.22-1.98-.57-2.9-1.04,0-.22,4.72.91,10.51,2.08s10.45,1.93,10.42,2.14Z"/><path class="cls-12" d="m234.82,474.09c0,.2-7.69.38-17.17.38s-17.18-.17-17.18-.38,7.69-.38,17.18-.38,17.17.16,17.17.38Z"/><path class="cls-12" d="m184.06,480.51c0,.22-7.47.38-16.68.38s-16.66-.16-16.66-.38,7.47-.38,16.66-.38,16.68.17,16.68.38Z"/><path class="cls-12" d="m179.63,479.99c-.2,0-1.1-44.4-2.01-99.17-.91-54.77-1.45-99.2-1.26-99.2s1.11,44.39,2.01,99.18,1.48,99.18,1.26,99.18Z"/><path class="cls-12" d="m230.26,474.09c-.02-.2-.02-.4,0-.59v-1.74c0-1.56.12-3.81.2-6.66.2-5.79.49-14.2.85-24.51.78-20.73,1.88-49.31,3.08-80.85v-.85.1c-7.6-30.4-14.48-57.99-19.47-77.96l-5.79-23.61c-.67-2.77-1.17-4.92-1.53-6.43-.17-.71-.29-1.26-.39-1.68-.06-.19-.09-.38-.1-.58.08.18.13.37.17.56.12.41.26.96.46,1.65.39,1.45.96,3.65,1.68,6.4,1.45,5.59,3.49,13.64,6.04,23.55,5.04,19.95,11.99,47.47,19.69,77.92v.96c-1.29,31.55-2.46,60.11-3.32,80.84-.45,10.32-.83,18.68-1.09,24.5-.14,2.9-.26,5.1-.33,6.66,0,.74-.09,1.32-.1,1.74,0,.2-.02.4-.06.59Z"/><path class="cls-12" d="m219.18,356.33c-2.44.8-4.95,1.36-7.5,1.66-3.13.54-5.79.91-6.99.97v-.29c.39.12.59.19.59.25s-.25,0-.65,0h-.87l.87-.26c1.13-.33,3.79-.88,6.92-1.45,2.51-.54,5.06-.84,7.63-.88Z"/><path class="cls-12" d="m218.59,360.48c-2.26.1-4.52,0-6.76-.3-2.26-.05-4.51-.29-6.73-.74,4.52-.37,9.08-.02,13.49,1.04Z"/><path class="cls-15" d="m147.88,251.02c1.54,1.97,3.84,3.2,6.34,3.37,2.59.31,5.2.26,7.77-.14,16.58-1.84,34.14-3.53,50.37-7.48-21.01,1.17-43.2.78-64.21,1.95l-.22,1.8"/><g class="cls-16"><polygon points="169.53 280.63 181.37 326.58 180.55 282.57 169.53 280.63"/></g></g><g id="freepik--Glasses--inject-105"><path class="cls-2" d="m377.88,104.48l-4.53-1.02s-.02-5.66.04-6.47c.06-.51.31-.98.7-1.31h0c1.35-.72,2.86-2.25,3.38-3.5,1.05-2.5,0-6.33,0-6.33h-10.04s-1.05,3.83,0,6.33c.55,1.32,2.16,2.81,3.57,3.49h0c.45.32.74.81.82,1.36.04.82.13,6.49.13,6.49l-4.5,1.05c-.05,0-.09.05-.08.1,0,.05.05.09.1.08h10.37c.11,0,.14-.25.03-.28Z"/><path class="cls-13" d="m377.88,104.48s.04,0,.06.05c.03.07.02.15-.02.21-.02.02-.04.04-.07.04h-.76l-3.16.02h-6.4s-.08,0-.12-.02c-.05-.02-.08-.07-.09-.13,0-.06.02-.11.07-.15.04-.02.07-.03.11-.04l.38-.09.77-.18,3.29-.78-.06.08c-.02-1.23-.05-2.53-.08-3.89-.02-.68-.03-1.38-.05-2.08v-.53c-.01-.17-.06-.33-.13-.49-.15-.31-.38-.59-.66-.79l-.13-.09.15-.06h0v.16c-.77-.39-1.49-.9-2.11-1.51-.68-.61-1.21-1.37-1.56-2.21-.3-.89-.44-1.83-.4-2.76.02-.96.13-1.91.33-2.84.04-.2.08-.39.14-.59v-.07h5.3v.09h0l-.09-.09h4.97l.02.06c.25,1.01.4,2.04.45,3.07.06.99-.05,1.98-.33,2.93-.14.45-.36.88-.64,1.27-.26.38-.55.73-.88,1.05-.6.63-1.29,1.16-2.04,1.58h0c-.3.25-.52.57-.63.94-.07.37-.1.74-.09,1.12,0,.74,0,1.45-.02,2.11v3.55l-.04-.04,3.36.77.87.21c.2.05.29.08.29.08,0,0-.1,0-.3-.05l-.88-.19-3.37-.73h-.04v-6.26c0-.2.03-.4.08-.59.12-.4.36-.75.68-1.01h0c.74-.42,1.42-.95,2-1.56.31-.32.6-.67.85-1.04.27-.37.48-.79.62-1.23.27-.93.37-1.9.31-2.87-.05-1.02-.2-2.04-.45-3.03l.08.06h-4.99v-.09h0l.09.09h-5.14l.09-.07c-.05.19-.09.39-.13.58-.2.93-.3,1.87-.32,2.81-.04.92.09,1.83.39,2.7.33.82.85,1.56,1.51,2.15.61.6,1.32,1.1,2.08,1.48l.18.09-.19.07h0v-.15c.3.23.54.52.7.86.08.17.13.36.14.54v.53c0,.7.03,1.41.04,2.08.02,1.36.05,2.66.07,3.9v.06h-.06l-3.29.77-.77.18-.35.09c-.08.02-.07,0-.08.04s0,.02.08.02h1.48l4.92.02,3.16.02h.67c.06,0,.11,0,.14-.03.04-.06.05-.13.02-.19-.01-.01-.02-.02-.04-.02Z"/><path class="cls-8" d="m372.6,89.98h-4.99s.14,4.09,4.92,5.55l.11-.03c2.59-.7,4.49-2.9,4.82-5.56l-4.86.04Z"/><path class="cls-3" d="m368.43,91.8c-.16-.2-.28-.43-.35-.68-.21-.59-.34-1.2-.38-1.82-.05-.62-.03-1.24.05-1.85.02-.26.07-.51.17-.75.06,0-.14,1.17-.04,2.59.04.61.15,1.21.32,1.79.13.45.25.71.23.72Z"/><path class="cls-3" d="m377.01,90.69c-.01.27-.08.54-.18.79-.23.62-.56,1.19-.99,1.68-.43.5-.95.91-1.53,1.21-.23.14-.49.24-.76.29,0-.03.27-.14.7-.4,1.1-.67,1.96-1.66,2.46-2.83.09-.25.19-.5.3-.74Z"/><path class="cls-3" d="m377.04,88.12c.15.33.23.69.23,1.05.05.36.03.73-.08,1.08-.07-.35-.1-.7-.1-1.05-.06-.36-.07-.72-.04-1.08Z"/><path class="cls-3" d="m369.89,93.44s-.17-.04-.3-.17-.2-.26-.17-.3.17.04.3.17.2.26.17.3Z"/><g class="cls-17"><path d="m374.09,94.56c-.69.21-1.43.2-2.11-.03-.68-.23-1.34-.52-1.97-.88-.23-.12-.54-.24-.74-.05.66.67,1.44,1.21,2.31,1.59.3.14.62.26.94.35,0,0,.37-.11.68-.21.8-.29,1.53-.73,2.17-1.3-.41.2-.84.38-1.28.53Z"/></g></g><g id="freepik--Glasses--inject-105-2"><path class="cls-2" d="m377.88,171.66l-4.53-1.02s-.02-5.66.04-6.47c.06-.51.31-.98.7-1.31h0c1.35-.72,2.86-2.25,3.38-3.5,1.05-2.5,0-6.33,0-6.33h-10.04s-1.05,3.83,0,6.33c.55,1.32,2.16,2.81,3.57,3.49h0c.45.32.74.81.82,1.36.04.82.13,6.49.13,6.49l-4.5,1.05c-.05,0-.09.05-.08.1,0,.05.05.09.1.08h10.37c.11,0,.14-.25.03-.28Z"/><path class="cls-13" d="m377.88,171.66s.04,0,.06.05c.03.07.02.15-.02.21-.02.02-.04.04-.07.04h-.76l-3.16.02h-6.4s-.08,0-.12-.02c-.05-.02-.08-.07-.09-.13,0-.06.02-.11.07-.15.04-.02.07-.03.11-.04l.38-.09.77-.18,3.29-.78-.06.08c-.02-1.23-.05-2.53-.08-3.89-.02-.68-.03-1.38-.05-2.08v-.53c-.01-.17-.06-.33-.13-.49-.15-.31-.38-.59-.66-.79l-.13-.09.15-.06h0v.16c-.77-.39-1.49-.9-2.11-1.51-.68-.61-1.21-1.37-1.56-2.21-.3-.89-.44-1.83-.4-2.76.02-.96.13-1.91.33-2.84.04-.2.08-.39.14-.59v-.07h5.3v.09h0l-.09-.09h4.97l.02.06c.25,1.01.4,2.04.45,3.07.06.99-.05,1.98-.33,2.93-.14.45-.36.88-.64,1.27-.26.38-.55.73-.88,1.05-.6.63-1.29,1.16-2.04,1.58h0c-.3.25-.52.57-.63.94-.07.37-.1.74-.09,1.12,0,.74,0,1.45-.02,2.11v3.55l-.04-.04,3.36.77.87.21c.2.05.29.08.29.08,0,0-.1,0-.3-.05l-.88-.19-3.37-.73h-.04v-6.26c0-.2.03-.4.08-.59.12-.4.36-.75.68-1.01h0c.74-.42,1.42-.95,2-1.56.31-.32.6-.67.85-1.04.27-.37.48-.79.62-1.23.27-.93.37-1.9.31-2.87-.05-1.02-.2-2.04-.45-3.03l.08.06h-4.99v-.09h0l.09.09h-5.14l.09-.07c-.05.19-.09.39-.13.58-.2.93-.3,1.87-.32,2.81-.04.92.09,1.83.39,2.7.33.82.85,1.56,1.51,2.15.61.6,1.32,1.1,2.08,1.48l.18.09-.19.07h0v-.15c.3.23.54.52.7.86.08.17.13.36.14.54v.53c0,.7.03,1.41.04,2.08.02,1.36.05,2.66.07,3.9v.06h-.06l-3.29.77-.77.18-.35.09c-.08.02-.07,0-.08.04s0,.02.08.02h1.48l4.92.02,3.16.02h.67c.06,0,.11,0,.14-.03.04-.06.05-.13.02-.19-.01-.01-.02-.02-.04-.02Z"/><path class="cls-9" d="m372.6,157.15h-4.99s.14,4.09,4.92,5.55l.11-.03c2.59-.7,4.49-2.9,4.82-5.56l-4.86.04Z"/><path class="cls-3" d="m368.43,158.97c-.16-.2-.28-.43-.35-.68-.21-.59-.34-1.2-.38-1.82-.05-.62-.03-1.24.05-1.85.02-.26.07-.51.17-.75.06,0-.14,1.17-.04,2.59.04.61.15,1.21.32,1.79.13.45.25.71.23.72Z"/><path class="cls-3" d="m377.01,157.86c-.01.27-.08.54-.18.79-.23.62-.56,1.19-.99,1.68-.43.5-.95.91-1.53,1.21-.23.14-.49.24-.76.29,0-.03.27-.14.7-.4,1.1-.67,1.96-1.66,2.46-2.83.09-.25.19-.5.3-.74Z"/><path class="cls-3" d="m377.04,155.29c.15.33.23.69.23,1.05.05.36.03.73-.08,1.08-.07-.35-.1-.7-.1-1.05-.06-.36-.07-.72-.04-1.08Z"/><path class="cls-3" d="m369.89,160.61s-.17-.04-.3-.17-.2-.26-.17-.3.17.04.3.17.2.26.17.3Z"/><g class="cls-17"><path d="m374.09,161.73c-.69.21-1.43.2-2.11-.03-.68-.23-1.34-.52-1.97-.88-.23-.12-.54-.24-.74-.05.66.67,1.44,1.21,2.31,1.59.3.14.62.26.94.35,0,0,.37-.11.68-.21.8-.29,1.53-.73,2.17-1.3-.41.2-.84.38-1.28.53Z"/></g></g><g id="freepik--Glasses--inject-105-3"><path class="cls-2" d="m377.88,239.91l-4.53-1.02s-.02-5.66.04-6.47c.06-.51.31-.98.7-1.31h0c1.35-.72,2.86-2.25,3.38-3.5,1.05-2.5,0-6.33,0-6.33h-10.04s-1.05,3.83,0,6.33c.55,1.32,2.16,2.81,3.57,3.49h0c.45.32.74.81.82,1.36.04.82.13,6.49.13,6.49l-4.5,1.05c-.05,0-.09.05-.08.1,0,.05.05.09.1.08h10.37c.11,0,.14-.25.03-.28Z"/><path class="cls-13" d="m377.88,239.91s.04,0,.06.05c.03.07.02.15-.02.21-.02.02-.04.04-.07.04h-.76l-3.16.02h-6.4s-.08,0-.12-.02c-.05-.02-.08-.07-.09-.13,0-.06.02-.11.07-.15.04-.02.07-.03.11-.04l.38-.09.77-.18,3.29-.78-.06.08c-.02-1.23-.05-2.53-.08-3.89-.02-.68-.03-1.38-.05-2.08v-.53c-.01-.17-.06-.33-.13-.49-.15-.31-.38-.59-.66-.79l-.13-.09.15-.06h0v.16c-.77-.39-1.49-.9-2.11-1.51-.68-.61-1.21-1.37-1.56-2.21-.3-.89-.44-1.83-.4-2.76.02-.96.13-1.91.33-2.84.04-.2.08-.39.14-.59v-.07h5.3v.09h0l-.09-.09h4.97l.02.06c.25,1.01.4,2.04.45,3.07.06.99-.05,1.98-.33,2.93-.14.45-.36.88-.64,1.27-.26.38-.55.73-.88,1.05-.6.63-1.29,1.16-2.04,1.58h0c-.3.25-.52.57-.63.94-.07.37-.1.74-.09,1.12,0,.74,0,1.45-.02,2.11v3.55l-.04-.04,3.36.77.87.21c.2.05.29.08.29.08,0,0-.1,0-.3-.05l-.88-.19-3.37-.73h-.04v-6.26c0-.2.03-.4.08-.59.12-.4.36-.75.68-1.01h0c.74-.42,1.42-.95,2-1.56.31-.32.6-.67.85-1.04.27-.37.48-.79.62-1.23.27-.93.37-1.9.31-2.87-.05-1.02-.2-2.04-.45-3.03l.08.06h-4.99v-.09h0l.09.09h-5.14l.09-.07c-.05.19-.09.39-.13.58-.2.93-.3,1.87-.32,2.81-.04.92.09,1.83.39,2.7.33.82.85,1.56,1.51,2.15.61.6,1.32,1.1,2.08,1.48l.18.09-.19.07h0v-.15c.3.23.54.52.7.86.08.17.13.36.14.54v.53c0,.7.03,1.41.04,2.08.02,1.36.05,2.66.07,3.9v.06h-.06l-3.29.77-.77.18-.35.09c-.08.02-.07,0-.08.04s0,.02.08.02h1.48l4.92.02,3.16.02h.67c.06,0,.11,0,.14-.03.04-.06.05-.13.02-.19-.01-.01-.02-.02-.04-.02Z"/><path class="cls-11" d="m372.6,225.4h-4.99s.14,4.09,4.92,5.55l.11-.03c2.59-.7,4.49-2.9,4.82-5.56l-4.86.04Z"/><path class="cls-3" d="m368.43,227.22c-.16-.2-.28-.43-.35-.68-.21-.59-.34-1.2-.38-1.82-.05-.62-.03-1.24.05-1.85.02-.26.07-.51.17-.75.06,0-.14,1.17-.04,2.59.04.61.15,1.21.32,1.79.13.45.25.71.23.72Z"/><path class="cls-3" d="m377.01,226.11c-.01.27-.08.54-.18.79-.23.62-.56,1.19-.99,1.68-.43.5-.95.91-1.53,1.21-.23.14-.49.24-.76.29,0-.03.27-.14.7-.4,1.1-.67,1.96-1.66,2.46-2.83.09-.25.19-.5.3-.74Z"/><path class="cls-3" d="m377.04,223.54c.15.33.23.69.23,1.05.05.36.03.73-.08,1.08-.07-.35-.1-.7-.1-1.05-.06-.36-.07-.72-.04-1.08Z"/><path class="cls-3" d="m369.89,228.86s-.17-.04-.3-.17-.2-.26-.17-.3.17.04.3.17.2.26.17.3Z"/><g class="cls-17"><path d="m374.09,229.98c-.69.21-1.43.2-2.11-.03-.68-.23-1.34-.52-1.97-.88-.23-.12-.54-.24-.74-.05.66.67,1.44,1.21,2.31,1.59.3.14.62.26.94.35,0,0,.37-.11.68-.21.8-.29,1.53-.73,2.17-1.3-.41.2-.84.38-1.28.53Z"/></g></g></svg>