<?xml version="1.0" encoding="UTF-8"?><svg id="Ebene_1" xmlns="http://www.w3.org/2000/svg" viewBox="0 0 1000 1000"><defs><style>.cls-1{fill:#ebebeb;}.cls-2{fill:#ffbf9d;}.cls-3{fill:#ff9a6c;}.cls-4{fill:#7e6c65;}.cls-5{fill:#e0e0e0;}.cls-6{fill:#455a64;}.cls-7{fill:#263238;}</style></defs><path class="cls-7" d="m325.56,430.64c-15.41,58.34-18.61,118.46-18.61,118.46h51.22s283.8-27.43,283.8-27.43c-.11-4.51,1.54-36.69,1.41-41.3h0c-3.17-113.35-19.16-256.89-37.64-290.18-31.36-56.6-97.43-71.35-97.43-71.35-107.24-8.82-124.99,90.15-144.23,175.27-6.81,30.02-23.45,79.83-38.53,136.53Z"/><path class="cls-7" d="m681.25,920.65s33.99,114.77-23.64,261.49c-57.63,146.73-89.99,264.07-92.02,295.64-2.03,31.57-5.7,64.42-35.98,164.37-22.15,73.04-38.5,116.75-38.5,116.75-22.94,12.54-47.32,15.96-69.37,3.77,0,0,2.13-174.28,35.38-291.62,33.25-117.34,56.04-300.79,44.6-367.09-11.45-66.3,13.28-104.06,13.28-104.06l166.25-79.24Z"/><path class="cls-7" d="m315.99,1086.4c-22.1-103.27,45.99-208.77,45.99-208.77l177.2,139.59s37.51,417.69,15.31,471.85c-22.2,54.16-128.49,275.22-128.49,275.22l-81.37-19.13s30.23-180.13,54.51-225.81c17.39-32.9,45.94-48.56,32.61-91.43-13.33-42.86-97.62-257.08-115.76-341.52Z"/><path class="cls-7" d="m682.09,922.88c.64,0-141.33,100.69-141.33,100.69l-190.33-125.37,19.82-71.9s112.54,46.98,163.03,36.87c50.49-10.11,105.85-53.81,105.85-53.81,16.81,36.85,31.16,74.78,42.96,113.53Z"/><path class="cls-6" d="m555.61,993.71l-.98,1.25-2.82,3.79-10.84,14.85-40.48,56.24h0v.27c1.95,21.02,2.71,45.46,4.06,72.72s2.82,57.16,4.39,89.35c1.57,32.19,3.63,66.59,5.42,102.62,1.79,36.03,4.12,73.74,7.86,112.49,3.85,32.51,7.31,63.94,4.44,94.39-.66,7.53-1.7,15.01-3.14,22.43-1.27,7.35-3.08,14.59-5.42,21.67-5.42,13.71-11.43,27.09-17.23,39.83-23.52,51.48-45.57,97.53-63.94,136.22l-43.67,91.57c-5.09,10.84-9.1,19.13-11.87,24.92-1.25,2.82-2.28,4.99-2.98,6.5-.37.74-.69,1.5-.98,2.28,0,0,.43-.7,1.19-2.17l3.25-6.39c2.82-5.74,6.94-14.09,12.25-24.76l44.38-91.25c18.59-38.63,40.8-84.58,64.43-136.06,5.85-12.9,11.97-26.01,17.39-39.99,2.36-7.08,4.17-14.32,5.42-21.67,1.47-7.49,2.56-15.05,3.25-22.65,2.87-30.72-.6-62.64-4.44-94.82-3.74-38.63-5.42-76.35-7.91-112.38-2.49-36.03-3.96-70.44-5.74-102.62s-3.31-62.1-4.71-89.35c-1.41-27.25-2.38-51.69-4.5-72.72v.43l39.83-56.62,10.51-15.06,2.66-3.9c.7-.92.98-1.35.92-1.41Z"/><path class="cls-7" d="m633.43,794.78c7.11,7.7,12.92,16.5,17.2,26.07-3.97-3.53-7.32-7.7-9.91-12.34-3.15-4.16-5.61-8.79-7.28-13.73Z"/><path class="cls-2" d="m596.86,232.7c-4.96-34.24-30.87-74.68-64.87-68.43l-104.95,35.28c-10.36,1.88-2.92,18.73-1.93,29.19l22.84,236.77s-14.17,9.91-19.28,8.18c-.75-.26-1.57.13-1.83.88-.15.42-.09.88.15,1.25,12.64,18.29,72.1,98.31,133.45,73.88,13.73-5.45-1.44-48.61,0-64.42l-1.83-40.88c-1.39-20.86-2.03-29.39-1.98-29.19s43.36-10.7,48.07-68.73c2.58-29.09-2.38-75.72-7.83-113.77Z"/><path class="cls-7" d="m583.73,288.05c.35,3.98-2.53,7.51-6.49,7.98-3.84.61-7.44-2.01-8.05-5.85-.01-.06-.02-.13-.03-.19-.35-3.98,2.53-7.51,6.49-7.98,3.84-.61,7.44,2.01,8.05,5.85.01.06.02.13.03.19Z"/><path class="cls-7" d="m513.11,292.46c.37,4-2.54,7.56-6.54,7.98-3.84.61-7.44-2.01-8.05-5.85-.01-.06-.02-.13-.03-.19-.35-3.99,2.56-7.54,6.54-7.98,3.87-.58,7.48,2.08,8.06,5.95,0,.03,0,.06.01.1Z"/><path class="cls-7" d="m592.4,261.29c-.79,1.34-7.63-2.97-16.2-1.73-8.57,1.24-14.07,7.14-15.21,6.05s0-2.77,2.53-5.5c6.35-7.17,16.98-8.62,25.02-3.42,2.82,1.78,3.87,3.87,3.87,4.61Z"/><path class="cls-7" d="m515.24,267.48c-.99,1.24-7.73-3.62-16.95-3.22-9.22.4-15.76,5.6-16.8,4.41s.45-2.73,3.32-4.96c3.79-3.09,8.49-4.83,13.38-4.96,4.84-.2,9.61,1.25,13.53,4.11,2.97,1.93,4.01,4.06,3.52,4.61Z"/><path class="cls-7" d="m544.13,321.75c4.08-1.63,8.34-2.74,12.69-3.32,1.98-.35,3.87-.89,4.11-2.28,0-2.1-.61-4.15-1.78-5.9l-7.19-14.87c-9.91-21.31-17.39-38.85-16.5-39.25s9.91,16.55,19.82,37.81c2.43,5.25,4.71,10.26,6.94,14.87,1.44,2.36,2.02,5.14,1.64,7.88-.49,1.48-1.62,2.66-3.07,3.22-1.11.38-2.25.63-3.42.74-4.34.94-8.79,1.3-13.23,1.09Z"/><path class="cls-3" d="m556.82,414.91c-27,2.41-54.15-2.74-78.39-14.87,0,0,22.4,38.8,79.29,28.99l-.89-14.12Z"/><path class="cls-3" d="m520,344.84c.9-1.98,2.3-3.69,4.06-4.96,2.12-1.04,4.55-1.29,6.84-.69,3.4.51,6.55,2.11,8.97,4.56,2.42,2.51,3.29,6.13,2.28,9.46h0c-.89,3.32-5.85,4.96-9.22,5.75-3.45.49-6.95-.25-9.91-2.08-2.63-1.23-4.49-3.67-4.96-6.54.12-1.98.78-3.88,1.93-5.5Z"/><path class="cls-7" d="m521.64,333.74c1.24,0,1.93,8.37,9.91,13.92,7.98,5.55,16.9,3.87,17.05,4.96,0,.5-1.88,1.78-5.75,2.18-5.03.48-10.07-.84-14.22-3.72-3.97-2.78-6.71-6.99-7.63-11.74-.74-3.42.05-5.65.64-5.6Z"/><path class="cls-7" d="m514.55,236.51c-.59,2.23-8.57,1.83-17.79,3.67-9.22,1.83-16.5,4.96-17.89,3.07-.64-.89.55-2.97,3.37-5.3,3.83-2.91,8.3-4.87,13.03-5.7,4.7-.94,9.56-.75,14.17.55,3.67,1.14,5.35,2.68,5.1,3.72Z"/><path class="cls-7" d="m587.44,232.2c-1.44,1.88-7.83.55-15.31.99-7.48.45-13.73,2.28-15.36.5-.69-.84,0-2.73,2.82-4.61,3.61-2.43,7.84-3.79,12.19-3.91,4.33-.29,8.66.64,12.49,2.68,2.68,1.64,3.67,3.42,3.17,4.36Z"/><path class="cls-4" d="m640.12,744.58c.64,3.47,12.59,56.19,26.31,84.24,13.73,28.05,11.3,29.48,33.25,32.01s54.51,6.34,72-13.08c17.49-19.42,20.86-59.46,15.31-81.42-5.55-21.95-33.65-59.46-33.65-59.46l-59.46-155.6-30.62,9.91-23.24,132.9.1,50.49Z"/><path class="cls-4" d="m693.78,551.38c-5.27-17.92-14.73-34.33-27.6-47.87-9.51-9.91-95.98-39.94-95.98-39.94-75.62,17.34-112.14-17-119.97-18.14-5.4-.79-65.56,7.04-65.56,7.04l-26.71,180.47s6.94,123.88,7.48,124.78-22.94,84.69-22.94,84.69c0,0,146.23,58.62,204.01,71.8,57.78,13.18,118.14-60.85,118.14-60.85l-15.86-125.82,44.99-176.16Z"/><path class="cls-7" d="m668.12,573.48c.74,0-1.68,59.46-5.35,133.15-3.67,73.69-7.23,133.1-7.93,133.05s1.68-59.46,5.35-133.15,7.23-133.05,7.93-133.05Z"/><path class="cls-4" d="m384.67,452.47s-77.45,1.78-85.18,87.96c-7.73,86.17,8.23,237.86,19.47,259.06,11.25,21.21,138.75,62.09,138.75,62.09,0,0,93.21-65.66,105.85-96.63,13.08-32.01,2.82-48.07-6-61.89-30.97-48.56-45.34-25.72-45.34-25.72-10.26,15.36-61.3,39.64-61.3,39.64l-25.67-9.07s-8.13-68.93-6.54-104.71"/><path class="cls-7" d="m418.96,603.46c.05.59.05,1.19,0,1.78v5.3c0,4.96,0,11.6.59,20.56.84,17.99,2.87,44.15,6.69,76.96l-.55-.64,25.72,8.97h-.64c9.51-4.71,19.47-9.91,29.73-15.96,4.96-2.97,10.16-6.14,15.16-9.61,5.17-3.4,9.93-7.39,14.17-11.89.99-1.14,1.83-2.43,3.07-3.77,1.22-1.26,2.67-2.29,4.26-3.02,3.28-1.39,6.95-1.58,10.36-.55,6.52,2.45,12.31,6.51,16.85,11.79l3.47,3.87,3.22,4.16c2.23,2.73,4.11,5.75,6.14,8.67,4.21,5.91,7.77,12.25,10.6,18.93,2.76,7.06,3.86,14.65,3.22,22.2-.67,7.66-2.48,15.17-5.35,22.3-3.12,7.3-7.48,14.01-12.88,19.82-5.21,5.99-10.73,11.69-16.55,17.1-24.54,22.35-50.48,43.12-77.65,62.19l-.55.4h-.59c-11-3.57-22.65-7.53-34.39-11.65-16.65-5.95-33.05-12.04-49.01-18.63-15.9-6.19-31.22-13.77-45.79-22.65-3.66-2.27-6.89-5.15-9.56-8.52-2.05-3.73-3.53-7.73-4.41-11.89-2.13-8.03-3.52-16.01-4.96-23.93-2.58-15.91-4.56-31.52-6.14-46.78-3.22-30.48-4.96-59.46-6.1-86.87-1.14-27.4-.99-52.68.3-75.87.45-5.8.74-11.45,1.34-16.95s1.39-10.9,2.63-16.01c2.18-9.66,5.79-18.95,10.7-27.55,7.9-13.87,19.66-25.15,33.84-32.46,8.89-4.62,18.43-7.84,28.29-9.56,3.37-.59,5.95-.84,7.68-.99s2.68,0,2.68,0l-2.63.35c-1.73,0-4.31.5-7.63,1.19-9.73,1.92-19.13,5.26-27.9,9.91-13.9,7.36-25.38,18.58-33.05,32.31-4.82,8.49-8.33,17.66-10.41,27.2-1.19,4.96-1.64,10.36-2.48,15.76-.84,5.4-.84,11.15-1.24,16.9-1.19,23.09-1.04,48.51,0,75.72,1.04,27.2,3.07,56.24,6.34,86.67,1.59,15.26,3.62,30.82,6.19,46.58,1.34,7.88,2.73,15.91,4.96,23.74.85,3.87,2.23,7.61,4.11,11.1,2.51,3.11,5.52,5.78,8.92,7.88,14.43,8.77,29.6,16.24,45.34,22.35,15.86,6.54,32.26,12.69,48.91,18.58,11.69,4.11,23.34,8.08,34.29,11.6h-1.14c27.02-19.04,52.82-39.74,77.25-61.99,5.77-5.35,11.26-10.99,16.45-16.9,5.2-5.57,9.4-11.99,12.44-18.98,5.6-13.92,7.73-29.43,2.28-42.76-2.78-6.53-6.25-12.74-10.36-18.53-1.98-2.92-3.82-5.9-6-8.57l-3.17-4.06-3.42-3.77c-4.25-5.02-9.68-8.9-15.81-11.3-2.91-.92-6.06-.77-8.87.45-1.37.59-2.6,1.45-3.62,2.53-.99.99-1.93,2.38-3.02,3.67-4.38,4.62-9.29,8.71-14.62,12.19-4.96,3.52-10.26,6.64-15.36,9.61-10.21,5.95-20.22,11.2-29.73,15.86h-.69l-25.62-9.12h-.5v-.45c-3.57-32.9-5.35-59.12-5.95-77.1-.35-8.97-.3-15.91,0-20.61v-5.3c-.04-.65-.01-1.29.1-1.93Z"/><path class="cls-2" d="m516.68,693.49l17.59-32.16s2.18-17,3.82-25.82c1.59-5.87,5.34-10.92,10.51-14.12l.89-11.35,16.55-19.13s2.13-13.68,14.52-15.81c5.41.33,10.74,1.39,15.86,3.17.84,0,9.91-7.78,18.63-4.16,9.89,4.42,19.15,10.12,27.55,16.95,4.36,4.26-10.7,47.22-10.7,47.22l-16.6,36.82-23.29,12.88-37.26,58.23s-44-11.99-38.06-52.72Z"/><path class="cls-3" d="m548.54,640.22s.84-1.44,3.42-2.73c1.57-.68,3.25-1.05,4.96-1.09,2.03,0,4.26.35,6.64.55,1.33.05,2.66.2,3.96.45,1.4.39,2.77.87,4.11,1.44,2.83,1.27,5.59,2.7,8.28,4.26,2.82,1.68,5.75,3.47,8.67,5.55,1.44,1.04,2.87,2.18,4.31,3.37,1.7,1.32,3.08,3.02,4.01,4.96.34.74.34,1.59,0,2.33-.25.53-.53,1.04-.84,1.54-.61.88-1.29,1.71-2.03,2.48-1.39,1.55-3.07,2.82-4.96,3.72-1.96.89-4.18,1.03-6.24.4-1.68-.5-3.34-1.09-4.96-1.78-5.54-2.28-10.95-4.88-16.2-7.78h.99c-3.05,3.31-6.36,6.36-9.91,9.12,2.64-3.69,5.61-7.14,8.87-10.31l.4-.45.59.25c4.36,2.08,9.91,4.71,16.25,7.14,3.22.99,6.69,2.82,9.61,1.29,1.58-.8,3.01-1.87,4.21-3.17.62-.69,1.2-1.42,1.73-2.18.45-.74.99-1.68.69-1.68-.86-1.37-1.95-2.58-3.22-3.57-1.34-1.14-2.73-2.23-4.11-3.22-2.82-2.08-5.65-3.91-8.37-5.55-2.58-1.59-5.24-3.05-7.98-4.36-1.2-.58-2.44-1.08-3.72-1.49-1.21-.27-2.43-.46-3.67-.55-3.63-1.07-7.46-1.19-11.15-.35-3.02.55-4.21,1.64-4.36,1.44Z"/><path class="cls-3" d="m568.46,637.9c1.69-1.84,3.57-3.5,5.6-4.96l.3-.25h.35c4.66,2.53,11.69,6.44,20.47,10.9,2.23,1.09,4.51,2.23,6.94,3.32,2.37,1.16,4.86,2.04,7.43,2.63,2.64.28,5.28-.5,7.33-2.18,2.13-1.83,3.66-4.27,4.36-6.99l.5,1.34h0c-14.37-9.91-27.35-19.38-36.77-26.26h.3c-5.9-1.78-10.65-3.27-13.92-4.36-1.72-.45-3.38-1.1-4.96-1.93,1.8.06,3.59.38,5.3.94,3.32.79,8.18,1.98,14.12,3.57h0c9.66,6.49,22.79,15.56,37.17,25.62h0l.74.55-.25.79c-.8,3.29-2.62,6.23-5.2,8.42-2.59,2.06-5.88,3.02-9.17,2.68-2.86-.63-5.63-1.63-8.23-2.97-2.43-1.14-4.96-2.33-6.94-3.52-8.72-4.96-15.61-8.92-20.07-11.79h.69c-1.86,1.71-3.9,3.21-6.1,4.46Z"/><path class="cls-3" d="m587.14,615.25c4.9.71,9.74,1.8,14.47,3.27h0c5.45,5.25,12.64,12.49,20.71,20.71l-.84-.4c3.39.05,6.49-1.89,7.93-4.96.3-.5.55-1.04.74-1.44v.89c-2.07-6.56-4.67-12.94-7.78-19.08-2.76-4.76-6.64-8.78-11.3-11.69-4.33-2.89-8.48-6.04-12.44-9.42,4.77,2.14,9.29,4.8,13.48,7.93,1.98,1.39,4.16,2.92,6.39,4.96,2.44,2,4.45,4.48,5.9,7.28,3.33,6.21,6.09,12.71,8.23,19.42v.89c-.25.62-.55,1.22-.89,1.78-2.03,3.77-6.03,6.05-10.31,5.9h-.5l-.35-.35c-7.98-8.28-14.87-15.71-20.12-21.26l.4.25c-4.7-1.17-9.3-2.74-13.73-4.71Z"/><path class="cls-7" d="m379.32,514.01s1.19.84,3.02,2.77c2.52,2.69,4.89,5.52,7.09,8.47,7.35,9.82,13.45,20.5,18.19,31.81,4.69,11.29,8.01,23.1,9.91,35.18.62,3.66,1.04,7.35,1.24,11.05.24,1.34.24,2.72,0,4.06-.4,0-1.09-5.7-2.97-14.87-2.43-11.87-5.98-23.49-10.6-34.69-4.66-11.14-10.46-21.76-17.29-31.71-5.1-7.14-8.57-11.69-8.57-12.09Z"/><path class="cls-7" d="m365.44,768.02c1.66-4.25,3.89-8.25,6.64-11.89,6.27-9.09,13.72-17.3,22.15-24.43,8.43-7.09,17.74-13.07,27.7-17.79,4.03-2.14,8.36-3.7,12.83-4.61-3.88,2.29-7.89,4.38-11.99,6.24-19.25,10.11-36.05,24.32-49.21,41.62-5.05,6.64-7.78,11.05-8.13,10.85Z"/><path class="cls-7" d="m434.77,769.71c-2.69-18.21,2.88-36.67,15.21-50.35-4.2,7.79-7.8,15.89-10.75,24.23-2.18,8.57-3.67,17.31-4.46,26.11Z"/><path class="cls-3" d="m721.24,723.13c-10.44-3.83-20.41-8.81-29.73-14.87-9.72-5.27-18.79-11.64-27.06-18.98.4-.64,12.74,7.48,28.39,16.75,15.66,9.27,28.84,16.4,28.39,17.1Z"/><path class="cls-3" d="m728.77,702.91c-.5.64-11.89-8.77-28.25-16.2-10.05-4.1-20.3-7.68-30.72-10.7,3.24-.16,6.48.19,9.61,1.04,7.65,1.61,15.09,4.07,22.2,7.33,7.03,3.25,13.68,7.27,19.82,11.99,2.8,1.74,5.28,3.96,7.33,6.54Z"/><path class="cls-3" d="m749.48,685.91c-.45.59-4.71-2.23-9.91-5.8s-9.22-6.54-8.87-7.19c3.82.74,7.38,2.45,10.36,4.96,5.3,3.77,8.87,7.53,8.42,8.03Z"/><path class="cls-3" d="m703.2,749.24c-.45.55-3.87-1.59-7.14-5.25-3.27-3.67-4.96-7.19-4.56-7.58s3.27,2.38,6.44,5.85,5.75,6.44,5.25,6.99Z"/><path class="cls-7" d="m408.45,204.84s16.41-35.14,17.58-36.01,70.79-20.49,70.79-20.49l23.31,3.36s-24.88,27.81-37.7,55.41c-37.56,81.09-64.09,74.68-64.09,74.68l-9.89-76.95Z"/><path class="cls-7" d="m347.88,505.5c1.61,9.07,6.37,18.14,14.45,22.67,1.97-10.82,3.91-21.66,5.83-32.49,1.29,14.37,2.59,28.75,3.88,43.12,29.78,3.15,59.88.02,88.37-9.21-13.36-51.45-22.67-111.12-24.16-164.26l-77.01,23.31c-3.59,29.78-7.17,59.56-10.76,89.34-1.11,9.28-2.21,18.45-.6,27.52Z"/><path class="cls-6" d="m396.41,522.81c-.19-.78-.49-1.85-.85-3.24-.74-2.82-1.81-7.09-3.15-12.53-2.64-10.92-6.47-26.69-10.2-46.42-4.54-23.07-7.42-46.44-8.62-69.92-1.52-28.81,1.1-57.7,7.77-85.77,6.57-28.15,18.76-54.69,35.83-78.02,2.04-2.7,4.02-5.34,6.14-7.77s4.12-4.93,6.33-7.17l3.22-3.42,3.28-3.24c2.14-2.16,4.39-4.25,6.53-6.2,8.7-7.96,17.17-14.97,24.74-21.56,7.57-6.58,14.35-12.59,19.95-18.24,1.44-1.38,2.7-2.86,4-4.14s2.51-2.58,3.61-3.88l3.22-3.67,2.76-3.46c1.81-2.1,3.17-4.25,4.45-5.98s2.25-3.28,3.03-4.53l1.79-2.84c.43-.64.66-.95.66-.95,0,0-.17.35-.56,1.01l-1.71,2.87c-.76,1.28-1.69,2.84-2.95,4.6s-2.6,3.87-4.39,6.04l-2.74,3.5c-1.01,1.18-2.12,2.49-3.2,3.71s-2.39,2.56-3.57,3.88-2.47,2.76-3.88,4.18c-5.59,5.69-12.33,11.77-19.89,18.37-7.56,6.6-16,13.63-24.65,21.64-2.14,2.02-4.35,4.02-6.49,6.2l-3.26,3.24-3.2,3.4c-2.19,2.23-4.12,4.66-6.29,7.15-2.18,2.49-4.12,5.15-6.06,7.77-17.01,23.23-29.15,49.66-35.72,77.69-6.63,27.97-9.25,56.75-7.77,85.46,1.16,23.47,3.96,46.84,8.39,69.92,3.63,19.71,7.36,35.5,9.89,46.44,1.28,5.42,2.27,9.65,2.95,12.57.33,1.34.52,2.54.76,3.28s.23,1.11.23,1.11c0,0-.17-.31-.37-1.09Z"/><g id="freepik--Bottle--inject-105"><rect class="cls-6" x="732.92" y="436.98" width="53.98" height="22.72" transform="translate(64.07 990.82) rotate(-68.48)"/><path class="cls-7" d="m580.68,760.91l72.82-184.69c10.58-26.84,40.93-40.03,67.77-29.44h0c26.84,10.58,40.03,40.93,29.44,67.77h0l-72.82,184.69-97.21-38.33Z"/><rect class="cls-7" x="645.29" y="512.87" width="166.45" height="30.98" transform="translate(-30.24 1012.28) rotate(-68.48)"/><rect class="cls-1" x="603.88" y="634.82" width="131.88" height="67.75" transform="translate(-197.96 1046.54) rotate(-68.48)"/><path class="cls-6" d="m677.88,799.24s-.98-1.21-2.93-3.26c-2.78-2.85-5.72-5.53-8.81-8.04-4.54-3.77-9.28-7.29-14.2-10.56-5.93-4.08-12.27-7.56-18.9-10.38-6.72-2.74-13.66-4.9-20.74-6.47-5.74-1.23-11.6-1.87-17.48-1.9-5.43.16-10.84.7-16.22,1.63,1.36-.6,2.77-1.04,4.23-1.29,3.93-.89,7.93-1.38,11.96-1.48,6.02-.17,12.05.35,17.97,1.53,7.16,1.5,14.16,3.64,20.94,6.4,6.72,2.86,13.13,6.42,19.1,10.63,4.92,3.33,9.62,6.98,14.1,10.91,3.05,2.61,5.91,5.45,8.53,8.49,1.05,1.1,1.88,2.39,2.46,3.79h0Z"/><path class="cls-6" d="m747.29,614.16c.43.17-13.63,36.75-31.35,81.69-17.72,44.94-32.41,81.27-32.84,81.1s13.63-36.75,31.35-81.69c17.72-44.94,32.44-81.26,32.84-81.1Z"/><path class="cls-6" d="m714.01,547.47c-.1.25-4.08-.78-10.7-.62-17.55.29-33.46,10.35-41.24,26.1-2.97,5.92-3.71,10.02-3.93,9.97-.01-.97.11-1.94.39-2.87.6-2.6,1.47-5.13,2.59-7.57,7.49-16.51,24.11-26.97,42.23-26.6,2.66.03,5.31.32,7.9.88.95.08,1.87.32,2.75.72h.01Z"/><path class="cls-6" d="m711.46,539.94c-.4-.16,6.64-19.03,15.76-42.15,9.12-23.12,16.85-41.72,17.25-41.57s-6.64,19.03-15.76,42.15-16.71,41.78-17.25,41.57Z"/><rect class="cls-4" x="714.31" y="488.99" width="47.24" height="30.98" transform="translate(-2.08 1005.92) rotate(-68.48)"/><path class="cls-6" d="m685.98,649.16c-9.13-2.72-18.1-5.96-26.84-9.72-8.96-3.24-17.73-6.99-26.25-11.21,9.13,2.74,18.09,5.98,26.84,9.72,8.96,3.26,17.73,6.99,26.25,11.21Z"/><rect class="cls-5" x="616.79" y="648.58" width="51.22" height="51.22" transform="translate(-220.43 1024.51) rotate(-68.48)"/></g><path class="cls-2" d="m748.59,623.92c3.39-.12,6.61,1.51,8.52,4.31,3.72,4.96,12.93,26.76,11.1,30.67-1.83,3.91-10.9,17.1-10.9,17.1l-2.53,13.97s2.13,10.51,2.33,14.87c-.41,4.39-1.41,8.71-2.97,12.83,0,0-.84,7.28-1.19,11.89-.35,4.61-7.48,32.11-7.48,32.11l1.54,30.28s-15.71,24.78-43.16,2.82l-8.13-6.79-.59-19.82-2.03-29.73s-29.43-32.16-29.73-34.34-5.8-6.99,0-14.47c0,0-3.27-1.68-1.49-7.48.72-3.2,3.17-5.73,6.34-6.54,0,0-.79-12.88,9.02-15.16,0,0,27.2,2.58,33.8,3.02,6.59.45,24.23,11.55,24.23,11.55l13.63-19.38c-2.21-7.64-3.98-15.4-5.3-23.24-.56-3.65,1.54-7.2,5-8.47Z"/></svg>