<?xml version="1.0" encoding="UTF-8"?><svg id="Ebene_1" xmlns="http://www.w3.org/2000/svg" viewBox="0 0 500 500"><defs><style>.cls-1{fill:#ebebeb;}.cls-2{fill:#eb996e;}.cls-3{fill:#f5f5f5;}.cls-4{fill:#fff;}.cls-5{fill:#ffbf9d;}.cls-6{fill:#ffbe9d;}.cls-7{fill:#7e6c65;}.cls-8{fill:#455a64;}.cls-9{fill:#263238;}.cls-10{opacity:.2;}.cls-11{opacity:.3;}</style></defs><g id="freepik--background-complete--inject-61"><path class="cls-1" d="m142.49,104.9s-8.07,4-18.62,10.23c-12.86,7.63-39.33,22.65-56.25,10.79l-15.49-30.4s9.94,4.55,25.07,2.59c13.5-1.75,24.3-8.86,29.16-12.14,2-1.32,4.56-3.12,6.59-4.34,3.4-2,7.48-5,13.42-7.91l16.12,31.18Z"/><ellipse class="cls-3" cx="99.26" cy="110.19" rx="12.41" ry="11.78" transform="translate(-17.53 18.79) rotate(-9.94)"/><path class="cls-1" d="m95.22,105.41l-1-1.55,1.23-.79,1,1.51c1.14-.68,2.45-.98,3.77-.87l.41,2.12c-1.03-.1-2.07.09-3,.55l1.49,2.31c1.6-.51,3.45-1,4.72,1,1.04,1.61.6,3.76-1,4.82l1,1.53-1.23.8-1-1.51c-.92.51-1.95.78-3,.77l-.48-2.09c.81,0,1.61-.17,2.34-.5l-1.51-2.34c-1.59.52-3.42,1-4.67-1-.97-1.41-.83-3.26.93-4.76Zm.9,3.34c.31.48.83.52,1.5.38l-1.23-1.9c-.46.36-.58,1.02-.27,1.52Zm4.25,2l1.26,2c.48-.4.59-1.08.26-1.61-.31-.56-.85-.62-1.52-.43v.04Z"/><path class="cls-3" d="m69.3,126.08l.2.12c.5.3,12.57,7.17,34.09-2.62,8.05-3.67,15.79-7.98,23.15-12.89,4.66-3,8-5.21,11.72-6.19l1-.26-14-28.62-.79.56c-.23.16-22.93,15.94-33.06,20.09-8,3.29-23.23,8-34.69,2.75l-2.2-1,14.58,28.06Zm22.94-28.27c7.31-3,20.6-11.63,28-16.62,1.48,2.31,4.5,3.07,6.9,1.73l7.63,15.67c-1.24.51-2.18,1.57-2.53,2.87-.31,1.23-.24,2.53.2,3.72-2,1.11-4.17,2.49-6.68,4.12-7.26,4.88-14.9,9.15-22.86,12.77-10.81,4.92-19.09,5.39-24.16,4.91-1.32-.12-2.62-.32-3.91-.62-.78-3.02-3.34-5.24-6.44-5.57l-8.1-15.66c.83-.06,1.92-.56,2.13-2.67,10.8,2.06,22.9-1.82,29.82-4.65Z"/><path class="cls-1" d="m127.67,323.17s-8.06,4-18.61,10.23c-12.86,7.63-39.33,22.65-56.25,10.79l-15.49-30.41s9.94,4.56,25.07,2.59c13.49-1.75,24.3-8.86,29.16-12.14,2-1.32,4.55-3.12,6.59-4.33,3.4-2,7.47-5,13.42-7.92l16.11,31.19Z"/><path class="cls-3" d="m72.2,330.61c-1.12-6.41,3.44-12.57,10.19-13.75,6.75-1.18,13.13,3.05,14.26,9.46s-3.45,12.57-10.18,13.75-13.13-3.05-14.27-9.46Z"/><path class="cls-1" d="m80.4,323.68l-1-1.55,1.23-.79,1,1.51c1.14-.67,2.45-.97,3.77-.87l.4,2.12c-1.03-.1-2.07.09-3,.55l1.45,2.32c1.61-.51,3.46-1,4.73,1,.94,1.46.8,3.33-1,4.83l1,1.53-1.23.79-1-1.51c-.92.51-1.95.78-3,.77l-.47-2.09c.81,0,1.61-.17,2.34-.5l-1.51-2.34c-1.6.52-3.42,1-4.68-1-.92-1.42-.79-3.27.97-4.77Zm.9,3.34c.32.48.84.52,1.5.38l-1.22-1.9c-.46.36-.58,1.02-.28,1.52Zm4.26,2l1.26,2c.48-.39.59-1.09.25-1.61-.31-.56-.87-.58-1.51-.44v.05Z"/><path class="cls-3" d="m54.48,344.35l.21.12c.5.3,12.57,7.17,34.09-2.62,8.04-3.66,15.77-7.97,23.11-12.88,4.66-3,8-5.21,11.72-6.19l1-.26-13.96-28.63-.79.56c-.23.16-22.94,15.94-33.06,20.09-8,3.29-23.23,8-34.69,2.75l-2.2-1,14.57,28.06Zm22.95-28.27c7.31-3,20.6-11.63,28-16.62,1.48,2.31,4.51,3.07,6.91,1.73l7.62,15.67c-1.24.51-2.17,1.57-2.52,2.87-.32,1.23-.25,2.54.2,3.73-2,1.1-4.17,2.48-6.68,4.11-7.27,4.88-14.92,9.15-22.89,12.77-10.81,4.92-19.09,5.39-24.14,4.92-1.31-.12-2.62-.33-3.9-.63-.78-3.01-3.35-5.23-6.44-5.57l-8.13-15.66c.83-.06,1.91-.56,2.13-2.67,10.82,2.04,22.91-1.82,29.84-4.65h0Z"/><path class="cls-1" d="m362.59,95.32s14.61-18.83,45.47-8.63c1.17.4,2.38.68,3.6.84,3.49.52,7.05.1,10.32-1.23,5.79-2.66,14-6.53,14-6.53l26.73,14.14s-10.52,8.46-21,9.64-23.4-6.89-35.35-3.36c-6.09,1.64-11.53,5.14-15.55,10l-28.22-14.87Z"/><path class="cls-3" d="m425.43,96.3c-1.12,1.1-8.21.48-15.83-1.39s-12.89-4.28-11.77-5.38,8.2-.48,15.82,1.39,12.9,4.28,11.78,5.38Z"/><path class="cls-1" d="m414.85,94.77l.5.48-1.59-.28-.49-.47c-1.46-.25-2.91-.58-4.34-1l.33-.37c1,.29,2.24.6,3.42.83l-.75-.72c-1.89-.42-4-.91-4.68-1.53-.48-.45.34-.64,2.79-.28l-.5-.48,1.59.27.49.47c1.23.23,2.48.51,3.52.81l-.25.4c-.94-.27-1.85-.48-2.67-.64l.76.73c1.89.41,4,.9,4.63,1.51.47.47-.34.62-2.76.27Zm-3.58-2.17l-.64-.61c-.79-.09-1,0-.85.12.47.25.97.41,1.49.49Zm3.83,1.5c-.46-.24-.95-.41-1.46-.49l.62.59c.75.09.94.04.84-.1Z"/><path class="cls-3" d="m435.75,81.64l-.27.15c-4.77,2.61-9.76,4.8-14.91,6.53-3.59,1.09-5.3.88-8.42.49l-2-.24c-1.83-.29-3.64-.7-5.41-1.23-4-1.08-8.95-2.41-13.84-2.33h-.12c-.14,0-13.64-.5-24.14,8.8l-.62.55,24,13,.31-.31c.12-.12,12.11-12,29.24-8.59,2,.41,3.92.81,5.69,1.19,13.89,3,20.86,4.46,34.25-4.48l.82-.55-24.58-12.98Zm-10.22,16.89c-1.77-.38-3.66-.79-5.69-1.2-11.64-2.36-21.01,2.17-26.1,5.64-2.45-1.39-5.53-.98-7.54,1l-14-7.62c2.52-2.42.88-4.33-.05-5.11,5.66-3.3,12.1-5.04,18.65-5.07,4.8-.09,9.71,1.22,13.66,2.29,1.83.55,3.7.97,5.59,1.27l2,.23c2.96.59,6.03.4,8.9-.53,3.86-1.25,7.62-2.8,11.25-4.62,1,.79,3.67,2.27,7.4.18l14.32,7.57c-1,.54-2.51,1.9.1,4.59-10.04,5.32-16.72,3.89-28.49,1.38Z"/></g><g id="freepik--Banknotes--inject-61"><path class="cls-7" d="m364.02,197.64c6,2.53,11.34,6.43,15.57,11.38,5.53,6.59,19.32,27.14,23.93,32.21,5.09,5.59,11.3,10.04,18.22,13.07l-10.94,35.14c-5.96-2.91-11.57-6.49-16.73-10.66-8-6.63-16.51-27.53-27.84-36.05-7.33-5.51-24-9.75-24-9.75l21.79-35.34Z"/><g class="cls-10"><path class="cls-4" d="m419.61,255.35h0c-.1-.07-11-6.24-15.62-11.37-3.27-3.61-8.31-10.47-13.19-17.11-3.69-5-7.18-9.78-9.81-13-8.4-10.3-15.09-12.38-15.37-12.46l-.65-.2-19,29.66,1.19.32c.12,0,12.39,3.35,18.18,7.58,7.71,5.63,12.16,13.12,16.47,20.36,3.08,5.18,6,10.07,10,14.35,3.56,3.81,7.54,7.2,11.86,10.11,1.72,1.17,3.52,2.23,5.39,3.16l.94.43,9.61-31.83Zm-53.25-18c-3.45-2.52-8.87-4.67-13-6.08.69-.87,1.05-1.97,1-3.08-.48-1.81-2-2.18-3.57-1.45l12.38-19.26.1.15c1.91,2.68,5.65.37,5.9-2.39.06.05.13.09.2.13,3.86,2.68,7.31,5.91,10.22,9.6,2.6,3.19,6.08,7.92,9.76,12.94.43.57.85,1.15,1.27,1.72-2.82-1.3-6.54-.68-10.05,4.24-3.24,4.56-3.7,10.71-2.85,15.41-3.08-4.6-6.92-8.65-11.36-11.97v.04Zm26.71,34.93c-3.87-4.14-6.73-8.95-9.76-14l-.86-1.45c4.18,1.25,8.68-.44,11-4.13,2.34-3.93,4.58-9.56,3-15.22,2.38,3.13,4.56,5.89,6.27,7.79,3.27,3.6,8.9,7.88,12.28,10.33-1.06.3-1.68,1.4-1.39,2.47,0,.03.02.06.03.08.22,1.11,1.26,2.48,2.52,2.21l.17-.07-6.5,21.39c-1-3-4.31-1.6-3.79,1.35-4.76-3.03-9.12-6.66-12.97-10.79v.04Z"/></g><path class="cls-7" d="m384.56,249.89l-1.15,1.83-1.46-.91,1.12-1.79c-1.29-.88-2.27-2.13-2.82-3.59l2.05-1.5c.41,1.16,1.14,2.18,2.11,2.94l1.71-2.74c-1.34-1.45-2.77-3.19-1.31-5.54,1.09-1.74,3.15-2.53,5.64-1.38l1.14-1.82,1.46.91-1.12,1.79c1.02.73,1.83,1.72,2.35,2.86l-2,1.56c-.39-.87-.97-1.64-1.7-2.26l-1.74,2.79c1.35,1.45,2.76,3.17,1.31,5.48-1.06,1.71-3.1,2.45-5.59,1.37Zm3.12-2.64c.36-.58.13-1.15-.35-1.79l-1.41,2.26c.62.31,1.37.11,1.76-.47h0Zm-.05-5.53l1.46-2.33c-.66-.31-1.45-.08-1.84.54-.36.57-.12,1.16.38,1.79Z"/><path class="cls-7" d="m266.8,51.18l-34-4.57-3.6.36c-6.16.84-11.08,2.33-18.41,10.09-7.13,7.55-10.13,26.84-10.13,26.84,0,0,8.46-4.35,21.49-4.06s17.77,2.57,17.77,2.57c0,0,.09-13,5.66-19.52,6.96-8.09,21.22-11.71,21.22-11.71Z"/><g class="cls-10"><path d="m266.8,51.18l-34-4.57-3.6.36c-6.16.84-11.08,2.33-18.41,10.09-7.13,7.55-10.13,26.84-10.13,26.84,0,0,8.46-4.35,21.49-4.06s17.77,2.57,17.77,2.57c0,0,.09-13,5.66-19.52,6.96-8.09,21.22-11.71,21.22-11.71Z"/></g><path class="cls-7" d="m229.2,46.97s8-1.13,20.66,9.75c8.1,6.94,22,28.23,22,28.23,2.89-3.96,6.55-7.3,10.76-9.81,11.29-6.69,17.76-8.38,17.76-8.38,0,0-7.18-10.79-17.97-15.04-26.04-10.31-53.21-4.75-53.21-4.75Z"/><g class="cls-10"><path class="cls-4" d="m239.76,45.67c1.77.94,12.22,4.64,19.45,4s9-1.81,6.08-2.57c-4.06-1.06-8.23-1.62-12.42-1.68-4.37-.18-8.75-.1-13.11.25Z"/></g><g class="cls-10"><path class="cls-4" d="m296.6,64.47c-4.82-5.08-10.34-9.43-16.4-12.94-1.28-.7-2.64-1.37-4-2-4.65-1.41-9.41-2.46-14.22-3.12,4.56,1,10.47,1.48,18.07,6.7,3.81,2.65,7.44,5.55,10.86,8.68-1.19.69-1.21,3.07-.36,4-3.13,1.21-6.13,2.72-8.95,4.53-2.6,1.72-5.1,3.57-7.49,5.56.21-.45.29-.94.24-1.43-.28-1.58-2.51-2.61-4-2.17-.61.11-1.11.55-1.29,1.14-4.28-6.23-11.39-16.14-15.49-19.58-4.14-3.36-8.74-6.1-13.66-8.14h-.11c-1.76.11-3.15.3-4.53.45,6.18,2.05,11.94,5.2,17,9.29,5.79,4.86,18.52,24.21,18.65,24.41l.66,1,.88-.8c3.25-2.89,6.69-5.56,10.3-8,4.13-2.65,8.64-4.63,13.38-5.88l1.73-.39-1.27-1.31Z"/></g><path class="cls-7" d="m363.38,111.27s7.19-5.85,16.34-14.58c11.16-10.64,34.3-31.84,54-23.82l22.59,27s-11-2.29-25.8,3.18c-13.11,4.85-22.31,14.49-26.46,18.92-1.67,1.79-3.86,4.19-5.62,5.88-3,2.84-6.35,6.78-11.66,11.06l-23.39-27.64Z"/><g class="cls-10"><path class="cls-4" d="m417.07,91.6c2.61,6.19-.55,13.42-7.06,16.17s-13.9,0-16.51-6.22.56-13.42,7.07-16.16,13.9.03,16.5,6.21Z"/></g><path class="cls-7" d="m410.85,99.87l1.35,1.32-1,1.08-1.36-1.3c-.99.94-2.24,1.55-3.59,1.75l-.9-2c1.06-.14,2.07-.57,2.9-1.25l-2-2c-1.5.88-3.25,1.78-5,.09-1.29-1.25-1.58-3.15-.14-5.07l-1.34-1.31,1.05-1.08,1.32,1.29c.82-.73,1.81-1.24,2.88-1.48l1,2c-.81.17-1.57.51-2.24,1l2.06,2c1.49-.89,3.22-1.77,4.93-.1,1.22,1.26,1.51,3.16.08,5.06Zm-6.4-4.14l-1.72-1.68c-.39.5-.34,1.22.11,1.67.43.42.97.32,1.61.01Zm4.73,1c-.43-.42-1-.33-1.6,0l1.67,1.63c.42-.47.4-1.19-.05-1.64h-.02Z"/><g class="cls-10"><path class="cls-4" d="m432.04,73.09l-.23-.07c-.58-.19-14.29-4.3-33.65,10.49-7.23,5.54-14.01,11.65-20.25,18.29-4,4.12-6.87,7.09-10.35,8.93l-.92.48,20.56,25.54.67-.74c.2-.21,19.37-21.31,28.59-27.82,7.31-5.16,21.49-13.42,34.22-10.76l2.52.54-21.16-24.88Zm-16.53,33.71c-6.66,4.69-18,16.44-24.33,23.16-2.02-1.98-5.24-2.04-7.34-.14l-11.27-14c1.12-.81,1.81-2.08,1.87-3.46.03-1.32-.34-2.61-1.06-3.71,1.79-1.58,3.62-3.46,5.76-5.67,6.18-6.58,12.89-12.63,20.06-18.11,9.73-7.43,17.94-9.81,23.11-10.5,1.35-.19,2.71-.28,4.07-.28,1.48,2.85,4.57,4.49,7.76,4.11l11.78,13.86c-.82.26-1.79,1-1.52,3.17-11.33.45-22.59,7.12-28.89,11.57Z"/></g><path class="cls-7" d="m57.06,239.19s7.18,5.86,17.58,13.05c12.69,8.78,38.13,27.15,34.28,48.1l-21.86,27.58s0-11.28-8.33-24.62c-7.44-11.89-18.74-19-23.9-22.12-2.09-1.27-4.88-2.93-6.9-4.31-3.37-2.31-7.92-4.85-13.18-9.18l22.31-28.5Z"/><g class="cls-10"><ellipse class="cls-4" cx="79.92" cy="277.28" rx="12.15" ry="12.79" transform="translate(-143.15 94.23) rotate(-34.55)"/></g><path class="cls-7" d="m77.72,283.3l-1,1.6-1.27-.81,1-1.56c-1.11-.78-1.96-1.88-2.43-3.16l1.81-1.29c.35,1.02.98,1.91,1.82,2.59l1.52-2.39c-1.17-1.28-2.4-2.82-1.1-4.85,1-1.52,2.77-2.19,4.95-1.16l1-1.58,1.27.81-1,1.55c.87.65,1.56,1.52,2,2.52l-1.76,1.35c-.34-.77-.84-1.45-1.47-2l-1.53,2.44c1.17,1.27,2.39,2.79,1.1,4.8-.96,1.48-2.74,2.15-4.91,1.14Zm2.75-2.28c.32-.5.12-1-.29-1.57l-1.26,2c.55.27,1.22.09,1.55-.43Zm0-4.83l1.29-2c-.58-.27-1.26-.07-1.61.46-.31.47-.1.98.38,1.54h-.06Z"/><g class="cls-10"><path class="cls-4" d="m108.35,298.7v-.25c.07-.6,1.32-14.86-17.09-30.82-6.88-5.96-14.24-11.36-22-16.13-4.84-3.07-8.33-5.29-10.83-8.33l-.67-.8-20.83,25.35.86.5c.25.15,24.8,14.65,33,22.36,6.53,6.12,17.49,18.33,17.47,31.34v2.49l20.09-25.71Zm-36.36-9.37c-5.94-5.56-19.74-14.31-27.61-19.13,1.53-2.38.94-5.54-1.34-7.21l11.41-13.88c1.02.94,2.41,1.35,3.77,1.13,1.29-.23,2.49-.85,3.41-1.79,1.91,1.44,4.13,2.85,6.73,4.5,7.69,4.73,14.98,10.08,21.8,16,9.25,8,13.25,15.58,15,20.51.45,1.28.82,2.6,1.09,3.93-2.49,2.02-3.46,5.38-2.45,8.42l-11.22,14.32c-.41-.75-1.35-1.55-3.41-.85-2.74-11-11.54-20.67-17.18-25.95h0Z"/></g><path class="cls-7" d="m411.65,338.38s-1.89-24.47,28.79-38c1.17-.51,2.29-1.13,3.34-1.86,3.01-2.02,5.43-4.8,7-8.07,2.59-6,6.22-14.7,6.22-14.7l30.21-7.68s-2.18,13.75-9.41,21.92-22.66,10.92-29.36,21.9c-3.53,5.45-5.28,11.87-5,18.36l-31.79,8.13Z"/><g class="cls-10"><path class="cls-4" d="m460.39,295.71c-.09,1.62-5.94,6-13.06,9.88s-12.82,5.65-12.73,4,5.94-6,13.06-9.88,12.82-5.62,12.73-4Z"/></g><path class="cls-7" d="m451.24,301.86h.72l-1.41.9h-.7c-1.29.81-2.63,1.55-4,2.21v-.51c1.09-.52,2.16-1.1,3.19-1.73h-1.08c-1.73,1-3.71,2.09-4.63,2.07-.68,0-.18-.73,1.93-2.15h-.71l1.41-.9h.7c1.09-.67,2.25-1.32,3.25-1.8l.08.47c-.9.45-1.74.91-2.49,1.36h1.09c1.73-1,3.69-2.08,4.59-2,.65-.03.15.67-1.94,2.08Zm-4.24.81h-.91c-.67.47-.78.67-.56.67.52-.14,1.02-.36,1.47-.67Zm4-1.49c-.52.13-1.01.34-1.46.63h.89c.6-.43.75-.63.54-.63h.03Z"/><g class="cls-10"><path class="cls-4" d="m458.14,277.38l-.1.31c-1.84,5.3-4.14,10.42-6.89,15.31-2,3.31-3.44,4.34-6.09,6.2-.52.36-1.08.75-1.69,1.19-1.6,1.05-3.27,1.98-5,2.8-3.79,1.94-8.51,4.34-12.19,7.79l-.09.09c-.11.09-10.78,9-12.37,23.42l-.1.86,27.38-6.67v-.45c0-.18.93-17.58,16.41-26.8,1.84-1.09,3.56-2.08,5.17-3,12.68-7.33,19-11,23.09-27.12l.25-1-27.78,7.07Zm3.87,20c-1.62.94-3.35,1.93-5.18,3-10.53,6.27-14.56,16.18-16.09,22.32-2.81.67-4.85,3.11-5,6l-16,3.89c.25-3.6-2.32-3.93-3.57-3.88,2.05-6.44,5.75-12.22,10.75-16.77,3.6-3.39,8.27-5.79,12-7.7,1.78-.85,3.5-1.82,5.15-2.9.6-.44,1.16-.83,1.67-1.19,2.7-1.89,4.32-3,6.44-6.56,2.11-3.64,3.94-7.43,5.47-11.34,1.33-.1,4.38-.8,5.78-5l16.19-4.11c-.4,1.11-.61,3.19,3.25,3.44-4.03,11.01-10.13,14.55-20.86,20.8Z"/></g><path class="cls-7" d="m139.61,175.14c-6.5-.52-12.78-2.55-18.36-5.92-7.31-4.52-26.86-19.7-32.82-23.07-6.7-3.74-13.93-6.44-21.44-8l-.61-35.47c6.57.9,13.02,2.53,19.23,4.87,9.68,3.79,24.32,21,37.74,25.49,8.7,2.94,25.83,1.73,25.83,1.73l-9.57,40.37Z"/><g class="cls-10"><path class="cls-4" d="m68.73,136.71l.64.19c.12,0,11.77,3.37,17.79,6.79,4.24,2.4,11.18,7.33,17.89,12.1,5.09,3.62,9.9,7,13.4,9.27,11.21,7.14,18.21,7,18.51,7h.67l8.79-34.15-1.23.07c-.13,0-12.83.71-19.65-1.49-9.08-2.92-15.66-8.63-22-14.16-4.55-3.94-8.84-7.67-14-10.48-4.6-2.51-9.46-4.48-14.51-5.88-2-.58-4.04-1.01-6.11-1.3l-1-.12.81,32.16Zm56.26,1.5c4.05,1.3,9.88,1.64,14.25,1.69-.36,1.05-.34,2.19.07,3.22,1,1.56,2.58,1.44,3.84.25l-5.7,22.18-.14-.12c-2.66-1.94-5.49,1.43-4.86,4.12l-.23-.06c-4.54-1.35-8.86-3.37-12.8-6-3.47-2.21-8.26-5.61-13.33-9.22l-1.74-1.24c3.08.35,6.43-1.41,8.21-7.18,1.65-5.34.15-11.32-2.13-15.52,4.36,3.43,9.26,6.09,14.51,7.88h.05Zm-36.38-24.78c5,2.72,9.2,6.38,13.67,10.27.43.36.85.73,1.27,1.1-4.34.14-8.06,3.15-9.11,7.36-1,4.46-1.34,10.52,2,15.39-3.28-2.2-6.21-4.2-8.44-5.43-4.23-2.4-10.92-4.7-14.9-6,.89-.63,1.11-1.87.49-2.77-.56-1-2-2-3.08-1.31l-.14.11-.55-22.34c1.93,2.51,4.6.17,3.18-2.47,5.44,1.36,10.69,3.4,15.61,6.09Z"/></g><path class="cls-7" d="m103.73,131.99l.51-2.11,1.68.41-.5,2c1.49.43,2.82,1.31,3.8,2.52l-1.49,2.12c-.76-.97-1.77-1.71-2.92-2.13l-.77,3.14c1.74,1,3.64,2.16,3,4.85-.49,2-2.2,3.39-4.93,3.08l-.5,2.09-1.68-.41.5-2c-1.2-.38-2.27-1.07-3.12-2l1.42-2.13c.65.69,1.45,1.24,2.33,1.6l.78-3.2c-1.74-.94-3.62-2.13-3-4.78.47-1.96,2.15-3.34,4.89-3.05Zm-2.13,3.48c-.16.66.24,1.13.89,1.59l.63-2.59c-.69-.11-1.36.32-1.54,1h.02Zm1.78,5.23l-.65,2.65c.73.09,1.4-.38,1.58-1.09.13-.63-.28-1.11-.95-1.56h.02Z"/></g><g id="freepik--Character--inject-61"><path class="cls-9" d="m172.35,260.21c-6.94,26.26-8.38,53.33-8.38,53.33h23.06l127.76-12.35c-.05-2.03.69-16.52.63-18.59h0c-1.43-51.03-8.63-115.64-16.94-130.63-14.12-25.48-43.86-32.12-43.86-32.12-48.28-3.97-56.27,40.58-64.93,78.9-3.07,13.51-10.56,35.94-17.34,61.46h0Z"/><path class="cls-5" d="m294.48,171.11c-2.23-15.41-13.9-33.62-29.2-30.8l-47.24,15.88c-4.66.85-1.31,8.43-.87,13.14l10.28,106.58s-6.38,4.46-8.68,3.68c-.34-.12-.71.06-.82.4-.07.19-.04.4.07.56,5.69,8.23,32.46,44.26,60.07,33.26,6.18-2.45-.65-21.88,0-29l-.82-18.4c-.63-9.39-.91-13.23-.89-13.14s19.52-4.82,21.64-30.94c1.16-13.1-1.07-34.09-3.52-51.21h0Z"/><path class="cls-9" d="m209.67,158.57s7.39-15.82,7.91-16.21,31.87-9.22,31.87-9.22l10.49,1.51s-11.2,12.52-16.97,24.94c-16.91,36.5-28.85,33.62-28.85,33.62l-4.45-34.64h0Z"/><path class="cls-6" d="m314.58,273.57l15.07,68.91,43.69,45.85-30.7,70.81,12.2,19.69s65.74-73.22,63.93-91.28c-3.11-31.45-69.79-97.41-84.78-109.81-5.04-4.17-19.41-4.17-19.41-4.17Z"/><path class="cls-2" d="m396.29,378.02c0,.17-1.54,0-3.94.2-6.33.54-12.2,3.51-16.4,8.27-1.6,1.81-2.36,3.14-2.55,3.05.38-1.3,1.05-2.49,1.94-3.51,4.07-5.25,10.29-8.4,16.93-8.55,1.36-.12,2.74.06,4.02.54Z"/><path class="cls-7" d="m316.34,284.23s12.99,38.4,13.36,59.98c.18,10.11-4.34,68.13-4.34,98.63l21.51,56.98h-178.5l19.55-63.87-16-115.46,23.51-27.61,120.91-8.64Z"/><path class="cls-9" d="m285.13,185.01c.24,1.84-1.02,3.54-2.86,3.83-1.77.34-3.48-.83-3.82-2.6,0-.01,0-.03,0-.04-.26-1.84,1.02-3.55,2.86-3.83,1.76-.34,3.47.81,3.82,2.57,0,.02,0,.05.01.07Z"/><path class="cls-9" d="m289.79,174.8c-.36.48-3.15-1.11-6.8-.66s-6.1,2.55-6.55,2.18c-.22-.18.11-1.03,1.19-2.02,1.44-1.28,3.25-2.08,5.17-2.28,1.9-.24,3.82.14,5.49,1.07,1.23.68,1.7,1.43,1.51,1.71Z"/><path class="cls-9" d="m249.77,188.26c.25,1.85-1.03,3.55-2.87,3.83-1.76.35-3.46-.79-3.81-2.54,0-.03-.01-.06-.02-.08-.25-1.84,1.01-3.54,2.85-3.83,1.78-.35,3.5.81,3.85,2.59,0,.01,0,.03,0,.04Z"/><path class="cls-9" d="m255.23,179.15c-.37.5-3.16-1.1-6.8-.66s-6.1,2.55-6.55,2.18c-.22-.18.11-1.02,1.19-2,1.44-1.29,3.25-2.09,5.17-2.3,1.9-.23,3.82.15,5.49,1.08,1.21.73,1.7,1.48,1.51,1.7Z"/><path class="cls-9" d="m272.74,205.96c0-.2,2.17-.85,5.79-1.76.92-.22,1.77-.5,1.85-1.15-.03-.97-.36-1.91-.94-2.69l-3.59-6.76c-5.03-9.63-8.77-17.61-8.38-17.8s4.77,7.45,9.79,17.09c1.28,2.39,2.39,4.64,3.48,6.81.72,1.05,1.05,2.33.92,3.6-.19.7-.7,1.27-1.37,1.54-.5.21-1.02.34-1.56.41-3.64.64-5.92.92-6,.71Z"/><path class="cls-2" d="m276.18,253.19c-12.41,1.66-25.04-.15-36.48-5.24,0,0,10.73,17.12,36.87,11.48l-.38-6.24Z"/><path class="cls-2" d="m273.26,214.7c-1.96-2.24-4.89-3.38-7.85-3.05-1.93.25-3.61,1.44-4.49,3.18-1.29,2.69-.16,5.91,2.53,7.2,1.39.67,3,.71,4.42.11,1.95-.9,3.66-2.26,4.98-3.96.43-.42.77-.94.98-1.51.22-.63.08-1.33-.36-1.82"/><path class="cls-9" d="m262.34,209.75c.59-.1,1.07,3.83,4.79,6.27,3.71,2.44,7.89,1.47,7.98,2.02.09.24-.84.88-2.62,1.15-2.32.31-4.66-.21-6.64-1.47-1.89-1.2-3.24-3.1-3.75-5.28-.36-1.63-.03-2.67.24-2.68Z"/><path class="cls-9" d="m256.15,165.3c-.24,1.03-3.94,1-8.15,2.02s-7.54,2.55-8.21,1.77c-.31-.4.18-1.4,1.47-2.55,3.49-2.83,8.09-3.9,12.47-2.88,1.66.47,2.55,1.15,2.42,1.65Z"/><path class="cls-9" d="m289.33,163.19c-.55.89-3.16.33-6.19.65s-5.51,1.28-6.2.42c-.31-.38,0-1.28,1.02-2.18,1.38-1.13,3.08-1.82,4.86-1.95,1.77-.18,3.56.2,5.1,1.08,1.19.73,1.63,1.53,1.4,1.98Z"/><path class="cls-7" d="m327.61,286.99s-3.83-14.43-5.1-14.43l-40.37-10.21s-13.82,15.22-30.12,13.51c-16.3-1.71-29.55-15.04-29.55-15.04l-45.01,10.74h0c-3.25.65-9.21,2.72-14.89,10.85-6.38,9.06-39.76,56.26-39.76,56.26l51.82,24.82,155.13-24.55-2.14-51.95Z"/><path class="cls-7" d="m322.51,272.56s13.76,1.4,30.63,19.26c8.75,9.32,33.05,34.84,33.05,34.84l-45.94,42.97-17.74-27.36.37-47.04-.37-22.66Z"/><path class="cls-6" d="m121.7,286.61c-.92-.74,3.11-15.47,3.11-15.47,0,0-10.68-16.53-10.96-21.86s4.21-16.26,4.21-16.26l30.63-7.46s9.84,17.32,11.79,23.45-3.37,26.93-3.37,26.93l-5.18,10.67s-15.64,11.73-30.23,0Z"/><path class="cls-6" d="m113.92,252.47c-1.2-2.09-2.28-4.24-3.23-6.46-1.93-4.36-4.31-8.64,0-11.08,1.38-.86,3.05-1.11,4.62-.7,0,0-.66-3.66,1.65-5.04,1.38-.81,3.05-.95,4.54-.38,0,0-.74-5.18,2.55-7.38,2.58-1.59,5.81-1.68,8.47-.23,0,0-2.63-22.68-2.86-23.88-.84-4.4.88-8.31,5.5-7.22,1.7.4,2.64,2.09,4.62,9.48s5.18,19.98,5.18,19.98c0,0,5.37,8.93,7.91,13.68s7.55,15.76,7.98,18.66c1.08,7.5-3.55,17.43-3.55,17.43l-32.53,1.8s-9.62-16.53-10.86-18.67Z"/><path class="cls-2" d="m115.95,235.22c.94,1.04,1.79,2.16,2.55,3.34l2.55,3.71c.53.73,1,1.51,1.4,2.32.46.91.59,1.95.38,2.95-.22,1.08-1.01,1.95-2.05,2.28-.98.24-2.02.12-2.92-.34-.76-.35-1.49-.78-2.17-1.28-.64-.43-1.28-.85-1.75-1.28-1.06-.78-1.88-1.44-2.44-1.93s-.83-.77-.8-.8,1.35.91,3.52,2.37c1.22.87,2.5,1.65,3.83,2.34.76.38,1.63.48,2.46.28.82-.27,1.43-.97,1.58-1.82.18-.86.06-1.76-.33-2.55-.36-.78-.79-1.53-1.28-2.25l-2.45-3.83c-.79-1.11-1.49-2.29-2.09-3.52Z"/><path class="cls-2" d="m142.58,237.91c-.29-1.62-.17-3.29.34-4.85.3-1.63,1-3.17,2.03-4.47.18.08-.73,2.05-1.37,4.62s-.75,4.7-1.01,4.7Z"/><path class="cls-6" d="m155.53,244.55c-3.05-2.79-6.82-4.66-10.88-5.4-4.09-.75-8.26-.9-12.39-.45-3.32.28-7.09,1.1-8.6,3.9s.32,6.62,3.25,8.29,6.56,1.72,9.97,1.43,6.85-.89,10.21-.4"/><path class="cls-2" d="m147.1,251.94s-.92-.08-2.55-.06-4.02.28-6.97.63c-1.62.2-3.26.26-4.89.2-1.9-.05-3.76-.48-5.49-1.28-1.88-.92-3.34-2.53-4.07-4.49-.38-1.03-.46-2.14-.23-3.22.28-1.12.91-2.12,1.8-2.86,1.83-1.34,3.99-2.14,6.25-2.31,2.05-.23,4.11-.35,6.18-.34,3.51-.06,7,.44,10.35,1.48,2.23.71,4.33,1.78,6.21,3.18.5.4.97.82,1.42,1.28.31.31.45.47.43.5s-.68-.6-2.02-1.52c-1.91-1.29-4-2.28-6.2-2.95-3.32-.95-6.76-1.38-10.21-1.28-2.04.01-4.08.14-6.1.38-2.12.16-4.16.91-5.88,2.16-.79.66-1.35,1.55-1.6,2.55-.2.96-.13,1.95.2,2.87.66,1.82,2,3.31,3.74,4.17,1.64.77,3.41,1.21,5.22,1.28,1.6.07,3.2.03,4.8-.11,2.33-.29,4.67-.44,7.02-.43.64.02,1.28.07,1.91.17.22-.03.44-.03.66.01Z"/><path class="cls-6" d="m116.19,235.58c3.37,5.04,6.48,10.24,9.33,15.59.7,1.61,1.83,3.01,3.27,4.03,1.28.73,4.3-.59,5.67-1.03l-9.4-20.3"/><path class="cls-2" d="m125.05,233.87c.34.47.62.98.84,1.52.54,1.1,1.28,2.55,2.08,4.25,1.74,3.61,4.13,8.68,6.79,14.41l.15.32-.34.11c-1.02.34-2.11.78-3.28,1.06-.47.11-.96.18-1.44.2-.26.01-.52-.01-.77-.08-.26-.07-.5-.18-.71-.33-.75-.51-1.39-1.17-1.89-1.93-.97-1.44-1.65-2.88-2.41-4.22-1.48-2.71-2.83-5.1-4.01-7.13s-2.16-3.61-2.85-4.72c-.39-.55-.73-1.14-1.02-1.75.47.5.9,1.04,1.28,1.61.75,1.07,1.81,2.65,3.04,4.64s2.63,4.39,4.13,7.07c.78,1.28,1.49,2.81,2.41,4.16.46.68,1.04,1.27,1.72,1.74.74.36,1.6.41,2.37.11,1.11-.27,2.17-.69,3.22-1.05l-.19.43c-2.64-5.73-4.96-10.82-6.58-14.5-.78-1.75-1.4-3.2-1.9-4.33-.26-.51-.48-1.05-.64-1.61Z"/><path class="cls-6" d="m122.52,227.83c3.03,7.2,6.05,14.39,9.06,21.58.55,1.57,1.38,3.04,2.44,4.33,1.13,1.33,2.83,2.03,4.57,1.89,2.34-.51,4.01-2.58,4.02-4.98-.07-2.28-.65-4.52-1.7-6.55-2.71-6.54-4.88-13.29-6.5-20.19"/><path class="cls-2" d="m134.41,223.91c.11.2.19.42.23.65l.54,1.91c.47,1.65,1.15,4.05,2.11,6.97s2.19,6.38,3.75,10.21c.96,1.94,1.61,4.03,1.9,6.18.09,1.18-.15,2.37-.69,3.42-.55,1.16-1.52,2.07-2.72,2.55-1.26.43-2.65.32-3.83-.29-1.08-.56-2-1.38-2.67-2.4-1.09-1.87-2-3.83-2.74-5.86-1.54-3.83-2.95-7.16-4.13-10.04-1.19-2.88-2.05-5.1-2.73-6.78l-.71-1.86c-.1-.21-.17-.43-.2-.66.14.19.25.39.33.61l.83,1.81,2.93,6.71c1.28,2.87,2.67,6.25,4.27,9.98.76,1.95,1.69,3.82,2.77,5.61.61.92,1.44,1.67,2.42,2.17,1,.53,2.17.63,3.24.26,1.04-.42,1.88-1.2,2.37-2.21.49-.96.71-2.04.63-3.11-.29-2.08-.91-4.1-1.82-5.98-1.53-3.83-2.72-7.27-3.62-10.21s-1.52-5.36-1.9-7.04c-.19-.84-.33-1.49-.42-1.94-.07-.21-.11-.43-.13-.65Z"/><path class="cls-6" d="m123.25,278.43s-20.76,58.09-21.58,60.98l41.69,13.64,14.04-78.47-34.15,3.84Z"/><path class="cls-2" d="m143.46,269.41c-.66.07-1.33-.01-1.95-.24-1.53-.44-2.94-1.21-4.13-2.26-1.17-1.02-2.1-2.29-2.72-3.71-.3-.56-.45-1.19-.42-1.82.87,1.91,2.09,3.65,3.6,5.1,1.69,1.3,3.59,2.3,5.63,2.93Z"/><path class="cls-6" d="m101.67,339.41s-6.81,16.93-6.38,28.39c.43,11.46,6.38,33.18,23.12,33.05,12.07-.06,24.16-4.85,37.08-19.65,7.17-8.22,16.23-18.98,16.23-18.98l-38.28-18.3-31.77-4.52Z"/><path class="cls-2" d="m134.67,384.23c.07-.3.19-.59.33-.87l1.06-2.44c.48-1.03.87-2.4,1.43-3.93s1.06-3.33,1.65-5.31c2.3-7.91,4.79-19.04,7.15-31.39,2.36-12.35,4.19-23.61,5.5-31.75.64-4.02,1.16-7.3,1.54-9.65.18-1.08.32-1.95.43-2.62.03-.31.1-.62.19-.92.02.31.02.62,0,.93l-.31,2.64c-.29,2.28-.74,5.6-1.28,9.69-1.2,8.15-2.97,19.42-5.32,31.8-2.35,12.38-4.94,23.49-7.34,31.39-.63,1.98-1.14,3.83-1.75,5.3s-1.02,2.88-1.54,3.92l-1.19,2.39c-.17.29-.35.56-.56.82Z"/><path class="cls-9" d="m168.38,309.35c.14.3.24.62.32.94.19.69.46,1.61.78,2.74.64,2.41,1.49,5.9,2.45,10.21,1.93,8.66,4.25,20.7,6.53,34.06s4.01,25.52,5.04,34.31c.51,4.4.85,7.98,1.05,10.45.08,1.2.13,2.14.17,2.86.02.33.02.66,0,1-.08-.32-.13-.65-.15-.98-.08-.71-.17-1.66-.29-2.85-.27-2.46-.69-6.02-1.28-10.43-1.15-8.79-2.99-20.9-5.23-34.26-2.25-13.36-4.52-25.38-6.38-34.07-.91-4.34-1.68-7.84-2.25-10.21-.27-1.15-.48-2.08-.65-2.77-.05-.33-.09-.67-.1-1.01Z"/><path class="cls-9" d="m327.51,376.51c-.03-.25-.03-.49,0-.74,0-.56.1-1.28.17-2.12.17-1.93.4-4.57.66-7.8.78-8.55,1.09-17.14.93-25.73-.15-4.72-.55-9.43-1.2-14.11-.36-2.14-.65-4.2-1.08-6.09-.22-.94-.38-1.86-.6-2.73s-.45-1.7-.65-2.55c-.38-1.61-.88-3.01-1.28-4.26s-.77-2.31-1.1-3.18-.54-1.47-.71-1.99c-.1-.23-.18-.47-.22-.71.14.2.26.43.33.66l.84,1.95c.37.85.79,1.9,1.2,3.15s.96,2.64,1.37,4.25c.23.8.46,1.63.7,2.55s.42,1.8.64,2.74c.47,1.9.78,3.96,1.16,6.11.69,4.7,1.12,9.43,1.28,14.18.17,8.62-.2,17.23-1.12,25.8-.33,3.28-.64,5.93-.88,7.77-.11.85-.22,1.56-.29,2.11,0,.25-.06.49-.14.73Z"/><path class="cls-6" d="m308.98,442.17s-2.13-5.61,2.55-6.06c2.55-.18,5.1-.23,7.66-.15,4.15.07,7.8,2.78,9.07,6.74l1.9,6.07,6.44,6.44h7.11l11.11,23.65s-9.56,8.06-15.12,5.44c-5.56-2.63-6.38-2.19-6.38-2.19,0,0-22,12.89-23.56,12.22s-4.21-3.04,0-6.67c4.21-3.64,18.89-13.77,18.89-13.77l-28,10.41s-4.66-1.08-1.99-4.64,26.21-14.52,26.21-14.52l-1.77-1.91s-22.66,8.45-24.25,7.34-5.19-3.34-1.05-6.23c4.15-2.88,24.6-11.1,24.6-11.1l-3.11-7.34-3.18-1.56s-6.5-.13-7.15-2.16Z"/><path class="cls-2" d="m350.82,463.8c-.31.08-.94-2.65-3.2-5.1-2.26-2.45-4.89-3.32-4.79-3.62s3.11.15,5.59,2.88c2.48,2.73,2.69,5.87,2.4,5.84Z"/><path class="cls-2" d="m332.52,457.09c-.26.19-1.85-2.05-4.85-3.1s-5.65-.31-5.72-.63.56-.51,1.67-.74c3-.57,6.07.51,8.05,2.83.73.88.96,1.56.84,1.63Z"/><path class="cls-2" d="m332.83,465.59c-.18.26-1.95-.79-4.35-.68s-4.11,1.28-4.3.98,1.43-1.99,4.26-2.08,4.62,1.58,4.39,1.77Z"/><path class="cls-2" d="m336.77,473.49c-.09.31-2.21-.17-4.77.22-2.56.38-4.47,1.38-4.64,1.11s1.65-1.8,4.49-2.19,5.04.61,4.93.87Z"/><path class="cls-9" d="m278.77,346.1c-.09.24-.21.48-.34.7l-1.07,1.95c-.94,1.7-2.4,4.11-4.26,7.04s-4.19,6.38-6.89,10.07-5.84,7.66-9.3,11.69c-3.46,4.03-6.94,7.66-10.21,10.94s-6.3,6.05-8.93,8.31-4.8,4.07-6.38,5.26l-1.77,1.35c-.2.17-.42.32-.65.43.17-.2.36-.38.56-.54l1.7-1.45c1.48-1.28,3.61-3.09,6.18-5.4,13.48-12.07,25.36-25.82,35.35-40.91,1.9-2.9,3.41-5.26,4.42-6.92l1.19-1.89c.12-.23.26-.45.43-.64Z"/><g class="cls-11"><path d="m276.41,350.09c-5.46,15.74-16,29.21-29.97,38.28,0,0,17.79-17.19,29.97-38.28Z"/></g><g class="cls-11"><path d="m323.37,306.79v.52c5.74,12.95,5.98,32.48,6.05,47.1,2.97-7.84,4.69-16.09,5.1-24.46.06-7.62-4.67-19.17-11.15-23.16Z"/></g><path class="cls-9" d="m185.06,270.07c-1.94,15.3-2.34,31.07-2.34,31.07h6.44l35.67-7.19c-.01-1.18.19-9.62.18-10.83h0c-.4-29.73-2.41-67.37-4.73-76.1-3.94-14.84-12.25-18.71-12.25-18.71-13.48-2.31-15.71,23.64-18.13,45.96-.86,7.87-2.95,20.94-4.84,35.8h0Z"/><path class="cls-6" d="m221.93,198.19c-.8-5.65-7.85-6.24-12.52-2.96-2.55,1.8-4.34,5.1-3.55,11.13,2.09,16.01,17.74,10.6,17.7,10.13s-.71-11.69-1.63-18.3Z"/><path class="cls-2" d="m217.87,211.06c-.08,0-.26.24-.7.51-.62.38-1.37.49-2.08.32-1.77-.4-3.55-2.9-4.01-5.77-.22-1.37-.13-2.77.26-4.1.17-1.06.85-1.96,1.82-2.41.63-.26,1.37-.03,1.74.55.28.41.22.75.31.77s.31-.32.09-.96c-.14-.38-.4-.71-.75-.92-.48-.28-1.06-.35-1.6-.2-1.29.44-2.26,1.53-2.55,2.86-.5,1.48-.63,3.05-.38,4.59.52,3.22,2.55,6.01,4.98,6.38.92.15,1.86-.13,2.55-.77.33-.46.4-.83.33-.85Z"/></g><path class="cls-8" d="m204.64,264.32c-.06-.25-.15-.58-.27-1.02-.23-.89-.57-2.24-1-3.96-.83-3.45-2.05-8.44-3.22-14.68-1.44-7.29-2.35-14.68-2.73-22.11-.48-9.11.35-18.24,2.46-27.12,2.08-8.9,5.93-17.29,11.33-24.67.65-.85,1.27-1.69,1.94-2.46s1.3-1.56,2-2.27l1.02-1.08,1.04-1.02c.68-.68,1.39-1.34,2.06-1.96,2.75-2.52,5.43-4.73,7.82-6.82,2.39-2.08,4.54-3.98,6.31-5.77.46-.44.85-.9,1.26-1.31s.79-.82,1.14-1.23l1.02-1.16.87-1.09c.57-.66,1-1.34,1.41-1.89s.71-1.04.96-1.43l.57-.9c.14-.2.21-.3.21-.3,0,0-.05.11-.18.32l-.54.91c-.24.4-.53.9-.93,1.45s-.82,1.22-1.39,1.91l-.87,1.11c-.32.37-.67.79-1.01,1.17s-.76.81-1.13,1.23-.78.87-1.23,1.32c-1.77,1.8-3.9,3.72-6.29,5.81-2.39,2.09-5.06,4.31-7.79,6.84-.68.64-1.38,1.27-2.05,1.96l-1.03,1.02-1.01,1.07c-.69.71-1.3,1.47-1.99,2.26-.69.79-1.3,1.63-1.92,2.46-5.38,7.34-9.22,15.7-11.29,24.56-2.1,8.84-2.92,17.94-2.46,27.02.37,7.42,1.25,14.81,2.65,22.11,1.15,6.23,2.33,11.22,3.13,14.68.4,1.71.72,3.05.93,3.97.1.42.16.8.24,1.04s.07.35.07.35c0,0-.05-.1-.12-.34h0Z"/></svg>