<?xml version="1.0" encoding="UTF-8"?><svg id="Ebene_1" xmlns="http://www.w3.org/2000/svg" viewBox="0 0 500 500"><defs><style>.cls-1{fill:#ebebeb;}.cls-2{fill:#eb996e;}.cls-3{fill:#f5f5f5;}.cls-4{fill:#ffad8a;}.cls-5{fill:#fff;}.cls-6{fill:#fafafa;}.cls-7{fill:#ffbe9d;}.cls-8{fill:#7e6c65;}.cls-9{fill:#e0e0e0;}.cls-10{fill:#455a64;}.cls-11{fill:#263238;}.cls-12{opacity:.3;}</style></defs><path class="cls-6" d="m181.93,216.47l1.74.96-1.76.96c-.91.49-1.67,1.24-2.17,2.14l-.96,1.74-.96-1.74c-.48-.94-1.23-1.71-2.14-2.22l-1.74-.96,1.74-.94c.93-.49,1.7-1.24,2.22-2.16l.96-1.74.94,1.76c.48.92,1.21,1.69,2.11,2.21Z"/><path class="cls-6" d="m358.65,232.95l.69.38-.69.37c-.36.2-.65.5-.86.86l-.38.69-.38-.69c-.19-.36-.49-.66-.86-.86l-.68-.39.69-.37c.36-.2.65-.5.86-.86l.38-.69.38.7c.19.36.49.66.84.86Z"/><g id="freepik--Bottle--inject-105"><rect class="cls-10" x="302.17" y="249.02" width="8.16" height="19.38"/><path class="cls-11" d="m287.55,386.69v-71.27c0-10.36,8.4-18.76,18.76-18.76h0c10.36,0,18.76,8.4,18.76,18.76h0v71.27h-37.51Z"/><rect class="cls-11" x="300.73" y="259.69" width="11.12" height="59.75"/><rect class="cls-1" x="293.01" y="320.49" width="24.32" height="47.34"/><path class="cls-10" d="m325.06,386.69s-.49-.28-1.41-.7c-1.3-.59-2.64-1.09-4-1.52-2.01-.66-4.06-1.21-6.13-1.66-2.52-.58-5.09-.91-7.68-.98-2.6-.03-5.21.16-7.78.57-2.08.34-4.12.9-6.09,1.67-1.79.77-3.53,1.66-5.2,2.68.37-.38.79-.71,1.24-.99,1.19-.81,2.47-1.51,3.8-2.07,1.99-.85,4.07-1.47,6.2-1.86,2.59-.44,5.21-.65,7.83-.62,2.62.07,5.23.42,7.78,1.03,2.08.47,4.14,1.07,6.14,1.79,1.36.47,2.69,1.04,3.97,1.71.49.23.94.55,1.32.94Z"/><path class="cls-10" d="m323.87,315.74c.17,0,.29,14.07.29,31.41s-.12,31.41-.29,31.41-.29-14.07-.29-31.41.13-31.41.29-31.41Z"/><path class="cls-10" d="m303.97,297.85c0,.1-1.47.28-3.66,1.2-5.82,2.41-9.81,7.87-10.33,14.14-.21,2.37.08,3.83,0,3.84-.13-.32-.22-.66-.24-1.01-.14-.95-.19-1.91-.13-2.87.33-6.5,4.5-12.18,10.6-14.44.89-.34,1.81-.59,2.76-.74.33-.1.67-.14,1.01-.12Z"/><path class="cls-10" d="m302.12,295.67c-.16,0-.29-7.23-.29-16.16s.13-16.16.29-16.16.29,7.23.29,16.16-.08,16.16-.29,16.16Z"/><rect class="cls-8" x="300.73" y="271.88" width="11.12" height="16.96"/><path class="cls-10" d="m308,335.51c-3.41.29-6.83.39-10.24.29-3.42.1-6.84,0-10.24-.29,3.41-.29,6.83-.38,10.24-.29,3.42-.09,6.84,0,10.24.29Z"/><rect class="cls-9" x="287.55" y="340.41" width="18.39" height="18.39"/></g><g id="freepik--Characters--inject-105"><path class="cls-11" d="m380.29,160.66c-18.78-9.17-27.94,1.11-32,6.78s-5.92,12.59-7.71,19.34c-7.92,29.84-3.82,59.43-2.22,90.26.72,14.03-8.66,28.95-10.43,42.9-.92,7.21-2.91,15.09.81,21.34,2.96,4.98,8.76,7.41,14.16,9.52l81.72,31.91-44.32-222.06Z"/><path class="cls-7" d="m348.03,184.39c2.53-12.8,18.1-23.88,30.73-20.82l40.51,13.41-1.11,6.93-13.18,89.51-46.75,12.66,1.01-32.17s-16.07-4.9-16.67-26.88c-.22-10.92,2.66-28.41,5.46-42.64Z"/><path class="cls-11" d="m349.39,200.82c-.22,1.47.76,2.85,2.22,3.13,1.44.3,2.85-.62,3.16-2.07,0-.02,0-.04.01-.06.21-1.49-.8-2.87-2.28-3.13-1.44-.28-2.83.67-3.11,2.11,0,0,0,0,0,.01Z"/><path class="cls-11" d="m350.61,194.07c.3.41,2.59-.87,5.56-.47,2.97.4,4.92,2.22,5.3,1.84.18-.14-.09-.83-.94-1.66-1.16-1.06-2.62-1.73-4.18-1.92-1.53-.2-3.09.08-4.44.82-1.03.54-1.43,1.16-1.29,1.38Z"/><path class="cls-11" d="m376.23,204.9c-.22,1.49.79,2.88,2.28,3.13,1.44.3,2.85-.62,3.16-2.06,0-.02,0-.03,0-.05.21-1.49-.79-2.88-2.28-3.14-1.43-.31-2.85.61-3.15,2.04,0,.03-.01.05-.02.08Z"/><path class="cls-11" d="m378.27,198.89c.29.4,2.58-.87,5.56-.47,2.98.4,4.93,2.22,5.3,1.84.18-.14-.08-.83-.93-1.66-1.16-1.06-2.63-1.73-4.19-1.92-1.53-.2-3.09.09-4.44.82-1.04.58-1.44,1.19-1.29,1.38Z"/><path class="cls-11" d="m365.95,219.02c0-.17-1.76-.72-4.69-1.5-.74-.18-1.43-.42-1.5-.96.04-.81.32-1.58.81-2.22.94-1.74,1.94-3.57,3-5.49,4.19-7.78,7.33-14.28,7.02-14.44s-3.97,6.03-8.17,13.84c-1.01,1.93-1.99,3.77-2.91,5.56-.6.85-.88,1.89-.79,2.92.16.57.56,1.04,1.11,1.28.4.17.82.29,1.26.34,2.97.58,4.82.84,4.86.67Z"/><path class="cls-2" d="m359.24,253.91c10.08,1.48,20.38.13,29.73-3.9,0,0-8.72,14.33-29.91,9.5l.18-5.6Z"/><path class="cls-2" d="m366.25,226.35c1.33-1.3,3.24-1.82,5.04-1.37,1.3.29,2.42,1.09,3.12,2.22.67,1.13.58,2.55-.23,3.58-1.12.96-2.7,1.14-4.01.47-1.33-.68-2.52-1.61-3.48-2.76-.31-.28-.56-.62-.73-1-.18-.37-.12-.81.16-1.11"/><path class="cls-11" d="m374.34,222.23c-.48-.1-.91,3.13-3.97,5.06-3.06,1.92-6.42,1.11-6.5,1.57-.08.2.68.73,2.11.96,1.88.28,3.8-.11,5.41-1.11,1.55-.97,2.67-2.5,3.12-4.27.34-1.34.09-2.19-.18-2.2Z"/><path class="cls-11" d="m376.63,190.14c.23.83,3.23.66,6.67,1.31s6.22,1.82,6.74,1.11c.22-.33-.21-1.11-1.29-2-2.95-2.16-6.73-2.85-10.24-1.86-1.29.44-1.94,1.03-1.88,1.43Z"/><path class="cls-11" d="m350.7,185.84c.48.76,2.82.34,5.56.68s4.93,1.11,5.56.47c.28-.31,0-1.03-.91-1.8-2.57-1.92-5.98-2.27-8.89-.92-1.12.57-1.52,1.22-1.31,1.58Z"/><path class="cls-4" d="m392.03,214.48c-.36-1.01-1.57-1.4-2.62-1.59-2.62-.46-5.28-.66-7.94-.59-1-.02-2,.12-2.96.41-.97.3-1.78.99-2.22,1.91-.39.91.33,1.9,1.11,2.49,3.33,1.68,7.27,1.11,10.93.58.93-.08,1.83-.36,2.64-.82.83-.48,1.26-1.45,1.06-2.39Z"/><path class="cls-4" d="m351.11,208.4c.07.02.14.04.2.07h.06l-.26-.07Z"/><path class="cls-4" d="m355.29,211.07c-1.04-1.24-2.42-2.15-3.98-2.6-1.12-.38-2.31-.46-3.47-.24-1.56.26-2.98,1.31-2.86,2.61.19.94.84,1.73,1.73,2.1.96.44,2,.69,3.06.74,1.6.13,3.21.03,4.79-.29.34-.04.67-.17.96-.37.6-.49.26-1.36-.23-1.96Z"/><path class="cls-11" d="m431.26,383.47c11.47-1.27,21.19-9.01,25-19.9,2.07-6.19,2-12.86,1.92-19.38-.13-10.36-.27-20.76-1.87-31-2.37-15.26-7.92-29.82-11.99-44.72-7.26-26.53-9.83-54.18-17.01-80.73-2.71-10-6.44-20.41-14.44-26.97-10.66-8.67-32.91-10.53-40.69-1.06,0,0,18.76,31.81,27.59,52.95,11.53,27.57-15.72,47.63,8.76,72.38,20.63,20.89,22.73,98.42,22.73,98.42Z"/><path class="cls-8" d="m404.14,258.43s18.46,7.92,26.31,23.46c7.33,14.44,10.48,35.12,9.57,64.21-1.06,33.5,6.32,41.19,6.32,41.19,0,0,10.09,11.71,28.77,37.6,19.97,27.66,21.46,74.73,21.46,74.73h-106.66l-27.78-122.35s-18.52-26.13-18.89-39.42c-.37-13.29,14.99-52.53,14.99-52.53l45.55-31.27.37,4.39Z"/><g class="cls-12"><path d="m395.02,345.62c-10.14,12.93-21.35,24.97-33.51,36.01h1.11c31.51-15.79,54.67-44.41,63.54-78.52-9.82,13.18-21.06,29.61-31.14,42.51Z"/></g><path class="cls-7" d="m427.68,284.22c-2.8-8.81-16.48-15.92-24.88-12.06-7.04,3.23-11.22,8.4-23.07,26.11-21.63,32.38-34.81,50.75-34.81,50.75l-78.01-35.35-7.41,11.11-7.38,12.26s65.55,42.11,76.87,46.58c9.02,3.57,17.83,7.1,25.46,4.29,7.62-2.81,15.01-12.8,24.09-22.22,7.42-7.71,23.54-24.87,31.32-36.55,6.08-9.13,10.74-13.68,15.56-24.22,3.64-8.11,4.8-12.74,2.27-20.69Z"/><path class="cls-11" d="m446.34,387.28c-.16.11-.34.21-.52.28l-1.52.68c-1.33.59-3.26,1.43-5.62,2.51-4.73,2.14-11.21,5.23-18.38,8.64-7.17,3.41-13.69,6.44-18.47,8.49-2.39,1.03-4.34,1.82-5.7,2.34l-1.57.59c-.18.09-.37.14-.57.17.16-.11.34-.2.52-.28l1.52-.68c1.33-.59,3.26-1.43,5.62-2.51,4.73-2.14,11.22-5.23,18.39-8.64s13.68-6.44,18.46-8.49c2.39-1.03,4.34-1.83,5.7-2.36l1.57-.58c.18-.09.37-.14.57-.17Z"/><path class="cls-2" d="m349.69,373.08c-.09,0,0-1.4-.1-3.62-.09-2.9-.41-5.79-.97-8.64-.58-2.84-1.37-5.64-2.39-8.36-.79-2.09-1.37-3.33-1.29-3.39s.22.28.52.82.7,1.38,1.11,2.41c1.14,2.71,2,5.52,2.58,8.4.57,2.88.84,5.81.81,8.74,0,1.11-.07,2.04-.14,2.67,0,.33-.04.65-.13.97Z"/><path class="cls-11" d="m448.06,436.53c-.39-.48-.73-.99-1.02-1.52l-2.63-4.21c-2.22-3.56-5.37-8.43-9.02-13.69s-7.12-9.91-9.68-13.23l-3.02-3.94c-.42-.46-.79-.96-1.11-1.49.45.41.86.86,1.23,1.34.78.89,1.87,2.22,3.18,3.83,2.64,3.27,6.17,7.89,9.83,13.16s6.76,10.19,8.89,13.8c1.11,1.81,1.92,3.33,2.48,4.32.34.52.63,1.07.88,1.63Z"/><path class="cls-11" d="m446.78,406.92c-.92-.55-1.8-1.16-2.63-1.83-1.6-1.17-3.84-2.74-6.41-4.34-2.57-1.6-4.96-2.92-6.67-3.86-.97-.45-1.91-.97-2.81-1.56,1.04.29,2.05.69,3,1.19,2.35,1.11,4.63,2.36,6.83,3.73,2.2,1.37,4.32,2.87,6.34,4.5.86.63,1.65,1.36,2.34,2.17Z"/><path class="cls-8" d="m376.74,297.61l41.05,24.37s25.87-33.18,2.78-48.73c-21.86-14.73-43.83,24.37-43.83,24.37Z"/><path class="cls-11" d="m417.8,321.97c-.57-.25-1.13-.54-1.66-.87l-4.44-2.54-14.44-8.61-14.44-8.6-4.38-2.6c-.55-.29-1.08-.64-1.57-1.02.58.24,1.14.51,1.68.82,1.11.57,2.59,1.4,4.44,2.44,3.76,2.1,8.89,5.09,14.53,8.47s10.7,6.48,14.36,8.74l4.31,2.71c.57.3,1.11.66,1.61,1.06Z"/><path class="cls-11" d="m395.38,275.71c.06.07-1.11,1.11-2.98,2.94-2.37,2.4-4.6,4.94-6.67,7.61-2.41,3.13-4.52,6.03-6.13,8.07-.8,1.02-1.47,1.83-1.94,2.39-.22.3-.48.58-.78.81.73-1.2,1.53-2.35,2.4-3.44,1.52-2.1,3.58-5.03,6-8.18,2.06-2.69,4.34-5.21,6.8-7.54.97-.88,1.76-1.57,2.33-2.01.29-.26.62-.47.97-.64Z"/><path class="cls-11" d="m436.99,266.29c-2.11-8.81-4.38-17.47-6.87-26.18-3.62-12.74-3.59-26.91-9.5-38.5l1.11-8.89c.7-5.43,1.37-11.11-.64-16.24-1.94-4.43-5.37-8.04-9.7-10.2-4.3-2.14-8.94-3.53-13.71-4.11-8.29-1.26-16.71-1.37-25.03-.32l-.43,1.21c4.21,9.04,8.58,18.33,15.82,25.2,3.06,2.89,6.61,5.34,8.96,8.83,2.02,3.13,3.87,6.36,5.56,9.68.39.76.71,1.55.94,2.37.56,3.01.93,6.05,1.11,9.11,0,2.13,0,4.34-.06,6.52-.29,5.18-1.67,10.25-4.06,14.86-3.11,5.8-7.97,10.42-12.22,15.41-4.26,4.99-8.19,10.78-8.69,17.33-.19,2.47.22,5.18,2.02,6.87s5,1.93,7.5,1.03c2.42-1.07,4.67-2.5,6.67-4.24,4.12-3.33,9.07-5.48,14.31-6.24,8.04-1.2,15.21,1.82,18.47,6.41,2.13,2.87,3.92,5.99,5.32,9.28.7,1.5,3.03-9.9,3.86-11.34,1.48-2.58-.04-5.09-.73-7.83Z"/><path class="cls-10" d="m431.4,217.02c-.02-.28-.02-.56,0-.84,0-.56,0-1.38-.07-2.42-.25-2.95-.96-5.84-2.1-8.58-1.73-4.04-4.11-7.76-7.07-11.01-3.68-3.93-7.78-7.46-12.22-10.5-4.68-3.33-9.29-6.29-13.33-9.26-3.59-2.58-6.93-5.48-10-8.66-2.06-2.16-3.89-4.53-5.44-7.08-.53-.91-.92-1.63-1.11-2.13-.14-.25-.26-.51-.34-.78.17.23.32.47.44.72.27.48.69,1.18,1.24,2.07,1.62,2.48,3.48,4.8,5.56,6.92,3.11,3.11,6.47,5.96,10.06,8.51,4.01,2.92,8.63,5.87,13.33,9.21,4.46,3.07,8.56,6.63,12.22,10.61,2.97,3.31,5.36,7.11,7.04,11.22,1.13,2.78,1.78,5.72,1.94,8.71.06.81.06,1.62,0,2.43-.02.29-.07.57-.16.84Z"/><path class="cls-11" d="m120.12,187.9c-1.51-8.66-2.98-17.37-2.99-26.14-.01-8.78,1.54-17.69,5.73-25.47.63-1.18,5.72-8.89,7.02-8.59.92.22-2.59,7.61-2.22,8.5,3.42,8.41,3.33,17.92,1.32,26.79-2.03,8.6-5.02,16.94-8.89,24.88"/><path class="cls-7" d="m147.4,294.21c-13.43-2.22-36.82-44.99-34.91-58.48l11.48-81.11c2.4-21.89,17.13-38.75,38.95-35.75l2,.4c20.13,3.97,33.84,22.73,31.5,43.11-2.22,18.97-4.83,39.9-6.93,49.89-4.34,20.68-25.72,19.81-25.72,19.81,0,0-.8,4.83-1.74,10.97-2.12,13.74-1.69,53.24-15.46,51.02l.83.14Z"/><path class="cls-2" d="m163.77,232.05s-13.22-1.81-25.42-13.33c0,0,3.42,16.88,24.44,19.09l.98-5.76Z"/><path class="cls-11" d="m188.97,177.12c-.3,1.61-1.83,2.69-3.44,2.42-1.59-.18-2.72-1.61-2.54-3.2,0-.04.01-.09.02-.13.3-1.61,1.83-2.68,3.44-2.42,1.59.18,2.72,1.61,2.54,3.2,0,.04-.01.09-.02.13Z"/><path class="cls-11" d="m190.2,170.64c-.44.31-2.36-1.79-5.56-2.41s-5.83.51-6.1.06c-.14-.21.37-.83,1.53-1.37,1.57-.69,3.31-.87,4.99-.52,1.66.32,3.17,1.16,4.31,2.4.84.94,1.04,1.71.82,1.84Z"/><path class="cls-11" d="m158.96,171.78c-.3,1.61-1.83,2.68-3.44,2.42-1.58-.18-2.71-1.61-2.53-3.19,0-.03,0-.05.01-.08.3-1.61,1.83-2.69,3.44-2.42,1.58.18,2.71,1.61,2.53,3.19,0,.03,0,.05-.01.08Z"/><path class="cls-11" d="m158.79,165.18c-.44.31-2.36-1.79-5.56-2.41-3.2-.62-5.83.51-6.11,0-.13-.21.38-.83,1.54-1.38,1.57-.68,3.31-.85,4.98-.51,1.66.32,3.18,1.16,4.32,2.4.88,1.04,1.08,1.8.82,1.9Z"/><path class="cls-11" d="m165.46,191.95c0-.18,2.07-.13,5.36.09.83.08,1.63.07,1.89-.47.23-.83.2-1.7-.07-2.51-.38-2.13-.77-4.35-1.19-6.67-1.63-9.44-2.66-17.22-2.24-17.22s2,7.58,3.6,17.06c.37,2.33.73,4.56,1.11,6.67.34,1.1.27,2.28-.2,3.33-.36.53-.94.87-1.58.92-.48.03-.95,0-1.42-.08-3.3-.56-5.26-.93-5.26-1.12Z"/><path class="cls-11" d="m160.89,153.26c-.59.72-3.51-.73-7.27-1.57s-7-.86-7.21-1.77c-.09-.43.69-1.04,2.14-1.44,3.87-.89,7.94.04,11.03,2.54,1.13.99,1.57,1.93,1.3,2.23Z"/><path class="cls-11" d="m190.92,163.04c-.8.6-3.27-.62-6.39-1.22s-5.87-.57-6.33-1.43c-.2-.42.34-1.11,1.63-1.54,1.75-.57,3.62-.65,5.41-.24,1.8.34,3.47,1.16,4.83,2.39.93.94,1.2,1.76.84,2.06Z"/><path class="cls-7" d="m122.64,170.29c-.32-.22-13.41-7.02-15.76,7.24-2.34,14.27,12.46,13.67,12.54,13.27s3.21-20.51,3.21-20.51Z"/><path class="cls-2" d="m115.96,184.68c0-.06-.28.13-.72.26-.63.16-1.3.06-1.87-.27-1.42-.8-2.29-3.4-1.94-5.98.16-1.23.6-2.41,1.29-3.44.42-.87,1.26-1.47,2.22-1.6.62-.06,1.19.33,1.36.92.12.42,0,.7.06.73s.34-.19.33-.8c-.02-.36-.17-.71-.41-.98-.34-.37-.82-.58-1.32-.59-1.23.04-2.35.71-2.96,1.78-.82,1.13-1.33,2.45-1.51,3.83-.39,2.89.64,5.82,2.61,6.76.74.36,1.6.36,2.33,0,.46-.28.58-.59.53-.62Z"/><path class="cls-11" d="m190.86,137.26c2.51-.91-3.27-9.48-8.54-12.93-7.99-5.23-20.72-9.67-28.99-8.66-10,1.22-18.61,4.73-24.74,12.67-6.13,7.93-9.5,17.78-10.76,27.71-.39,3.03-.57,6.23.66,9.03,1.5,3.48,5.02,6.06,4.18,10.39-.35,1.58-.06,3.23.81,4.59,2.22,3.19,5.78,1.11,7.66-1.32,4.01-5.1,5.4-11.73,6.67-18.1.91-4.52,1.81-9.14,1.21-13.72-.33-2.49-1.11-4.91-1.29-7.42s.3-5.23,2.11-6.97c.42-.37.87-.71,1.34-1,4.61-2.91,10.43-3.1,15.22-.51,7.6,4.09,20.68,10.48,24.69,8.3,5.77-3.12,7.4-5.49,7.4-5.49l2.38,3.43Z"/><path class="cls-11" d="m156.35,192.31c-.2,0-.44.77-.36,2.04.14,1.7.82,3.3,1.93,4.59,1.06,1.25,2.35,2.28,3.79,3.06,1.11.59,1.81.83,1.92.67s-.41-.74-1.3-1.54c-1.16-.97-2.24-2.02-3.24-3.14-2.27-2.6-2.28-5.69-2.74-5.67Z"/><polygon class="cls-11" points="245.11 339.61 182.45 335.55 168.69 291.06 161.81 324.6 155.26 369.53 179.01 374.04 249.8 367.15 245.11 339.61"/><path class="cls-11" d="m161.48,247.61s9.79,33.57,9.37,35.28,2.48,27.5-5.44,70.38c-7.18,38.82-15.5,71.72-15.5,71.72h-25.07s27.09-78.89,29.24-97.78c2.16-18.89,6.02-65.1,6.02-65.1l1.38-14.5Z"/><path class="cls-9" d="m133.39,238.03s13.1,13.81,18.26,17.91c2.75,2.15,6.58,2.26,9.44.27l-3.94,72.44-20.32,63.33-24.12-1.2-2.96-103.56,23.64-49.19Z"/><path class="cls-11" d="m115.8,211.84l-11.28,9.58s-17,2.22-28.6,13.01c-12.92,12.02-23.74,38.54-31.05,66.91s-15.9,73.95-19.77,87.28c-3.87,13.32-19.36,91.11-19.36,91.11l16.38,2.94.86,16.94,72.67-.29,41.23-162.67c5.14-20.91,6.95-42.5,5.38-63.98-2.68-35.28-26.46-60.83-26.46-60.83Z"/><path class="cls-10" d="m128.44,331.08v-.33l.22-.96c.21-.89.5-2.12.88-3.69s.73-3.58,1.11-5.88.82-4.92,1.11-7.84c.76-6.84.95-13.72.57-20.59-.46-8.41-1.76-16.76-3.89-24.91-1.6-6.19-3.71-12.23-6.3-18.08-.56-1.4-1.26-2.71-1.72-4.14-.54-1.41-.54-2.98,0-4.39.58-1.32,1.5-2.47,2.66-3.33,1.05-.8,2.17-1.52,3.33-2.14l.12.44-13.97-.3h-.09v-.07c-1.56-1.78-2.98-3.33-4.13-4.81-.96-1.2-1.85-2.46-2.66-3.78-.68-1.11-1.11-1.98-1.42-2.58l-.33-.69c-.04-.07-.07-.15-.09-.23,0,0,0,.07.13.21l.38.67c.32.58.81,1.44,1.5,2.51.85,1.32,1.78,2.58,2.78,3.79,1.18,1.42,2.61,2.98,4.18,4.74l-.13-.06,13.97.19h.89l-.77.43c-1.14.62-2.24,1.34-3.27,2.13-1.07.79-1.93,1.85-2.48,3.07-.49,1.3-.49,2.73,0,4.03.44,1.36,1.11,2.69,1.72,4.09,2.61,5.87,4.74,11.94,6.36,18.16,2.13,8.19,3.42,16.57,3.86,25.02.36,6.9.12,13.81-.69,20.67-.3,2.93-.8,5.56-1.18,7.87s-.89,4.26-1.26,5.87-.76,2.78-.99,3.66c-.11.39-.2.71-.28.96-.02.11-.06.21-.12.3Z"/><path class="cls-10" d="m158.43,346.96c.01-.32.05-.64.11-.96.1-.67.24-1.57.42-2.7.39-2.36.9-5.76,1.47-10s1.11-9.24,1.68-14.84c.57-5.6.92-11.78,1.11-18.27.19-6.49.24-12.67.16-18.3-.09-5.63-.34-10.68-.62-14.93s-.53-7.68-.76-10c-.1-1.14-.17-2.05-.23-2.73-.03-.32-.03-.64,0-.96.07.31.13.63.16.94.08.68.19,1.58.33,2.72.29,2.37.62,5.8.94,10,.32,4.2.59,9.31.74,14.94.16,5.63.11,11.83-.1,18.33s-.68,12.73-1.2,18.29-1.17,10.64-1.8,14.86-1.2,7.62-1.66,10c-.22,1.11-.4,2.02-.53,2.69-.05.31-.12.62-.22.91Z"/><path class="cls-10" d="m84.35,410.89v.31c0,.23-.08.53-.12.91-.13.86-.31,2.07-.53,3.61-.5,3.19-1.21,7.78-2.11,13.56v.26l-.23-.11-51.54-24.44-2.44-1.17-.29-.13.17-.28,10-17.22.12-.21.23.1c14.08,6.29,25.82,12.51,34,17.17,4.09,2.32,7.31,4.24,9.5,5.56,1.11.68,1.91,1.2,2.51,1.57l.63.41.2.14-.31-.19-.67-.38-2.53-1.46c-2.22-1.29-5.46-3.17-9.57-5.44-8.22-4.57-20-10.72-34.05-16.97l.34-.11c-3.11,5.4-6.48,11.21-10,17.23l-.13-.4,2.46,1.17,51.45,24.67-.27.14c.97-5.71,1.73-10.28,2.22-13.44.27-1.56.48-2.77.63-3.62l.18-.94c.04-.1.09-.19.16-.28Z"/><path class="cls-7" d="m216.01,329.42l13.2-5.8,7.16-17.68,5.92-7.07s8.12-3.77,10.11-4,4.07.84,4.33,2.54c.11.73.42,1.83.42,1.83,0,0,6.54-2.47,7.49,4.09,0,0,5.1.16,5.78,6.13l2.09,1.11c.98.5,1.77,1.33,2.22,2.33l2.77,6.12-2.97-1.76-4.44-.58-5.48,2.81s-8.04,15.34-13.13,17.88c-3.32,1.56-6.98,2.29-10.64,2.12l-19.7,11.61-5.12-21.71Z"/><path class="cls-2" d="m258.72,298.87c-.5.25-1.03.44-1.58.57l-3.81,1.33c-1.28.46-2.62.77-3.98.91-.57.1-1.16.05-1.7-.16.54-.12,1.09-.21,1.64-.26,1.31-.26,2.6-.61,3.86-1.06,1.49-.5,2.86-.94,3.88-1.17.54-.19,1.12-.25,1.69-.18Z"/><path class="cls-2" d="m264.69,303.33c-1.46.82-3.01,1.48-4.61,1.96-1.11.47-2.28.75-3.48.84-.96,0-1.49-.29-1.47-.34s.57.06,1.43-.07c1.14-.2,2.26-.53,3.33-.98,1.53-.66,3.14-1.13,4.79-1.41Z"/><path class="cls-2" d="m270.4,309.49c-.51.07-1.02.11-1.53.12-1.22.17-2.41.48-3.57.91-1.18.45-2.41.77-3.67.96-.53.11-1.08.08-1.59-.1.5-.14,1.01-.24,1.52-.3,1.2-.3,2.38-.67,3.54-1.11,1.19-.46,2.45-.72,3.73-.78.99,0,1.58.23,1.56.3Z"/><path class="cls-2" d="m236.37,330.1c-1.32-.93-2.54-1.99-3.64-3.17-1.25-1.02-2.43-2.13-3.51-3.33,1.45.74,2.77,1.72,3.9,2.89,1.25,1.04,2.35,2.26,3.26,3.61Z"/><path class="cls-2" d="m277.46,319.04s-.61-.33-1.7-.9-2.74-1.11-4.74-2.07h.21l-6.51,3.7.12-.12c-.6,1.19-1.27,2.43-1.99,3.68-1.29,2.22-2.64,4.32-3.92,6.18-1.1,1.67-2.3,3.27-3.58,4.8-.9,1.01-1.94,1.88-3.1,2.59-.41.28-.86.5-1.33.66,1.53-.98,2.92-2.16,4.13-3.51,1.11-1.28,2.22-2.99,3.43-4.83s2.58-3.93,3.87-6.17c.72-1.24,1.38-2.47,1.99-3.64v-.08h.09l6.53-3.6.11-.06.11.06c1.92.92,3.62,1.57,4.67,2.22.53.32.93.6,1.19.79.16.08.3.19.42.31Z"/><path class="cls-10" d="m168.97,332.5c-.16,0,.06-8.01.48-17.87.42-9.86.89-17.86,1.04-17.86s-.06,8.01-.47,17.88c-.41,9.87-.89,17.86-1.06,17.84Z"/><path class="cls-10" d="m82.7,493.11c0,.16-17.21-2.67-38.38-6.31-21.17-3.64-38.31-6.72-38.29-6.89s17.2,2.68,38.38,6.37c21.18,3.69,38.31,6.67,38.29,6.83Z"/><path class="cls-11" d="m95.46,228.92s-34.39-2.57-32.67,49.45c1.72,52.02,30.59,106.66,40.91,108.89,10.32,2.22,122.53-25.68,122.53-25.68,0,0,2.94-29.01-11.3-34.71l-45.45,8.7-1.4,1.68-36.02.32-8.66-41.54s11.21-60.67-27.94-67.11Z"/><path class="cls-10" d="m95.46,228.92s.48.08,1.39.27l1.71.36c.69.12,1.44.43,2.32.69l1.39.44,1.48.67c.51.23,1.11.46,1.61.73l1.68.98.89.51.87.63c.57.43,1.2.86,1.79,1.36l1.78,1.61c.6.56,1.11,1.23,1.73,1.87,4.62,5.29,8.19,13.41,9.78,23.24.85,5.26,1.25,10.58,1.19,15.9-.02,5.98-.51,11.96-1.46,17.87v-.08c2.6,12.42,5.56,26.44,8.69,41.54l-.23-.19,36.01-.34-.19.09c.42-.51.91-1.11,1.39-1.68l.07-.07h.09l45.47-8.71h.16c2.95,1.27,5.41,3.48,6.99,6.28,1.61,2.81,2.76,5.85,3.41,9.02,1.31,6.48,1.68,13.11,1.11,19.7v.2h-.2c-10,2.49-20.71,5.06-31.52,7.62-18.74,4.44-37.08,8.66-54.85,12.39-8.89,1.84-17.64,3.62-26.3,4.92-2.16.33-4.32.6-6.49.78-1.11.1-2.22.1-3.33,0-1.09-.25-2.11-.75-2.97-1.47-1.65-1.35-3.14-2.89-4.44-4.59-1.33-1.66-2.54-3.33-3.7-5.12-4.4-6.86-8.24-14.05-11.5-21.52-3.11-7.02-5.87-14.19-8.27-21.49-4.36-13.08-7.43-26.56-9.18-40.23-1.49-12.53-1.73-24.1.2-33.99.84-4.61,2.34-9.07,4.44-13.26,1.78-3.51,4.15-6.68,7.01-9.38,2.31-2.1,4.93-3.83,7.78-5.12,2.11-.92,4.31-1.6,6.57-2.02,1.39-.27,2.8-.42,4.21-.46.48-.03.96-.03,1.43,0h-1.43c-1.41.06-2.81.22-4.19.5-2.24.44-4.43,1.14-6.52,2.07-2.85,1.29-5.47,3.02-7.78,5.13-2.84,2.69-5.19,5.85-6.96,9.33-2.02,4.2-3.44,8.66-4.22,13.26-1.89,9.84-1.61,21.38-.1,33.88,1.77,13.64,4.86,27.08,9.22,40.13,2.39,7.28,5.16,14.43,8.28,21.43,3.25,7.44,7.09,14.61,11.48,21.43,1.11,1.73,2.36,3.44,3.68,5.08,1.3,1.65,2.79,3.14,4.44,4.44.79.66,1.72,1.13,2.72,1.37,1.05.09,2.11.09,3.17,0,2.13-.17,4.29-.43,6.44-.77,8.62-1.31,17.38-3.09,26.26-4.93,17.78-3.73,36.1-7.96,54.84-12.39,10.81-2.57,21.46-5.13,31.52-7.62l-.22.26c.58-6.52.23-13.1-1.06-19.52-.63-3.12-1.76-6.12-3.33-8.89-1.52-2.7-3.88-4.82-6.72-6.04h.16l-45.47,8.69.16-.09c-.49.58-.98,1.11-1.4,1.68l-.08.09h-.12l-36.02.3h-.19v-.19l-8.77-41.45v-.08c.95-5.88,1.45-11.82,1.49-17.78.07-5.3-.3-10.6-1.11-15.84-1.56-9.8-5.08-17.89-9.63-23.16-.6-.63-1.11-1.3-1.72-1.86l-1.74-1.62c-.59-.5-1.21-.91-1.78-1.36l-.86-.62-.88-.52-1.66-.98c-.54-.29-1.11-.51-1.61-.76l-1.47-.67-1.37-.46c-.88-.27-1.62-.59-2.31-.72l-1.7-.38c-.93-.21-1.43-.33-1.43-.33Z"/><path class="cls-10" d="m123.64,295.39c-.52-.08-1.02-.22-1.51-.41-.96-.29-2.32-.79-3.98-1.46-3.33-1.31-7.78-3.43-12.7-5.87s-9.31-4.61-12.59-6.01c-1.63-.71-2.97-1.27-3.9-1.62-.5-.16-.98-.37-1.43-.63.51.09,1.01.23,1.5.42.97.29,2.32.79,3.99,1.46,3.33,1.31,7.78,3.42,12.7,5.87,4.92,2.44,9.31,4.61,12.59,6.01,1.63.71,2.97,1.27,3.9,1.62.5.16.97.37,1.43.62Z"/><path class="cls-10" d="m98.1,267.11c.42.16.83.38,1.2.63.76.44,1.83,1.11,3.13,1.97,6.83,4.46,13.07,9.77,18.58,15.79,1.06,1.11,1.9,2.11,2.46,2.78.31.34.59.71.82,1.11-.36-.27-.7-.58-.99-.92l-2.58-2.64c-2.22-2.22-5.27-5.24-8.89-8.32s-7.1-5.62-9.64-7.41l-3.03-2.12c-.38-.25-.73-.53-1.06-.86Z"/><path class="cls-10" d="m124.84,369.3c-.16,0,1.48-7.26,3.66-16.1s4.07-16,4.21-15.97-1.48,7.24-3.66,16.1-4.06,16-4.21,15.97Z"/><path class="cls-10" d="m113.55,354.42c.13-.32.3-.62.52-.89.37-.54.93-1.31,1.67-2.22,3.86-4.78,8.46-8.91,13.63-12.22.99-.62,1.81-1.11,2.4-1.41.29-.19.6-.33.92-.43-.99.8-2.02,1.54-3.1,2.22-4.99,3.47-9.54,7.55-13.53,12.14-1.54,1.72-2.43,2.86-2.51,2.81Z"/><path class="cls-10" d="m163.76,361.56c-.08-.06.77-1.11,1.98-2.93,1.58-2.36,2.95-4.85,4.09-7.46,1.12-2.61,2.02-5.31,2.68-8.08.5-2.12.7-3.47.8-3.46.04.32.04.64,0,.96-.08.87-.2,1.73-.37,2.59-1.09,5.66-3.42,11.02-6.82,15.68-.66.89-1.22,1.58-1.63,2.03s-.69.7-.72.67Z"/><path class="cls-6" d="m101.43,386.75h291.87c5.4,0,9.93,4.06,10.53,9.42l12.03,103.44H80.59l15.31-108.24c.48-2.67,2.81-4.62,5.52-4.62Z"/><path class="cls-11" d="m101.43,386.75h-.51c-.5.06-1,.18-1.48.36-.78.3-1.48.78-2.06,1.39-.8.84-1.31,1.92-1.47,3.07-.72,5.23-1.8,12.96-3.19,22.93-2.8,20-6.87,48.95-11.94,85.09l-.19-.22,314.78-.09h20.49l-.28.32c-3.33-28.48-6.54-56.22-9.64-82.96-.78-6.67-1.55-13.29-2.31-19.87-.2-3.26-1.92-6.24-4.63-8.04-1.33-.89-2.85-1.45-4.44-1.64-.8-.08-1.6-.11-2.4-.09h-171.03l-87.69-.09h-32.04,8.27l23.78-.06,87.69-.09,130.7-.07h40.33c.82-.02,1.65.01,2.47.1,1.67.2,3.26.79,4.66,1.72,2.85,1.9,4.65,5.02,4.87,8.43.74,6.56,1.51,13.18,2.32,19.87,3.11,26.74,6.34,54.44,9.66,82.96v.32h-20.74l-314.78-.1h-.23v-.22c5.14-36.12,9.28-65.1,12.12-85.06,1.43-10,2.54-17.69,3.33-22.92.16-1.17.69-2.25,1.51-3.1.58-.61,1.3-1.08,2.09-1.38.48-.18.98-.29,1.49-.33l.52-.22Z"/><path class="cls-9" d="m211.01,399.07c5.56,29.28-1.31,59.67-12.48,87.29l11.7-87.56"/><path class="cls-11" d="m177.68,488.84c-.16,0,4.23-19.64,9.81-43.78s10.23-43.68,10.39-43.64-4.24,19.63-9.82,43.78-10.18,43.68-10.38,43.64Z"/><path class="cls-11" d="m200.8,468.34c-.16,0,1.92-15.87,4.64-35.38,2.72-19.51,5.06-35.31,5.21-35.29s-1.91,15.86-4.64,35.38c-2.73,19.52-5,35.31-5.21,35.29Z"/><path class="cls-11" d="m244.35,476.97c-.16,0,.4-16.8,1.24-37.51.84-20.71,1.68-37.49,1.83-37.48s-.4,16.79-1.26,37.5c-.86,20.71-1.7,37.49-1.82,37.49Z"/><path class="cls-9" d="m267.45,409.62c-.59-3.36-1.4-6.67-2.43-9.92l.68,48.82c-.27,6.36-.54,12.7-.81,19.04l-.9,21.23c7.16-25.78,8.35-52.86,3.47-79.18Z"/><path class="cls-11" d="m263.98,493.83c-.03-.33-.03-.66,0-.99,0-.71.07-1.66.11-2.86.08-2.52.19-6.09.33-10.48.24-8.89.46-21.11.53-34.57s0-25.73-.21-34.58c-.1-4.44-.21-8.01-.3-10.48,0-1.2-.08-2.14-.11-2.84s0-1,0-1c.07.33.11.66.12.99,0,.7.12,1.64.21,2.84.16,2.47.33,6.04.48,10.48.31,8.89.44,21.11.39,34.59-.06,13.48-.34,25.73-.7,34.59-.18,4.44-.37,8-.52,10.47-.09,1.2-.17,2.14-.21,2.84-.02.33-.06.66-.12.99Z"/><path class="cls-11" d="m297.36,455.89c-.16,0-.93-13.02-1.74-29.1-.81-16.08-1.32-29.12-1.11-29.12s.93,13.01,1.73,29.1,1.29,29.12,1.12,29.12Z"/><path class="cls-9" d="m306.17,409.31c8.58,25.38,11.79,52.27,9.42,78.95-3.22-27.02-6.44-54.04-9.66-81.05"/><path class="cls-11" d="m309.21,430.58c-.16,0-1.38-6.67-2.72-15.04s-2.3-15.11-2.14-15.13,1.38,6.67,2.72,15.04c1.34,8.38,2.3,15.1,2.14,15.13Z"/></g><g id="freepik--Glasses--inject-105"><path class="cls-3" d="m215.79,386.12l-14.26-3.2s-.08-17.82.13-20.39c.18-1.61.97-3.09,2.21-4.13h0c4.26-2.28,9.01-7.1,10.65-11.02,3.32-7.87,0-19.93,0-19.93h-31.62s-3.32,12.05,0,19.93c1.73,4.15,6.8,8.86,11.25,10.99h0c1.41,1.01,2.34,2.56,2.58,4.27.13,2.58.41,20.45.41,20.45l-14.19,3.32c-.16.02-.27.16-.25.32.02.16.16.27.32.25h32.66c.34.01.43-.8.1-.87Z"/><path class="cls-11" d="m215.79,386.12s.11,0,.18.14c.1.22.07.47-.06.66-.05.07-.13.12-.22.13h-2.38l-9.97.07h-20.16c-.13,0-.26-.01-.38-.06-.16-.07-.27-.23-.29-.4-.01-.18.07-.36.21-.47.11-.06.23-.1.35-.12l1.2-.28,2.43-.58,10.38-2.47-.19.24c-.08-3.89-.17-7.98-.25-12.26-.06-2.15-.11-4.33-.14-6.56v-1.67c-.04-.53-.18-1.05-.4-1.53-.48-.99-1.19-1.85-2.07-2.5l-.41-.3.47-.18h0v.5c-2.44-1.24-4.68-2.84-6.64-4.75-2.14-1.92-3.82-4.31-4.91-6.98-.95-2.8-1.38-5.75-1.26-8.7.06-3.01.4-6,1.03-8.95.13-.62.27-1.23.43-1.85v-.21h16.7v.29h0l-.29-.29h15.67l.06.2c.79,3.17,1.27,6.41,1.42,9.68.2,3.11-.15,6.23-1.03,9.22-.45,1.43-1.13,2.78-2,4-.83,1.18-1.75,2.29-2.76,3.32-1.88,1.98-4.05,3.66-6.43,4.98h0c-.94.78-1.63,1.81-1.99,2.97-.22,1.16-.31,2.34-.28,3.52,0,2.34-.03,4.56-.08,6.64v11.19l-.11-.13,10.58,2.44,2.74.65c.62.14.92.24.92.24,0,0-.32,0-.93-.17l-2.76-.59-10.61-2.3h-.11v-19.72c0-.62.08-1.25.24-1.85.39-1.25,1.12-2.35,2.13-3.19h0c2.34-1.32,4.46-2.98,6.3-4.93.99-1.01,1.89-2.1,2.69-3.27.85-1.18,1.5-2.49,1.94-3.88.85-2.94,1.18-6,.97-9.05-.15-3.22-.63-6.43-1.42-9.56l.27.2h-15.73v-.28h0l.28.28h-16.19l.28-.22c-.16.6-.3,1.22-.42,1.83-.62,2.91-.96,5.88-1.02,8.86-.12,2.88.29,5.76,1.22,8.49,1.05,2.59,2.68,4.9,4.76,6.77,1.94,1.88,4.15,3.46,6.56,4.67l.58.28-.6.22h0v-.48c.95.71,1.71,1.65,2.21,2.72.25.54.4,1.12.44,1.72v1.68c0,2.21.09,4.43.12,6.56.08,4.29.16,8.38.22,12.27v.19h-.19l-10.38,2.43-2.44.56-1.1.3c-.27.07-.23,0-.24.13s0,.08.24.08h4.65l15.5.06,9.97.07h2.12c.19,0,.35,0,.43-.09.12-.18.15-.41.08-.61-.03-.03-.08-.06-.12-.07Z"/><path class="cls-8" d="m199.18,340.43h-15.73s.45,12.88,15.5,17.49l.34-.1c8.15-2.21,14.16-9.14,15.19-17.52l-15.32.13Z"/><path class="cls-5" d="m186.03,346.16c-.51-.64-.88-1.37-1.11-2.15-.67-1.85-1.07-3.78-1.2-5.74-.15-1.95-.09-3.9.17-5.84.05-.81.23-1.61.52-2.37.19,0-.45,3.68-.11,8.16.13,1.91.47,3.81,1.01,5.65.41,1.41.8,2.24.72,2.28Z"/><path class="cls-5" d="m213.06,342.67c-.04.86-.24,1.7-.58,2.49-.71,1.94-1.77,3.74-3.13,5.3-1.36,1.56-2.99,2.86-4.82,3.82-.74.44-1.55.75-2.39.91,0-.09.86-.45,2.21-1.26,3.45-2.09,6.16-5.22,7.75-8.93.28-.8.59-1.58.95-2.34Z"/><path class="cls-5" d="m213.16,334.56c.48,1.04.72,2.18.71,3.32.17,1.14.08,2.31-.27,3.41-.21-1.09-.32-2.21-.31-3.32-.18-1.13-.22-2.27-.13-3.41Z"/><path class="cls-5" d="m190.64,351.34c-.11.11-.53-.12-.93-.53s-.64-.82-.53-.93.53.12.94.52.64.83.52.94Z"/><g class="cls-12"><path d="m203.87,354.86c-2.17.66-4.49.62-6.64-.1-2.15-.72-4.23-1.64-6.21-2.76-.73-.39-1.72-.74-2.33-.17,2.08,2.12,4.55,3.82,7.28,4.99.96.45,1.94.82,2.96,1.11,0,0,1.17-.33,2.15-.68,2.51-.93,4.82-2.31,6.82-4.09-1.31.64-2.65,1.2-4.02,1.68Z"/></g></g><g id="freepik--Glasses--inject-105-2"><path class="cls-3" d="m316.8,386.14l-14.26-3.2s-.08-17.82.13-20.39c.18-1.61.97-3.09,2.21-4.13h0c4.26-2.28,9.01-7.1,10.65-11.02,3.32-7.87,0-19.93,0-19.93h-31.62s-3.32,12.05,0,19.93c1.73,4.15,6.8,8.86,11.25,10.99h0c1.41,1.01,2.34,2.56,2.58,4.27.13,2.58.41,20.45.41,20.45l-14.19,3.32c-.16.02-.27.16-.25.32.02.16.16.27.32.25h32.66c.34.01.43-.8.1-.87Z"/><path class="cls-11" d="m316.8,386.14s.11,0,.18.14c.1.22.07.47-.06.66-.05.07-.13.12-.22.13h-2.38l-9.97.07h-20.16c-.13,0-.26-.01-.38-.06-.16-.07-.27-.23-.29-.4-.01-.18.07-.36.21-.47.11-.06.23-.1.35-.12l1.2-.28,2.43-.58,10.38-2.47-.19.24c-.08-3.89-.17-7.98-.25-12.26-.06-2.15-.11-4.33-.14-6.56v-1.67c-.04-.53-.18-1.05-.4-1.53-.48-.99-1.19-1.85-2.07-2.5l-.41-.3.47-.18h0v.5c-2.44-1.24-4.68-2.84-6.64-4.75-2.14-1.92-3.82-4.31-4.91-6.98-.95-2.8-1.38-5.75-1.26-8.7.06-3.01.4-6,1.03-8.95.13-.62.27-1.23.43-1.85v-.21h16.7v.29h0l-.29-.29h15.67l.06.2c.79,3.17,1.27,6.41,1.42,9.68.2,3.11-.15,6.23-1.03,9.22-.45,1.43-1.13,2.78-2,4-.83,1.18-1.75,2.29-2.76,3.32-1.88,1.98-4.05,3.66-6.43,4.98h0c-.94.78-1.63,1.81-1.99,2.97-.22,1.16-.31,2.34-.28,3.52,0,2.34-.03,4.56-.08,6.64v11.19l-.11-.13,10.58,2.44,2.74.65c.62.14.92.24.92.24,0,0-.32,0-.93-.17l-2.76-.59-10.61-2.3h-.11v-19.72c0-.62.08-1.25.24-1.85.39-1.25,1.12-2.35,2.13-3.19h0c2.34-1.32,4.46-2.98,6.3-4.93.99-1.01,1.89-2.1,2.69-3.27.85-1.18,1.5-2.49,1.94-3.88.85-2.94,1.18-6,.97-9.05-.15-3.22-.63-6.43-1.42-9.56l.27.2h-15.73v-.28h0l.28.28h-16.19l.28-.22c-.16.6-.3,1.22-.42,1.83-.62,2.91-.96,5.88-1.02,8.86-.12,2.88.29,5.76,1.22,8.49,1.05,2.59,2.68,4.9,4.76,6.77,1.94,1.88,4.15,3.46,6.56,4.67l.58.28-.6.22h0v-.48c.95.71,1.71,1.65,2.21,2.72.25.54.4,1.12.44,1.72v1.68c0,2.21.09,4.43.12,6.56.08,4.29.16,8.38.22,12.27v.19h-.19l-10.38,2.43-2.44.56-1.1.3c-.27.07-.23,0-.24.13s0,.08.24.08h4.65l15.5.06,9.97.07h2.12c.19,0,.35,0,.43-.09.12-.18.15-.41.08-.61-.03-.03-.08-.06-.12-.07Z"/><path class="cls-8" d="m300.19,340.45h-15.73s.45,12.88,15.5,17.49l.34-.1c8.15-2.21,14.16-9.14,15.19-17.52l-15.32.13Z"/><path class="cls-5" d="m287.04,346.17c-.51-.64-.88-1.37-1.11-2.15-.67-1.85-1.07-3.78-1.2-5.74-.15-1.95-.09-3.9.17-5.84.05-.81.23-1.61.52-2.37.19,0-.45,3.68-.11,8.16.13,1.91.47,3.81,1.01,5.65.41,1.41.8,2.24.72,2.28Z"/><path class="cls-5" d="m314.07,342.68c-.04.86-.24,1.7-.58,2.49-.71,1.94-1.77,3.74-3.13,5.3-1.36,1.56-2.99,2.86-4.82,3.82-.74.44-1.55.75-2.39.91,0-.09.86-.45,2.21-1.26,3.45-2.09,6.16-5.22,7.75-8.93.28-.8.59-1.58.95-2.34Z"/><path class="cls-5" d="m314.17,334.58c.48,1.04.72,2.18.71,3.32.17,1.14.08,2.31-.27,3.41-.21-1.09-.32-2.21-.31-3.32-.18-1.13-.22-2.27-.13-3.41Z"/><path class="cls-5" d="m291.65,351.35c-.11.11-.53-.12-.93-.53s-.64-.82-.53-.93.53.12.94.52.64.83.52.94Z"/><g class="cls-12"><path d="m304.88,354.88c-2.17.66-4.49.62-6.64-.1-2.15-.72-4.23-1.64-6.21-2.76-.73-.39-1.72-.74-2.33-.17,2.08,2.12,4.55,3.82,7.28,4.99.96.45,1.94.82,2.96,1.11,0,0,1.17-.33,2.15-.68,2.51-.93,4.82-2.31,6.82-4.09-1.31.64-2.65,1.2-4.02,1.68Z"/></g></g></svg>