<?xml version="1.0" encoding="UTF-8"?><svg id="Ebene_1" xmlns="http://www.w3.org/2000/svg" viewBox="0 0 1000 1000"><defs><style>.cls-1{fill:#ebebeb;}.cls-2{fill:#e4977c;}.cls-3{fill:#fff;}.cls-4{fill:#ffbea9;}.cls-5{fill:#fafafa;}.cls-6{fill:#7e6c65;}.cls-7{fill:#e0e0e0;}.cls-8{fill:#455a64;}.cls-9{fill:#263238;}.cls-10{opacity:.6;}</style></defs><rect class="cls-8" x="86.05" y="321.71" width="834.67" height="586.54"/><rect class="cls-9" x="54.6" y="300.58" width="890.81" height="24.66"/><path class="cls-9" d="m652.04,885.45h-219.51V342.22h219.51v543.22Zm-217.51-2h215.51V344.22h-215.51v539.23Z"/><rect class="cls-5" x="442.28" y="352.57" width="199.1" height="521.55"/><polygon class="cls-3" points="641.38 382.95 442.28 564.43 442.28 597.2 641.38 414.34 641.38 382.95"/><path class="cls-9" d="m650.96,672.19h-24.78c-11.03,0-19.97-8.94-19.97-19.97v-102.59c0-11.03,8.94-19.97,19.97-19.97h24.78v5.99h-24.78c-7.72,0-13.98,6.26-13.98,13.98v102.61c0,7.72,6.26,13.98,13.98,13.98h24.78v5.97Z"/><path class="cls-3" d="m461.83,482.02c-.06,1.1-1,1.95-2.1,1.89-1.1-.06-1.95-1-1.89-2.1.05-1.02.87-1.84,1.89-1.89,1.1-.06,2.04.79,2.1,1.89,0,.07,0,.14,0,.2Z"/><path class="cls-3" d="m624.82,482.02c-.06,1.1-.99,1.95-2.09,1.89s-1.95-.99-1.89-2.09c.05-1.06.93-1.9,1.99-1.9,1.1,0,2,.89,2,1.99,0,.03,0,.07,0,.1Z"/><rect class="cls-8" x="79.26" y="168.87" width="841.46" height="131.71"/><rect class="cls-9" x="79.26" y="208.86" width="47.73" height="22.87"/><rect class="cls-9" x="179.36" y="171.91" width="47.73" height="22.87"/><rect class="cls-9" x="740.22" y="235.78" width="47.73" height="22.87"/><path class="cls-9" d="m144.47,254.35v-6.25c0-3.99-.12-9.69-.22-16.62l.38.4-47.73.14.52-.52h0v22.81l-.5-.5,34.15.24,9.99.14h3.65c-.28.03-.56.03-.84,0h-2.6l-9.83.14-34.47.24h-.48v-23.03h0c-.12.1.98-1,.52-.54l47.73.14h.4v.38c-.1,7.03-.16,12.74-.22,16.86v4.49c-.1.51-.26,1-.46,1.48Z"/><rect class="cls-9" x="855.01" y="190.42" width="47.73" height="22.87"/><path class="cls-9" d="m920.72,236.16c-.03-.55-.03-1.11,0-1.66v-4.59c0-3.99-.12-9.69-.2-16.62l.38.38-47.73.14.52-.52h0v22.83l-.5-.5,34.13.24,9.99.14h3.65c-.28.03-.56.03-.84,0h-2.6l-9.83.14-34.47.22h-.76v-23.33h0l.52-.52,47.73.14h.4v.38c0,7.01-.14,12.74-.2,16.84v4.51c-.02.6-.08,1.19-.2,1.78Z"/><path class="cls-9" d="m858.33,287.86c-.04-.55-.04-1.11,0-1.66v-4.59c0-3.99-.12-9.69-.22-16.62l.4.4-47.73.12.5-.5h0v22.85l-.5-.5,34.15.24,9.99.14h3.65c-.29.03-.57.03-.86,0h-2.58l-9.85.14-34.73.42h-.48v-23.39h0l.54-.54,47.73.14h.38v.38c-.1,7.03-.16,12.74-.2,16.86v4.49c0,1.14-.18,1.64-.2,1.62Z"/><path class="cls-9" d="m767.7,191.72v-6.25c0-3.99-.12-9.69-.22-16.6l.38.38-47.73.14.52-.52h0v22.81l-.5-.48,34.15.24,9.99.12h3.63c-.28.03-.56.03-.84,0h-2.6l-9.83.12-34.47.24h-.48v-23.37h0c-.1.12,1-.98.52-.52l47.73.14h.4v.38c-.1,7.01-.16,12.74-.22,16.84v4.51c-.07.62-.22,1.23-.44,1.82Z"/><path class="cls-9" d="m279.72,254.35c-.09-.58-.13-1.16-.12-1.74v-4.67c-.1-3.99-.2-9.69-.24-16.46l.46.46h-23.87c-.12,0,.98-1,.5-.52h0v22.79l-.46-.46c7.05,0,12.96.16,17.16.24l4.91.12c.61-.04,1.21-.04,1.82,0-.54.09-1.09.13-1.64.1l-4.79.12c-4.17,0-10.21.2-17.46.24h-.64v-23.03h0l.54-.54h24.31v.44c0,6.97-.14,12.74-.24,16.74,0,1.86,0,3.38-.1,4.59-.01.53-.06,1.06-.14,1.58Z"/><path class="cls-9" d="m278.3,277.18c-.03-.55-.03-1.11,0-1.66v-4.59c0-3.99-.12-9.69-.2-16.62l.38.38-47.73.14.52-.52h0v22.89l-.48-.5,34.13.24,9.99.14h3.65c-.29.03-.57.03-.86,0h-2.58l-9.83.14-34.47.22h-.5v-23.09h0l.52-.52,47.73.14h.38v.38c0,7.01-.16,12.74-.2,16.84,0,1.88,0,3.38-.1,4.51-.08.5-.2.99-.36,1.48Z"/><rect class="cls-3" x="675.99" y="342.76" width="213.43" height="541.17"/><rect class="cls-3" x="114.41" y="343.3" width="303.87" height="541.17"/><path class="cls-9" d="m156.75,468.66v25.96h6.73s-11.2,9.25-12.16,17.97h39.94s0-6.61-12.22-17.81h6.73v-26.12h-29.02Z"/><path class="cls-9" d="m171.35,479.69c-.28,0-.52-30.8-.52-68.73s.24-68.73.52-68.73.52,30.75.52,68.73-.22,68.73-.52,68.73Z"/><path class="cls-9" d="m153.28,535.57c.64-2.78,1.63-5.46,2.94-7.99.99-2.7,2.3-5.26,3.89-7.65-.66,2.77-1.64,5.45-2.94,7.99-1,2.69-2.3,5.26-3.89,7.65Z"/><path class="cls-9" d="m170.25,543c-.51-3.83-.69-7.7-.52-11.56-.17-3.86,0-7.73.52-11.56.53,3.83.7,7.7.52,11.56.18,3.86,0,7.73-.52,11.56Z"/><path class="cls-9" d="m189.44,531.53c-1.87-1.58-3.52-3.41-4.89-5.43-1.6-1.8-2.94-3.82-3.99-5.99,3.52,3.39,6.54,7.26,8.97,11.5l-.08-.08Z"/><path class="cls-9" d="m247.14,468.66v25.96h6.81s-11.18,9.25-12.16,17.97h39.94s0-6.61-12.2-17.81h6.71v-26.12h-29.1Z"/><path class="cls-9" d="m261.74,479.69c-.28,0-.52-30.8-.52-68.73s.24-68.73.52-68.73.52,30.75.52,68.73-.22,68.73-.52,68.73Z"/><path class="cls-9" d="m243.67,535.57c.65-2.77,1.64-5.45,2.94-7.99.99-2.7,2.3-5.26,3.89-7.65-.65,2.77-1.63,5.46-2.94,7.99-1,2.69-2.3,5.26-3.89,7.65Z"/><path class="cls-9" d="m260.64,543c-.51-3.83-.69-7.7-.52-11.56-.17-3.86,0-7.73.52-11.56.53,3.83.7,7.7.52,11.56.18,3.86,0,7.73-.52,11.56Z"/><path class="cls-9" d="m279.83,531.53c-1.87-1.58-3.52-3.41-4.89-5.43-1.6-1.8-2.94-3.82-3.99-5.99,3.52,3.39,6.54,7.26,8.97,11.5l-.08-.08Z"/><path class="cls-9" d="m337.53,468.66v25.96h6.81s-11.18,9.25-12.16,17.97h39.94s0-6.61-12.2-17.81h6.73v-26.12h-29.12Z"/><path class="cls-9" d="m352.13,479.69c-.28,0-.52-30.8-.52-68.73s.24-68.73.52-68.73.52,30.75.52,68.73-.22,68.73-.52,68.73Z"/><path class="cls-9" d="m334.06,535.57c.66-2.77,1.65-5.45,2.94-7.99,1-2.71,2.35-5.28,3.99-7.65-.67,2.77-1.66,5.45-2.96,7.99-1.02,2.7-2.36,5.26-3.97,7.65Z"/><path class="cls-9" d="m351.03,543c-.51-3.83-.69-7.7-.52-11.56-.17-3.86,0-7.73.52-11.56.53,3.83.7,7.7.52,11.56.18,3.86,0,7.73-.52,11.56Z"/><path class="cls-9" d="m370.23,531.53c-1.87-1.58-3.52-3.41-4.89-5.43-1.6-1.8-2.94-3.82-3.99-5.99,3.52,3.39,6.54,7.26,8.97,11.5l-.08-.08Z"/><rect class="cls-8" x="99.17" y="689.8" width="325.91" height="25.38"/><g id="freepik--Bottle--inject-105"><rect class="cls-8" x="174.74" y="573.09" width="7.25" height="17.22"/><path class="cls-9" d="m161.75,695.46v-63.34c0-9.21,7.46-16.67,16.67-16.67h0c9.21,0,16.67,7.46,16.67,16.67h0v63.34h-33.34Z"/><rect class="cls-9" x="173.47" y="582.57" width="9.89" height="53.11"/><rect class="cls-1" x="166.61" y="636.61" width="21.62" height="42.08"/><path class="cls-8" d="m195.09,695.46s-.43-.25-1.25-.62c-1.16-.52-2.35-.97-3.56-1.35-1.79-.59-3.61-1.08-5.45-1.47-2.24-.52-4.53-.81-6.83-.87-2.31-.03-4.63.14-6.91.51-1.85.31-3.66.8-5.41,1.48-1.59.68-3.14,1.48-4.62,2.38.33-.34.7-.63,1.1-.88,1.06-.73,2.19-1.34,3.38-1.84,1.77-.76,3.62-1.31,5.51-1.65,2.3-.39,4.63-.58,6.96-.55,2.33.06,4.65.37,6.91.92,1.85.41,3.67.95,5.46,1.59,1.21.42,2.39.92,3.53,1.52.44.2.84.49,1.18.84h0Z"/><path class="cls-8" d="m194.03,632.4c.15,0,.26,12.5.26,27.92s-.11,27.92-.26,27.92-.26-12.5-.26-27.92.12-27.92.26-27.92Z"/><path class="cls-8" d="m176.35,616.5c0,.09-1.3.25-3.25,1.07-5.18,2.14-8.72,6.99-9.19,12.57-.19,2.1.07,3.41,0,3.42-.12-.29-.19-.59-.22-.9-.13-.84-.16-1.7-.12-2.55.29-5.78,4-10.83,9.42-12.84.79-.3,1.61-.53,2.45-.66.29-.09.59-.12.9-.11h0Z"/><path class="cls-8" d="m174.71,614.56c-.14,0-.26-6.43-.26-14.36s.12-14.36.26-14.36.26,6.43.26,14.36-.07,14.36-.26,14.36Z"/><rect class="cls-6" x="173.47" y="593.4" width="9.89" height="15.07"/><path class="cls-8" d="m179.93,649.96c-3.03.26-6.07.35-9.1.26-3.04.09-6.08,0-9.1-.26,3.03-.26,6.07-.34,9.1-.26,3.04-.08,6.08,0,9.1.26Z"/><rect class="cls-7" x="161.75" y="654.32" width="16.34" height="16.34"/></g><g id="freepik--Bottle--inject-105-2"><rect class="cls-8" x="256.88" y="573.09" width="7.25" height="17.22"/><path class="cls-9" d="m243.88,695.46v-63.34c0-9.21,7.46-16.67,16.67-16.67h0c9.21,0,16.67,7.46,16.67,16.67h0v63.34h-33.34Z"/><rect class="cls-9" x="255.6" y="582.57" width="9.89" height="53.11"/><rect class="cls-1" x="248.74" y="636.61" width="21.62" height="42.08"/><path class="cls-8" d="m277.22,695.46s-.43-.25-1.25-.62c-1.16-.52-2.35-.97-3.56-1.35-1.79-.59-3.61-1.08-5.45-1.47-2.24-.52-4.53-.81-6.83-.87-2.31-.03-4.63.14-6.91.51-1.85.31-3.66.8-5.41,1.48-1.59.68-3.14,1.48-4.62,2.38.33-.34.7-.63,1.1-.88,1.06-.73,2.19-1.34,3.38-1.84,1.77-.76,3.62-1.31,5.51-1.65,2.3-.39,4.63-.58,6.96-.55,2.33.06,4.65.37,6.91.92,1.85.41,3.67.95,5.46,1.59,1.21.42,2.39.92,3.53,1.52.44.2.84.49,1.18.84h0Z"/><path class="cls-8" d="m276.16,632.4c.15,0,.26,12.5.26,27.92s-.11,27.92-.26,27.92-.26-12.5-.26-27.92.12-27.92.26-27.92Z"/><path class="cls-8" d="m258.48,616.5c0,.09-1.3.25-3.25,1.07-5.18,2.14-8.72,6.99-9.19,12.57-.19,2.1.07,3.41,0,3.42-.12-.29-.19-.59-.22-.9-.13-.84-.16-1.7-.12-2.55.29-5.78,4-10.83,9.42-12.84.79-.3,1.61-.53,2.45-.66.29-.09.59-.12.9-.11h0Z"/><path class="cls-8" d="m256.84,614.56c-.14,0-.26-6.43-.26-14.36s.12-14.36.26-14.36.26,6.43.26,14.36-.07,14.36-.26,14.36Z"/><rect class="cls-6" x="255.6" y="593.4" width="9.89" height="15.07"/><path class="cls-8" d="m262.06,649.96c-3.03.26-6.07.35-9.1.26-3.04.09-6.08,0-9.1-.26,3.03-.26,6.07-.34,9.1-.26,3.04-.08,6.08,0,9.1.26Z"/><rect class="cls-7" x="243.88" y="654.32" width="16.34" height="16.34"/></g><g id="freepik--Bottle--inject-105-3"><rect class="cls-8" x="339.01" y="573.09" width="7.25" height="17.22"/><path class="cls-9" d="m326.02,695.46v-63.34c0-9.21,7.46-16.67,16.67-16.67h0c9.21,0,16.67,7.46,16.67,16.67h0v63.34h-33.34Z"/><rect class="cls-9" x="337.74" y="582.57" width="9.89" height="53.11"/><rect class="cls-1" x="330.88" y="636.61" width="21.62" height="42.08"/><path class="cls-8" d="m359.35,695.46s-.43-.25-1.25-.62c-1.16-.52-2.35-.97-3.56-1.35-1.79-.59-3.61-1.08-5.45-1.47-2.24-.52-4.53-.81-6.83-.87-2.31-.03-4.63.14-6.91.51-1.85.31-3.66.8-5.41,1.48-1.59.68-3.14,1.48-4.62,2.38.33-.34.7-.63,1.1-.88,1.06-.73,2.19-1.34,3.38-1.84,1.77-.76,3.62-1.31,5.51-1.65,2.3-.39,4.63-.58,6.96-.55,2.33.06,4.65.37,6.91.92,1.85.41,3.67.95,5.46,1.59,1.21.42,2.39.92,3.53,1.52.44.2.84.49,1.18.84h0Z"/><path class="cls-8" d="m358.3,632.4c.15,0,.26,12.5.26,27.92s-.11,27.92-.26,27.92-.26-12.5-.26-27.92.12-27.92.26-27.92Z"/><path class="cls-8" d="m340.61,616.5c0,.09-1.3.25-3.25,1.07-5.18,2.14-8.72,6.99-9.19,12.57-.19,2.1.07,3.41,0,3.42-.12-.29-.19-.59-.22-.9-.13-.84-.16-1.7-.12-2.55.29-5.78,4-10.83,9.42-12.84.79-.3,1.61-.53,2.45-.66.29-.09.59-.12.9-.11h0Z"/><path class="cls-8" d="m338.97,614.56c-.14,0-.26-6.43-.26-14.36s.12-14.36.26-14.36.26,6.43.26,14.36-.07,14.36-.26,14.36Z"/><rect class="cls-6" x="337.74" y="593.4" width="9.89" height="15.07"/><path class="cls-8" d="m344.19,649.96c-3.03.26-6.07.35-9.1.26-3.04.09-6.08,0-9.1-.26,3.03-.26,6.07-.34,9.1-.26,3.04-.08,6.08,0,9.1.26Z"/><rect class="cls-7" x="326.02" y="654.32" width="16.34" height="16.34"/></g><rect class="cls-8" x="690.56" y="462.75" width="184.3" height="12.24"/><rect class="cls-3" x="774.08" y="464.97" width="18.51" height="7.44"/><path class="cls-9" d="m789.58,468.5c-4.23.56-8.51.56-12.74,0,4.23-.56,8.51-.56,12.74,0Z"/><path class="cls-3" d="m718.76,385.35c-4.44-.8-7.38-5.05-6.58-9.49.8-4.44,5.06-7.38,9.49-6.58,4.44.8,7.38,5.05,6.58,9.49-.22,1.21-.71,2.36-1.44,3.36-1.85,2.53-4.97,3.78-8.05,3.22Z"/><g id="freepik--Bottle--inject-105-4"><rect class="cls-8" x="711.23" y="359.52" width="6.12" height="14.53"/><path class="cls-9" d="m700.27,462.77v-53.44c0-7.77,6.3-14.07,14.07-14.07h0c7.77,0,14.07,6.3,14.07,14.07h0v53.44h-28.13Z"/><rect class="cls-9" x="710.15" y="367.52" width="8.34" height="44.81"/><rect class="cls-1" x="704.37" y="413.12" width="18.24" height="35.5"/><path class="cls-8" d="m728.39,462.77s-.37-.21-1.06-.53c-.98-.44-1.98-.82-3-1.14-1.51-.5-3.04-.91-4.6-1.24-1.89-.44-3.82-.68-5.76-.73-1.95-.02-3.91.12-5.83.43-1.56.26-3.09.68-4.56,1.25-1.34.58-2.65,1.25-3.9,2.01.28-.28.59-.53.93-.74.9-.61,1.85-1.13,2.85-1.55,1.49-.64,3.05-1.1,4.65-1.39,1.94-.33,3.91-.49,5.88-.47,1.97.05,3.92.31,5.83.78,1.56.35,3.1.8,4.61,1.34,1.02.35,2.02.78,2.97,1.28.37.17.71.41.99.71h0Z"/><path class="cls-8" d="m727.5,409.56c.13,0,.22,10.55.22,23.55s-.09,23.55-.22,23.55-.22-10.55-.22-23.55.1-23.55.22-23.55Z"/><path class="cls-8" d="m712.58,396.15c0,.07-1.1.21-2.74.9-4.37,1.81-7.36,5.9-7.75,10.61-.16,1.78.06,2.88,0,2.88-.1-.24-.16-.5-.19-.76-.11-.71-.14-1.43-.1-2.15.25-4.88,3.38-9.13,7.95-10.83.67-.25,1.36-.44,2.06-.56.25-.07.5-.1.76-.09h0Z"/><path class="cls-8" d="m711.2,394.51c-.12,0-.22-5.42-.22-12.11s.1-12.11.22-12.11.22,5.42.22,12.11-.06,12.11-.22,12.11Z"/><rect class="cls-6" x="710.15" y="376.66" width="8.34" height="12.72"/><path class="cls-8" d="m715.6,424.38c-2.56.22-5.12.29-7.68.22-2.56.07-5.13,0-7.68-.22,2.56-.22,5.12-.29,7.68-.22,2.56-.07,5.13,0,7.68.22Z"/><rect class="cls-7" x="700.27" y="428.06" width="13.79" height="13.79"/></g><g id="freepik--Bottle--inject-105-5"><rect class="cls-8" x="745.88" y="359.52" width="6.12" height="14.53"/><path class="cls-9" d="m734.91,462.77v-53.44c0-7.77,6.3-14.07,14.07-14.07h0c7.77,0,14.07,6.3,14.07,14.07h0v53.44h-28.13Z"/><rect class="cls-9" x="744.8" y="367.52" width="8.34" height="44.81"/><rect class="cls-1" x="739.01" y="413.12" width="18.24" height="35.5"/><path class="cls-8" d="m763.04,462.77s-.37-.21-1.06-.53c-.98-.44-1.98-.82-3-1.14-1.51-.5-3.04-.91-4.6-1.24-1.89-.44-3.82-.68-5.76-.73-1.95-.02-3.91.12-5.83.43-1.56.26-3.09.68-4.56,1.25-1.34.58-2.65,1.25-3.9,2.01.28-.28.59-.53.93-.74.9-.61,1.85-1.13,2.85-1.55,1.49-.64,3.05-1.1,4.65-1.39,1.94-.33,3.91-.49,5.88-.47,1.97.05,3.92.31,5.83.78,1.56.35,3.1.8,4.61,1.34,1.02.35,2.02.78,2.97,1.28.37.17.71.41.99.71h0Z"/><path class="cls-8" d="m762.15,409.56c.13,0,.22,10.55.22,23.55s-.09,23.55-.22,23.55-.22-10.55-.22-23.55.1-23.55.22-23.55Z"/><path class="cls-8" d="m747.23,396.15c0,.07-1.1.21-2.74.9-4.37,1.81-7.36,5.9-7.75,10.61-.16,1.78.06,2.88,0,2.88-.1-.24-.16-.5-.19-.76-.11-.71-.14-1.43-.1-2.15.25-4.88,3.38-9.13,7.95-10.83.67-.25,1.36-.44,2.06-.56.25-.07.5-.1.76-.09h0Z"/><path class="cls-8" d="m745.85,394.51c-.12,0-.22-5.42-.22-12.11s.1-12.11.22-12.11.22,5.42.22,12.11-.06,12.11-.22,12.11Z"/><rect class="cls-6" x="744.8" y="376.66" width="8.34" height="12.72"/><path class="cls-8" d="m750.25,424.38c-2.56.22-5.12.29-7.68.22-2.56.07-5.13,0-7.68-.22,2.56-.22,5.12-.29,7.68-.22,2.56-.07,5.13,0,7.68.22Z"/><rect class="cls-7" x="734.91" y="428.06" width="13.79" height="13.79"/></g><g id="freepik--Bottle--inject-105-6"><rect class="cls-8" x="780.52" y="359.52" width="6.12" height="14.53"/><path class="cls-9" d="m769.56,462.77v-53.44c0-7.77,6.3-14.07,14.07-14.07h0c7.77,0,14.07,6.3,14.07,14.07h0v53.44h-28.13Z"/><rect class="cls-9" x="779.45" y="367.52" width="8.34" height="44.81"/><rect class="cls-1" x="773.66" y="413.12" width="18.24" height="35.5"/><path class="cls-8" d="m797.69,462.77s-.37-.21-1.06-.53c-.98-.44-1.98-.82-3-1.14-1.51-.5-3.04-.91-4.6-1.24-1.89-.44-3.82-.68-5.76-.73-1.95-.02-3.91.12-5.83.43-1.56.26-3.09.68-4.56,1.25-1.34.58-2.65,1.25-3.9,2.01.28-.28.59-.53.93-.74.9-.61,1.85-1.13,2.85-1.55,1.49-.64,3.05-1.1,4.65-1.39,1.94-.33,3.91-.49,5.88-.47,1.97.05,3.92.31,5.83.78,1.56.35,3.1.8,4.61,1.34,1.02.35,2.02.78,2.97,1.28.37.17.71.41.99.71h0Z"/><path class="cls-8" d="m796.8,409.56c.13,0,.22,10.55.22,23.55s-.09,23.55-.22,23.55-.22-10.55-.22-23.55.1-23.55.22-23.55Z"/><path class="cls-8" d="m781.88,396.15c0,.07-1.1.21-2.74.9-4.37,1.81-7.36,5.9-7.75,10.61-.16,1.78.06,2.88,0,2.88-.1-.24-.16-.5-.19-.76-.11-.71-.14-1.43-.1-2.15.25-4.88,3.38-9.13,7.95-10.83.67-.25,1.36-.44,2.06-.56.25-.07.5-.1.76-.09h0Z"/><path class="cls-8" d="m780.49,394.51c-.12,0-.22-5.42-.22-12.11s.1-12.11.22-12.11.22,5.42.22,12.11-.06,12.11-.22,12.11Z"/><rect class="cls-6" x="779.45" y="376.66" width="8.34" height="12.72"/><path class="cls-8" d="m784.9,424.38c-2.56.22-5.12.29-7.68.22-2.56.07-5.13,0-7.68-.22,2.56-.22,5.12-.29,7.68-.22,2.56-.07,5.13,0,7.68.22Z"/><rect class="cls-7" x="769.56" y="428.06" width="13.79" height="13.79"/></g><g id="freepik--Bottle--inject-105-7"><rect class="cls-8" x="815.17" y="359.52" width="6.12" height="14.53"/><path class="cls-9" d="m804.21,462.77v-53.44c0-7.77,6.3-14.07,14.07-14.07h0c7.77,0,14.07,6.3,14.07,14.07h0v53.44h-28.13Z"/><rect class="cls-9" x="814.1" y="367.52" width="8.34" height="44.81"/><rect class="cls-1" x="808.31" y="413.12" width="18.24" height="35.5"/><path class="cls-8" d="m832.34,462.77s-.37-.21-1.06-.53c-.98-.44-1.98-.82-3-1.14-1.51-.5-3.04-.91-4.6-1.24-1.89-.44-3.82-.68-5.76-.73-1.95-.02-3.91.12-5.83.43-1.56.26-3.09.68-4.56,1.25-1.34.58-2.65,1.25-3.9,2.01.28-.28.59-.53.93-.74.9-.61,1.85-1.13,2.85-1.55,1.49-.64,3.05-1.1,4.65-1.39,1.94-.33,3.91-.49,5.88-.47,1.97.05,3.92.31,5.83.78,1.56.35,3.1.8,4.61,1.34,1.02.35,2.02.78,2.97,1.28.37.17.71.41.99.71h0Z"/><path class="cls-8" d="m831.44,409.56c.13,0,.22,10.55.22,23.55s-.09,23.55-.22,23.55-.22-10.55-.22-23.55.1-23.55.22-23.55Z"/><path class="cls-8" d="m816.52,396.15c0,.07-1.1.21-2.74.9-4.37,1.81-7.36,5.9-7.75,10.61-.16,1.78.06,2.88,0,2.88-.1-.24-.16-.5-.19-.76-.11-.71-.14-1.43-.1-2.15.25-4.88,3.38-9.13,7.95-10.83.67-.25,1.36-.44,2.06-.56.25-.07.5-.1.76-.09h0Z"/><path class="cls-8" d="m815.14,394.51c-.12,0-.22-5.42-.22-12.11s.1-12.11.22-12.11.22,5.42.22,12.11-.06,12.11-.22,12.11Z"/><rect class="cls-6" x="814.1" y="376.66" width="8.34" height="12.72"/><path class="cls-8" d="m819.55,424.38c-2.56.22-5.12.29-7.68.22-2.56.07-5.13,0-7.68-.22,2.56-.22,5.12-.29,7.68-.22,2.56-.07,5.13,0,7.68.22Z"/><rect class="cls-7" x="804.21" y="428.06" width="13.79" height="13.79"/></g><g id="freepik--Bottle--inject-105-8"><rect class="cls-8" x="849.82" y="359.52" width="6.12" height="14.53"/><path class="cls-9" d="m838.86,462.77v-53.44c0-7.77,6.3-14.07,14.07-14.07h0c7.77,0,14.07,6.3,14.07,14.07h0v53.44h-28.13Z"/><rect class="cls-9" x="848.75" y="367.52" width="8.34" height="44.81"/><rect class="cls-1" x="842.96" y="413.12" width="18.24" height="35.5"/><path class="cls-8" d="m866.98,462.77s-.37-.21-1.06-.53c-.98-.44-1.98-.82-3-1.14-1.51-.5-3.04-.91-4.6-1.24-1.89-.44-3.82-.68-5.76-.73-1.95-.02-3.91.12-5.83.43-1.56.26-3.09.68-4.56,1.25-1.34.58-2.65,1.25-3.9,2.01.28-.28.59-.53.93-.74.9-.61,1.85-1.13,2.85-1.55,1.49-.64,3.05-1.1,4.65-1.39,1.94-.33,3.91-.49,5.88-.47,1.97.05,3.92.31,5.83.78,1.56.35,3.1.8,4.61,1.34,1.02.35,2.02.78,2.97,1.28.37.17.71.41.99.71h0Z"/><path class="cls-8" d="m866.09,409.56c.13,0,.22,10.55.22,23.55s-.09,23.55-.22,23.55-.22-10.55-.22-23.55.1-23.55.22-23.55Z"/><path class="cls-8" d="m851.17,396.15c0,.07-1.1.21-2.74.9-4.37,1.81-7.36,5.9-7.75,10.61-.16,1.78.06,2.88,0,2.88-.1-.24-.16-.5-.19-.76-.11-.71-.14-1.43-.1-2.15.25-4.88,3.38-9.13,7.95-10.83.67-.25,1.36-.44,2.06-.56.25-.07.5-.1.76-.09h0Z"/><path class="cls-8" d="m849.79,394.51c-.12,0-.22-5.42-.22-12.11s.1-12.11.22-12.11.22,5.42.22,12.11-.06,12.11-.22,12.11Z"/><rect class="cls-6" x="848.75" y="376.66" width="8.34" height="12.72"/><path class="cls-8" d="m854.19,424.38c-2.56.22-5.12.29-7.68.22-2.56.07-5.13,0-7.68-.22,2.56-.22,5.12-.29,7.68-.22,2.56-.07,5.13,0,7.68.22Z"/><rect class="cls-7" x="838.86" y="428.06" width="13.79" height="13.79"/></g><rect class="cls-8" x="691.48" y="592.08" width="184.3" height="12.24"/><rect class="cls-3" x="775" y="594.3" width="18.51" height="7.44"/><path class="cls-9" d="m790.5,597.83c-4.23.56-8.51.56-12.74,0,4.23-.56,8.51-.56,12.74,0Z"/><path class="cls-3" d="m719.68,514.68c-4.44-.8-7.38-5.05-6.58-9.49.8-4.44,5.06-7.38,9.49-6.58,4.44.8,7.38,5.05,6.58,9.49-.22,1.21-.71,2.36-1.44,3.36-1.85,2.53-4.97,3.78-8.05,3.22Z"/><g id="freepik--Bottle--inject-105-9"><rect class="cls-8" x="712.15" y="488.85" width="6.12" height="14.53"/><path class="cls-9" d="m701.19,592.1v-53.44c0-7.77,6.3-14.07,14.07-14.07h0c7.77,0,14.07,6.3,14.07,14.07h0v53.44h-28.13Z"/><rect class="cls-9" x="711.08" y="496.85" width="8.34" height="44.81"/><rect class="cls-1" x="705.29" y="542.45" width="18.24" height="35.5"/><path class="cls-8" d="m729.31,592.1s-.37-.21-1.06-.53c-.98-.44-1.98-.82-3-1.14-1.51-.5-3.04-.91-4.6-1.24-1.89-.44-3.82-.68-5.76-.73-1.95-.02-3.91.12-5.83.43-1.56.26-3.09.68-4.56,1.25-1.34.58-2.65,1.25-3.9,2.01.28-.28.59-.53.93-.74.9-.61,1.85-1.13,2.85-1.55,1.49-.64,3.05-1.1,4.65-1.39,1.94-.33,3.91-.49,5.88-.47,1.97.05,3.92.31,5.83.78,1.56.35,3.1.8,4.61,1.34,1.02.35,2.02.78,2.97,1.28.37.17.71.41.99.71h0Z"/><path class="cls-8" d="m728.42,538.89c.13,0,.22,10.55.22,23.55s-.09,23.55-.22,23.55-.22-10.55-.22-23.55.1-23.55.22-23.55Z"/><path class="cls-8" d="m713.5,525.48c0,.07-1.1.21-2.74.9-4.37,1.81-7.36,5.9-7.75,10.61-.16,1.78.06,2.88,0,2.88-.1-.24-.16-.5-.19-.76-.11-.71-.14-1.43-.1-2.15.25-4.88,3.38-9.13,7.95-10.83.67-.25,1.36-.44,2.06-.56.25-.07.5-.1.76-.09h0Z"/><path class="cls-8" d="m712.12,523.84c-.12,0-.22-5.42-.22-12.11s.1-12.11.22-12.11.22,5.42.22,12.11-.06,12.11-.22,12.11Z"/><rect class="cls-6" x="711.08" y="505.99" width="8.34" height="12.72"/><path class="cls-8" d="m716.52,553.71c-2.56.22-5.12.29-7.68.22-2.56.07-5.13,0-7.68-.22,2.56-.22,5.12-.29,7.68-.22,2.56-.07,5.13,0,7.68.22Z"/><rect class="cls-7" x="701.19" y="557.39" width="13.79" height="13.79"/></g><g id="freepik--Bottle--inject-105-10"><rect class="cls-8" x="746.8" y="488.85" width="6.12" height="14.53"/><path class="cls-9" d="m735.84,592.1v-53.44c0-7.77,6.3-14.07,14.07-14.07h0c7.77,0,14.07,6.3,14.07,14.07h0v53.44h-28.13Z"/><rect class="cls-9" x="745.72" y="496.85" width="8.34" height="44.81"/><rect class="cls-1" x="739.93" y="542.45" width="18.24" height="35.5"/><path class="cls-8" d="m763.96,592.1s-.37-.21-1.06-.53c-.98-.44-1.98-.82-3-1.14-1.51-.5-3.04-.91-4.6-1.24-1.89-.44-3.82-.68-5.76-.73-1.95-.02-3.91.12-5.83.43-1.56.26-3.09.68-4.56,1.25-1.34.58-2.65,1.25-3.9,2.01.28-.28.59-.53.93-.74.9-.61,1.85-1.13,2.85-1.55,1.49-.64,3.05-1.1,4.65-1.39,1.94-.33,3.91-.49,5.88-.47,1.97.05,3.92.31,5.83.78,1.56.35,3.1.8,4.61,1.34,1.02.35,2.02.78,2.97,1.28.37.17.71.41.99.71h0Z"/><path class="cls-8" d="m763.07,538.89c.13,0,.22,10.55.22,23.55s-.09,23.55-.22,23.55-.22-10.55-.22-23.55.1-23.55.22-23.55Z"/><path class="cls-8" d="m748.15,525.48c0,.07-1.1.21-2.74.9-4.37,1.81-7.36,5.9-7.75,10.61-.16,1.78.06,2.88,0,2.88-.1-.24-.16-.5-.19-.76-.11-.71-.14-1.43-.1-2.15.25-4.88,3.38-9.13,7.95-10.83.67-.25,1.36-.44,2.06-.56.25-.07.5-.1.76-.09h0Z"/><path class="cls-8" d="m746.77,523.84c-.12,0-.22-5.42-.22-12.11s.1-12.11.22-12.11.22,5.42.22,12.11-.06,12.11-.22,12.11Z"/><rect class="cls-6" x="745.72" y="505.99" width="8.34" height="12.72"/><path class="cls-8" d="m751.17,553.71c-2.56.22-5.12.29-7.68.22-2.56.07-5.13,0-7.68-.22,2.56-.22,5.12-.29,7.68-.22,2.56-.07,5.13,0,7.68.22Z"/><rect class="cls-7" x="735.84" y="557.39" width="13.79" height="13.79"/></g><g id="freepik--Bottle--inject-105-11"><rect class="cls-8" x="781.44" y="488.85" width="6.12" height="14.53"/><path class="cls-9" d="m770.48,592.1v-53.44c0-7.77,6.3-14.07,14.07-14.07h0c7.77,0,14.07,6.3,14.07,14.07h0v53.44h-28.13Z"/><rect class="cls-9" x="780.37" y="496.85" width="8.34" height="44.81"/><rect class="cls-1" x="774.58" y="542.45" width="18.24" height="35.5"/><path class="cls-8" d="m798.61,592.1s-.37-.21-1.06-.53c-.98-.44-1.98-.82-3-1.14-1.51-.5-3.04-.91-4.6-1.24-1.89-.44-3.82-.68-5.76-.73-1.95-.02-3.91.12-5.83.43-1.56.26-3.09.68-4.56,1.25-1.34.58-2.65,1.25-3.9,2.01.28-.28.59-.53.93-.74.9-.61,1.85-1.13,2.85-1.55,1.49-.64,3.05-1.1,4.65-1.39,1.94-.33,3.91-.49,5.88-.47,1.97.05,3.92.31,5.83.78,1.56.35,3.1.8,4.61,1.34,1.02.35,2.02.78,2.97,1.28.37.17.71.41.99.71h0Z"/><path class="cls-8" d="m797.72,538.89c.13,0,.22,10.55.22,23.55s-.09,23.55-.22,23.55-.22-10.55-.22-23.55.1-23.55.22-23.55Z"/><path class="cls-8" d="m782.8,525.48c0,.07-1.1.21-2.74.9-4.37,1.81-7.36,5.9-7.75,10.61-.16,1.78.06,2.88,0,2.88-.1-.24-.16-.5-.19-.76-.11-.71-.14-1.43-.1-2.15.25-4.88,3.38-9.13,7.95-10.83.67-.25,1.36-.44,2.06-.56.25-.07.5-.1.76-.09h0Z"/><path class="cls-8" d="m781.41,523.84c-.12,0-.22-5.42-.22-12.11s.1-12.11.22-12.11.22,5.42.22,12.11-.06,12.11-.22,12.11Z"/><rect class="cls-6" x="780.37" y="505.99" width="8.34" height="12.72"/><path class="cls-8" d="m785.82,553.71c-2.56.22-5.12.29-7.68.22-2.56.07-5.13,0-7.68-.22,2.56-.22,5.12-.29,7.68-.22,2.56-.07,5.13,0,7.68.22Z"/><rect class="cls-7" x="770.48" y="557.39" width="13.79" height="13.79"/></g><g id="freepik--Bottle--inject-105-12"><rect class="cls-8" x="816.09" y="488.85" width="6.12" height="14.53"/><path class="cls-9" d="m805.13,592.1v-53.44c0-7.77,6.3-14.07,14.07-14.07h0c7.77,0,14.07,6.3,14.07,14.07h0v53.44h-28.13Z"/><rect class="cls-9" x="815.02" y="496.85" width="8.34" height="44.81"/><rect class="cls-1" x="809.23" y="542.45" width="18.24" height="35.5"/><path class="cls-8" d="m833.26,592.1s-.37-.21-1.06-.53c-.98-.44-1.98-.82-3-1.14-1.51-.5-3.04-.91-4.6-1.24-1.89-.44-3.82-.68-5.76-.73-1.95-.02-3.91.12-5.83.43-1.56.26-3.09.68-4.56,1.25-1.34.58-2.65,1.25-3.9,2.01.28-.28.59-.53.93-.74.9-.61,1.85-1.13,2.85-1.55,1.49-.64,3.05-1.1,4.65-1.39,1.94-.33,3.91-.49,5.88-.47,1.97.05,3.92.31,5.83.78,1.56.35,3.1.8,4.61,1.34,1.02.35,2.02.78,2.97,1.28.37.17.71.41.99.71h0Z"/><path class="cls-8" d="m832.36,538.89c.13,0,.22,10.55.22,23.55s-.09,23.55-.22,23.55-.22-10.55-.22-23.55.1-23.55.22-23.55Z"/><path class="cls-8" d="m817.45,525.48c0,.07-1.1.21-2.74.9-4.37,1.81-7.36,5.9-7.75,10.61-.16,1.78.06,2.88,0,2.88-.1-.24-.16-.5-.19-.76-.11-.71-.14-1.43-.1-2.15.25-4.88,3.38-9.13,7.95-10.83.67-.25,1.36-.44,2.06-.56.25-.07.5-.1.76-.09h0Z"/><path class="cls-8" d="m816.06,523.84c-.12,0-.22-5.42-.22-12.11s.1-12.11.22-12.11.22,5.42.22,12.11-.06,12.11-.22,12.11Z"/><rect class="cls-6" x="815.02" y="505.99" width="8.34" height="12.72"/><path class="cls-8" d="m820.47,553.71c-2.56.22-5.12.29-7.68.22-2.56.07-5.13,0-7.68-.22,2.56-.22,5.12-.29,7.68-.22,2.56-.07,5.13,0,7.68.22Z"/><rect class="cls-7" x="805.13" y="557.39" width="13.79" height="13.79"/></g><g id="freepik--Bottle--inject-105-13"><rect class="cls-8" x="850.74" y="488.85" width="6.12" height="14.53"/><path class="cls-9" d="m839.78,592.1v-53.44c0-7.77,6.3-14.07,14.07-14.07h0c7.77,0,14.07,6.3,14.07,14.07h0v53.44h-28.13Z"/><rect class="cls-9" x="849.67" y="496.85" width="8.34" height="44.81"/><rect class="cls-1" x="843.88" y="542.45" width="18.24" height="35.5"/><path class="cls-8" d="m867.91,592.1s-.37-.21-1.06-.53c-.98-.44-1.98-.82-3-1.14-1.51-.5-3.04-.91-4.6-1.24-1.89-.44-3.82-.68-5.76-.73-1.95-.02-3.91.12-5.83.43-1.56.26-3.09.68-4.56,1.25-1.34.58-2.65,1.25-3.9,2.01.28-.28.59-.53.93-.74.9-.61,1.85-1.13,2.85-1.55,1.49-.64,3.05-1.1,4.65-1.39,1.94-.33,3.91-.49,5.88-.47,1.97.05,3.92.31,5.83.78,1.56.35,3.1.8,4.61,1.34,1.02.35,2.02.78,2.97,1.28.37.17.71.41.99.71h0Z"/><path class="cls-8" d="m867.01,538.89c.13,0,.22,10.55.22,23.55s-.09,23.55-.22,23.55-.22-10.55-.22-23.55.1-23.55.22-23.55Z"/><path class="cls-8" d="m852.09,525.48c0,.07-1.1.21-2.74.9-4.37,1.81-7.36,5.9-7.75,10.61-.16,1.78.06,2.88,0,2.88-.1-.24-.16-.5-.19-.76-.11-.71-.14-1.43-.1-2.15.25-4.88,3.38-9.13,7.95-10.83.67-.25,1.36-.44,2.06-.56.25-.07.5-.1.76-.09h0Z"/><path class="cls-8" d="m850.71,523.84c-.12,0-.22-5.42-.22-12.11s.1-12.11.22-12.11.22,5.42.22,12.11-.06,12.11-.22,12.11Z"/><rect class="cls-6" x="849.67" y="505.99" width="8.34" height="12.72"/><path class="cls-8" d="m855.12,553.71c-2.56.22-5.12.29-7.68.22-2.56.07-5.13,0-7.68-.22,2.56-.22,5.12-.29,7.68-.22,2.56-.07,5.13,0,7.68.22Z"/><rect class="cls-7" x="839.78" y="557.39" width="13.79" height="13.79"/></g><rect class="cls-8" x="692.39" y="721.41" width="184.3" height="12.24"/><rect class="cls-3" x="775.92" y="723.63" width="18.51" height="7.44"/><path class="cls-9" d="m791.41,727.16c-4.23.56-8.51.56-12.74,0,4.23-.56,8.51-.56,12.74,0Z"/><path class="cls-3" d="m720.6,644.01c-4.44-.8-7.38-5.05-6.58-9.49.8-4.44,5.06-7.38,9.49-6.58,4.44.8,7.38,5.05,6.58,9.49-.22,1.21-.71,2.36-1.44,3.36-1.85,2.53-4.97,3.78-8.05,3.22Z"/><g id="freepik--Bottle--inject-105-14"><rect class="cls-8" x="713.06" y="618.18" width="6.12" height="14.53"/><path class="cls-9" d="m702.1,721.43v-53.44c0-7.77,6.3-14.07,14.07-14.07h0c7.77,0,14.07,6.3,14.07,14.07h0v53.44h-28.13Z"/><rect class="cls-9" x="711.99" y="626.18" width="8.34" height="44.81"/><rect class="cls-1" x="706.2" y="671.78" width="18.24" height="35.5"/><path class="cls-8" d="m730.23,721.43s-.37-.21-1.06-.53c-.98-.44-1.98-.82-3-1.14-1.51-.5-3.04-.91-4.6-1.24-1.89-.44-3.82-.68-5.76-.73-1.95-.02-3.91.12-5.83.43-1.56.26-3.09.68-4.56,1.25-1.34.58-2.65,1.25-3.9,2.01.28-.28.59-.53.93-.74.9-.61,1.85-1.13,2.85-1.55,1.49-.64,3.05-1.1,4.65-1.39,1.94-.33,3.91-.49,5.88-.47,1.97.05,3.92.31,5.83.78,1.56.35,3.1.8,4.61,1.34,1.02.35,2.02.78,2.97,1.28.37.17.71.41.99.71h0Z"/><path class="cls-8" d="m729.34,668.22c.13,0,.22,10.55.22,23.55s-.09,23.55-.22,23.55-.22-10.55-.22-23.55.1-23.55.22-23.55Z"/><path class="cls-8" d="m714.42,654.81c0,.07-1.1.21-2.74.9-4.37,1.81-7.36,5.9-7.75,10.61-.16,1.78.06,2.88,0,2.88-.1-.24-.16-.5-.19-.76-.11-.71-.14-1.43-.1-2.15.25-4.88,3.38-9.13,7.95-10.83.67-.25,1.36-.44,2.06-.56.25-.07.5-.1.76-.09h0Z"/><path class="cls-8" d="m713.03,653.17c-.12,0-.22-5.42-.22-12.11s.1-12.11.22-12.11.22,5.42.22,12.11-.06,12.11-.22,12.11Z"/><rect class="cls-6" x="711.99" y="635.32" width="8.34" height="12.72"/><path class="cls-8" d="m717.44,683.04c-2.56.22-5.12.29-7.68.22-2.56.07-5.13,0-7.68-.22,2.56-.22,5.12-.29,7.68-.22,2.56-.07,5.13,0,7.68.22Z"/><rect class="cls-7" x="702.1" y="686.72" width="13.79" height="13.79"/></g><g id="freepik--Bottle--inject-105-15"><rect class="cls-8" x="747.71" y="618.18" width="6.12" height="14.53"/><path class="cls-9" d="m736.75,721.43v-53.44c0-7.77,6.3-14.07,14.07-14.07h0c7.77,0,14.07,6.3,14.07,14.07h0v53.44h-28.13Z"/><rect class="cls-9" x="746.64" y="626.18" width="8.34" height="44.81"/><rect class="cls-1" x="740.85" y="671.78" width="18.24" height="35.5"/><path class="cls-8" d="m764.88,721.43s-.37-.21-1.06-.53c-.98-.44-1.98-.82-3-1.14-1.51-.5-3.04-.91-4.6-1.24-1.89-.44-3.82-.68-5.76-.73-1.95-.02-3.91.12-5.83.43-1.56.26-3.09.68-4.56,1.25-1.34.58-2.65,1.25-3.9,2.01.28-.28.59-.53.93-.74.9-.61,1.85-1.13,2.85-1.55,1.49-.64,3.05-1.1,4.65-1.39,1.94-.33,3.91-.49,5.88-.47,1.97.05,3.92.31,5.83.78,1.56.35,3.1.8,4.61,1.34,1.02.35,2.02.78,2.97,1.28.37.17.71.41.99.71h0Z"/><path class="cls-8" d="m763.98,668.22c.13,0,.22,10.55.22,23.55s-.09,23.55-.22,23.55-.22-10.55-.22-23.55.1-23.55.22-23.55Z"/><path class="cls-8" d="m749.07,654.81c0,.07-1.1.21-2.74.9-4.37,1.81-7.36,5.9-7.75,10.61-.16,1.78.06,2.88,0,2.88-.1-.24-.16-.5-.19-.76-.11-.71-.14-1.43-.1-2.15.25-4.88,3.38-9.13,7.95-10.83.67-.25,1.36-.44,2.06-.56.25-.07.5-.1.76-.09h0Z"/><path class="cls-8" d="m747.68,653.17c-.12,0-.22-5.42-.22-12.11s.1-12.11.22-12.11.22,5.42.22,12.11-.06,12.11-.22,12.11Z"/><rect class="cls-6" x="746.64" y="635.32" width="8.34" height="12.72"/><path class="cls-8" d="m752.09,683.04c-2.56.22-5.12.29-7.68.22-2.56.07-5.13,0-7.68-.22,2.56-.22,5.12-.29,7.68-.22,2.56-.07,5.13,0,7.68.22Z"/><rect class="cls-7" x="736.75" y="686.72" width="13.79" height="13.79"/></g><g id="freepik--Bottle--inject-105-16"><rect class="cls-8" x="782.36" y="618.18" width="6.12" height="14.53"/><path class="cls-9" d="m771.4,721.43v-53.44c0-7.77,6.3-14.07,14.07-14.07h0c7.77,0,14.07,6.3,14.07,14.07h0v53.44h-28.13Z"/><rect class="cls-9" x="781.29" y="626.18" width="8.34" height="44.81"/><rect class="cls-1" x="775.5" y="671.78" width="18.24" height="35.5"/><path class="cls-8" d="m799.52,721.43s-.37-.21-1.06-.53c-.98-.44-1.98-.82-3-1.14-1.51-.5-3.04-.91-4.6-1.24-1.89-.44-3.82-.68-5.76-.73-1.95-.02-3.91.12-5.83.43-1.56.26-3.09.68-4.56,1.25-1.34.58-2.65,1.25-3.9,2.01.28-.28.59-.53.93-.74.9-.61,1.85-1.13,2.85-1.55,1.49-.64,3.05-1.1,4.65-1.39,1.94-.33,3.91-.49,5.88-.47,1.97.05,3.92.31,5.83.78,1.56.35,3.1.8,4.61,1.34,1.02.35,2.02.78,2.97,1.28.37.17.71.41.99.71h0Z"/><path class="cls-8" d="m798.63,668.22c.13,0,.22,10.55.22,23.55s-.09,23.55-.22,23.55-.22-10.55-.22-23.55.1-23.55.22-23.55Z"/><path class="cls-8" d="m783.71,654.81c0,.07-1.1.21-2.74.9-4.37,1.81-7.36,5.9-7.75,10.61-.16,1.78.06,2.88,0,2.88-.1-.24-.16-.5-.19-.76-.11-.71-.14-1.43-.1-2.15.25-4.88,3.38-9.13,7.95-10.83.67-.25,1.36-.44,2.06-.56.25-.07.5-.1.76-.09h0Z"/><path class="cls-8" d="m782.33,653.17c-.12,0-.22-5.42-.22-12.11s.1-12.11.22-12.11.22,5.42.22,12.11-.06,12.11-.22,12.11Z"/><rect class="cls-6" x="781.29" y="635.32" width="8.34" height="12.72"/><path class="cls-8" d="m786.73,683.04c-2.56.22-5.12.29-7.68.22-2.56.07-5.13,0-7.68-.22,2.56-.22,5.12-.29,7.68-.22,2.56-.07,5.13,0,7.68.22Z"/><rect class="cls-7" x="771.4" y="686.72" width="13.79" height="13.79"/></g><g id="freepik--Bottle--inject-105-17"><rect class="cls-8" x="817.01" y="618.18" width="6.12" height="14.53"/><path class="cls-9" d="m806.05,721.43v-53.44c0-7.77,6.3-14.07,14.07-14.07h0c7.77,0,14.07,6.3,14.07,14.07h0v53.44h-28.13Z"/><rect class="cls-9" x="815.93" y="626.18" width="8.34" height="44.81"/><rect class="cls-1" x="810.14" y="671.78" width="18.24" height="35.5"/><path class="cls-8" d="m834.17,721.43s-.37-.21-1.06-.53c-.98-.44-1.98-.82-3-1.14-1.51-.5-3.04-.91-4.6-1.24-1.89-.44-3.82-.68-5.76-.73-1.95-.02-3.91.12-5.83.43-1.56.26-3.09.68-4.56,1.25-1.34.58-2.65,1.25-3.9,2.01.28-.28.59-.53.93-.74.9-.61,1.85-1.13,2.85-1.55,1.49-.64,3.05-1.1,4.65-1.39,1.94-.33,3.91-.49,5.88-.47,1.97.05,3.92.31,5.83.78,1.56.35,3.1.8,4.61,1.34,1.02.35,2.02.78,2.97,1.28.37.17.71.41.99.71h0Z"/><path class="cls-8" d="m833.28,668.22c.13,0,.22,10.55.22,23.55s-.09,23.55-.22,23.55-.22-10.55-.22-23.55.1-23.55.22-23.55Z"/><path class="cls-8" d="m818.36,654.81c0,.07-1.1.21-2.74.9-4.37,1.81-7.36,5.9-7.75,10.61-.16,1.78.06,2.88,0,2.88-.1-.24-.16-.5-.19-.76-.11-.71-.14-1.43-.1-2.15.25-4.88,3.38-9.13,7.95-10.83.67-.25,1.36-.44,2.06-.56.25-.07.5-.1.76-.09h0Z"/><path class="cls-8" d="m816.98,653.17c-.12,0-.22-5.42-.22-12.11s.1-12.11.22-12.11.22,5.42.22,12.11-.06,12.11-.22,12.11Z"/><rect class="cls-6" x="815.93" y="635.32" width="8.34" height="12.72"/><path class="cls-8" d="m821.38,683.04c-2.56.22-5.12.29-7.68.22-2.56.07-5.13,0-7.68-.22,2.56-.22,5.12-.29,7.68-.22,2.56-.07,5.13,0,7.68.22Z"/><rect class="cls-7" x="806.05" y="686.72" width="13.79" height="13.79"/></g><g id="freepik--Bottle--inject-105-18"><rect class="cls-8" x="851.66" y="618.18" width="6.12" height="14.53"/><path class="cls-9" d="m840.69,721.43v-53.44c0-7.77,6.3-14.07,14.07-14.07h0c7.77,0,14.07,6.3,14.07,14.07h0v53.44h-28.13Z"/><rect class="cls-9" x="850.58" y="626.18" width="8.34" height="44.81"/><rect class="cls-1" x="844.79" y="671.78" width="18.24" height="35.5"/><path class="cls-8" d="m868.82,721.43s-.37-.21-1.06-.53c-.98-.44-1.98-.82-3-1.14-1.51-.5-3.04-.91-4.6-1.24-1.89-.44-3.82-.68-5.76-.73-1.95-.02-3.91.12-5.83.43-1.56.26-3.09.68-4.56,1.25-1.34.58-2.65,1.25-3.9,2.01.28-.28.59-.53.93-.74.9-.61,1.85-1.13,2.85-1.55,1.49-.64,3.05-1.1,4.65-1.39,1.94-.33,3.91-.49,5.88-.47,1.97.05,3.92.31,5.83.78,1.56.35,3.1.8,4.61,1.34,1.02.35,2.02.78,2.97,1.28.37.17.71.41.99.71h0Z"/><path class="cls-8" d="m867.93,668.22c.13,0,.22,10.55.22,23.55s-.09,23.55-.22,23.55-.22-10.55-.22-23.55.1-23.55.22-23.55Z"/><path class="cls-8" d="m853.01,654.81c0,.07-1.1.21-2.74.9-4.37,1.81-7.36,5.9-7.75,10.61-.16,1.78.06,2.88,0,2.88-.1-.24-.16-.5-.19-.76-.11-.71-.14-1.43-.1-2.15.25-4.88,3.38-9.13,7.95-10.83.67-.25,1.36-.44,2.06-.56.25-.07.5-.1.76-.09h0Z"/><path class="cls-8" d="m851.62,653.17c-.12,0-.22-5.42-.22-12.11s.1-12.11.22-12.11.22,5.42.22,12.11-.06,12.11-.22,12.11Z"/><rect class="cls-6" x="850.58" y="635.32" width="8.34" height="12.72"/><path class="cls-8" d="m856.03,683.04c-2.56.22-5.12.29-7.68.22-2.56.07-5.13,0-7.68-.22,2.56-.22,5.12-.29,7.68-.22,2.56-.07,5.13,0,7.68.22Z"/><rect class="cls-7" x="840.69" y="686.72" width="13.79" height="13.79"/></g><rect class="cls-8" x="692.12" y="850.74" width="184.3" height="12.24"/><rect class="cls-3" x="775.65" y="852.96" width="18.51" height="7.44"/><path class="cls-9" d="m791.14,856.49c-4.23.56-8.51.56-12.74,0,4.23-.56,8.51-.56,12.74,0Z"/><path class="cls-3" d="m720.33,773.34c-4.44-.8-7.38-5.05-6.58-9.49.8-4.44,5.06-7.38,9.49-6.58,4.44.8,7.38,5.05,6.58,9.49-.22,1.21-.71,2.36-1.44,3.36-1.85,2.53-4.97,3.78-8.05,3.22Z"/><g id="freepik--Bottle--inject-105-19"><rect class="cls-8" x="712.79" y="747.52" width="6.12" height="14.53"/><path class="cls-9" d="m701.83,850.76v-53.44c0-7.77,6.3-14.07,14.07-14.07h0c7.77,0,14.07,6.3,14.07,14.07h0v53.44h-28.13Z"/><rect class="cls-9" x="711.72" y="755.52" width="8.34" height="44.81"/><rect class="cls-1" x="705.93" y="801.11" width="18.24" height="35.5"/><path class="cls-8" d="m729.96,850.76s-.37-.21-1.06-.53c-.98-.44-1.98-.82-3-1.14-1.51-.5-3.04-.91-4.6-1.24-1.89-.44-3.82-.68-5.76-.73-1.95-.02-3.91.12-5.83.43-1.56.26-3.09.68-4.56,1.25-1.34.58-2.65,1.25-3.9,2.01.28-.28.59-.53.93-.74.9-.61,1.85-1.13,2.85-1.55,1.49-.64,3.05-1.1,4.65-1.39,1.94-.33,3.91-.49,5.88-.47,1.97.05,3.92.31,5.83.78,1.56.35,3.1.8,4.61,1.34,1.02.35,2.02.78,2.97,1.28.37.17.71.41.99.71h0Z"/><path class="cls-8" d="m729.07,797.55c.13,0,.22,10.55.22,23.55s-.09,23.55-.22,23.55-.22-10.55-.22-23.55.1-23.55.22-23.55Z"/><path class="cls-8" d="m714.15,784.14c0,.07-1.1.21-2.74.9-4.37,1.81-7.36,5.9-7.75,10.61-.16,1.78.06,2.88,0,2.88-.1-.24-.16-.5-.19-.76-.11-.71-.14-1.43-.1-2.15.25-4.88,3.38-9.13,7.95-10.83.67-.25,1.36-.44,2.06-.56.25-.07.5-.1.76-.09h0Z"/><path class="cls-8" d="m712.76,782.5c-.12,0-.22-5.42-.22-12.11s.1-12.11.22-12.11.22,5.42.22,12.11-.06,12.11-.22,12.11Z"/><rect class="cls-6" x="711.72" y="764.65" width="8.34" height="12.72"/><path class="cls-8" d="m717.17,812.37c-2.56.22-5.12.29-7.68.22-2.56.07-5.13,0-7.68-.22,2.56-.22,5.12-.29,7.68-.22,2.56-.07,5.13,0,7.68.22Z"/><rect class="cls-7" x="701.83" y="816.05" width="13.79" height="13.79"/></g><g id="freepik--Bottle--inject-105-20"><rect class="cls-8" x="747.44" y="747.52" width="6.12" height="14.53"/><path class="cls-9" d="m736.48,850.76v-53.44c0-7.77,6.3-14.07,14.07-14.07h0c7.77,0,14.07,6.3,14.07,14.07h0v53.44h-28.13Z"/><rect class="cls-9" x="746.37" y="755.52" width="8.34" height="44.81"/><rect class="cls-1" x="740.58" y="801.11" width="18.24" height="35.5"/><path class="cls-8" d="m764.61,850.76s-.37-.21-1.06-.53c-.98-.44-1.98-.82-3-1.14-1.51-.5-3.04-.91-4.6-1.24-1.89-.44-3.82-.68-5.76-.73-1.95-.02-3.91.12-5.83.43-1.56.26-3.09.68-4.56,1.25-1.34.58-2.65,1.25-3.9,2.01.28-.28.59-.53.93-.74.9-.61,1.85-1.13,2.85-1.55,1.49-.64,3.05-1.1,4.65-1.39,1.94-.33,3.91-.49,5.88-.47,1.97.05,3.92.31,5.83.78,1.56.35,3.1.8,4.61,1.34,1.02.35,2.02.78,2.97,1.28.37.17.71.41.99.71h0Z"/><path class="cls-8" d="m763.72,797.55c.13,0,.22,10.55.22,23.55s-.09,23.55-.22,23.55-.22-10.55-.22-23.55.1-23.55.22-23.55Z"/><path class="cls-8" d="m748.8,784.14c0,.07-1.1.21-2.74.9-4.37,1.81-7.36,5.9-7.75,10.61-.16,1.78.06,2.88,0,2.88-.1-.24-.16-.5-.19-.76-.11-.71-.14-1.43-.1-2.15.25-4.88,3.38-9.13,7.95-10.83.67-.25,1.36-.44,2.06-.56.25-.07.5-.1.76-.09h0Z"/><path class="cls-8" d="m747.41,782.5c-.12,0-.22-5.42-.22-12.11s.1-12.11.22-12.11.22,5.42.22,12.11-.06,12.11-.22,12.11Z"/><rect class="cls-6" x="746.37" y="764.65" width="8.34" height="12.72"/><path class="cls-8" d="m751.82,812.37c-2.56.22-5.12.29-7.68.22-2.56.07-5.13,0-7.68-.22,2.56-.22,5.12-.29,7.68-.22,2.56-.07,5.13,0,7.68.22Z"/><rect class="cls-7" x="736.48" y="816.05" width="13.79" height="13.79"/></g><g id="freepik--Bottle--inject-105-21"><rect class="cls-8" x="782.09" y="747.52" width="6.12" height="14.53"/><path class="cls-9" d="m771.13,850.76v-53.44c0-7.77,6.3-14.07,14.07-14.07h0c7.77,0,14.07,6.3,14.07,14.07h0v53.44h-28.13Z"/><rect class="cls-9" x="781.02" y="755.52" width="8.34" height="44.81"/><rect class="cls-1" x="775.23" y="801.11" width="18.24" height="35.5"/><path class="cls-8" d="m799.26,850.76s-.37-.21-1.06-.53c-.98-.44-1.98-.82-3-1.14-1.51-.5-3.04-.91-4.6-1.24-1.89-.44-3.82-.68-5.76-.73-1.95-.02-3.91.12-5.83.43-1.56.26-3.09.68-4.56,1.25-1.34.58-2.65,1.25-3.9,2.01.28-.28.59-.53.93-.74.9-.61,1.85-1.13,2.85-1.55,1.49-.64,3.05-1.1,4.65-1.39,1.94-.33,3.91-.49,5.88-.47,1.97.05,3.92.31,5.83.78,1.56.35,3.1.8,4.61,1.34,1.02.35,2.02.78,2.97,1.28.37.17.71.41.99.71h0Z"/><path class="cls-8" d="m798.36,797.55c.13,0,.22,10.55.22,23.55s-.09,23.55-.22,23.55-.22-10.55-.22-23.55.1-23.55.22-23.55Z"/><path class="cls-8" d="m783.44,784.14c0,.07-1.1.21-2.74.9-4.37,1.81-7.36,5.9-7.75,10.61-.16,1.78.06,2.88,0,2.88-.1-.24-.16-.5-.19-.76-.11-.71-.14-1.43-.1-2.15.25-4.88,3.38-9.13,7.95-10.83.67-.25,1.36-.44,2.06-.56.25-.07.5-.1.76-.09h0Z"/><path class="cls-8" d="m782.06,782.5c-.12,0-.22-5.42-.22-12.11s.1-12.11.22-12.11.22,5.42.22,12.11-.06,12.11-.22,12.11Z"/><rect class="cls-6" x="781.02" y="764.65" width="8.34" height="12.72"/><path class="cls-8" d="m786.47,812.37c-2.56.22-5.12.29-7.68.22-2.56.07-5.13,0-7.68-.22,2.56-.22,5.12-.29,7.68-.22,2.56-.07,5.13,0,7.68.22Z"/><rect class="cls-7" x="771.13" y="816.05" width="13.79" height="13.79"/></g><g id="freepik--Bottle--inject-105-22"><rect class="cls-8" x="816.74" y="747.52" width="6.12" height="14.53"/><path class="cls-9" d="m805.78,850.76v-53.44c0-7.77,6.3-14.07,14.07-14.07h0c7.77,0,14.07,6.3,14.07,14.07h0v53.44h-28.13Z"/><rect class="cls-9" x="815.66" y="755.52" width="8.34" height="44.81"/><rect class="cls-1" x="809.88" y="801.11" width="18.24" height="35.5"/><path class="cls-8" d="m833.9,850.76s-.37-.21-1.06-.53c-.98-.44-1.98-.82-3-1.14-1.51-.5-3.04-.91-4.6-1.24-1.89-.44-3.82-.68-5.76-.73-1.95-.02-3.91.12-5.83.43-1.56.26-3.09.68-4.56,1.25-1.34.58-2.65,1.25-3.9,2.01.28-.28.59-.53.93-.74.9-.61,1.85-1.13,2.85-1.55,1.49-.64,3.05-1.1,4.65-1.39,1.94-.33,3.91-.49,5.88-.47,1.97.05,3.92.31,5.83.78,1.56.35,3.1.8,4.61,1.34,1.02.35,2.02.78,2.97,1.28.37.17.71.41.99.71h0Z"/><path class="cls-8" d="m833.01,797.55c.13,0,.22,10.55.22,23.55s-.09,23.55-.22,23.55-.22-10.55-.22-23.55.1-23.55.22-23.55Z"/><path class="cls-8" d="m818.09,784.14c0,.07-1.1.21-2.74.9-4.37,1.81-7.36,5.9-7.75,10.61-.16,1.78.06,2.88,0,2.88-.1-.24-.16-.5-.19-.76-.11-.71-.14-1.43-.1-2.15.25-4.88,3.38-9.13,7.95-10.83.67-.25,1.36-.44,2.06-.56.25-.07.5-.1.76-.09h0Z"/><path class="cls-8" d="m816.71,782.5c-.12,0-.22-5.42-.22-12.11s.1-12.11.22-12.11.22,5.42.22,12.11-.06,12.11-.22,12.11Z"/><rect class="cls-6" x="815.66" y="764.65" width="8.34" height="12.72"/><path class="cls-8" d="m821.11,812.37c-2.56.22-5.12.29-7.68.22-2.56.07-5.13,0-7.68-.22,2.56-.22,5.12-.29,7.68-.22,2.56-.07,5.13,0,7.68.22Z"/><rect class="cls-7" x="805.78" y="816.05" width="13.79" height="13.79"/></g><g id="freepik--Bottle--inject-105-23"><rect class="cls-8" x="851.39" y="747.52" width="6.12" height="14.53"/><path class="cls-9" d="m840.42,850.76v-53.44c0-7.77,6.3-14.07,14.07-14.07h0c7.77,0,14.07,6.3,14.07,14.07h0v53.44h-28.13Z"/><rect class="cls-9" x="850.31" y="755.52" width="8.34" height="44.81"/><rect class="cls-1" x="844.52" y="801.11" width="18.24" height="35.5"/><path class="cls-8" d="m868.55,850.76s-.37-.21-1.06-.53c-.98-.44-1.98-.82-3-1.14-1.51-.5-3.04-.91-4.6-1.24-1.89-.44-3.82-.68-5.76-.73-1.95-.02-3.91.12-5.83.43-1.56.26-3.09.68-4.56,1.25-1.34.58-2.65,1.25-3.9,2.01.28-.28.59-.53.93-.74.9-.61,1.85-1.13,2.85-1.55,1.49-.64,3.05-1.1,4.65-1.39,1.94-.33,3.91-.49,5.88-.47,1.97.05,3.92.31,5.83.78,1.56.35,3.1.8,4.61,1.34,1.02.35,2.02.78,2.97,1.28.37.17.71.41.99.71h0Z"/><path class="cls-8" d="m867.66,797.55c.13,0,.22,10.55.22,23.55s-.09,23.55-.22,23.55-.22-10.55-.22-23.55.1-23.55.22-23.55Z"/><path class="cls-8" d="m852.74,784.14c0,.07-1.1.21-2.74.9-4.37,1.81-7.36,5.9-7.75,10.61-.16,1.78.06,2.88,0,2.88-.1-.24-.16-.5-.19-.76-.11-.71-.14-1.43-.1-2.15.25-4.88,3.38-9.13,7.95-10.83.67-.25,1.36-.44,2.06-.56.25-.07.5-.1.76-.09h0Z"/><path class="cls-8" d="m851.36,782.5c-.12,0-.22-5.42-.22-12.11s.1-12.11.22-12.11.22,5.42.22,12.11-.06,12.11-.22,12.11Z"/><rect class="cls-6" x="850.31" y="764.65" width="8.34" height="12.72"/><path class="cls-8" d="m855.76,812.37c-2.56.22-5.12.29-7.68.22-2.56.07-5.13,0-7.68-.22,2.56-.22,5.12-.29,7.68-.22,2.56-.07,5.13,0,7.68.22Z"/><rect class="cls-7" x="840.42" y="816.05" width="13.79" height="13.79"/></g><path class="cls-3" d="m233.8,269.92l-8.17-65.36h17.46l2.78,42.83h.54l18.35-42.83h14.23l4.18,42.92h.54l16.98-42.92h17.43l-29.84,65.36h-15.22l-5.14-39.64h-.51l-18.41,39.64h-15.19Z"/><path class="cls-3" d="m340.46,204.55l-10.85,65.36h-15.8l10.85-65.36h15.8Z"/><path class="cls-3" d="m405.98,204.55l-10.85,65.36h-13.4l-19.69-37.72h-.42l-6.32,37.72h-15.8l10.85-65.36h13.6l19.53,37.66h.54l6.19-37.66h15.77Z"/><path class="cls-3" d="m405.02,269.92l10.85-65.36h45.57l-2.17,12.83h-29.78l-2.17,13.4h27.45l-2.17,12.86h-27.45l-2.17,13.44h29.78l-2.17,12.83h-45.57Z"/><path class="cls-3" d="m522.69,224.25c.15-2.38-.49-4.23-1.92-5.55-1.43-1.32-3.68-1.98-6.77-1.98-2.04,0-3.79.26-5.23.78-1.45.52-2.58,1.25-3.41,2.17-.83.93-1.34,1.99-1.53,3.21-.23.96-.19,1.81.13,2.55.32.74.85,1.4,1.6,1.98.74.57,1.69,1.07,2.82,1.5,1.14.43,2.42.8,3.85,1.12l5.36,1.28c3.11.7,5.8,1.63,8.09,2.79,2.29,1.16,4.14,2.55,5.57,4.18,1.43,1.63,2.4,3.49,2.94,5.6.53,2.11.57,4.47.13,7.09-.7,4.13-2.32,7.67-4.87,10.63-2.54,2.96-5.88,5.22-10.01,6.8-4.13,1.57-8.92,2.36-14.36,2.36s-10.07-.82-13.87-2.47-6.55-4.14-8.25-7.48-2.16-7.55-1.37-12.64h15.13c-.26,2.11,0,3.86.78,5.27.78,1.4,1.98,2.47,3.62,3.19,1.64.72,3.62,1.09,5.94,1.09,2.15,0,4.02-.29,5.62-.86,1.6-.57,2.88-1.37,3.85-2.39.97-1.02,1.56-2.19,1.77-3.51.21-1.21.02-2.27-.59-3.16-.61-.89-1.63-1.67-3.08-2.33-1.45-.66-3.32-1.25-5.62-1.79l-6.54-1.6c-5.43-1.32-9.52-3.43-12.29-6.32-2.77-2.89-3.75-6.82-2.94-11.78.68-4.06,2.37-7.62,5.06-10.66,2.69-3.04,6.11-5.41,10.24-7.1,4.14-1.69,8.7-2.54,13.68-2.54s9.32.86,12.77,2.57c3.45,1.71,5.95,4.12,7.5,7.21,1.55,3.1,2,6.7,1.34,10.8h-15.13Z"/><path class="cls-3" d="m545.73,217.38l2.17-12.83h55.24l-2.17,12.83h-19.82l-8.68,52.53h-15.57l8.68-52.53h-19.85Z"/><path class="cls-3" d="m664.01,238.26c-1.19,7.04-3.53,12.98-7,17.82-3.48,4.84-7.7,8.51-12.67,10.99-4.97,2.49-10.3,3.73-16,3.73-6.02,0-11.23-1.35-15.64-4.04-4.4-2.69-7.6-6.59-9.59-11.7-1.99-5.11-2.38-11.33-1.17-18.67,1.15-7.02,3.46-12.97,6.94-17.86,3.48-4.88,7.72-8.58,12.73-11.11,5.01-2.52,10.38-3.78,16.1-3.78s11.19,1.35,15.57,4.05c4.38,2.7,7.57,6.63,9.56,11.79,1.99,5.16,2.38,11.41,1.16,18.75Zm-15.83-1.85c.66-4.08.67-7.54.02-10.36-.65-2.82-1.9-4.95-3.77-6.38s-4.29-2.15-7.29-2.15c-3.32,0-6.31.81-8.98,2.44-2.67,1.63-4.9,3.99-6.69,7.08s-3.03,6.84-3.73,11.22c-.75,4.13-.77,7.58-.06,10.36.7,2.78,2.01,4.86,3.93,6.26,1.92,1.39,4.34,2.09,7.28,2.09,3.32,0,6.29-.8,8.92-2.39,2.63-1.6,4.83-3.93,6.62-6.99,1.79-3.06,3.04-6.79,3.77-11.17Z"/><path class="cls-3" d="m667.93,269.92l10.85-65.36h27c4.89,0,8.97.88,12.24,2.63,3.27,1.76,5.6,4.27,6.99,7.53,1.39,3.27,1.72,7.13.97,11.6-.72,4.53-2.34,8.37-4.85,11.52-2.51,3.15-5.72,5.55-9.64,7.21-3.92,1.66-8.36,2.49-13.34,2.49h-17.07l2.11-12.45h14.14c2.38,0,4.43-.31,6.14-.94,1.71-.63,3.08-1.58,4.12-2.86,1.03-1.28,1.71-2.94,2.03-4.98.34-2.02.21-3.7-.4-5.03-.61-1.33-1.66-2.33-3.16-3-1.5-.67-3.42-1-5.76-1h-7.79l-8.78,52.63h-15.8Zm41.74-29.87l11.33,29.87h-17.23l-11.01-29.87h16.91Z"/><path class="cls-3" d="m728.12,269.92l10.85-65.36h45.57l-2.17,12.83h-29.78l-2.17,13.4h27.45l-2.17,12.86h-27.45l-2.17,13.44h29.78l-2.17,12.83h-45.57Z"/><path class="cls-6" d="m330.11,565.89c1.4,0,17.01,3.74,21.4,11.49s6.27,36.05,6.27,36.05c0,0,1.26,19.92-1.46,29.47s-11.67,56.53-14.93,66.06c-4.24,12.23-10.26,32.41-10.26,32.41l-51.42-36.44,50.4-139.04Z"/><path class="cls-9" d="m346.44,521.74c-2.23,4.8-1.5,10.43-.21,15.55s3.17,10.2,3.14,15.48c-.06,7.78-2.02,18.38-17.76,13.37-9.59-3.06-.77,25.39-5.95,34.01-.91,1.77-2.17,3.33-3.71,4.59-3.87,2.76-9.19,1.15-13.62-.53-1.42-.54-3.03-1.3-3.35-2.78-.11-.78-.01-1.57.28-2.3l23.5-77.97"/><path class="cls-4" d="m319.69,582.46c9.03-2.12,11.8-6.62,11.91-14.55l.14-10.1s9.98-.52,12.31-15.39c1.47-9.69,1.98-19.5,1.52-29.29-.59-8.91-9.85-24.65-18.73-23.68l-24.41,11.9c-2.7.29-4.73,2.59-4.66,5.31h0l1.9,57.67"/><path class="cls-9" d="m339.86,523.47c0,1.03-.81,1.89-1.84,1.93-1.01.08-1.89-.66-1.97-1.67,0-.01,0-.03,0-.04,0-1.03.81-1.89,1.84-1.93,1.01-.08,1.9.68,1.97,1.69,0,0,0,.01,0,.02Z"/><path class="cls-9" d="m342.94,520.02c-.17.32-1.85-.54-3.86-.1s-3.22,1.88-3.45,1.65,0-.64.51-1.3c.7-.84,1.65-1.42,2.72-1.65,1.07-.23,2.18-.08,3.15.41.69.33,1.01.78.93.99Z"/><path class="cls-9" d="m320.15,523.26c.01,1.03-.8,1.89-1.83,1.93-1.01.08-1.9-.68-1.97-1.69,0-.01,0-.02,0-.03,0-1.03.81-1.89,1.84-1.93,1.01-.08,1.88.67,1.96,1.68,0,.01,0,.03,0,.04Z"/><path class="cls-9" d="m322.61,522.08c-.32.2-1.5-1.41-3.64-2.02s-4.04,0-4.19-.3c-.08-.16.31-.57,1.15-.9,1.11-.4,2.32-.44,3.45-.1,1.12.33,2.11,1.01,2.8,1.95.51.72.59,1.27.44,1.37Z"/><path class="cls-9" d="m330.26,535.1c1.08-.35,2.21-.55,3.34-.61.52,0,1.01-.16,1.15-.52.04-.54-.08-1.09-.36-1.56-.49-1.26-1.01-2.6-1.56-3.99-2.16-5.67-3.73-10.34-3.5-10.43s2.17,4.44,4.34,10.13l1.49,4.01c.33.63.43,1.36.28,2.06-.15.38-.47.66-.86.77-.29.08-.59.12-.88.13-1.14.15-2.29.15-3.43.01Z"/><path class="cls-2" d="m331.72,557.92c-7,.12-13.9-1.7-19.93-5.27,0,0,4.98,10.62,19.87,9.19l.06-3.92Z"/><path class="cls-2" d="m329.94,540.09c-.86-1.42-2.32-2.38-3.96-2.61-.96-.08-1.86.43-2.3,1.29-.46,1.13-.34,2.42.33,3.45.65,1.07,1.87,1.65,3.11,1.47,1-.29,1.89-.87,2.56-1.67.24-.2.42-.46.53-.75.1-.36.04-.75-.17-1.07"/><path class="cls-9" d="m324.23,536.53c.33,0,.34,2.22,2.3,3.79s4.28,1.32,4.3,1.63-.53.44-1.53.47c-1.3.02-2.57-.42-3.58-1.24-.97-.79-1.6-1.93-1.75-3.18-.14-.93.11-1.48.26-1.47Z"/><path class="cls-9" d="m324.4,512.6c-.25.54-2.3.08-4.7.13s-4.42.52-4.7,0c-.11-.25.28-.75,1.15-1.15,2.24-1.12,4.88-1.15,7.14-.08.82.37,1.22.85,1.1,1.1Z"/><path class="cls-9" d="m343.57,515.43c-.46.46-2.21,0-4.32,0s-3.91.3-4.32-.18c-.17-.24.1-.7.88-1.15,2.21-1.08,4.81-1.01,6.96.18.75.47.99.95.79,1.15Z"/><path class="cls-9" d="m266,570.19c3.24-5.25,13.71-17.81,17.42-26.42,2.64-6.18,4.59-27.84,10.27-38.99,5.67-11.15,12.28-15.67,18.8-17.41,5.02-1.51,10.47-.28,14.35,3.25,2.94,2.63,3.94,10.34,3.94,10.34,0,0-15.71,3.5-21.01,12.46-6.08,10.34-7.56,15.47-7.56,15.47l-1.96,5.64s1.84,10.9,2.52,16.29-.4,10.34-4.84,12.63l-8.92,6.31s4.85,52.11,4.31,52.52c-1.33,1.01-12.5-1.24-22.59-3.55-1.96-.46-3.03-18.85-3.03-18.85l-2.95,17.23-7.59-1.72s2.22-34.49,8.86-45.2Z"/><path class="cls-9" d="m330.49,500.93c5.96-.37,11.38,3.45,13.05,9.19,1.5,4.59,2.64,17.85,2.64,17.85,0,0,1.32-10.53.84-16.54s-3.45-13.61-8.04-17.81-8.26-6.02-16.26-5.54c2.09,1.04,3.89,2.59,5.24,4.49.96,1.54,1.22,2.65,2.54,8.36Z"/><path class="cls-4" d="m302.33,529.59c-.11-2.5-2.22-4.43-4.71-4.33-.66.03-1.3.2-1.89.5-1.56.91-2.77,2.73-2.62,6.23.38,9.31,9.66,7.01,9.66,6.74s-.25-5.29-.44-9.14Z"/><path class="cls-2" d="m299.78,535.3s-.16.11-.42.25c-.38.18-.82.21-1.22.08-1-.32-1.9-1.85-2.01-3.53-.05-.78.08-1.57.37-2.3.15-.6.58-1.08,1.15-1.3.38-.12.79.05.98.4.14.25.09.45.14.46s.2-.16.1-.55c-.06-.23-.2-.42-.39-.56-.26-.19-.59-.26-.91-.2-.77.19-1.38.76-1.63,1.5-.37.82-.53,1.72-.46,2.62.14,1.88,1.15,3.59,2.53,3.93.52.13,1.06.02,1.48-.31.29-.29.33-.49.3-.51Z"/><path class="cls-9" d="m297.46,499.42c-5.77,8.08-9.68,17.34-11.43,27.12-1.15,6.12-1.47,12.74-5.18,17.73-1.95,2.63-4.74,4.59-6.18,7.58-1.56,3.19-1.33,7.1-3.17,10.15-2,3.32-5.97,4.89-8.57,7.76-4.9,5.42-3.81,13.78-5.81,20.8-1.3,4.49-3.9,8.49-7.49,11.49-1.22,1.02-2.71,2.35-2.3,3.88.4.89,1.13,1.58,2.04,1.92,2.81,1.45,5.41,6.89,8.52,7.53.64-16.75,8.77-36.86,17.58-51.11,5.03-8.14,10.59-16.27,12.58-25.62,1.3-6.17.99-12.54,1.68-18.81s2.61-12.77,7.34-16.93"/><path class="cls-9" d="m294.66,541.25c-.11.14-.96-.26-2.09-1.5-2.66-3.23-3.45-7.6-2.08-11.55.66-1.8,1.63-3.47,2.86-4.94,1.31-1.54,2.73-2.98,4.26-4.31,1.6-1.42,3.26-2.76,5-4.02,3.34-2.44,6.9-4.55,10.64-6.32,3.45-1.63,6.64-2.68,9.11-3.87,1.96-.86,3.77-2.02,5.36-3.45,1.15-1.02,1.64-1.72,1.84-1.62s0,1-.96,2.39c-1.4,1.89-3.19,3.46-5.25,4.59-2.5,1.5-5.66,2.79-8.88,4.47-3.51,1.84-6.89,3.93-10.1,6.26-1.7,1.24-3.31,2.53-4.82,3.81-1.45,1.2-2.81,2.5-4.08,3.88-1.1,1.2-2,2.56-2.66,4.04-.53,1.28-.81,2.65-.82,4.03.02,2.09.55,4.14,1.54,5.97.74,1.26,1.3,1.95,1.14,2.12Z"/><path class="cls-8" d="m298.41,541.66c-.16-.05-.32-.12-.46-.22-.43-.22-.85-.49-1.23-.79-1.41-1.12-2.53-2.56-3.27-4.2-1.17-2.45-1.45-5.22-.8-7.86,1-3.14,2.95-5.89,5.58-7.88,2.53-2.01,5.18-3.86,7.94-5.55,2.53-1.57,4.85-2.91,6.82-3.97s3.59-1.87,4.73-2.41c.57-.26,1.01-.47,1.32-.6.15-.08.32-.13.48-.17-.54.37-1.11.69-1.7.98-1.09.6-2.69,1.46-4.59,2.57s-4.24,2.48-6.73,4.08c-2.71,1.7-5.32,3.55-7.83,5.54-2.55,1.91-4.45,4.55-5.43,7.58-.65,2.51-.42,5.16.64,7.52.7,1.61,1.73,3.04,3.04,4.2.95.8,1.57,1.13,1.49,1.18Z"/><path class="cls-8" d="m316.95,486.71c1.02-.19,2.07-.12,3.06.21,2.42.63,4.66,1.81,6.55,3.45,1.89,1.67,3.22,3.89,3.8,6.34.17.73.26,1.48.28,2.23.03.28,0,.56-.08.83-.1,0-.09-1.15-.61-2.95-.67-2.31-1.98-4.39-3.78-6-1.84-1.55-3.97-2.72-6.27-3.45-.97-.27-1.95-.49-2.94-.65Z"/><polygon class="cls-4" points="256.84 942.37 263.38 914.05 240.38 910.2 240.38 930.91 246.78 940.34 256.84 942.37"/><path class="cls-6" d="m258.97,941.02l-.78,1.23s15.47,21.56,13.19,25.64l-41.12-26.42,9.36-13.32c4.28,6.89,11.34,11.59,19.35,12.88Z"/><g class="cls-10"><path class="cls-3" d="m240.98,935.16c-.98-.28-2,.22-2.4,1.15-.31.97.19,2.02,1.15,2.38,1.04.29,2.14-.25,2.54-1.25.19-1.03-.45-2.03-1.46-2.3"/></g><g class="cls-10"><path class="cls-3" d="m230.25,941.43l2.3-3.2,38.58,26.53s1.32,1.98.29,3.12l-41.16-26.45Z"/></g><path class="cls-9" d="m258.21,942.45c-.13.2-1.15-.36-2.6-.36s-2.47.52-2.61.32.92-1.15,2.61-1.15,2.81,1.02,2.6,1.18Z"/><path class="cls-9" d="m261.43,947.01c-.08.22-1.15,0-2.4.41s-2,1.15-2.19,1.05.41-1.36,1.94-1.84,2.77.18,2.65.38Z"/><path class="cls-9" d="m260.51,953.74c-.21-.07.16-1.25,1.38-2.02s2.45-.6,2.42-.38-.99.44-1.98,1.08-1.56,1.44-1.83,1.32Z"/><polygon class="cls-4" points="200.38 763.18 220.99 765.95 213.06 788.68 190.95 781.07 189.7 772.68 200.38 763.18"/><path class="cls-6" d="m193.13,782.61l-1.25-.52s-17.43,17.4-21.51,15.87l18.08-41.65,13.61,6.59c-5.7,4.95-8.96,12.14-8.92,19.7Z"/><g class="cls-10"><path class="cls-3" d="m195.8,765.25c.1-.94-.52-1.81-1.44-2.02-.95-.13-1.83.5-2.01,1.44-.09.99.57,1.89,1.54,2.1.91.06,2.01-.78,1.93-1.69"/></g><g class="cls-10"><path class="cls-3" d="m188.45,756.37l3.27,1.58-18.5,39.33s-1.62,1.5-2.83.74l18.06-41.65Z"/></g><path class="cls-9" d="m191.71,782.19c-.21-.09.15-1.15-.07-2.43s-.85-2.19-.69-2.3,1.15.67,1.45,2.22-.53,2.64-.69,2.52Z"/><path class="cls-9" d="m188,785.77c-.21,0-.17-1.07-.74-2.14s-1.38-1.65-1.29-1.86,1.3.17,1.98,1.52.2,2.56.05,2.48Z"/><path class="cls-9" d="m181.71,785.98c0-.21,1.15,0,2.06.96s.92,2.15.71,2.16-.55-.84-1.29-1.65-1.55-1.25-1.48-1.47Z"/><path class="cls-9" d="m313.66,741.38c-1.83.9-24.85,89.67-32.1,93.33l-14.68,72.17c.95,1.36,1.31,3.04,1.01,4.67-.33,3.17-1.68,3.68-1.68,3.68,0,0-21.19,2.68-29.7-3.5,0,0,1-6.34,1.5-6.89s2.5-57.75,7.67-71.09c5.17-13.35,12.01-55.58,11.35-64.09s-3-28.37-2.5-34.71c.43-4.32,1.33-8.57,2.68-12.69l56.45,19.12Z"/><path class="cls-9" d="m322.8,744.96s-7.81,53.52-14.55,62.23-15.91,8.94-18.09,9.3-81.55-28.97-81.55-28.97c0,0-1.24-21.6,1.36-24.83,0,0,7.09.32,8.71,2.58l41.27,5.74,15.15-46.1,47.71,20.04Z"/><path class="cls-8" d="m309.26,744.87c-.03.31-.09.62-.17.92-.15.65-.36,1.53-.61,2.62-.56,2.3-1.36,5.59-2.3,9.61l-7.9,31.63c-3.07,12.36-6.26,23.49-9.41,31.24-1.54,3.88-2.96,6.96-4.02,9.04-.52,1.05-.98,1.84-1.26,2.38-.13.28-.3.55-.48.8.11-.3.23-.58.38-.86.25-.56.68-1.37,1.15-2.42,1-2.11,2.3-5.2,3.85-9.08,3.03-7.78,6.16-18.87,9.19-31.24l8.04-31.58c1.05-4,1.91-7.25,2.52-9.57.3-1.08.53-1.94.71-2.58.08-.31.19-.61.32-.9Z"/><path class="cls-8" d="m254.67,733.56s0,.29-.08.8c-.06.76-.09,1.53-.07,2.3,0,2.02.22,4.93.53,8.53s.75,7.89,1.15,12.63,1.15,9.98,1.15,15.52c.14,11.13-2.38,20.94-3.89,27.97-.76,3.45-1.39,6.32-1.83,8.35l-.49,2.3c-.05.27-.12.54-.22.79,0-.27.03-.54.09-.8.1-.59.23-1.36.39-2.3.34-2,.91-4.87,1.64-8.41,1.41-7.06,3.85-16.84,3.71-27.86,0-5.5-.79-10.7-1.15-15.47s-.76-9.03-1.07-12.63-.39-6.54-.33-8.56c0-.77.06-1.54.17-2.3.06-.3.16-.59.3-.86Z"/><path class="cls-8" d="m217.84,764.96c.08,0-.38,1.37-1,3.55-1.64,5.68-2.49,11.55-2.52,17.46.06,1.22.06,2.45,0,3.68-.11-.32-.17-.64-.18-.98-.08-.63-.15-1.56-.2-2.7-.21-5.97.65-11.92,2.54-17.58.37-1.08.69-1.95.95-2.53s.36-.91.4-.9Z"/><path class="cls-8" d="m196.44,784.73c0,.17-.1.3-.23.3s-.22-.13-.22-.3.1-.3.22-.3c.14.02.24.15.23.3Z"/><path class="cls-8" d="m238.55,903.76c1.4.13,2.8.32,4.18.6,2.57.4,6.14.92,10.1,1.32s7.55.61,10.15.72c1.41,0,2.82.09,4.22.25-.38.09-.76.13-1.15.11h-3.09c-2.62,0-6.24-.16-10.2-.56s-7.55-.98-10.11-1.49c-1.29-.25-2.3-.48-3.02-.67-.37-.04-.74-.14-1.08-.29Z"/><path class="cls-6" d="m320.94,749.43c.25-.16,15.08,0,15.08,0,0,0,11.09-54.07,12.42-70.65,1.32-16.57-27.06,7.68-27.06,7.68l-.44,62.96Z"/><path class="cls-6" d="m300.92,560.98s14.4,0,22.87,18.82c0,0,25.52,44.49,26.11,63.49,0,0-.3,28.19-5.04,44.79s-18.38,60.64-18.38,60.64c0,0-42.71-3.68-51.32-9.91s-27.56-5.34-27.56-5.34c0,0,11.58-35.31,25.82-56.66s8.6-59.35,8.6-59.35c0,0-4.04-56.32,18.9-56.5Z"/><path class="cls-6" d="m331.56,569.08c.09-1.61,15.83,23.07,19.93,49.11,1.48,9.36-2.01,21.06-2.01,21.06l-29.52-66.28s10.82,10.62,11.6-3.89Z"/><path class="cls-6" d="m300.77,563.73c4.03,0,14.38,7.84,14.93,28.02.55,19.62-.72,55.13-.72,55.13l16.33,73.51c.48.72-15.87,9.37-23.1,7.52,0,0-18.81-66.36-20.42-74.55s-5.1-46.27-3.76-54.87-.71-34.73,16.73-34.77Z"/><path class="cls-9" d="m284.3,596.56v2.69c0,1.77.08,4.36.24,7.73.31,6.72.96,16.44,1.92,28.5.25,3.01.51,6.16.78,9.46.15,1.64.29,3.32.44,5.03,0,.44.08.86.11,1.3l.06.64.14.62c.16.84.4,1.7.61,2.56,1.77,6.89,3.8,14.26,5.93,22.03l14.05,50.69-.25-.22c2.9.23,5.82-.04,8.63-.79,5.1-1.38,9.93-3.63,14.26-6.66l-.11.3c-6.1-27.56-11.66-52.52-16.08-72.48h0c.69-16.18,1.24-29.38,1.63-38.55.21-4.59.37-8.12.48-10.56.06-1.19.11-2.11.14-2.76,0-.62.08-.94.08-.94v.94c0,.62,0,1.56-.07,2.76-.08,2.45-.21,6.01-.36,10.57-.34,9.19-.83,22.36-1.42,38.56v-.07l16.22,72.46v.2l-.15.1c-4.39,3.08-9.29,5.37-14.47,6.76-2.88.77-5.86,1.05-8.83.82h-.21l-.06-.2c-4.98-18.07-9.72-35.19-14-50.71-2.1-7.76-4.11-15.13-5.87-22.05-.21-.86-.44-1.71-.61-2.6l-.14-.65-.06-.65-.1-1.29c-.15-1.71-.29-3.45-.42-5.04-.25-3.3-.51-6.45-.74-9.48-.91-12.05-1.5-21.82-1.75-28.51-.13-3.37-.15-5.97-.13-7.74,0-.88.07-1.56.09-2.01s.02-.76.02-.76Z"/><path class="cls-4" d="m343.52,732.5c-.04-.35-.12-.7-.22-1.03v-.06h0c-.25-.79-.64-1.53-1.15-2.19-2.18-2.81-13.17-7.24-13.78-6.96l-10.34,4.53s.28.32,2.06,3.01c.23.42.62.74,1.08.86h0s14.93,1.54,16.78,3.58-1.79,7.52-1.79,7.52c-.73,1.23-1.21,2.59-1.42,4.01-.14.49-.03,1.01.31,1.39.54.44,1.31,0,1.85-.44l5.03-4.02c.74-.5,1.36-1.15,1.84-1.91.32-.66.52-1.38.57-2.11.1-2.09-.17-4.19-.82-6.18Z"/><circle class="cls-9" cx="498.16" cy="955.01" r="13.3"/><circle class="cls-7" cx="498.16" cy="955.01" r="7.25"/><path class="cls-8" d="m521.13,933.39v8.88l-20.67,16.62c-.95.68-2.03,1.15-3.18,1.37-1.53.16-2.96-.7-2.96-2.99,0-4.32,5.39-16.93,5.39-16.93h4.32v-6.89l17.11-.06Z"/><path class="cls-9" d="m497,956.17c-.06,0-.26-.52.32-1.09.37-.31.87-.4,1.32-.25.58.2.97.73.98,1.34,0,.61-.4,1.15-.98,1.36-.46.15-.96.05-1.32-.26-.59-.56-.38-1.15-.32-1.09s.1.45.59.76c.26.16.59.19.87.08.34-.14.56-.47.55-.84,0-.36-.22-.69-.55-.83-.29-.12-.61-.09-.87.08-.48.3-.48.77-.59.75Z"/><path class="cls-9" d="m499.75,940.39c1.04-.17,2.09-.23,3.14-.18,1.94,0,4.59,0,7.57.06l7.56.24c1.05-.02,2.09.06,3.12.23-1.04.17-2.09.24-3.14.2-1.93,0-4.59,0-7.57-.07l-7.55-.24c-1.05.03-2.1-.05-3.14-.23Z"/><circle class="cls-9" cx="336.84" cy="955.15" r="13.3"/><circle class="cls-7" cx="336.84" cy="955.15" r="7.25"/><path class="cls-8" d="m359.82,930.99v11.42l-20.67,16.62c-.95.68-2.03,1.15-3.18,1.37-1.54.16-2.97-.7-2.97-2.99,0-4.32,5.4-16.93,5.4-16.93h4.31v-9.49h17.12Z"/><path class="cls-9" d="m335.68,956.31s-.25-.52.33-1.09c.36-.31.87-.41,1.32-.25.74.24,1.15,1.04.91,1.78-.14.43-.48.77-.91.91-.45.16-.96.06-1.32-.25-.59-.57-.39-1.15-.33-1.09s.11.45.59.76c.26.16.59.19.87.07.46-.17.69-.68.51-1.14-.09-.24-.28-.42-.51-.51-.29-.12-.61-.09-.87.07-.47.31-.49.77-.59.76Z"/><path class="cls-9" d="m338.44,940.48c1.04-.17,2.09-.24,3.14-.2,1.93,0,4.59,0,7.56.07l7.56.24c1.05-.03,2.1.05,3.14.23-1.04.17-2.09.24-3.14.2-1.94,0-4.59,0-7.57-.07l-7.56-.24c-1.05.02-2.09-.06-3.12-.23Z"/><path class="cls-8" d="m400.15,871.33c-3.98,0-7.52-2.54-8.81-6.31l-38.82-113.82,205.92,33.31-4.72,69.51c-.29,4.31-3.73,7.75-8.04,8.04l-144.93,9.3-.6-.03Zm-44.22-117.24l37.58,110.2c1.03,2.99,3.93,4.93,7.09,4.73l144.93-9.31c3.15-.21,5.67-2.72,5.89-5.87l4.59-67.42-200.09-32.33Z"/><polygon class="cls-8" points="361.87 778.01 353.25 771.44 344.74 746.69 337.29 742.37 338.44 740.38 346.64 745.14 355.19 770.04 363.26 776.18 361.87 778.01"/><rect class="cls-8" x="457.66" y="688.77" width="2.3" height="196.62" transform="translate(-383.31 1134.68) rotate(-82.19)"/><rect class="cls-8" x="463.15" y="721.08" width="2.3" height="183.24" transform="translate(-374.43 1228.13) rotate(-86.61)"/><rect class="cls-8" x="384.2" y="837.23" width="169.4" height="2.3" transform="translate(-21.93 12.65) rotate(-1.51)"/><rect class="cls-8" x="391.55" y="856.25" width="161.13" height="2.3" transform="translate(-40.88 23.82) rotate(-2.77)"/><path class="cls-8" d="m538.34,859.99l-2.3-.2c2.15-25.65,3.59-51.68,4.27-77.42l2.3.07c-.71,25.7-2.11,51.8-4.27,77.55Z"/><path class="cls-8" d="m525.13,861.28h-2.3c0-.54.39-54.48,1.07-80.05l2.3.07c-.68,25.53-1.07,79.43-1.07,79.98Z"/><rect class="cls-8" x="508.28" y="777.02" width="2.3" height="84.51" transform="translate(-21.41 13.71) rotate(-1.51)"/><rect class="cls-8" x="491.05" y="776.84" width="2.3" height="89.14" transform="translate(-56.16 36.38) rotate(-4)"/><rect class="cls-8" x="471.45" y="769.93" width="2.3" height="95.04" transform="translate(-104.61 70.19) rotate(-7.65)"/><rect class="cls-8" x="449.31" y="764.87" width="2.3" height="101.96" transform="translate(-142.14 96.58) rotate(-10.58)"/><rect class="cls-8" x="423.53" y="760.22" width="2.3" height="108.59" transform="translate(-187.07 129.28) rotate(-14.22)"/><rect class="cls-8" x="392.18" y="752.8" width="2.3" height="124.44" transform="translate(-232.72 161.54) rotate(-18.01)"/><path class="cls-8" d="m528.17,935.46h-.06l-187.82-3.11c-.76-.01-1.49-.33-2.02-.88-.53-.56-.82-1.3-.8-2.07.09-3.37.57-20.35,1.88-24.12.46-1.33,1.24-3.56,32.43-18.85,3.09-1.53,30.34-14.84,34.11-15.05s38.53-1.7,40-1.76c1.59-.07,2.93,1.16,2.99,2.75.07,1.59-1.16,2.93-2.75,2.99-.36,0-35.46,1.5-39.82,1.73-4.93,1.06-56.28,25.73-61.67,30.47-.56,2.43-1.15,10.89-1.37,19.04l184.92,3.02c1.59,0,2.87,1.29,2.87,2.87s-1.29,2.87-2.87,2.87l-.03.08Z"/><path class="cls-8" d="m445.35,930.67l-23.86-.62c-4.5-.22-7.87-1.56-10.04-3.97s-2.97-5.43-2.75-9.37c.25-3.66,1.44-7.19,3.45-10.27l23.07-34.12,1.91,1.29-23.06,34.11c-1.81,2.72-2.88,5.87-3.11,9.13-.2,3.3.53,5.89,2.16,7.71s4.59,3.02,8.41,3.2l23.82.59v2.33Z"/><path class="cls-8" d="m438.73,873.44c-19.22-34.63-69.66-125.12-72.19-128-1.53-1.37-13.78-5.74-21.2-8.1l.71-2.18c2,.65,19.61,6.41,22.06,8.6s60.87,107.47,72.62,128.56l-2.01,1.13Z"/><path class="cls-8" d="m350.64,736.93l-12.63,7.68s-14.62-6.62-15.84-8.18-1.56-7.39,3.45-8.48,25.03,8.97,25.03,8.97Z"/><path class="cls-9" d="m326.31,733.12s-.1-.22,0-.61c.1-.58.41-1.09.86-1.46.69-.57,1.63-.74,2.48-.44,1.38.47,2.13,1.96,1.66,3.35-.26.78-.88,1.4-1.66,1.66-.85.3-1.79.13-2.48-.44-.46-.36-.76-.88-.86-1.46-.06-.39,0-.61,0-.61l.18.55c.16.47.47.87.88,1.15.6.42,1.36.51,2.04.25,1.1-.42,1.65-1.64,1.23-2.74-.22-.57-.66-1.02-1.23-1.23-.68-.27-1.45-.17-2.04.25-.41.28-.72.68-.88,1.15-.11.4-.14.62-.18.62Z"/><path class="cls-9" d="m340.35,931.89c0-.16,41.97.37,93.72,1.15s93.73,1.63,93.73,1.79-41.96-.37-93.73-1.15c-51.78-.78-93.73-1.63-93.72-1.79Z"/></svg>